<svg xmlns="http://www.w3.org/2000/svg" width="691.2" height="118.8" viewBox="0 0 691.2 118.8" fill="#FFFFFF"><path d="M428.6 62.4v-.3c0-19.3 14.8-35.2 35.5-35.2 12.8 0 20.7 4.3 27 11.4l-11.7 12.6c-4.3-4.5-8.6-7.4-15.4-7.4-9.6 0-16.4 8.5-16.4 18.4v.3c0 10.4 6.7 18.7 17.2 18.7 6.4 0 10.9-2.8 15.5-7.2L491.5 85c-6.6 7.2-14.1 12.4-27.6 12.4-20.4 0-35.3-15.7-35.3-35zM511.6 28.2h19.2v9.6c4.4-5.7 10.2-10.9 19.9-10.9 8.8 0 15.5 3.9 19.1 10.7 5.9-6.9 13-10.7 22.2-10.7 14.3 0 22.8 8.6 22.8 24.9v44.1h-19.2V58.1c0-9.1-4-13.8-11.2-13.8-7.2 0-11.6 4.7-11.6 13.8v37.7h-19.2V58.1c0-9.1-4-13.8-11.2-13.8-7.2 0-11.6 4.7-11.6 13.8v37.7h-19.2V28.2zM636.3 86.9l8.2-12.6c7.3 5.3 15 8.1 21.3 8.1 5.6 0 8.1-2 8.1-5v-.3c0-4.2-6.6-5.6-14-7.8-9.5-2.8-20.2-7.2-20.2-20.3v-.3c0-13.8 11.1-21.5 24.7-21.5 8.6 0 17.9 2.9 25.2 7.8l-7.3 13.3c-6.7-3.9-13.4-6.3-18.3-6.3-4.7 0-7.1 2-7.1 4.7v.3c0 3.8 6.4 5.6 13.8 8.1 9.5 3.2 20.5 7.7 20.5 20.1v.3c0 15-11.2 21.8-25.9 21.8-9.5-.2-20.1-3.3-29-10.4zM59.3.1C26.6.1 0 26.7 0 59.5s26.6 59.3 59.3 59.3c32.8 0 59.3-26.6 59.3-59.3C118.7 26.7 92.1.1 59.3.1zm21.5 79.4C73.2 89 63.3 90.8 55.3 90.3c-10.4-.7-21.6-10-22-19.8-.3-7.7 3.6-18.5 18.3-19.9 3.7-.3 7.9.8 8.6 4.7.7 4-3 6.1-5 6.3-7 .5-9.7 4.2-8.9 8.9.7 4.5 5.9 6.6 10.7 6.7 4.5.1 11.6-1.9 15.2-7.3 6.8-10.4 3.1-19.4-.8-23.8-5.5-6.1-13-9.8-25.8-3.8-3 1.4-6.1 1.2-8.5-.7-1.4-1.1-2.3-3.7-1.7-5.9.5-1.9 1.5-3.6 4.7-5.4 16.1-8.9 31.6-2.9 39.8 6.1 9.1 9.8 13.3 27.7.9 43.1zM257 65.6v-.2c0-16.3 12.7-30.5 30.1-30.5 17.3 0 29.8 13.9 29.8 30.3v.2c0 16.3-12.7 30.5-30.1 30.5-17.2 0-29.8-14-29.8-30.3zm53.8 0v-.2c0-14.1-10.5-25.3-24-25.3-13.8 0-23.8 11.3-23.8 25v.2c0 14.1 10.5 25.3 24 25.3 13.9 0 23.8-11.3 23.8-25zM233.7 4.5v-.4c0-1.7-1.3-3-3-3-1.6 0-3 1.3-3 3v90.4c0 1.7 1.3 3 3 3s3-1.3 3-3v-90zM388.7 70.7c-.1 5.1-9.3 12.1-18.8 12.2-10.7.1-23.7-7-23.9-22-.2-14 12.8-26.4 24.9-26.3 9.8.1 15.2 3.7 17.6 5.4 0 0 .5.4.8.6.3.2.9.4 1.4.4 1.7 0 3-1.3 3-3 0-1-.5-1.8-1.2-2.4 0 0-.7-.8-5.6-3.3-2.7-1.5-9-3.7-16.5-3.7-12.6-.1-30.2 12-30.2 32.8 0 19.2 18.3 27.4 29.7 27.3 12.5-.1 19-7.7 19-7.7s.2 10.9-.4 15.9c-.6 5.2-4.2 14.1-15.4 14.7-8.8.5-13.8-3.9-19.1-12.4-.5-.9-1.5-1.6-2.6-1.6-1.7 0-3 1.3-3 3 0 .3.1 1.2.4 1.8 0 0 7.1 16.2 24.7 15.5 12-.5 19.9-9 21.1-20.6.9-8.3.3-24.6.2-26.8 0-1.7-1.3-3-3-3s-3 1.3-3 3c-.1 0-.1 0-.1.2zM168.4 35.5h-.1-.4c-1.5.2-2.7 1.4-2.7 3 0 1.7 1.3 3 3 3h.9c18 0 29.3 10.3 29.3 23.5-.3 14.2-12.6 25.3-24.6 25.4-11.3.2-24.2-9.5-24.9-25.8-.3-7.5-.5-17.2-.5-17.2V3c0-1.7-1.3-3-3-3s-3 1.3-3 3v44.4s.4 14.8.5 17.3c.3 17.3 13.1 31.2 30.7 31.4 17.5-.3 30.3-14.2 30.3-31.1.2-16.1-12.8-29.5-35.5-29.5z"/></svg>
