<?xml version="1.0" encoding="utf-8"?>
<!-- Generator: Adobe Illustrator 18.0.0, SVG Export Plug-In . SVG Version: 6.00 Build 0)  -->
<!DOCTYPE svg PUBLIC "-//W3C//DTD SVG 1.1//EN" "http://www.w3.org/Graphics/SVG/1.1/DTD/svg11.dtd">
<svg version="1.1" id="レイヤー_1" xmlns="http://www.w3.org/2000/svg" xmlns:xlink="http://www.w3.org/1999/xlink" x="0px"
	 y="0px" viewBox="0 0 60 60" enable-background="new 0 0 60 60" xml:space="preserve">
<symbol  id="明るいベクトルパック_19" viewBox="-148.4 -79.4 296.8 158.8">
	<path fill="#221F20" d="M34.9-63c0-0.1,0-0.1,0-0.1C34.9-63.1,34.9-63.1,34.9-63z M39.4-64.5c1.2,2.8,3.2,4.1,5.7,3.6
		c3-0.6,5.7-3.5,5.7-6c0-0.8-0.3-1.5-0.8-2.2c-1.2-1.4-2.5-2.1-4-2.1c-2.7-0.1-5,2.2-5,2.2c-0.3,0.3-0.8,0.4-1.1,0.1
		c-0.3-0.2-0.4-0.5-0.4-0.8c0-0.1,0-0.2,0-0.3c2.1-6,7.4-7.4,11.6-6.7C56.4-75.9,62-71.6,62-65.4v0.1c-0.1,9-6.4,15.6-15,15.6
		c-6.2,0-10.2-3.9-11.9-6.1c-1.3,2.8-4.6,7.8-11.3,6.5C19.4-50.2,17-53.2,17-58c0-1.9,0.4-3.4,0.4-3.5c0.1-0.4,0.5-0.7,0.9-0.7
		c0.4,0,0.8,0.3,0.9,0.7c0.4,1.5,1.4,2.4,2.5,2.2c1.3-0.2,2.6-1.6,2.6-4.5c0-1.3-0.7-2.3-2-2.9c-3.8-1.8-12-0.3-18,4.7
		c-5,4.2-8,10.7-8,17.6c0,4.1,1.1,8,3.1,11.3c5.5,8.9,13.3,7,13.7,6.9c0.4-0.1,0.7,0,1,0.3c0.1,0.2,0.2,0.4,0.2,0.6
		c0,0.1,0,0.3-0.1,0.4c-0.2,0.3-0.3,1-0.3,2.2c0,4.1,2.1,10.4,7.8,15.1c6,4.8,18.2,9.5,42.1,4.3c25.3-5.5,46.5-18.4,59.8-28.3
		c14.5-10.7,23-20.2,23.1-20.3c0.3-0.4,0.9-0.4,1.3-0.1c0.2,0.2,0.3,0.4,0.3,0.6c0.1,0.1,0.1,0.3,0.1,0.5c0,0.1,0,0.3-0.1,0.4
		C142-37.7,108,26.6,60.7,50c-25.6,12.7-52,19.6-78.6,20.7c-24.7,1-48.9-3.5-70-12.9c-6.3-2.8-12-3.1-15.5-0.8
		c-1.8,1.2-2.8,2.9-2.8,4.8c0,0.8,0.2,1.6,0.5,2.4c1.1,2.6,3.1,2.7,4.3,2.4c2-0.4,4.2-2.2,4.2-4.4c0-0.6-0.2-1.2-0.6-1.8
		c-0.1-0.1-0.1-0.3-0.1-0.5c0-0.2,0.1-0.5,0.3-0.6c0.3-0.3,0.8-0.4,1.1-0.1c0.1,0.1,3.5,2.2,3.5,6.5c0,2.8-1.4,5.8-4.2,9
		c-3.9,4.5-10.2,5.8-16.3,3.5c-7.3-2.8-12.1-9.9-12.1-18.1c0-13.9,10.3-17.5,14.1-18.3c-0.7-1.4-1.8-3.8-1.8-6.2
		c0-2.3,0.8-4.1,2.4-5.5c2.1-1.8,3.3-3.8,3.3-5.6c0-1.4-0.7-2.6-2-3.3c-0.3-0.2-0.5-0.5-0.5-0.8c0,0,0,0,0-0.1
		c0-0.4,0.3-0.7,0.6-0.8c0.3-0.1,6.8-2.4,12.2,0.3c1.7,0.9,3.2,2.2,4.2,3.9c0.4-3.1,1.5-7.7,3.8-12.5c3.7-7.5,11.4-16.6,27.3-17.7
		C-50.6-7.2-44.4-3.9-41.3-1c3.1,2.9,4.8,6.8,4.8,11c0,3.1-0.9,6-2.7,8.3c-1.8,2.4-4.4,3.7-7.2,3.7c0,0-0.1,0-0.1,0
		c-5.6-0.7-7.1-5.2-7.1-7.5c0-0.3,0.2-0.6,0.4-0.8c0.3-0.2,0.6-0.2,0.9,0c0.4,0.2,4.2,1.9,6-1.6c0.4-0.7,0.6-1.5,0.6-2.2
		c0-1.5-0.9-3-2.6-4.2c-2.8-2-8-3.1-13.2-1.2c-5.8,2.1-10,9.3-10,17c0,11,8,20.5,22.1,26.2c16.7,6.3,26,8,30.6,8.3
		c-2.7-1.7-5.9-4.8-5.9-10.5c0-11.5,14.5-11.8,14.7-11.8c0.4,0,0.8,0.3,0.9,0.6c0,0.1,0,0.2,0,0.3c0,0.3-0.1,0.6-0.4,0.7
		c0,0-3.9,2.8-3.9,6.7c0,1.3,0.6,2.6,1.8,3.7c2,1.9,7.6,4.9,22.1,3.8C36,47.8,98.9,35.4,138.4-38.7c-9.7,10.5-26.7,25.2-54.8,38.2
		c-5,2.3-10.3,4.1-15.6,5.5c1.1,1.6,2.5,4.2,4,8.1c0.5,1.2,0.7,2.5,0.7,3.7c0,6.7-6,13.4-13,13.4c-1.3,0-2.6-0.2-3.9-0.7
		c-5.2-1.9-7.1-5.6-7.1-9.1c0-3.1,1.5-6,3.6-7.4l0.6-0.4l0.1,0.8c0,0,0.1,1.1,0.6,2.1c0.5,1.1,1.3,2.1,2.8,2.2c0.1,0,0.2,0,0.3,0
		c2.7,0,4.7-2.5,4.7-4.8c0-1.3-0.6-2.5-2.3-3.2c-1.4-0.6-3.1-0.9-4.8-0.9c-3.8,0-7.7,1.6-9.7,5l-0.6,1l-0.3-1.1c0,0-0.1-0.4-0.1-0.9
		c0,0,0,0,0,0c0-1,0.3-2.8,1.7-4.7c-7.5,0.1-15.1-0.7-22.5-2.4C5.6,1.6-9.2-6.9-16.1-16.7c-15.1-23.4-42.8-29.4-58-30.9
		c-22.9-2.2-42.7,2.8-48.7,9c-1.6,1.6-2.4,3.1-2.4,4.6c0,1.8,1.2,3.5,3.3,4.6c2,1,4.2,1.2,5.3,0.4c1.4-0.9,2.1-2,2.1-3.2
		c0-1.7-1.5-3.2-1.5-3.2c-0.2-0.2-0.3-0.4-0.3-0.7c0-0.2,0-0.3,0.1-0.5c0.2-0.4,0.6-0.5,1.1-0.4c4.2,1.2,6.7,4.5,6.7,8.9
		c0,4.3-2.4,8.8-5.6,10.5c-4,2.1-7.9,1-10,0.1c-0.3,2.8-2.6,6.6-6.7,9.1c-2.6,1.6-3.2,4.7-3.2,7.1c0,1.8,0.3,3.1,0.4,3.4
		c0.1,0.2,0.1,0.5,0.1,0.8c0,1.7-1,3.8-2.5,4.4c-0.6,0.2-1.8,0.4-3-0.9c0,0,0,0,0-0.1c-6.2-7.9-9.3-15.7-9.3-23.3
		c0-11.2,7.1-21.5,20-28.9c12.3-7.1,28.8-11.2,46.6-11.6c24.1-0.5,41.2,5.7,51.4,10.9c6.5,3.4,11,6.8,13.6,9c-0.5-2-0.8-4.1-0.8-6.3
		c0-7.4,3.2-15.7,8.7-22.6c5.4-6.8,12.2-11.3,18.6-12.3C24.1-81.2,34.6-76.1,39.4-64.5z M40.8-70.7c-0.1,0.3-0.3,0.7-0.4,1
		C40.5-70.1,40.6-70.4,40.8-70.7C40.8-70.7,40.8-70.7,40.8-70.7z M18.4-61.2c0,0-0.1,0.2-0.1,0.5l0,0C18.3-61,18.4-61.2,18.4-61.2z
		 M-106.8,78.5c-0.9,0-1.8,0-2.7-0.1C-108.6,78.5-107.7,78.5-106.8,78.5z M-112.2,35.7c0,0,0,0.1,0,0.1c0-0.3,0-0.5,0-0.8
		C-112.2,35.2-112.2,35.4-112.2,35.7z M-109,20.4c0.1,0,0.4-0.1,0.9-0.3C-108.6,20.3-108.9,20.4-109,20.4z M10.6,50.5
		c-19.1,1.4-24.9-4-24.9-8.4c0-3.7,3-6.4,4-7.2c-2,0.6-6.6,2.6-6.6,7.9c0,0-0.9-3.3-0.2-5.4c-0.7,0.7-1.3,1.6-1.7,2.7
		c-4.7,13.4,9.3,20.4,19.8,19.4c0,0-21.2,5.3-41.5,0c-25.1-6.5-33.9-22.1-36.3-32c0,0,6.3,15.4,20.7,22.5c11,5.4,21.4,8.4,33.3,9.1
		c-10.1-1.7-19.2-5.7-19.2-5.7c8.3,1.8,14.1,2.6,18.1,2.9c-5.4-0.9-13.7-3.1-26-7.8c-16.8-6.8-22.6-17.6-22.6-27
		c0-8.5,4.7-15.8,10.6-17.9c2.7-1,5.6-1.2,8.2-0.9c2.8,0.2,6.1,1,8.9,2.8c4.8,3.1,1.6,9.4,1.6,9.4c0.1-1.8,0-3.2-0.3-4.2
		c0,0.4,0,0.9,0,1.5c-0.6,5.8-8.2,6.5-9.1,2.7c0-0.3,0-0.4,0-0.4s0,5.8,6.3,6.6c5.3,0,9-5.2,9-11c0-0.9-0.1-1.8-0.3-2.8
		c0.1,0.5,0.2,1,0.2,1.4C-38.6,4.2-42.2-3-51.9-3.1C-74.8-3.5-77,12.6-77,12.6s-0.2-5,2.6-8.1c0,0-10,9.2-10,23.6
		c0,14.4,15.8,26.3,22,27.6c0,0-24.9-1.4-30.4-29.2c-2.8-7.8-10.3-7.4-14.1-6.7c0.5,0.2,1,0.4,1.5,0.7c4.1,2.6,4.3,9.3,0.8,12.5
		l0.6-2.6c0,0-1.1,2.3-3.8,3.1c-2.7,0.8-2.7,7.8,1.4,9.6c0,0-1,0-2.3-0.3l0.5,0.2c1.3,1.6,3.1,3.2,5.4,3.9c-2.8,0.1-6.2,0.7-9.9,2.4
		c-12.9,6.4-7.3,18.6-4.9,21.7c-2.4-1.5-3.8-3.6-4.7-5.6c2.3,8.9,12.6,15.1,20.9,11.4c1.3-0.7,2.4-1.6,3.5-2.8c3-3.5,4-6.3,4-8.4
		c0-3.9-3.1-5.8-3.1-5.8s3.2,2,0.3,7.3c-3.3,6.2-11.1,3.7-12.1-1.1c0,0,1.6,1.7,4.6,2.7c0,0-4.8-2.7-4.8-7.2c0,0,1.5,3.8,4,5.1
		c-0.6-0.5-1.2-1.2-1.6-2.2c-0.4-0.9-0.5-1.8-0.5-2.7c0-5.7,7.5-10.2,19.6-4.8c41.2,18.3,95.1,18.3,147.8-7.8
		c5.8-2.9,11.5-6.4,16.9-10.4C52.8,55.3,25.8,60.4,25.8,60.4C52.6,52.8,69.4,41.5,78.3,34C39.3,60.8,5.9,59,5.9,59
		C40.4,52.3,67.2,38,87.5,22.2C54.7,45.7,22.4,49.7,10.6,50.5z M-38.2,5.5c0.2,0.5,0.3,1,0.4,1.5C-37.9,6.5-38,6-38.2,5.5z
		 M116.8-1.5c0,0,0,0.1-0.1,0.1c0.1-0.2,0.2-0.3,0.4-0.5C117-1.8,116.9-1.7,116.8-1.5z M68.7,13.9l-1.7-1.3c0,0,1.2,3.1-0.6,7.3
		c-1.8,4.3-7.5,5.8-11,3.2c-2.5-1.8-4.1-5.5-3.6-8.6c-1.3,1.4-2.2,3.5-2.2,5.8c0,3.1,1.7,6.4,6.5,8.2c1.2,0.4,2.4,0.6,3.6,0.6
		c3.2,0,6.3-1.6,8.5-3.9c1.5-1.6,2.7-3.6,3.2-5.7c-0.4,0.7-0.8,1.1-0.8,1.1c1.9-5.6-1.3-10.7-3.7-13.5C67.8,8.8,68.5,11,68.7,13.9z
		 M141.1-43.1c0.1-0.1,0.1-0.1,0.2-0.2C141.2-43.3,141.1-43.2,141.1-43.1C141-43.1,141.1-43.1,141.1-43.1z M140.1-42
		C140.1-42,140.1-42,140.1-42c-0.1,0.1-0.2,0.3-0.4,0.4C139.8-41.7,140-41.9,140.1-42z M-125-18.1c0-0.1,0-0.2,0-0.3
		C-125-18.3-125-18.2-125-18.1C-125-18.1-125-18.1-125-18.1z M-134.4,2.8C-134.4,2.8-134.4,2.8-134.4,2.8
		C-134.4,2.8-134.4,2.8-134.4,2.8C-134.4,2.8-134.4,2.8-134.4,2.8z M-136,6.2C-136,6.2-136,6.2-136,6.2c0.1-0.1,0.2-0.2,0.3-0.3
		C-135.7,6-135.9,6.1-136,6.2z M-9.4-60.4C-16.1-44.8-10-31.8-10-31.8s-1.8,0.4-4.7-2.7c0,0.1,0.1,0.2,0.1,0.3
		c0,0-20.9-23.3-67.1-22.4c-35.5,0.7-65.7,16.6-65.7,39.6c0,7,2.8,14.6,9.1,22.7c0,0,1.9,0.5,1.8-1.9c-0.1-2.4-3.1-1.6-3.3-8.2
		c0,0,0.4,1.4,1,1.9c-0.7-4.3,0.7-10.3,4.2-11.7c5.6-2.1,6.1-9.7,6.1-11.6c0.1,1,1.1,3.5,7.5,4.3c6.2,0.8,10.5-1.5,11.6-6.9
		c-0.2-3.2-1.9-6.2-6-7.4c0,0,1.8,1.7,1.8,3.9c0,1.2-0.6,2.6-2.5,3.9c-2.8,1.9-9.2-0.6-10-4.9c0,0.1,0,0.1,0,0.1
		c-1.1-5.2,1.6-10.7,6.1-12.9c4.7-2.4,9.2-3,9.2-3l-3.9,2.2c2-0.6,9-2.1,9-2.1s-0.1,0-0.2,0.1c4.3-1,9.6-1.8,16.1-2.6
		c34.6-4.1,63.9,14.9,73.3,24.3c5.4,5.4,8.6,9.3,10.4,11.7c-2-4.1,0.4-7.1,0.4-7.1C3.8,8.2,49.3,8,82.3-3
		c26.2-8.7,49.4-30.9,60.8-42.5c0.6-0.8,1.2-1.5,1.7-2.2c0.2-0.4,0.5-0.8,0.5-1c0-0.1,0.1-0.3,0.1-0.4c0,0,0,0,0,0
		c-7.7,7.9-39,37.5-81.5,46.8C21,7.1,12.9-14.4,12.9-22.6c0-1.1,0.1-1.9,0.4-2.4c-1.8,0.7-8.3,2.7-16.8,2.3c0,0,6.8-0.9,8.8-3.6
		c-2.2-1.1-4.6-3-6.6-6.3c-0.9-1.4-1.6-2.9-2.1-4.5c-0.4-1-0.8-2.4-1.1-4.3c-2.8-18.2,17.8-34.3,28.2-28.8c10,5.3,3.9,15.6-1.3,14.9
		c1.2,0.5,2.7,0.4,4.8-1c0,0-2.1,3-5.6,1.8c0,0,3.5,2.9,7.2-0.1c0,0-3.2,4.1-7.8,1.7c0,0,1.7,1.7,4.3,1.3c0,0-2,0.9-4,0.2
		c0.8,0.5,1.7,0.9,2.9,1.1c7.3,1.4,10.2-5.7,10.8-7.3c0.3-1.3,0.4-3.1,0.1-5.6c0.1,0.9,1,7.1,6.2,8.9c0,0-2.5-0.5-3.6-1.4
		c0,0,3.2,3.6,7.2,2.9c0,0-1.6,0.9-3.6,0.5c1.7,0.8,3.6,1.4,5.9,1.4c8,0,14-6.2,14.1-14.7v-0.1c0-6.1-6.5-10.7-12.3-10.5
		c1.5,0.3,2.6,0.7,2.6,0.7c-0.7-0.1-1.4-0.1-2-0.1c2.4,0.6,4.2,1.9,4.2,1.9c-1.7-0.5-3.2-0.8-4.5-0.8c1.4,0.5,2.4,1.2,2.4,1.2
		c-0.7-0.2-1.4-0.4-2.1-0.5c2,1,3.8,2.8,4.3,5.8c1.7,9.2-8.7,13.3-13.6,6.2c-0.6-0.7-1.2-1.5-1.7-2.6c-2.4-5.9-6.6-10.4-12.7-12.7
		C16-78.6,0.7-79.2-9.4-60.4z M22.7-77.8c-1.1-0.2-2.3-0.4-3.5-0.5C20.4-78.3,21.6-78.1,22.7-77.8z M-128.5-26.4c0,0,0,0.2,0,0.5
		C-128.5-26.2-128.5-26.4-128.5-26.4z"/>
</symbol>
<use xlink:href="#明るいベクトルパック_19"  width="296.8" height="158.8" x="-148.4" y="-79.4" transform="matrix(0.1945 0 0 -0.1945 30.2817 30.2803)" overflow="visible"/>
</svg>
