<?xml version="1.0" encoding="utf-8"?>
<!-- Generator: Adobe Illustrator 18.0.0, SVG Export Plug-In . SVG Version: 6.00 Build 0)  -->
<!DOCTYPE svg PUBLIC "-//W3C//DTD SVG 1.1//EN" "http://www.w3.org/Graphics/SVG/1.1/DTD/svg11.dtd">
<svg version="1.1" id="レイヤー_1" xmlns="http://www.w3.org/2000/svg" xmlns:xlink="http://www.w3.org/1999/xlink" x="0px"
	 y="0px" viewBox="0 0 60 60" enable-background="new 0 0 60 60" xml:space="preserve">
<g>
	<path fill="#221F20" d="M20,30.7c-0.5,0-1,0.3-1.3,0.6c-0.1,0.1-0.2,0.2-0.3,0.3c-0.6,0.1-1.2,0.2-1.8,0.2c-1.8,0-2.9-1.1-3.3-1.8
		c-0.5-0.7-1-2-1.5-3.6c-0.3-0.8-0.6-1.7-1.3-2.4c-0.7-0.7-1.6-1-2.6-1.1c-0.9-0.1-1.9,0.2-2.6,0.6c-0.7,0.4-1.3,1.1-1.1,1.8
		c0.1,0.7,0.7,0.9,1.1,1c0,0,0,0,0,0c0,0,0,0,0,0c0.2,0,0.5,0.1,0.5,0.1c0.1,0,0.1,0,0.1,0c0,0,0-0.1-0.1-0.1c-0.1,0-0.3,0-0.5,0
		c0,0,0,0-0.1,0c-0.3-0.1-0.9-0.3-1-1c-0.2-0.7,0.4-1.4,1.1-1.8c0.7-0.4,1.6-0.7,2.5-0.6c0.9,0,1.9,0.4,2.5,1.1
		c0.6,0.7,0.9,1.6,1.2,2.4c0.5,1.6,1,3,1.5,3.7c0.2,0.3,0.6,0.8,1.2,1.2c0.6,0.4,1.4,0.7,2.2,0.7c0.6,0,1.2-0.1,1.8-0.2
		c-0.1,0.2-0.2,0.5-0.4,0.7c-0.2,0.4-0.5,0.7-0.8,1c-0.6,0.6-1.3,1-1.9,1.2c-0.8,0.2-1.4,0.3-1.7,0.2c-0.2,0-0.4-0.1-0.4-0.1
		c-0.1,0-0.1,0-0.1,0c0,0,0,0.1,0.1,0.1c0.1,0,0.3,0,0.5,0c0.4,0,1,0,1.7-0.2c0.6-0.2,1.3-0.6,1.9-1.2c0.3-0.3,0.6-0.7,0.8-1
		c0.2-0.3,0.3-0.5,0.4-0.8c0.3-0.1,0.6-0.1,0.8-0.2c0.2-0.1,0.4-0.2,0.7-0.3c0.1-0.1,0.2-0.1,0.3-0.3C20.3,30.8,20.1,30.7,20,30.7z
		 M20.2,30.9c0,0.1-0.1,0.2-0.2,0.2c-0.2,0.1-0.4,0.2-0.6,0.3c-0.3,0.1-0.5,0.1-0.8,0.2c0.1-0.1,0.1-0.2,0.2-0.3
		c0.3-0.3,0.7-0.6,1.2-0.6C20.1,30.8,20.2,30.8,20.2,30.9z"/>
	<path fill="#221F20" d="M18.8,29.6c0.1-0.1,0.1-0.1,0.1-0.1C18.9,29.4,18.8,29.4,18.8,29.6c-0.1-0.1-0.1,0-0.2,0c0,0,0,0,0,0
		c0,0,0,0,0,0c-0.1,0.1-0.2,0.2-0.2,0.3c-0.1,0.1-0.3,0.2-0.6,0.2c-0.6,0.1-1.4-0.3-2.2-0.6c-1.6-0.7-3.4-1.3-4.2-1.3
		c-0.8-0.2-2.7,0.2-4.2,1.1c-1,0.6-1.8,1.4-2.2,1.8c0,0,0,0,0,0c0,0,0,0,0,0c0,0,0,0-0.1,0.1c-0.1,0.1-0.2,0.2-0.3,0.3
		c-0.1,0.1-0.1,0.1,0,0.1c0,0,0.1,0,0.1-0.1c0-0.1,0.1-0.2,0.2-0.4c0.4-0.4,1.2-1.2,2.3-1.8c1.5-0.9,3.4-1.2,4.2-1
		c0.8,0,2.6,0.6,4.2,1.3c0.8,0.3,1.6,0.7,2.2,0.6c0.2,0,0.4-0.1,0.5-0.2c0,0,0,0,0,0c0,0,0,0,0,0c0,0,0.1-0.1,0.1-0.1
		C18.6,29.7,18.8,29.6,18.8,29.6z"/>
	<path fill="#221F20" d="M22.8,29.4c-0.1,0.1-0.2,0.1-0.3,0.2c-0.2,0.1-0.4,0.2-0.5,0.2c-0.2,0-0.3,0-0.5,0
		c-0.2-0.1-0.3-0.1-0.4-0.2c-0.1,0-0.1,0-0.1,0c0,0,0,0.1,0.1,0.1c0.1,0,0.2,0,0.3,0c0.3,0.1,0.5,0,0.6,0c0.1,0,0.3-0.1,0.4-0.2
		c-0.5,0.3-0.9,0.8-1.5,1.2c-0.7,0.5-1.6,1-2.5,1.2c-1.9,0.6-4.2,0.1-5.4-1.3c-1.3-1.3-1.6-2.9-1.9-3.7c-0.2-0.8-0.7-2.5,0.4-4
		c0.5-0.7,1.4-1.3,2.3-1.5c1-0.2,2.1,0,2.8,0.7c0.7,0.7,1.1,1.7,1,2.5c-0.1,0.9-0.7,1.6-1.2,1.9c-0.6,0.4-1,0.4-1.4,0.4
		c-0.2,0-0.3-0.1-0.3-0.2c-0.1-0.2-0.1-0.4-0.2-0.5c0-0.1-0.1-0.1-0.1-0.1c0,0,0,0.1,0,0.1c0,0.1,0.2,0.4,0.3,0.5c0,0,0,0,0,0l0,0
		l0,0c0.1,0.1,0.2,0.1,0.3,0.2c0.4,0.1,0.9,0,1.5-0.3c0.6-0.3,1.2-1,1.3-1.9c0.1-0.9-0.3-1.9-1-2.6c-0.7-0.7-1.8-1-2.8-0.8
		c-1,0.2-1.9,0.8-2.4,1.5c-1.2,1.5-0.7,3.3-0.5,4.1c0.2,0.8,0.6,2.4,1.9,3.7c0.6,0.7,1.5,1.2,2.5,1.4c1,0.2,2,0.1,3-0.1
		c1-0.3,1.8-0.7,2.6-1.2C21.6,30.4,22.2,29.8,22.8,29.4c1.2-0.7,2.1-0.8,2.1-0.8C24.9,28.7,24,28.7,22.8,29.4z"/>
	<path fill="#221F20" d="M28.5,30.8c0-0.8-0.5-1.8-1.4-2.5c-0.9-0.8-2.2-0.9-3.2-0.7c-1,0.1-1.9,0.2-2.3,0.1c-0.4,0-1.2,0-1.9-0.6
		c0.2-0.3,0.5-0.7,0.6-1.2c0.1-0.4,0.3-1.2-0.3-1.4c-0.6-0.1-1.2,0.4-1.2,1c-0.1,0.6,0.3,1.1,0.6,1.5c0.1,0.1,0.1,0.1,0.2,0.2
		c-0.2,0.3-0.4,0.4-0.6,0.5c-0.2,0-0.4,0.1-0.5,0.1c-0.1,0-0.1,0.1-0.1,0.1c0,0,0,0,0.1,0c0.1,0,0.2-0.1,0.3-0.1
		c0.1,0,0.1,0,0.2-0.1c0,0,0,0,0,0c0,0,0,0,0,0c0.2-0.1,0.4-0.2,0.6-0.5c0.7,0.6,1.5,0.6,2,0.6c0.5,0,1.4,0,2.4-0.2
		c1-0.2,2.2-0.1,3.1,0.6C27.9,29,28.4,30.1,28.5,30.8c0,0.5-0.2,0.8-0.4,0.9c-0.1,0.1-0.4,0.1-0.5,0.2c-0.1,0-0.1,0.1-0.1,0.1
		c0,0,0.1,0,0.1,0c0,0,0.3-0.2,0.4-0.3C28.3,31.6,28.5,31.3,28.5,30.8z M18.9,27.8C18.9,27.8,18.9,27.8,18.9,27.8
		C18.9,27.8,18.9,27.8,18.9,27.8z M19.5,27c-0.3-0.4-0.6-0.9-0.6-1.4c0-0.5,0.6-1,1.1-0.9c0.6,0.2,0.4,0.9,0.3,1.4
		c-0.1,0.5-0.4,0.9-0.6,1.2C19.6,27.1,19.5,27.1,19.5,27z"/>
	<path fill="#221F20" d="M30.3,30.3c-0.1,0-0.3,0.1-0.5,0.1c-0.1,0-0.2,0-0.3-0.1c-0.3-0.1-0.7-0.4-1.1-0.8c-0.4-0.4-1-0.8-1.6-1.1
		c-0.7-0.3-1.5-0.3-2.3-0.1c-0.8,0.2-1.6,0.4-2.4,0.6c-0.5,0.2-1.1,0.1-1.5-0.1c0-0.1,0.1-0.3,0.1-0.4c0-0.2-0.2-0.4-0.4-0.4
		c-0.2,0-0.5,0.2-0.3,0.4c0.1,0.2,0.3,0.3,0.5,0.4c0,0.1-0.1,0.3-0.2,0.4c-0.3,0.5-0.6,0.9-0.8,1.2c-0.2,0.2-0.6,0.6-1.2,0.7
		c-0.6,0.1-1.3,0-1.9-0.3c-1.4-0.6-3.1-1.1-4.7-1c-0.8,0.1-1.7,0.3-2,1c-0.3,0.7,0,1.4,0.3,1.9c0.3,0.6,0.7,0.9,1,1.1
		c0.1,0.1,0.2,0.2,0.3,0.2c0.1,0,0.1,0,0.1,0c0,0,0-0.1-0.1-0.1c0,0,0,0,0,0c0,0,0,0,0,0c0,0,0,0,0,0c-0.1-0.1-0.3-0.1-0.3-0.2
		c-0.3-0.2-0.6-0.5-1-1.1c-0.3-0.5-0.6-1.2-0.2-1.9c0.3-0.7,1.2-0.9,2-0.9c1.6-0.1,3.3,0.5,4.7,1c0.7,0.3,1.4,0.5,2,0.3
		c0.6-0.1,1-0.5,1.3-0.7c0.3-0.3,0.6-0.7,0.8-1.2c0.1-0.1,0.1-0.3,0.2-0.4c0.5,0.2,1.1,0.3,1.6,0.1c0.8-0.2,1.6-0.5,2.4-0.7
		c0.8-0.2,1.6-0.2,2.3,0.1c0.7,0.3,1.2,0.7,1.7,1c0.4,0.4,0.8,0.6,1.1,0.8c0.2,0.1,0.3,0.1,0.4,0.1c0.2,0,0.4,0,0.5,0
		c0.1,0,0.1,0,0.1-0.1C30.4,30.3,30.3,30.2,30.3,30.3z M20.3,28.8c-0.2-0.1-0.3-0.2-0.4-0.4c-0.2-0.4,0.5-0.4,0.5,0
		C20.4,28.5,20.3,28.6,20.3,28.8z"/>
	<path fill="#221F20" d="M29.9,29.4c-0.1,0-0.3,0-0.5-0.1c-0.3-0.1-1.2-0.5-1.7-1.3c-0.1-0.2-0.1-0.4-0.1-0.6c0.2,0,0.5-0.1,0.6-0.5
		c0-0.2-0.2-0.3-0.4-0.2c-0.2,0.1-0.2,0.2-0.3,0.4c0,0.1,0,0.1-0.1,0.2c-0.2,0-0.3,0-0.4,0c-0.5,0-1.8-0.5-3.1-0.6
		c-0.9,0-1.7,0.2-2,0.3c-0.2,0-0.3,0.1-0.4,0.1c-0.1,0-0.1,0.1-0.1,0.1c0,0,0.1,0,0.1,0c0.1,0,0.3-0.1,0.4-0.2
		c0.4-0.1,1.1-0.3,2-0.3c1.2,0.2,2.5,0.6,3.1,0.7c0.1,0,0.3,0,0.4,0c0,0.2,0,0.4,0.1,0.6c0.6,0.9,1.5,1.2,1.8,1.3
		c0.2,0.1,0.4,0.2,0.4,0.2C29.9,29.5,30,29.5,29.9,29.4C30,29.4,30,29.4,29.9,29.4z M27.7,27.1c0-0.3,0.5-0.5,0.5-0.2
		c-0.1,0.3-0.3,0.3-0.5,0.4C27.6,27.3,27.6,27.2,27.7,27.1z"/>
	<path fill="#221F20" d="M31.5,31.3c0,0.1-0.1,0.1-0.2,0.2c-0.1,0.1-0.2,0.2-0.5,0.2c-0.6,0.1-1.1-0.6-1.7-1.2
		c-0.6-0.6-1.5-1.4-2.7-1.6c-1.2-0.2-2.4,0.4-3.4,1.2c-1,0.8-1.9,1.8-3.2,2.3c-1.2,0.5-2.5,0.6-3.7,0.5c-2.4-0.2-4-1.6-4.7-2.5
		c-0.8-0.8-1.1-3-2.7-4.8c-1.5-2-5-2.3-7-0.5c-2.3,1.6-1.4,5.3,0.5,5.5c0.9,0.2,1.6-0.2,2-0.5c0.1-0.1,0.3-0.2,0.3-0.3c0,0,0,0,0,0
		c0,0,0,0,0,0c0.1-0.1,0.3-0.3,0.4-0.4c0.1-0.1,0.1-0.1,0-0.1c0,0-0.1,0-0.1,0.1c0,0.1-0.2,0.3-0.3,0.4c-0.1,0.1-0.2,0.2-0.3,0.3
		c-0.4,0.3-1.1,0.6-2,0.5c-1.9-0.2-2.8-3.9-0.5-5.5c2-1.7,5.4-1.4,6.9,0.5c1.6,1.8,1.9,3.9,2.7,4.8c0.7,0.9,2.4,2.3,4.8,2.6
		c1.2,0.1,2.5,0,3.7-0.5c1.3-0.5,2.2-1.5,3.2-2.3c1-0.8,2.2-1.4,3.4-1.2c1.2,0.2,2,0.9,2.7,1.5c0.6,0.6,1.2,1.3,1.7,1.2
		c0.2,0,0.4-0.1,0.5-0.2c0.2-0.1,0.3-0.3,0.4-0.4c0-0.1,0-0.1,0-0.1c0,0-0.1,0-0.1,0.1C31.6,31.1,31.5,31.2,31.5,31.3"/>
	<path fill="#221F20" d="M30.6,33.4c0-0.1-0.1-0.2-0.1-0.3c-0.1-0.3-0.4-0.5-0.8-0.6c-0.1,0-0.2-0.1-0.2-0.1c-0.1,0-0.1,0-0.1,0
		c0,0,0,0.1,0.1,0.1c0.1,0,0.1,0,0.3,0c0.4,0.1,0.7,0.3,0.8,0.5C30.5,33.2,30.5,33.4,30.6,33.4c-0.1,0.1,0,0.1,0,0.1
		C30.6,33.5,30.7,33.5,30.6,33.4z"/>
	<path fill="#221F20" d="M33.8,33.7c-0.9-0.4-1.9-0.1-2.7,0.3c-0.3,0.1-0.5,0.3-0.7,0.4c-1.2-0.4-2.3-1-2.9-1.7
		c-0.5-0.5-0.7-1-0.7-1.4c0-0.1,0-0.2,0.1-0.3c0.1-0.2,0.3-0.3,0.3-0.4c0-0.1,0-0.1,0-0.1c0,0-0.1,0-0.1,0.1c0,0.1-0.2,0.4-0.2,0.5
		c0,0,0,0,0,0c0,0.1-0.1,0.2-0.1,0.3c0,0.4,0.2,0.9,0.7,1.4c0.6,0.7,1.7,1.4,2.9,1.7c-0.3,0.3-0.7,0.6-1,0.7c-0.5-0.3-1-0.5-1.4-0.5
		c-0.3,0-0.7-0.1-0.9,0.3c-0.1,0.4,0.3,0.5,0.5,0.6c0.4,0.1,1,0.1,1.7-0.1c0.1,0,0.1,0,0.2-0.1c0.2,0.1,0.4,0.3,0.6,0.4
		c0.4,0.3,0.8,0.5,1.3,0.6c0,0-0.1,0.1-0.1,0.1c-0.2,0.2-0.4,0.3-0.7,0.4c-0.1-0.1-0.3-0.2-0.5-0.3c-0.2-0.1-0.4-0.1-0.6-0.1
		c-0.2,0-0.5,0-0.5,0.3c0,0.2,0.1,0.5,0.4,0.5c0.2,0.1,0.5,0,0.7,0c0.2,0,0.4-0.1,0.6-0.2c0.1,0.1,0.2,0.2,0.2,0.3
		c0.2,0.6,0,1.3-0.4,1.4c-0.2,0-0.2,0-0.3-0.1c-0.1-0.3,0-0.4,0-0.5c0-0.1,0-0.1-0.1-0.1c0,0-0.1,0-0.1,0.1c0,0.1,0,0.3,0.1,0.5
		c0,0.1,0.1,0.2,0.3,0.2c0.4-0.1,0.6-0.8,0.4-1.4c-0.1-0.1-0.1-0.2-0.2-0.3c0.2-0.1,0.5-0.3,0.7-0.4c0.1,0,0.1-0.1,0.2-0.1
		c0.4,0.1,0.8,0.2,1.3,0.1c0.2,0,0.6-0.1,0.5-0.5c-0.1-0.3-0.5-0.2-0.7-0.2c-0.4,0.1-0.7,0.2-1.1,0.4c-0.5-0.1-0.9-0.4-1.3-0.7
		c-0.2-0.2-0.4-0.3-0.6-0.4c0.3-0.2,0.7-0.5,1-0.7c0.5,0.1,1,0.2,1.5,0.3c0.5,0,1,0,1.5-0.1c0.2-0.1,0.5-0.1,0.7-0.3
		C34.2,34.1,34,33.8,33.8,33.7z M29.1,35.3c-0.6,0.3-1.2,0.2-1.6,0.1C27.3,35.3,27,35.2,27,35c0.1-0.2,0.5-0.2,0.8-0.2
		C28.3,34.8,28.7,35,29.1,35.3C29.1,35.2,29.1,35.3,29.1,35.3z M29.8,37.1c-0.4,0.1-1.1,0.1-1-0.4c0.1-0.4,0.7-0.2,1-0.1
		c0.2,0.1,0.4,0.2,0.5,0.3C30.2,37,30,37.1,29.8,37.1z M29.9,38.6C29.9,38.6,29.9,38.5,29.9,38.6C29.9,38.5,29.9,38.6,29.9,38.6z
		 M32.4,36c0.2,0,0.5-0.1,0.6,0.1c0,0.2-0.2,0.3-0.4,0.4c-0.4,0-0.8,0-1.1-0.1C31.7,36.2,32.1,36.1,32.4,36z M34,34.3
		c-0.1,0.2-0.4,0.3-0.6,0.3c-0.5,0.1-1,0.1-1.4,0.1c-0.5,0-1-0.1-1.5-0.3c0.2-0.1,0.4-0.3,0.6-0.4c0.8-0.3,1.8-0.6,2.6-0.3
		C34,33.9,34.1,34.1,34,34.3z"/>
	<path fill="#221F20" d="M27.6,30.2C27.6,30.2,27.6,30.2,27.6,30.2c0-0.1-0.1-0.2-0.1-0.2c-0.3-0.3-0.8-0.8-1.6-0.7
		c-1.6,0.3-2.9,2-4.7,3.3c-1.9,1.2-4.3,1.4-6.2,0.8c-1.9-0.5-3.3-1.6-4.1-2.1c-0.6-0.4-1.9-0.8-3.4-0.5c0.1-0.1,0.2-0.2,0.2-0.3
		c0.6-0.9,1-2.1,0.8-3.2c-0.1-1.1-1-2-1.8-2.4C6,24.3,5,24.3,4.3,24.5c-0.9,0.3-1.4,0.6-1.8,0.9c0,0,0,0,0,0c0,0,0,0,0,0
		c0,0-0.1,0.1-0.1,0.1c-0.1,0.1-0.3,0.2-0.3,0.2c-0.1,0.1-0.1,0.1,0,0.1c0,0,0.1,0,0.1,0c0.1-0.1,0.2-0.2,0.3-0.4
		c0.3-0.3,0.9-0.7,1.8-0.9C5,24.3,6,24.4,6.8,24.9c0.8,0.5,1.7,1.3,1.8,2.4c0.1,1.1-0.3,2.2-0.8,3.1c-0.1,0.1-0.2,0.3-0.3,0.4
		c-0.3,0.1-0.7,0.2-1,0.4c-0.2,0.1-0.6,0.3-0.5,0.6c0.1,0.3,0.6,0,0.8-0.1c0.3-0.2,0.5-0.5,0.7-0.8c1.5-0.3,2.8,0.1,3.4,0.5
		c0.8,0.5,2.1,1.6,4.1,2.1c1.9,0.5,4.4,0.3,6.3-0.9c1.7-1.3,3.1-3,4.7-3.3c0.8-0.1,1.3,0.4,1.6,0.7C27.6,30.1,27.6,30.1,27.6,30.2
		c0,0.2-0.2,0.3-0.2,0.4c-0.1,0.1-0.1,0.1,0,0.1c0,0,0.1,0,0.1-0.1C27.6,30.6,27.7,30.4,27.6,30.2z M6.7,31.5
		c-0.2,0.1-0.5,0.3-0.6,0.1c-0.1-0.2,0.2-0.4,0.4-0.5c0.3-0.1,0.6-0.2,0.8-0.3C7.2,31.2,7,31.4,6.7,31.5z"/>
	<path fill="#221F20" d="M29.3,32c0,0-0.1,0-0.1,0c-0.1,0-0.2,0.1-0.3,0.2c-0.1,0.1-0.3,0.2-0.5,0.2c-0.5,0.2-1.2,0.3-1.8-0.1
		c-0.7-0.4-0.9-1.3-0.4-1.9c0.2-0.3,0.4-0.5,0.7-0.5l0.1,0c0.1,0,0.1-0.1,0.1-0.1l0,0l0,0c-0.1,0-0.1,0-0.2-0.1c-0.1,0-0.2,0-0.3,0
		c-0.3,0-0.9,0.1-1.5,0.5c-0.6,0.4-1,1.1-1.6,1.6c-0.8,0.8-1.9,1.5-2.1,1.5c-0.1,0.1-0.3,0.1-0.3,0.1c-0.1,0-0.1,0.1-0.1,0.1
		c0,0,0.1,0,0.1,0c0.1,0,0.2-0.2,0.3-0.3c0.2-0.1,1.3-0.7,2.1-1.5c0.6-0.5,1-1.2,1.6-1.5C25.4,30,26,30,26.3,30c0.1,0,0.2,0,0.2,0
		c-0.2,0.1-0.4,0.3-0.6,0.5c-0.2,0.3-0.3,0.7-0.2,1.1c0.1,0.4,0.4,0.7,0.7,0.9c0.6,0.5,1.4,0.3,1.9,0.1c0.1-0.1,0.3-0.1,0.4-0.2
		c0,0,0,0,0,0c0.2-0.1,0.4-0.2,0.5-0.2C29.3,32.1,29.3,32.1,29.3,32z"/>
</g>
<g>
	<path fill="#221F20" d="M40.3,30.9c0.1,0.1,0.2,0.2,0.3,0.3c0.2,0.1,0.4,0.2,0.7,0.3c0.3,0.1,0.6,0.2,0.8,0.2
		c0.1,0.3,0.3,0.5,0.4,0.8c0.2,0.4,0.5,0.7,0.8,1c0.6,0.6,1.3,1,1.9,1.2c0.7,0.2,1.3,0.2,1.7,0.2c0.2,0,0.5,0,0.5,0
		c0.1,0,0.1,0,0.1-0.1c0,0,0-0.1-0.1,0c-0.1,0-0.3,0.1-0.4,0.1c-0.4,0-1,0-1.7-0.2c-0.6-0.2-1.3-0.6-1.9-1.2c-0.3-0.3-0.5-0.7-0.8-1
		c-0.1-0.2-0.2-0.5-0.4-0.7c0.6,0.1,1.2,0.2,1.8,0.2c0.9,0,1.7-0.3,2.2-0.7c0.6-0.4,0.9-0.9,1.2-1.2c0.5-0.7,1-2,1.5-3.7
		c0.3-0.8,0.6-1.7,1.2-2.4c0.7-0.6,1.6-1,2.5-1.1c0.9-0.1,1.8,0.2,2.5,0.6c0.7,0.4,1.3,1.1,1.1,1.8c-0.1,0.7-0.7,0.9-1,1
		c0,0,0,0-0.1,0c-0.2,0-0.4,0-0.5,0c-0.1,0-0.1,0-0.1,0.1c0,0,0,0,0.1,0c0.1,0,0.3-0.1,0.5-0.1c0,0,0,0,0,0c0,0,0,0,0,0
		c0.3,0,0.9-0.3,1.1-1c0.2-0.7-0.4-1.4-1.1-1.8c-0.7-0.4-1.6-0.7-2.6-0.6c-0.9,0-1.9,0.4-2.6,1.1c-0.7,0.7-1,1.6-1.3,2.4
		c-0.5,1.6-1,3-1.5,3.6c-0.4,0.7-1.5,1.8-3.3,1.8c-0.6,0-1.2-0.1-1.8-0.2c-0.1-0.1-0.2-0.2-0.3-0.3c-0.3-0.3-0.8-0.6-1.3-0.6
		C40.4,30.7,40.2,30.8,40.3,30.9z M40.6,30.7c0.5,0,0.9,0.2,1.2,0.6c0.1,0.1,0.2,0.2,0.2,0.3c-0.3-0.1-0.5-0.1-0.8-0.2
		c-0.2-0.1-0.4-0.2-0.6-0.3c-0.1-0.1-0.2-0.1-0.2-0.2C40.3,30.8,40.5,30.8,40.6,30.7z"/>
	<path fill="#221F20" d="M41.7,29.6c-0.1-0.1-0.1-0.1-0.1-0.1C41.7,29.4,41.7,29.4,41.7,29.6c0.1-0.1,0.1,0,0.2,0c0,0,0,0,0,0
		c0,0,0,0,0,0c0.1,0.1,0.2,0.2,0.2,0.3c0.1,0.1,0.3,0.2,0.6,0.2c0.6,0.1,1.4-0.3,2.2-0.6c1.6-0.7,3.4-1.3,4.2-1.3
		c0.8-0.2,2.7,0.2,4.2,1.1c1,0.6,1.8,1.4,2.2,1.8c0,0,0,0,0,0c0,0,0,0,0,0c0,0,0,0,0.1,0.1c0.1,0.1,0.2,0.2,0.3,0.3
		c0,0.1,0.1,0.1,0,0.1c0,0-0.1,0-0.1-0.1c0-0.1-0.1-0.2-0.2-0.4c-0.4-0.4-1.2-1.2-2.3-1.8c-1.5-0.9-3.4-1.2-4.2-1
		c-0.8,0-2.6,0.6-4.2,1.3c-0.8,0.3-1.6,0.7-2.2,0.6c-0.2,0-0.4-0.1-0.5-0.2c0,0,0,0,0,0c0,0,0,0,0,0c0,0-0.1-0.1-0.1-0.1
		C41.9,29.7,41.8,29.6,41.7,29.6z"/>
	<path fill="#221F20" d="M37.7,29.4c0.1,0.1,0.2,0.1,0.3,0.2c0.2,0.1,0.4,0.2,0.5,0.2c0.2,0,0.3,0,0.5,0c0.2-0.1,0.3-0.1,0.4-0.2
		c0.1,0,0.1,0,0.1,0c0,0,0,0.1-0.1,0.1c-0.1,0-0.2,0-0.3,0c-0.3,0.1-0.5,0-0.6,0c-0.1,0-0.3-0.1-0.4-0.2c0.5,0.3,0.9,0.8,1.5,1.2
		c0.7,0.5,1.6,1,2.5,1.2c1.9,0.6,4.2,0.1,5.4-1.3c1.3-1.3,1.6-2.9,1.9-3.7c0.2-0.8,0.7-2.5-0.4-4c-0.5-0.7-1.4-1.3-2.3-1.5
		c-1-0.2-2.1,0-2.8,0.7c-0.7,0.7-1.1,1.7-1,2.5c0.1,0.9,0.7,1.6,1.2,1.9c0.6,0.4,1,0.4,1.4,0.4c0.2,0,0.3-0.1,0.3-0.2
		c0.1-0.2,0.1-0.4,0.2-0.5c0-0.1,0.1-0.1,0.1-0.1c0,0,0,0.1,0,0.1c0,0.1-0.2,0.4-0.3,0.5c0,0,0,0,0,0l0,0l0,0
		c-0.1,0.1-0.2,0.1-0.3,0.2c-0.4,0.1-0.9,0-1.5-0.3c-0.6-0.3-1.2-1-1.3-1.9c-0.1-0.9,0.3-1.9,1-2.6c0.7-0.7,1.8-1,2.8-0.8
		c1,0.2,1.9,0.8,2.4,1.5c1.2,1.5,0.7,3.3,0.5,4.1c-0.2,0.8-0.6,2.4-1.9,3.7c-0.6,0.7-1.5,1.2-2.5,1.4c-1,0.2-2,0.1-3-0.1
		c-1-0.3-1.8-0.7-2.6-1.2C38.9,30.4,38.4,29.8,37.7,29.4c-1.2-0.7-2.1-0.8-2.1-0.8C35.6,28.7,36.5,28.7,37.7,29.4z"/>
	<path fill="#221F20" d="M32.4,31.7c0.1,0.1,0.4,0.2,0.4,0.3c0.1,0,0.1,0,0.1,0c0,0,0-0.1-0.1-0.1C32.8,31.9,32.6,31.8,32.4,31.7
		c-0.1-0.1-0.4-0.4-0.4-0.9c0-0.8,0.5-1.8,1.4-2.5c0.9-0.7,2.1-0.8,3.1-0.6c1,0.1,1.9,0.2,2.4,0.2c0.4,0,1.2-0.1,2-0.6
		c0.2,0.2,0.4,0.4,0.6,0.5c0,0,0,0,0,0c0,0,0,0,0,0c0.1,0,0.1,0.1,0.2,0.1c0.1,0.1,0.2,0.1,0.3,0.1c0.1,0,0.1,0,0.1,0
		c0,0,0-0.1-0.1-0.1c-0.1,0-0.3,0-0.5-0.1c-0.2-0.1-0.4-0.2-0.6-0.5c0.1-0.1,0.2-0.1,0.2-0.2c0.3-0.4,0.7-0.9,0.6-1.5
		c-0.1-0.6-0.6-1.1-1.2-1c-0.6,0.3-0.4,1-0.3,1.4c0.2,0.5,0.4,0.9,0.6,1.2c-0.7,0.5-1.5,0.5-1.9,0.6c-0.5,0-1.3,0-2.3-0.1
		c-1-0.2-2.3-0.1-3.2,0.7c-0.9,0.7-1.4,1.7-1.4,2.5C32,31.3,32.3,31.6,32.4,31.7z M41.6,27.8C41.6,27.8,41.6,27.8,41.6,27.8
		C41.6,27.8,41.6,27.8,41.6,27.8z M40.9,27.2c-0.2-0.3-0.4-0.7-0.6-1.2c-0.1-0.4-0.3-1.2,0.3-1.4c0.5-0.1,1.1,0.4,1.1,0.9
		c0.1,0.5-0.3,1.1-0.6,1.4C41,27.1,40.9,27.1,40.9,27.2z"/>
	<path fill="#221F20" d="M30.2,30.3c0,0,0,0.1,0.1,0.1c0.1,0,0.3,0,0.5,0c0.1,0,0.2,0,0.4-0.1c0.3-0.1,0.7-0.4,1.1-0.8
		c0.4-0.4,1-0.8,1.7-1c0.7-0.3,1.5-0.3,2.3-0.1c0.8,0.2,1.6,0.4,2.4,0.7c0.5,0.2,1.1,0.1,1.6-0.1c0.1,0.1,0.1,0.3,0.2,0.4
		c0.3,0.5,0.6,0.9,0.8,1.2c0.3,0.3,0.7,0.6,1.3,0.7c0.6,0.1,1.3,0,2-0.3c1.4-0.6,3-1.1,4.7-1c0.8,0,1.7,0.3,2,0.9
		c0.3,0.7,0,1.4-0.2,1.9c-0.3,0.6-0.7,0.9-1,1.1c-0.1,0-0.3,0.1-0.3,0.2c0,0,0,0,0,0c0,0,0,0,0,0c0,0,0,0,0,0
		c-0.1,0-0.1,0.1-0.1,0.1c0,0,0.1,0,0.1,0c0,0,0.2-0.1,0.3-0.2c0.3-0.2,0.7-0.5,1-1.1c0.3-0.5,0.6-1.2,0.3-1.9c-0.4-0.7-1.2-0.9-2-1
		c-1.6-0.1-3.3,0.4-4.7,1c-0.7,0.3-1.4,0.4-1.9,0.3c-0.6-0.1-1-0.4-1.2-0.7c-0.3-0.2-0.5-0.6-0.8-1.2c-0.1-0.1-0.1-0.2-0.2-0.4
		c0.2-0.1,0.4-0.3,0.5-0.4c0.1-0.2-0.1-0.5-0.3-0.4c-0.2,0-0.4,0.2-0.4,0.4c0,0.2,0,0.3,0.1,0.4c-0.5,0.2-1,0.3-1.5,0.1
		c-0.8-0.2-1.6-0.4-2.4-0.6c-0.8-0.2-1.6-0.2-2.3,0.1c-0.7,0.3-1.2,0.7-1.6,1.1c-0.4,0.4-0.8,0.7-1.1,0.8c-0.1,0.1-0.2,0.1-0.3,0.1
		c-0.2,0-0.4-0.1-0.5-0.1C30.2,30.2,30.2,30.3,30.2,30.3z M40.2,28.4c0-0.4,0.6-0.4,0.5,0c-0.1,0.1-0.3,0.3-0.4,0.4
		C40.2,28.6,40.2,28.5,40.2,28.4z"/>
	<path fill="#221F20" d="M30.6,29.5c0,0,0,0,0.1,0c0.1,0,0.3-0.1,0.4-0.2c0.3-0.1,1.2-0.4,1.8-1.3c0.1-0.2,0.1-0.4,0.1-0.6
		c0.2,0,0.4,0,0.4,0c0.6,0,1.8-0.5,3.1-0.7c0.8-0.1,1.6,0.1,2,0.3c0.2,0.1,0.4,0.2,0.4,0.2c0.1,0,0.1,0,0.1,0c0,0,0-0.1-0.1-0.1
		c-0.1,0-0.2,0-0.4-0.1c-0.4-0.1-1.2-0.4-2-0.3c-1.2,0.1-2.5,0.6-3.1,0.6c-0.1,0-0.3,0-0.4,0c0-0.1,0-0.2-0.1-0.2
		c0-0.1-0.1-0.3-0.3-0.4c-0.2-0.1-0.4,0.1-0.4,0.2c0.1,0.4,0.4,0.5,0.6,0.5c0,0.2,0,0.4-0.1,0.6c-0.5,0.8-1.3,1.1-1.7,1.3
		C31,29.3,30.7,29.3,30.6,29.5C30.6,29.4,30.6,29.4,30.6,29.5z M32.9,27.3c-0.2,0-0.4-0.1-0.5-0.4c0-0.3,0.4-0.1,0.5,0.2
		C32.9,27.2,32.9,27.3,32.9,27.3z"/>
	<path fill="#221F20" d="M29.1,31.3C29,31.2,29,31.1,28.9,31c0-0.1-0.1-0.1-0.1-0.1c0,0,0,0.1,0,0.1c0,0.1,0.2,0.3,0.4,0.4
		c0.1,0.1,0.3,0.2,0.5,0.2c0.6,0.1,1.1-0.6,1.7-1.2c0.6-0.6,1.5-1.4,2.7-1.5c1.2-0.2,2.4,0.4,3.4,1.2c1,0.8,1.9,1.8,3.2,2.3
		c1.2,0.5,2.5,0.6,3.7,0.5c2.4-0.2,4.1-1.7,4.8-2.6c0.8-0.9,1.1-3,2.7-4.8c1.5-1.9,4.9-2.2,6.9-0.5c2.3,1.5,1.4,5.3-0.5,5.5
		c-0.9,0.2-1.6-0.1-2-0.5c-0.1-0.1-0.3-0.2-0.3-0.3c-0.1-0.2-0.2-0.4-0.3-0.4c-0.1-0.1-0.1-0.1-0.1-0.1c0,0,0,0.1,0,0.1
		c0,0,0.3,0.3,0.4,0.4c0,0,0,0,0,0c0,0,0,0,0,0c0.1,0.1,0.2,0.2,0.3,0.3c0.4,0.3,1.1,0.7,2,0.5c2-0.2,2.9-4,0.5-5.5
		c-2-1.7-5.5-1.5-7,0.5c-1.6,1.8-1.9,4-2.7,4.8c-0.7,0.9-2.3,2.3-4.7,2.5c-1.2,0.1-2.5,0-3.7-0.5c-1.2-0.4-2.2-1.4-3.2-2.3
		c-1-0.8-2.2-1.4-3.4-1.2c-1.2,0.2-2,1-2.7,1.6c-0.6,0.6-1.2,1.3-1.7,1.2c-0.2,0-0.4-0.1-0.5-0.2C29.2,31.4,29.1,31.4,29.1,31.3"/>
	<path fill="#221F20" d="M29.9,33.4c0-0.1,0.1-0.2,0.1-0.3c0.1-0.3,0.4-0.5,0.8-0.6c0.1,0,0.2-0.1,0.2-0.1c0.1,0,0.1,0,0.1,0
		c0,0,0,0.1-0.1,0.1c-0.1,0-0.1,0-0.3,0c-0.4,0.1-0.7,0.3-0.8,0.5C30.1,33.2,30.1,33.4,29.9,33.4c0.1,0.1,0,0.1,0,0.1
		C29.9,33.5,29.9,33.5,29.9,33.4z"/>
	<path fill="#221F20" d="M33,30.7c0.1,0.1,0.1,0.1,0.1,0.1C33.2,30.7,33.2,30.7,33,30.7c0-0.1-0.2-0.2-0.1-0.5c0-0.1,0-0.1,0.1-0.2
		c0.3-0.3,0.8-0.8,1.6-0.7c1.5,0.3,2.9,2,4.7,3.3c1.9,1.2,4.4,1.4,6.3,0.9c2-0.5,3.3-1.6,4.1-2.1c0.6-0.4,2-0.8,3.4-0.5
		c0.2,0.3,0.5,0.5,0.7,0.8c0.2,0.1,0.7,0.4,0.8,0.1c0.1-0.3-0.3-0.5-0.5-0.6c-0.3-0.2-0.7-0.3-1-0.4c-0.1-0.1-0.2-0.3-0.3-0.4
		c-0.6-0.9-1-2-0.8-3.1c0.1-1.1,0.9-1.9,1.8-2.4c0.9-0.5,1.8-0.5,2.5-0.3c0.9,0.2,1.5,0.6,1.8,0.9c0.1,0.1,0.3,0.3,0.3,0.4
		c0.1,0.1,0.1,0.1,0.1,0s0-0.1,0-0.1c0,0-0.2-0.1-0.3-0.2c0,0-0.1,0-0.1-0.1c0,0,0,0,0,0c0,0,0,0,0,0c-0.3-0.3-0.9-0.7-1.8-0.9
		c-0.7-0.2-1.7-0.2-2.6,0.3c-0.8,0.5-1.7,1.3-1.8,2.4c-0.1,1.1,0.3,2.2,0.8,3.2c0.1,0.1,0.1,0.2,0.2,0.3c-1.5-0.3-2.8,0.1-3.4,0.5
		c-0.8,0.5-2.1,1.6-4.1,2.1c-1.9,0.5-4.4,0.3-6.2-0.8c-1.7-1.3-3.1-3-4.7-3.3c-0.8-0.1-1.3,0.4-1.6,0.7c0,0.1-0.1,0.1-0.1,0.2
		c0,0,0,0.1,0,0.1C32.9,30.4,33,30.6,33,30.7z M53.2,30.9c0.3,0.1,0.6,0.2,0.8,0.3c0.2,0.1,0.5,0.3,0.4,0.5c-0.1,0.2-0.4,0-0.6-0.1
		C53.6,31.4,53.4,31.2,53.2,30.9z"/>
	<path fill="#221F20" d="M31.3,32c0,0,0.1,0,0.1,0c0.1,0,0.2,0.1,0.3,0.2c0.1,0.1,0.3,0.2,0.5,0.2c0.5,0.2,1.2,0.3,1.8-0.1
		c0.7-0.4,0.9-1.3,0.4-1.9c-0.2-0.3-0.4-0.5-0.7-0.5l-0.1,0c-0.1,0-0.1-0.1-0.1-0.1l0,0l0,0c0.1,0,0.1,0,0.2-0.1c0.1,0,0.2,0,0.3,0
		c0.3,0,0.9,0.1,1.5,0.5c0.6,0.4,1,1.1,1.6,1.6c0.8,0.8,1.9,1.5,2.1,1.5c0.1,0.1,0.3,0.1,0.3,0.1c0.1,0,0.1,0.1,0.1,0.1
		c0,0-0.1,0-0.1,0c-0.1,0-0.2-0.2-0.3-0.3c-0.2-0.1-1.3-0.7-2.1-1.5c-0.6-0.5-1-1.2-1.6-1.5C35.1,30,34.5,30,34.2,30
		c-0.1,0-0.2,0-0.2,0c0.2,0.1,0.4,0.3,0.6,0.5c0.2,0.3,0.3,0.7,0.2,1.1c-0.1,0.4-0.4,0.7-0.7,0.9c-0.6,0.5-1.4,0.3-1.9,0.1
		c-0.1-0.1-0.3-0.1-0.4-0.2c0,0,0,0,0,0c-0.2-0.1-0.4-0.2-0.5-0.2C31.3,32.1,31.3,32.1,31.3,32z"/>
	<path fill="#221F20" d="M33.8,31.3c0-0.1,0-0.2-0.1-0.3c0,0,0,0,0,0c0,0-0.2-0.4-0.2-0.5c0-0.1-0.1-0.1-0.1-0.1c0,0,0,0.1,0,0.1
		c0,0.1,0.2,0.3,0.3,0.4C33.8,31.1,33.8,31.2,33.8,31.3c0,0.4-0.2,0.9-0.7,1.4c-0.3,0.3-1,0.9-1.5,1.1l0.4-0.1
		c0.4-0.3,0.8-0.6,1.1-0.9C33.6,32.2,33.8,31.7,33.8,31.3z"/>
</g>
</svg>
