<?xml version="1.0" encoding="utf-8"?>
<!-- Generator: Adobe Illustrator 18.0.0, SVG Export Plug-In . SVG Version: 6.00 Build 0)  -->
<!DOCTYPE svg PUBLIC "-//W3C//DTD SVG 1.1//EN" "http://www.w3.org/Graphics/SVG/1.1/DTD/svg11.dtd">
<svg version="1.1" id="レイヤー_1" xmlns="http://www.w3.org/2000/svg" xmlns:xlink="http://www.w3.org/1999/xlink" x="0px"
	 y="0px" viewBox="0 0 60 60" enable-background="new 0 0 60 60" xml:space="preserve">
<path fill="#221F20" d="M10.8,26.8c0,0,0.1,0.5,0.7,0.4c0,0-0.3-0.1-0.1-0.4c0.2-0.3,0.4,0,0.4,0s0.9-2.2-1.6-3
	C10.2,23.8,12.1,24.8,10.8,26.8z M26.4,28.9c4.9,2.1,10.3,0.7,10.3,0.7C31.5,30.5,26.4,28.9,26.4,28.9z M13.1,32.8
	c-2.1,0-4.2-0.5-6-1.6c-1.8-1-3.2-2.6-4.3-4.4l0,0c-0.1-0.1-0.2-0.3-0.2-0.4c-1.4-2.5-1.8-4.8-1.9-4.8c-0.1,0,0.2,2.4,1.6,4.9
	c0.1,0.1,0.2,0.3,0.3,0.4l0,0c1.1,1.8,2.6,3.3,4.5,4.3C8.9,32.4,11,32.8,13.1,32.8z M34.9,24.6C34.9,24.6,34.9,24.6,34.9,24.6
	C34.9,24.6,34.9,24.6,34.9,24.6z M39.9,27c-0.1-0.3-0.3-0.6-0.7-0.8c-1.1-0.7-3.1-0.9-5.8-0.6c-2.7,0.2-5.5,1.1-8.3,2.6
	c-0.4-0.1-0.7-0.2-1.1-0.3c-0.1,0-0.2-0.1-0.3-0.1c-0.8-0.4-1.5-0.8-2.1-1.3c-1.1-0.9-1.8-2.2-1.9-3.6l-0.4,0c0.1,1.5,1,2.9,2.1,3.8
	c0.2,0.2,0.4,0.3,0.7,0.5c-1-0.5-1.8-1.1-2.5-1.7c-1.3-1.1-2-2.4-2-3.8c0-0.4,0.1-0.9,0.2-1.3c0.4-1.3,1.2-1.9,2-2.3
	c0.3-0.1,0.6-0.2,0.9-0.3c0.9-0.1,1.8,0,2.6,0.1c1.3,0.2,2.4,0.6,3.1,1.1c0.2,0.1,0.4,0.3,0.6,0.4c0.2,0.1,0.3,0.3,0.4,0.4
	c0.3,0.4,0.2,0.6,0.1,0.7c-0.1,0.1-0.3,0.1-0.6,0.2c-2.4,0.2-3.4-0.7-3.4-0.7c0.4-2.2-2.6-2.2-0.6-0.3c2,1.9,4.9,0.8,7.8,1.9
	c2.5,1,3.8,2.7,4.1,3.1c-2-3-4.4-4.7-7-5.9c-2.4-1.2-4.6-1.7-6.6-1.6c-2.4,0.2-4,1.1-5,2.7c-0.6,1-0.6,2-0.1,3.2
	c0.5,1.1,1.5,2.1,3,3.1c-2.3-1.1-4.3-2.8-5.4-5l-0.3,0.2c1.3,2.3,3.4,3.9,5.7,4.9c-0.4-0.1-0.8-0.3-1.3-0.4
	c-0.9-0.2-1.9-0.4-2.8-0.1c0.9-0.2,1.9,0,2.7,0.2c0.9,0.3,1.8,0.6,2.5,1.1c0.4,0.2,0.8,0.5,1,0.8c0.3,0.3,0.5,0.7,0.4,1.1
	c-0.2,0.7-1.2,1.1-2,1.4c-1.7,0.7-3.6,0.6-5.2-0.3c-0.4-0.2-0.8-0.5-0.9-0.9c-0.1-0.4,0.5-0.5,0.9-0.5c0.9,0.1,1.6,0.9,2,1.7
	c-0.4-0.8-1-1.7-2-1.9c-0.2,0-0.5,0-0.7,0c-0.2,0-0.5,0.3-0.4,0.6c0.2,0.5,0.6,0.8,1,1.1c1.1,0.7,2.3,1,3.6,0.9
	c-0.1,0-0.3,0.1-0.4,0.1c-0.3,0.1-0.7,0.2-1,0.2c-1,0.1-1.8,0.2-2.7,0.2c-2.8,0-5-0.6-6.4-1.5c-0.7-0.4-1.3-1-1.6-1.5
	c-0.4-0.5-0.5-1.1-0.5-1.7c0-0.4,0.1-0.8,0.3-1.1c0.3-0.7,0.8-1.2,1.2-1.5c0.5-0.3,1-0.4,1.5-0.4c0.6,0,1.2,0.2,1.6,0.5
	c0.2,0.2,0.4,0.3,0.5,0.5c0.1,0.2,0.2,0.4,0.2,0.6c0,0.1,0,0.3-0.1,0.4c0,0.1-0.1,0.2-0.1,0.3c0-0.3-0.2-0.6-0.5-0.8
	c0.1,0.1,0.2,0.3,0.2,0.4c0,0.4-0.6,0.8-1.4,0.8c-0.8,0-1.4-0.4-1.4-0.8c0-0.1,0.1-0.3,0.2-0.4c0,0,0,0.1,0,0.1
	c0,0.3,0.5,0.5,1.1,0.5c0.6,0,1.1-0.2,1.1-0.5c0-0.3-0.5-0.5-1.1-0.5c-0.2,0-0.4,0-0.6,0.1c-0.7,0.2-1.2,0.6-1.2,1.2
	c0,0.6,0.7,1.2,1.6,1.2c-0.2,0.1-0.6,0.5-0.4,1.1c0,0,0.1-0.9,0.8-0.8C9.6,28,10.6,28,11,27.3c0,0-0.4-0.1-0.3-0.6
	c0.1-0.2,0.2-0.4,0.3-0.6c0.1-0.2,0.1-0.4,0.1-0.6c0-0.3-0.1-0.6-0.2-0.8c-0.2-0.4-0.6-0.7-1-0.9c-0.4-0.2-0.9-0.3-1.5-0.3
	c-0.6,0-1.2,0.1-1.7,0.5c-0.5,0.3-1,0.9-1.4,1.6C5,26,4.9,26.5,4.9,26.9c0,0.1,0,0.3,0,0.4c0.2,1.4,1.2,3.9,6.6,4.8
	c1.7,0.3,3.4,0.3,5,0c0.9-0.1,1.9-0.3,2.9-0.5c-5.6,3.1-9.3,2.1-9.3,2.1c0.8-0.6-0.9-0.7-2.2-0.7C6.5,33,5,32.2,5,32.2
	c7.9,4.9,18.2-1.6,20.3-3c0.3-0.2,0.7-0.4,1.1-0.6c1.1,0.4,2.8,0.7,5.1,0.9c2.3,0.2,4.1,0.1,5.6-0.2c1.4-0.3,2.3-0.8,2.7-1.5
	C40,27.6,40,27.3,39.9,27z M19.5,26c-1.6-1-2.7-2-3.2-3.1c-0.5-1.1-0.5-2.1,0-3c0.6-1,1.7-1.7,3.4-2.2c0.2,0,0.4-0.1,0.5-0.1
	c-0.1,0-0.3,0.1-0.4,0.2c-0.8,0.4-1.6,1.1-2,2.4c-0.1,0.5-0.2,0.9-0.2,1.4c0,1.4,0.7,2.7,2,3.9c0.8,0.7,1.9,1.4,3.2,2
	C21.4,26.9,20.3,26.5,19.5,26z M21.8,29.7c0.2-0.2,0.4-0.5,0.5-0.8c0.1-0.6-0.2-1.1-0.5-1.4c-0.2-0.2-0.3-0.3-0.5-0.4
	c1,0.5,2.2,0.9,3.5,1.2c0,0,0.1,0,0.1,0C23.7,28.8,22.7,29.3,21.8,29.7z M39.6,27.7c-0.5,0.9-2.2,1.4-5,1.6c-2.8,0.2-5.5-0.1-8-0.8
	c1.3-0.8,2.9-1.4,4.8-2.1c1.9-0.6,3.5-0.9,4.8-0.8c1.2,0.1,2.2,0.3,3,0.7c0.3,0.2,0.5,0.4,0.6,0.6C39.7,27.3,39.7,27.5,39.6,27.7z
	 M19.4,22.8l0.4,0c-0.1-0.9,0-1.9,0.3-2.8C19.6,20.8,19.4,21.8,19.4,22.8z M13.7,20.9c-0.5-0.7-0.8-1.5-1.1-2.4
	c0.1,0.9,0.4,1.7,0.7,2.6L13.7,20.9z M14.9,27.6L14.9,27.6c0,0-0.1-0.1-0.1-0.1c-0.6-0.4-1.3-0.6-1.3-0.5c0,0.1,0.5,0.4,1.1,0.8
	l0.1,0.1v0c0.9,0.6,1.7,1.4,2.1,2.4C16.5,29.2,15.8,28.3,14.9,27.6z M17,30.2c0-0.6-0.2-1.3-0.5-1.9v0l0-0.1
	c-0.2-0.4-0.5-0.6-0.5-0.6c0,0,0.2,0.3,0.4,0.7l0,0.1l0,0C16.7,29,16.9,29.6,17,30.2z"/>
<path fill="#221F20" d="M49.4,34c0,0-0.1-0.5-0.7-0.4c0,0,0.3,0.1,0.1,0.4c-0.2,0.3-0.4,0-0.4,0s-0.9,2.2,1.6,3
	C50.1,37,48.1,36,49.4,34z M33.9,31.9c-4.9-2.1-10.3-0.7-10.3-0.7C28.7,30.4,33.9,31.9,33.9,31.9z M47.2,28c2.1,0,4.2,0.5,6,1.6
	c1.8,1,3.2,2.6,4.3,4.4l0,0c0.1,0.1,0.2,0.3,0.2,0.4c1.4,2.5,1.8,4.8,1.9,4.8c0.1,0-0.2-2.4-1.6-4.9c-0.1-0.1-0.2-0.3-0.3-0.4h0
	c-1.1-1.8-2.6-3.3-4.5-4.3C51.4,28.5,49.3,28,47.2,28z M25.4,36.3C25.4,36.2,25.4,36.2,25.4,36.3C25.3,36.2,25.4,36.2,25.4,36.3z
	 M20.4,33.9c0.1,0.3,0.3,0.6,0.7,0.8c1.1,0.7,3.1,0.9,5.8,0.6c2.7-0.2,5.5-1.1,8.3-2.6c0.4,0.1,0.7,0.2,1.1,0.3
	c0.1,0,0.2,0.1,0.3,0.1c0.8,0.4,1.5,0.8,2.1,1.3c1.1,0.9,1.8,2.2,1.9,3.6l0.4,0c-0.1-1.5-1-2.9-2.1-3.8c-0.2-0.2-0.4-0.3-0.7-0.5
	c1,0.5,1.8,1.1,2.5,1.7c1.3,1.1,2,2.4,2,3.8c0,0.4-0.1,0.9-0.2,1.3c-0.4,1.3-1.2,1.9-2,2.3c-0.3,0.1-0.6,0.2-0.9,0.3
	c-0.9,0.1-1.8,0-2.6-0.1c-1.3-0.2-2.4-0.6-3.1-1.1c-0.2-0.1-0.4-0.3-0.6-0.4c-0.2-0.1-0.3-0.3-0.4-0.4c-0.3-0.4-0.2-0.6-0.1-0.7
	c0.1-0.1,0.3-0.1,0.6-0.2c2.4-0.2,3.4,0.7,3.4,0.7c-0.4,2.2,2.6,2.2,0.6,0.3c-2-1.9-4.9-0.8-7.8-1.9c-2.5-1-3.8-2.7-4.1-3.1
	c2,3,4.4,4.7,7,5.9c2.4,1.2,4.6,1.7,6.6,1.6c2.4-0.2,4-1.1,5-2.7c0.6-1,0.6-2,0.1-3.2c-0.5-1.1-1.5-2.1-3-3.1c2.3,1.1,4.3,2.8,5.4,5
	l0.3-0.2c-1.3-2.3-3.4-3.9-5.7-4.9c0.4,0.1,0.8,0.3,1.3,0.4c0.9,0.2,1.9,0.4,2.8,0.1c-0.9,0.2-1.9,0-2.7-0.2
	c-0.9-0.3-1.8-0.6-2.5-1.1c-0.4-0.2-0.8-0.5-1-0.8c-0.3-0.3-0.5-0.7-0.4-1.1c0.2-0.7,1.2-1.1,2-1.4c1.7-0.7,3.6-0.6,5.2,0.3
	c0.4,0.2,0.8,0.5,0.9,0.9c0.1,0.4-0.5,0.5-0.9,0.5c-0.9-0.1-1.6-0.9-2-1.7c0.4,0.8,1,1.7,2,1.9c0.2,0,0.5,0,0.7,0
	c0.2,0,0.5-0.3,0.4-0.6c-0.2-0.5-0.6-0.8-1-1.1c-1.1-0.7-2.3-1-3.6-0.9c0.1,0,0.3-0.1,0.4-0.1c0.3-0.1,0.7-0.2,1-0.2
	c1-0.1,1.8-0.2,2.7-0.2c2.8,0,5,0.6,6.4,1.5c0.7,0.4,1.3,1,1.6,1.5c0.4,0.5,0.5,1.1,0.5,1.7c0,0.4-0.1,0.8-0.3,1.1
	c-0.3,0.7-0.8,1.2-1.2,1.4c-0.5,0.3-1,0.4-1.5,0.4c-0.6,0-1.2-0.2-1.6-0.5c-0.2-0.2-0.4-0.3-0.5-0.5c-0.1-0.2-0.2-0.4-0.2-0.6
	c0-0.1,0-0.3,0.1-0.4c0-0.1,0.1-0.2,0.1-0.3c0,0.3,0.2,0.6,0.5,0.8c-0.1-0.1-0.2-0.3-0.2-0.4c0-0.4,0.6-0.8,1.4-0.8
	c0.8,0,1.4,0.4,1.4,0.8c0,0.1-0.1,0.3-0.2,0.4c0,0,0-0.1,0-0.1c0-0.3-0.5-0.5-1.1-0.5c-0.6,0-1.1,0.2-1.1,0.5c0,0.3,0.5,0.5,1.1,0.5
	c0.2,0,0.4,0,0.6-0.1c0.7-0.2,1.2-0.6,1.2-1.2c0-0.6-0.7-1.2-1.6-1.2c0.2-0.1,0.6-0.5,0.4-1.1c0,0-0.1,0.9-0.8,0.8
	c-0.8-0.1-1.8-0.1-2.2,0.6c0,0,0.4,0.1,0.3,0.6c-0.1,0.2-0.2,0.4-0.3,0.6c-0.1,0.2-0.1,0.4-0.1,0.6c0,0.3,0.1,0.6,0.2,0.8
	c0.2,0.4,0.6,0.7,1,0.9c0.4,0.2,0.9,0.3,1.5,0.3c0.6,0,1.2-0.1,1.7-0.5c0.5-0.3,1-0.9,1.4-1.6c0.2-0.4,0.3-0.9,0.3-1.3
	c0-0.1,0-0.3,0-0.4c-0.2-1.4-1.2-3.9-6.6-4.8c-1.7-0.3-3.4-0.3-5,0c-0.9,0.1-1.8,0.3-2.9,0.5c5.6-3.1,9.3-2.1,9.3-2.1
	c-0.8,0.6,0.9,0.7,2.2,0.7s2.8,0.8,2.8,0.8c-7.9-4.9-18.2,1.6-20.3,3c-0.3,0.2-0.7,0.4-1.1,0.6c-1.1-0.4-2.8-0.7-5.1-0.9
	c-2.3-0.2-4.1-0.1-5.6,0.2c-1.4,0.3-2.3,0.8-2.7,1.5C20.3,33.3,20.3,33.5,20.4,33.9z M40.7,34.8c1.6,1,2.7,2,3.2,3.1
	c0.5,1.1,0.5,2.1,0,3c-0.6,1-1.7,1.7-3.4,2.2c-0.2,0-0.4,0.1-0.5,0.1c0.1,0,0.3-0.1,0.4-0.2c0.8-0.4,1.6-1.1,2-2.4
	c0.1-0.5,0.2-0.9,0.2-1.4c0-1.4-0.7-2.7-2-3.9c-0.8-0.7-1.9-1.4-3.2-2C38.8,33.9,39.9,34.4,40.7,34.8z M38.5,31.2
	c-0.2,0.2-0.4,0.5-0.5,0.8c-0.1,0.6,0.2,1.1,0.5,1.4c0.2,0.2,0.3,0.3,0.5,0.4c-1-0.5-2.2-0.9-3.5-1.2c0,0-0.1,0-0.1,0
	C36.5,32,37.5,31.6,38.5,31.2z M20.7,33.1c0.5-0.9,2.2-1.4,5-1.6c2.8-0.2,5.5,0.1,8,0.8c-1.3,0.8-2.9,1.4-4.8,2.1
	c-1.9,0.6-3.5,0.9-4.8,0.8c-1.2-0.1-2.2-0.3-3-0.7c-0.3-0.2-0.5-0.4-0.6-0.6C20.5,33.6,20.5,33.3,20.7,33.1z M40.9,38.1l-0.4,0
	c0.1,0.9,0,1.9-0.3,2.8C40.6,40.1,40.9,39.1,40.9,38.1z M46.5,39.9c0.5,0.7,0.8,1.5,1.1,2.4c-0.1-0.9-0.4-1.7-0.7-2.6L46.5,39.9z
	 M45.3,33.2L45.3,33.2c0,0,0.1,0.1,0.1,0.1c0.6,0.4,1.3,0.6,1.3,0.5c0-0.1-0.5-0.4-1.1-0.8l-0.1-0.1h0c-0.9-0.6-1.7-1.4-2.1-2.4
	C43.7,31.6,44.4,32.6,45.3,33.2z M43.2,30.6c0,0.6,0.2,1.3,0.5,1.9h0l0,0.1c0.2,0.4,0.5,0.6,0.5,0.6c0,0-0.2-0.3-0.4-0.7l0-0.1l0,0
	C43.6,31.8,43.3,31.2,43.2,30.6z"/>
</svg>
