<?xml version="1.0" encoding="utf-8"?>
<!-- Generator: Adobe Illustrator 18.0.0, SVG Export Plug-In . SVG Version: 6.00 Build 0)  -->
<!DOCTYPE svg PUBLIC "-//W3C//DTD SVG 1.1//EN" "http://www.w3.org/Graphics/SVG/1.1/DTD/svg11.dtd">
<svg version="1.1" id="レイヤー_1" xmlns="http://www.w3.org/2000/svg" xmlns:xlink="http://www.w3.org/1999/xlink" x="0px"
	 y="0px" viewBox="0 0 60 60" enable-background="new 0 0 60 60" xml:space="preserve">
<path fill="#221F20" d="M11,30.3c1.6-0.3,3.3-1.1,4.3-2.6l0,0c0-0.1,0.1-0.1,0.1-0.2c0.6-1.1,0.4-2.1,0.3-2.1
	c-0.1,0-0.2,0.9-0.7,1.9l-0.1,0.2l0,0C14.1,28.8,12.5,29.8,11,30.3z M22,38.5L22,38.5c0.2,0-0.3-0.1-0.2-0.1h0c0,0,0,0-0.1,0
	c-0.1,0-0.2,0-0.3,0c-0.5,0-0.9-0.1-1.4-0.2c-1.8-0.5-3.3-2-4.5-3.6c-0.1-0.1-0.1-0.2-0.3-0.3L15,34.2l-0.6-0.5
	c-0.4-0.3-0.8-0.6-1.1-1c-0.8-0.7-1.5-1.3-2.2-2c0.7,0.7,1.4,1.4,2.1,2.1c0.4,0.3,0.7,0.7,1.1,1l0.6,0.5l0.3,0.3
	c0.1,0,0.1,0.2,0.2,0.3c1.1,1.6,2.5,3.3,4.5,4c0.5,0.1,1,0.2,1.6,0.2c0.1,0,0.3,0,0.4-0.1l0.1,0.1c0.2,0.2,0.4,0.3,0.6,0.5
	c0.8,0.6,1.6,1.2,2.5,1.7c1.7,1,3.6,1.8,5.5,2.3c-1.9-0.6-3.7-1.5-5.4-2.6c-0.8-0.5-1.6-1.1-2.4-1.8c-0.2-0.2-0.4-0.3-0.5-0.5
	L22,38.5L22,38.5L22,38.5L22,38.5z M13.8,25.4c0,0.1,0,0.2,0,0.2l0,0c0,0.4-0.1,0.7-0.2,1.1c0.2,0,0.3,0,0.5,0
	c0.1-0.3,0.2-0.6,0.3-1l0,0c0-0.1,0-0.2,0-0.2c0.2-1.5-0.4-2.6-0.5-2.5C13.7,23,14,24,13.8,25.4z M12.5,19.8c-0.5,0-1.1-0.1-1.7-0.2
	c0,0-0.7,0.1-2.4,0.6c-0.8,0.3-1.9,0.7-3.1,1.5c-1.2,0.8-2.5,2.1-3,4.1l0,0l0,0l0,0l0,0v0l0,0c0.6-2,2-3.3,3.2-3.9
	c1.2-0.7,2.3-0.9,3.1-1.1c1.7-0.3,2.4-0.1,2.4-0.2c0.3-0.1,0.6-0.2,0.9-0.2C12,20.3,12.2,20,12.5,19.8z M14.9,19.8
	c-0.4,0.2-0.7,0.4-1,0.6c0.3,0,0.6,0.1,0.8,0.1c1,0.2,1.7,0.5,2.6,0.5c1.7,0.1,2.2-0.2,2.2-0.2l0,0c0,0-0.3-0.5-2-1
	C16.6,19.6,15.8,19.7,14.9,19.8z M8.3,24.4c0.4-0.1,0.7-0.2,1-0.4c0.4,0.2,0.8,0.4,1.2,0.7c0.6,0.5,1.1,1.2,1.3,1.9
	c0.2,0.8-0.2,1.5-0.8,2.1c-0.4,0.4-0.8,0.7-1.2,1c0.1,0.1,0.1,0.1,0.2,0.2c0.5-0.3,0.9-0.6,1.3-1c0.6-0.6,1-1.5,0.9-2.4
	c-0.2-0.9-0.7-1.6-1.4-2.1c-0.3-0.2-0.7-0.5-1-0.6c0.3-0.2,0.6-0.4,0.8-0.7c0.6-0.6,1.1-1.2,1.7-1.8l0,0c0.4-0.4,0.7-0.7,1.1-1
	c1.8-1.3,3.9-1.9,5.8-2.2c1.9-0.3,3.7,0,5,0.5c2.8,1,3.9,2.7,3.9,2.6c0,0-0.2-0.4-0.8-1c-0.6-0.6-1.6-1.4-3-1.9
	c-1.4-0.6-3.2-0.8-5.2-0.6c-2,0.3-4.1,0.8-6,2.2c-0.4,0.3-0.8,0.7-1.2,1.1l0,0c-0.9,0.9-1.7,2-2.7,2.6c-1-0.3-2.2-0.4-3.3-0.2
	c-0.2,0-0.4,0.1-0.6,0.2c-0.2,0.1-0.4,0.1-0.6,0.4c-0.1,0.1-0.1,0.3,0,0.4c0.1,0.1,0.1,0.1,0.2,0.2c0.1,0.1,0.2,0.1,0.3,0.1
	c0.2,0,0.4,0.1,0.6,0.1C6.6,24.7,7.5,24.7,8.3,24.4z M8.6,23.8c-0.1,0.1-0.3,0.1-0.5,0.1c-0.8,0.2-1.6,0.3-2.4,0.2
	c-0.2,0-0.4,0-0.6-0.1c-0.1,0-0.1,0-0.2-0.1c0.2-0.1,0.6-0.2,0.9-0.3C6.8,23.6,7.7,23.6,8.6,23.8z M4.1,35.4
	c-0.4,1.6-0.2,3.4,0.4,4.9c0.6,1.5,1.6,2.9,2.7,4.2c-1.1-1.3-2-2.6-2.6-4.2C4,38.7,3.8,37,4.2,35.4c0.4-1.6,1.5-3,2.8-3.9
	c0.6-0.3,1.2-0.6,1.9-1c0-0.1-0.1-0.1-0.1-0.2c-0.6,0.3-1.3,0.6-1.9,1C5.6,32.3,4.5,33.8,4.1,35.4z M1.1,31.8l0.2,8.3l0.2-8.3
	c0-1.4,0-2.8,0.1-4.1c0.1-1.3,0.5-2.7,1.1-3.8l0,0c0.1-0.2,0.2-0.4,0.3-0.5c0.9-1.6,2.3-2.6,3.3-3.2c1-0.6,1.8-0.8,1.7-0.9
	c0-0.1-0.8,0-2,0.5c-1.1,0.5-2.7,1.6-3.7,3.3c-0.1,0.2-0.2,0.4-0.3,0.6l0,0c-0.6,1.3-0.9,2.7-1,4.1C1,29.1,1.1,30.5,1.1,31.8z
	 M31.1,18.3c0.1-0.1-1.9-1.7-4.9-2.3c-0.2,0-0.3-0.1-0.5-0.1v0c-2.2-0.4-4.5-0.3-6.6,0.2c-2.1,0.6-4.1,1.6-5.9,2.9
	c1.8-1.3,3.8-2.2,5.9-2.7c2.1-0.5,4.3-0.4,6.5,0v0c0.2,0,0.3,0.1,0.5,0.1C28.9,17.1,31,18.4,31.1,18.3z M2.3,27.9
	c-0.4,0.8-0.5,1.7-0.5,2.6c0,0.9,0,1.9,0,2.9v0v0v0c0-1,0-2,0-2.9c0-0.9,0.1-1.8,0.5-2.6c0.4-0.7,1.1-1.2,1.8-1.4
	c0.7-0.1,1.4,0.1,2,0.4c1.2,0.7,1.8,1.8,2.4,2.7c0.7,0.9,1.2,1.7,1.8,2.4c1.8,2.3,2.7,3.4,2.9,3.7c0,0.1,0.1,0.1,0.1,0.1
	c1,0.7,1.9,1.4,2.7,2c2.5,2.2,3.6,4,3.6,4c5.3,3.7,13.3,2.5,13.3,2.5c-5.6-0.5-11.7-4.9-11.7-4.9c-2.4,0-4.4-1.8-5.6-3.2
	c-0.4-0.5-0.8-1-1.2-1.6c0,0-1.1-0.8-3.4-3.2c-0.6-0.6-1.2-1.3-2-2.2c-0.7-0.8-1.4-1.9-2.8-2.7c-0.6-0.3-1.4-0.5-2.2-0.4
	C3.4,26.6,2.7,27.1,2.3,27.9z M7.3,37.3C7.7,37.7,8.4,38,9.2,38c0.8,0,1.7-0.5,2.1-1.3c0.1-0.2,0.2-0.4,0.2-0.6h0
	c0.2-0.7,0-1.4-0.4-1.9c-0.4-0.5-1-0.9-1.5-1.1c-0.6-0.2-1.2-0.3-1.9-0.2c-0.6,0.1-1.2,0.4-1.6,0.9c-1.8,1.8-1.9,4.6-0.9,6.8
	c-0.5-1.1-0.6-2.3-0.5-3.5c0.2-1.2,0.7-2.3,1.5-3.1c0.9-0.8,2.1-1,3.2-0.5c0.5,0.2,1,0.6,1.3,1c0.3,0.4,0.4,1,0.2,1.5l0,0
	c0,0.2-0.1,0.3-0.2,0.5c-0.4,0.6-1,1-1.7,1c-0.6,0.1-1.2-0.2-1.6-0.5c-0.8-0.6-1.1-1.3-1.1-1.2C6.3,35.8,6.5,36.5,7.3,37.3z
	 M10.4,30.1c0.9-0.4,1.8-1,2.5-1.7c0.1-0.1,0.2-0.2,0.3-0.3c-0.1,0-0.3,0-0.4,0C12.3,28.9,11.4,29.6,10.4,30.1z M24.3,14.4
	c0-0.1-1.7-0.3-3.8,0.1c-0.1,0-0.2,0-0.4,0.1l0,0c-3.1,0.7-5.8,2.4-7.9,4.7c2.1-2.2,4.9-3.8,8-4.4l0,0c0.1,0,0.2-0.1,0.4-0.1
	C22.5,14.3,24.3,14.4,24.3,14.4z M14.7,26.8c-0.9,0-1.7,0.1-2.3,0.1c0,0.2,0,0.5-0.2,0.8c0.6,0,1.3,0.1,2.1,0.1
	c0.2-0.3,0.4-0.7,0.6-1C14.8,26.8,14.7,26.8,14.7,26.8z M11.6,27c-1.9,0.2-2.4,0.3-2.4,0.3l0,0l0,0c0,0,0.5,0.2,2.3,0.3
	C11.6,27.5,11.6,27.3,11.6,27z M31.6,27.8c0,0,7.1-0.4,28.4-0.5h0h0h0c-21.3-0.1-28.4-0.5-28.4-0.5C23.7,27.5,20,26.8,16,26.8
	c-0.1,0.3-0.3,0.7-0.6,1.1C19.6,28,23.4,27.2,31.6,27.8z"/>
</svg>
