<?xml version="1.0" encoding="utf-8"?>
<!-- Generator: Adobe Illustrator 18.0.0, SVG Export Plug-In . SVG Version: 6.00 Build 0)  -->
<!DOCTYPE svg PUBLIC "-//W3C//DTD SVG 1.1//EN" "http://www.w3.org/Graphics/SVG/1.1/DTD/svg11.dtd">
<svg version="1.1" id="レイヤー_1" xmlns="http://www.w3.org/2000/svg" xmlns:xlink="http://www.w3.org/1999/xlink" x="0px"
	 y="0px" viewBox="0 0 60 60" enable-background="new 0 0 60 60" xml:space="preserve">
<path fill="#221F20" d="M54.9,15.3c2-0.2,4.6-2.5,5.1-4.7c-1.5,1.2-4.8,2.6-6.4,2.4c0,0,4.7-3.8,4.8-10.9
	c-3.3,10.1-15.4,17.3-34.2,20.5C5.3,25.8,1.1,38,0.5,42.2l0,0c-1.1,6.6,2.6,13.1,8.7,14c3,0.4,4.3,0.3,6.1-0.2
	c0.4-0.1,0.7-0.1,1.9-0.9c3-1.8,3.9-4.4,2.5-7.1c-1.4-2.7-4.2-2.3-4.2-2.3c-2.4,0-4.6,1.8-4.6,4.2c0,0,0,0,0,0c0,0.9,0.6,1.6,1,2
	c1.4,1.2,3.1,0,3.1,0s-1-0.3-1-1.6c0-1.7,3.1-2.3,3.1,0.5c0,1.2-0.9,2.1-1.9,2.7c-0.2,0.1-0.4,0.2-0.6,0.3c-2.4,1.1-4.5,0.7-6.4-0.4
	c-0.6-0.6-1.1-1.4-1.2-2.3c-0.2-2.5,1.5-3.9,1.5-3.9s-1.8,0.2-2.8,1.3c0.2-1.5,0.8-3.3,2.4-4.7c0,0-2.7,1-4.2,4c0-0.2,0-0.4-0.1-0.6
	c0-1.4,0.3-4.5,2.2-6.6c2.6-2.7,6.4-4.1,7.8-1.8c1.3,2.3-2.7,3.2-2.3,0.5c0,0-2.4,0.9-1.3,3.5c1.1,2.6,6.4,1.6,7-0.8
	c0,0,0.5,1.9,4.1,1.8c-2.2,5.3,2.5,7.9,4.9,6.7c2.5-1.2,1.2-2.7,1.2-2.7s0,0.7-1.2,0.7c-1.2,0-1.3-2.2,0-2.2c2.5,0,1.4,3,6.6,3
	c5.2,0,5.8-5.1,5.8-5.1S37.7,46,34.7,46c-3,0-3.6-3.9-5.6-4.5c-0.8-0.2-1.5-0.2-2.2-0.1c1.2-1.3,1.8-2.8,1.8-3.6c0,0-1,1.4-2.7,0.8
	c-1.7-0.6-0.9-3-3.5-4.8c-2.7-1.8-5.6,0.8-5.6,0.8s1.5-3-1.6-4.1c-0.5-0.2-1-0.2-1.7-0.2c0,0,0.1,0,0.1,0
	c10.9-4.7,14.5,4.1,14.4,5.2c-0.1,1.3,0.7,1.7,0.7,1.7c0.1-1.9,1.8-1,1.8-1s-1.3,2.2,0.8,4.1c2.1,1.9,4.3,0.1,4.3,0.1
	c-2.4-1.4,1.1-4.2,2.1-1.5c1,2.7-1.4,3-1.4,3c1.1,0.1,4.5-0.8,4.6-4.1c0.1-3.2-2.3-4.7-2.3-4.7c1.6-0.1,1.3-1.7,1.3-1.7
	c-1.8,0.7-1.8-1-3-2.6c-0.8-1-1.9-1-2.6-0.9c0.6-0.4,0.5-1.5,0.5-1.5c-2.1,1.3-2.1-0.2-3.1-0.6c-1.1-0.4-1.8,0.8-1.8,0.8
	s-1.4-1.8-3.8-1.8c-0.7,0-1.5,0-2.2,0.1c2.1-0.2,4.5-0.4,7-0.2c7.1,0.4,9.2,1.8,9.5,3.1c0.3,1.3-1.7,1.8-1.9,0.8
	c0,0-0.5,0.9,0.6,1.6c1.1,0.7,4.4,0.4,3.9-3.1c0,0,2.2,0.6,3.1,3.9c0.9,3.3-3,3-2.1,1c0,0-1.9-0.1-1.9,2.1s5.8,4.3,7.2-0.6
	c1.1-3.8-3-7.9-8.2-9.7c1.7,0.1,3,0.2,3.8,0.4c3.4,0.8,2.4,2.4,2.4,2.4c3.3-0.9,2.1-5.2,2.1-5.2c1.2,2.6,4,3.1,5.6,1.4
	c1.6-1.7,0.8-4,0.8-4C52.7,21.7,50.1,16,54.9,15.3z"/>
</svg>
