<?xml version="1.0" encoding="utf-8"?>
<!-- Generator: Adobe Illustrator 18.0.0, SVG Export Plug-In . SVG Version: 6.00 Build 0)  -->
<!DOCTYPE svg PUBLIC "-//W3C//DTD SVG 1.1//EN" "http://www.w3.org/Graphics/SVG/1.1/DTD/svg11.dtd">
<svg version="1.1" id="レイヤー_1" xmlns="http://www.w3.org/2000/svg" xmlns:xlink="http://www.w3.org/1999/xlink" x="0px"
	 y="0px" viewBox="0 0 60 60" enable-background="new 0 0 60 60" xml:space="preserve">
<symbol  id="明るいベクトルパック_02" viewBox="-160.2 -59.8 320.5 119.6">
	<path fill="#221F20" d="M140.6,6.1c-5,0-9.5-1.9-13-4.9c0,0.1-0.1,0.1-0.2,0.2c-0.1,0.2-2.6,2.5-5.1,6.7c-1.2,2.1-2.4,4.7-2.2,7.4
		c0.2,2.6,2.5,5.5,5.2,5.9c2.8,0.2,5.4-2.4,6.3-5c1.2-2.6-1.2-5.3-3.3-5.2c-2.4,0-3.3,2.3-2.4,3.5c0.7,1.2,1.7,1,1.7,1.1
		c0.1,0-1.1,0.5-2.1-0.9c-0.4-0.7-0.7-1.6-0.3-2.7c0.5-1.1,1.7-1.7,3.1-1.9c2.8-0.4,6,3.1,4.6,6.5c-1,3-3.6,6.3-7.7,6.3
		c-3.9-0.4-6.6-3.9-7-7.3c-0.3-3.5,1-6.4,2.2-8.7c1.1-1.9,2.2-3.5,3.1-4.7c-2.5,1.8-5.5,3.7-8.8,5c-5.2,2.4-10.7,3.7-14.7,4.4
		c0.1,0.6,0.1,1.1,0.1,1.7c0,7-5.7,12.8-12.8,12.8c-2.4,0-4.6-0.7-6.5-1.8c-1.3,1.2-3,2.5-4.9,3.5c-2,1.2-4.3,1.7-6.2,1.9
		c0.1,0.7,0.2,1.4,0.2,2.1c0,6-4.9,10.9-10.9,10.9c-6,0-10.9-4.9-10.9-10.9c0-6,4.9-10.9,10.9-10.9c4.5,0,8.4,2.8,10.1,6.7
		c1.8-0.1,4-0.4,6.1-1.4c1.4-0.6,2.7-1.4,3.9-2.1c-2.3,0-7.3-0.7-12.3-3.2c-0.2,0-0.4,0-0.5-0.2c0,0-0.1-0.1-0.2-0.2
		c-0.9-0.5-1.8-1-2.7-1.6c-3.3-2-6.1-4.6-8.3-7c-2.7,2.6-6.3,4.2-10.3,4.2c-3.9,0-7.5-1.5-10.2-4c-1.2,1-2.7,2.1-4.4,2.9
		c-2,1-4.1,1.7-5.9,2.1c0.4,1.5,0.6,3.1,0.6,4.7c0,10.2-8.3,18.5-18.5,18.5c-1.7,0-3.3-0.2-4.8-0.6c0,0.1,0.1,0.2,0,0.4
		c0,0.1-0.3,2.2,0.2,5.1c0.3,1.4,0.8,3,2.1,3.7c1.2,0.7,3.4,0.4,4.8-0.5c3.3-1.9-0.3-7.6-2.8-5.9c-2.9,1.7-0.4,3.8-0.5,3.7
		c0,0.1-0.6-0.1-1.2-0.9C3.5,44.8,4,42.9,5.5,42c3.5-2.5,8.9,4.4,4.2,8.1c-2,1.2-4.4,1.8-6.7,0.8c-2.2-1.2-2.9-3.4-3.3-5
		c-0.4-1.9-0.5-3.5-0.4-4.5c-0.2,0.3-0.4,0.6-0.6,0.9c-0.5,0.7-1,1.3-1.5,1.9c0.4,1,0.7,2.1,0.7,3.2c0,4.5-3.6,8.1-8.1,8.1
		c-4.5,0-8.1-3.6-8.1-8.1c0-4.5,3.6-8.1,8.1-8.1c2.6,0,4.9,1.2,6.4,3.2c0.4-0.4,0.9-0.8,1.3-1.3c0.6-0.7,1.3-1.4,1.8-2.1
		c-6.6-2.8-11.3-9.4-11.3-17c0-1.2,0.1-2.4,0.4-3.6c-0.7-0.2-1.5-0.5-2.3-0.6c-1.4-0.3-2.7-0.1-3.4,0.1c-1.4,4.3-5.4,7.3-10.2,7.3
		c-2,0-3.9-0.6-5.5-1.5c-0.1,0.2-0.3,0.5-0.5,0.7c-0.1,0.3-3.6,3.2-5.9,9c-1.1,2.8-1.4,6.6,0.6,9.7c1.8,3.4,6.6,2.8,9.5,0
		c3.1-2.6,3.9-7.4,0.3-9.5c-1.4-1.2-3.2-1.7-4.6-0.8c-1.4,0.7-2.3,2.3-2.6,3.7c-0.3,1.4,0,2.9,1.1,3.4c1,0.5,2.2,0.3,3,0
		c1.7-0.6,2-1.8,2.1-1.7c0.1-0.1,0,1.4-1.9,2.2c-0.9,0.4-2.1,0.8-3.5,0.2c-1.5-0.6-2-2.5-1.7-4.1c0.3-1.7,1.1-3.5,2.9-4.5
		c1.8-1.2,4.4-0.5,6,0.8c1.6,1.1,3.4,3.2,3.1,5.7c-0.2,2.4-1.5,4.4-3.1,6c-1.6,1.6-3.7,2.8-6.1,3c-2.4,0.3-4.9-1.2-6.1-3.1
		c-2.6-3.7-2.2-8.4-1-11.5c1.2-3.1,2.6-5.4,3.8-7c-2.7,2.6-6.6,5.6-11.1,7.8c-1.9,1-3.8,1.9-5.7,2.6c0.5,1.4,0.8,2.9,0.8,4.4
		c0,7.2-5.8,13.1-13.1,13.1c-7.2,0-13.1-5.8-13.1-13.1c0-7.2,5.8-13.1,13.1-13.1c5,0,9.3,2.8,11.5,6.9c1.9-0.7,3.9-1.5,5.8-2.4
		c2.4-1,4.6-2.3,6.6-3.6c-2-0.6-6.1-2-9.9-4.3c-2.6-1.6-5.1-3.6-6.6-5.6c-0.5-0.6-0.9-1.2-1.1-1.8c-3.3,4.5-8.7,7.5-14.7,7.5
		c-4.8,0-9.1-1.8-12.4-4.9c-0.4,0.5-0.9,1-1.4,1.4c-0.2,0.4-6.8,5-12.3,14.6c-2.6,4.6-4.2,11.5-0.3,17.1c1.9,2.7,4.6,5.2,7.8,5.5
		c3.3,0.3,6.5-1.9,8.5-4.7c2-2.8,3.2-6.5,2.1-9.6c-1.4-2.8-4.6-5.3-7.7-5.6c-3.2-0.5-6.1,1.9-6.7,4.8c-0.7,2.9,1.2,5.7,3.2,7.2
		c2,1.7,4.9,2,6.1,0.1c1.1-1.7,1.4-3.9,0.4-5c-2.4-2.1-4.6-0.7-4.4-0.7c-0.4,0,1.9-1.9,4.8,0.3c1.3,1.3,1.1,3.8-0.1,5.7
		c-1.3,2.4-5.1,2.1-7.2,0.3c-2.2-1.7-4.4-4.6-3.7-8.2c0.5-3.4,4.1-6.4,7.9-5.9c3.8,0.5,7,2.8,8.9,6.3c1.4,3.9,0,8-2.2,11.1
		c-2.2,3.1-5.8,5.8-10,5.5c-4.2-0.4-7.2-3.3-9.3-6.2c-4.6-6.3-2.8-14.3-0.1-19.2c3.8-6.7,7.9-11,10.4-13.3c-4,3-9.7,6.7-16.1,9.4
		c-12,5.6-25.6,6.7-26.1,6.7c0,0,0,0,0,0c-0.6,6.4-6,11.4-12.5,11.4c-7,0-12.6-5.6-12.6-12.6c0-7,5.6-12.6,12.6-12.6
		c6.6,0,12,5,12.5,11.4c1.5,0,14-0.9,25.4-5.8c8.9-3.4,16.7-8.8,20.3-11.3c-2.2-2.6-3.6-5.9-4-9.4c-1.3-0.4-2.8-0.9-4.4-1.1
		c-2.4-0.5-4.7-0.1-6,0.3c-1.3,4.1-5.2,7.1-9.8,7.1c-5.7,0-10.3-4.6-10.3-10.3c0-5.7,4.6-10.3,10.3-10.3c5.7,0,10.3,4.6,10.3,10.3
		c0,0.3,0,0.5,0,0.8c1.7-0.2,3.9-0.2,5.9,0.5c1.5,0.4,2.8,0.9,3.9,1.5c0-0.3,0-0.6,0-0.9c0-10,8.1-18.2,18.2-18.2S-57.1-4-57.1,6
		c0,2.9-0.7,5.7-1.9,8.2c0,0.3,0.2,1.5,1.3,3.1c1.2,1.8,3.3,3.8,5.7,5.4c3.7,2.6,7.8,4.5,9.5,5.4c1.3-0.9,2.5-1.8,3.6-2.6
		c-0.9,0-2-0.1-3.2-0.4c-3.6-0.7-6.6-5.9-4.4-10.2c1.2-2.1,4.1-3,6.1-1.6c1.9,1.6,1.5,4,0.6,5.4c-1.2,1.5-3.2,0.9-3.6,0
		c-0.5-1,0.3-1.5,0.2-1.4c0.1,0-0.3,0.6,0.2,1.1c0.4,0.6,1.8,0.8,2.5-0.2c0.5-1,0.6-3-0.6-3.7c-1.2-0.8-3.2-0.1-3.8,1.3
		c-0.7,1.4-0.4,3.4,0.3,4.8c0.7,1.4,2,2.2,3.2,2.5c2.6,0.6,4.6,0,4.7,0c0.2,0,0.5,0,0.7,0.2c0.4-0.4,0.7-0.7,1-1
		c-1.9-1.9-3.2-4.6-3.2-7.6c0-5.9,4.8-10.7,10.7-10.7c5.9,0,10.7,4.8,10.7,10.7c0,0.4,0,0.7-0.1,1.1c1,0,2.2,0.1,3.3,0.6
		c0.8,0.3,1.5,0.7,2.1,1.1C-9.4,9.4-2.2,3.6,6.4,3.6c7.8,0,14.5,4.9,17.2,11.8c1.8-0.3,3.8-0.8,5.8-1.6c1.6-0.6,3-1.4,4.3-2.2
		c-2.4-2.7-3.9-6.2-3.9-10.1c0-2,0.4-3.9,1.1-5.7C28-6,24.2-7.8,20.1-9.1C13.9-11.3,7.7-10.9,4-10.1C2.5-6.5-1-3.8-5.3-3.8
		c-5.5,0-10-4.5-10-10c0-5.5,4.5-10,10-10c5.5,0,10,4.5,10,10c0,0.4,0,0.8-0.1,1.2c0.6-0.1,1.3-0.2,2-0.2c4-0.4,9.2,0.4,14,2.1
		c2.6,0.9,5,2.1,7.2,3.3c-0.8-0.8-1.9-2.1-3.3-3.9c-2.2-3.1-5.3-7.9-5.7-14.5c-0.2-3.3,0.4-6.8,2-10.2c1.5-3.4,5-6.5,9.3-6.7
		c4.2-0.3,8.3,1.6,11.2,4.8c2.9,3.1,4,8.3,1.7,12.2c-2.2,3.7-5.6,6.7-10.1,7.2c-4.6,0.3-8.2-3.4-9.1-7.3c-1.1-4.1,1.4-8,4.3-10.1
		c3.3-2.3,7.4-0.8,9.5,1.4c2.6,1.8,3.5,5.7,1.6,7.7c-1.6,2.1-4.3,2.7-6,1.7c-3-2.2-2.2-4.7-2.3-4.9c0.2,0-0.3,2.6,2.5,4.5
		c1.5,0.7,3.9,0.1,5.2-1.7c1.5-1.9,0.8-4.9-1.6-6.6c-2.1-2-5.6-3.1-8.3-1.1c-2.5,1.8-4.7,5.4-3.7,8.8c0.8,3.4,4.1,6.4,7.7,6.1
		c3.6-0.4,6.9-3.3,8.7-6.5c4-7.2-4.5-15.1-11.3-14.2c-7.4,0.7-9.7,9.4-9.3,14.8c0.4,5.9,3.3,10.3,5.4,13.2c2.2,2.9,3.9,4.4,4,4.6
		c0.7,0.7,1.2,1.3,1.7,1.9c2.6-4.3,7.4-7.2,12.8-7.2c8.2,0,14.9,6.7,14.9,14.9c0,3.5-1.2,6.6-3.2,9.2c1.8,2.1,4.2,4.5,6.9,6.5
		c-0.4-0.9-0.8-1.9-0.9-3.1c-0.2-1.7,0.9-3.4,2.1-4.3c1.2-1.1,3.5-1.3,4.7-0.1c1.2,1,1.5,2.8,0.9,3.9c-1.3,2.5-3.5,1.2-3.2,1.2
		c-0.1-0.2,1.8,0.3,2.4-1.5c0.8-1.7-2-4.1-3.7-2.2c-2.1,1.6-1.2,4.1,0,5.6c1.1,1.6,2.2,2.5,2.3,2.6c0.2,0.2,0.2,0.5,0.1,0.8
		c4.9,2.6,9.8,3.5,11.6,3.9c0.1,0,0.1-0.1,0.2-0.1c-3.2-2.3-5.3-6.1-5.3-10.3c0-7,5.7-12.8,12.8-12.8c5.7,0,10.5,3.7,12.2,8.9
		c3.9-0.5,9.4-1.6,14.5-3.8c1.7-0.6,3.4-1.4,4.9-2.2c-1.5-0.2-3.8-0.7-6-1.9c-1.5-0.7-2.8-1.8-3.8-2.9c-2.1,1.6-4.7,2.6-7.5,2.6
		c-6.7,0-12.1-5.4-12.1-12.1c0-4.8,2.8-9,6.9-10.9c0-0.1-0.1-0.1-0.1-0.2c0-0.1-0.1-0.4-0.2-0.8c-0.5-0.7-1-1.4-1.6-2.2
		c-1.5,0.2-4.9,0.7-7.7,2.4c-0.7,0.4-1.4,0.9-2,1.4c1,1.4,1.6,3.2,1.6,5.1c0,5-4,9-9,9c-5,0-9-4-9-9s4-9,9-9c2.4,0,4.6,1,6.2,2.5
		c0.7-0.5,1.6-1,2.4-1.4c3.1-1.5,6.3-1.7,8.1-1.5c-1.1-1.4-2.3-2.9-3.6-4.2c-1.8-1.9-3.8-3.4-5.7-4.4c-2.5,3.6-6.7,6-11.5,6
		c-7.7,0-14-6.3-14-14c0-1,0.1-2,0.3-2.9c-1.3,0.2-3.5,0.4-5.7,0.1c-2.2-0.1-4.2-1.1-5.5-2c-1.5,2-3.8,3.3-6.5,3.3
		c-4.5,0-8.1-3.6-8.1-8.1c0-4.5,3.6-8.1,8.1-8.1c4.5,0,8.1,3.6,8.1,8.1c0,1-0.2,1.9-0.5,2.8c0.9,0.8,2.5,1.9,4.8,2.3
		c2.1,0.5,4.3,0.7,5.6,0.9c1.6-6,7-10.3,13.5-10.3c7.7,0,14,6.3,14,14c0,2.2-0.5,4.4-1.5,6.2c2.1,1.2,4.1,3,5.9,5.1
		c1.4,1.6,2.6,3.4,3.6,5c-0.2-1.1-0.3-2.4-0.3-3.8c0.1-1.4,0.3-3.2,1.1-4.8c0.1-0.3,0.2-0.5,0.4-0.8c0.1-0.2,2.3-3.2,4.3-8.1
		c0.9-2.4,1.8-5.6,0.4-8.1c-1.4-2.2-5.6-3.6-7.8-1.5c-2.3,2.1-2.6,6.2-1,8.6c1.6,2.9,5.4,1.2,6.4-0.9c1.3-2.2-1.4-4.1-2.6-3.8
		c-1.6,0-1.6,1.3-1.7,1.2c0,0.2-0.2-1.4,1.7-1.7c1.4-0.5,4.9,1.5,3.5,4.7c-0.6,1.3-1.8,2.5-3.5,3c-1.7,0.6-3.8-0.2-4.8-1.8
		c-2-3-2-7.7,0.9-10.6c3.3-2.9,8.4-1.5,10.6,1.7c2,3.6,0.8,7.2,0,9.8c-0.6,1.7-1.3,3.1-1.9,4.3c2-0.7,4.2-0.7,6.3,0.4
		c3.1,2.2,2.6,6.3,1,8.6c-2,2.7-6.3,1.7-6.9-0.9c-0.6-2.7,2.3-4,3.5-3.4c1.4,0.6,1.2,1.7,1.2,1.6c-0.1,0.1-0.3-0.8-1.3-1.1
		c-1-0.3-3.1,0.9-2.5,2.8c0.2,1.8,3.8,2.2,4.9,0.4c1.2-1.9,1.2-5.3-0.8-6.4c-2-1-5.2-0.2-6.9,1.1c-0.1,0-0.1,0.1-0.2,0.1
		c-0.5,0.8-0.8,1.3-0.9,1.4c-0.2,0.3-0.4,0.5-0.6,0.7c-0.5,1.2-0.6,2.5-0.6,3.6c0.1,4.1,1.3,6.9,1.3,7.1c0,0,0,0.1,0,0.1
		c1-0.3,2-0.4,3.1-0.4c6.7,0,12.1,5.4,12.1,12.1c0,3.1-1.2,6-3.1,8.1c0.8,1,1.8,2,3.1,2.9c2.2,1.5,4.8,2.4,6,2.9
		c2.3-1.2,4.3-2.6,5.9-3.8c-3-3.4-4.8-7.9-4.8-12.8c0-10.8,8.8-19.6,19.6-19.6c10.8,0,19.6,8.8,19.6,19.6
		C160.2-2.7,151.5,6.1,140.6,6.1z"/>
</symbol>
<use xlink:href="#明るいベクトルパック_02"  width="320.5" height="119.6" x="-160.2" y="-59.8" transform="matrix(0.1843 0 0 -0.1843 30.0981 30.3159)" overflow="visible"/>
</svg>
