<?xml version="1.0" encoding="utf-8"?>
<!-- Generator: Adobe Illustrator 18.0.0, SVG Export Plug-In . SVG Version: 6.00 Build 0)  -->
<!DOCTYPE svg PUBLIC "-//W3C//DTD SVG 1.1//EN" "http://www.w3.org/Graphics/SVG/1.1/DTD/svg11.dtd">
<svg version="1.1" id="レイヤー_1" xmlns="http://www.w3.org/2000/svg" xmlns:xlink="http://www.w3.org/1999/xlink" x="0px"
	 y="0px" viewBox="0 0 60 60" enable-background="new 0 0 60 60" xml:space="preserve">
<path d="M59.8,35.2c-0.3-1-0.8-1.9-1.4-2.6c-0.6-0.7-1.5-1-2.3-1c-0.7,0-1.3,0.3-1.8,0.6c-0.3,0.2-0.5,0.3-0.6,0.5c0,0,0,0,0,0
	c0,0,0,0,0,0.1c-0.1,0.1-0.2,0.2-0.2,0.3c-0.2,0.3-0.5,0.8-0.5,1.1c-0.1,0.3,0.1,0.5,0.3,0.6c0.3,0.1,0.5-0.1,0.6-0.3
	c0.1-0.2,0-0.4-0.1-0.5c0,0-0.2-0.8,0.6-1.3c0.1,0,0.1-0.1,0.2-0.1c0.8-0.4,2.4-0.6,3.4,0.6c0.9,1.2,1.7,3.4,0.3,4.6
	c-1.3,1.3-3.7,1.5-5.4,0.7c-0.9-0.4-1.6-1.1-1.9-1.9c-0.4-0.8-0.5-1.7-0.7-2.9c-0.4-2.2-1.2-4.3-2.2-5.9c-1.6-2.6-3.6-3.9-4.4-4.3
	l0,0c0,0-0.1,0-0.2-0.1c-0.1,0-0.1-0.1-0.2-0.1l0,0c-0.3-0.1-0.8-0.3-1.4-0.4c-1.1-0.2-2.5-0.2-4.2,0c-0.8,0.1-1.7,0.2-2.6,0.3
	c-0.5,0-0.8,0.1-1.2,0c-0.4-0.1-0.8-0.2-1.2-0.4c-1.6-0.7-3.5-2-3.6-3.7c-0.1-0.9,0.3-1.8,0.9-2.4c0.6-0.6,1.5-1.3,2.3-1.3
	c0.9-0.1,1.8,0,2.4,0.5c0.6,0.5,0.8,1.3,0.9,2.1c0,0.7-0.2,1.4-0.7,1.7c-0.4,0.2-0.8,0.3-1.2,0.4c-1.4-0.1-1.5-0.6-1.5-0.7
	c0-0.2-0.1-0.4-0.2-0.5c-0.2-0.1-0.5,0-0.6,0.2c-0.1,0.2,0,0.5,0.2,0.7c0.1,0.1,0.3,0.2,0.6,0.3c0.2,0.1,0.6,0.2,1.2,0.3
	c0.5,0,1.1,0.1,1.8-0.3c0.7-0.3,1.1-1.2,1.1-2.1c0-0.8-0.1-1.9-0.9-2.7c-0.8-0.8-2-1-3-0.9C30.9,14.4,30,15,29,15.7
	c-0.9,0.8-1.5,2-1.5,3.3c0,1.4,0.7,2.5,1.5,3.4c0.8,0.9,1.8,1.5,2.8,2c0.5,0.2,1,0.4,1.6,0.6c0.4,0.1,0.8,0.1,1.1,0.1
	c-1.1,1.1-1.9,2.5-2.8,3.7c-1.1,1.5-2.3,2.5-4.1,2.2c-1.9-0.4-3.9-1.3-5.4-2.8c-0.8-0.8-1.4-1.7-2.5-2.6c-0.7-0.6-1.6-1-2.4-1.1
	c-0.4-0.3-0.8-0.7-1.2-1.4c-0.4-0.6-0.6-1.6-0.3-2.5c0.4-0.9,1.1-1.8,2.1-2.1c1-0.3,2.2,0.1,2.5,1c0.4,0.9-0.4,1.8-1,2.3
	c-0.7,0.5-1.4,0.3-1.8,0c-0.1-0.1-0.2-0.1-0.2-0.2c-0.2-0.3-0.1-0.4,0-0.4c0,0,0,0,0,0c0,0,0,0,0,0l0,0c0,0,0.1-0.1,0.1-0.2
	c0-0.1-0.1-0.2-0.2-0.1c-0.1,0-0.1,0.1-0.1,0.2l0,0v0c0,0,0,0,0,0c0,0.2,0.2,0.5,0.2,0.5c0,0,0,0,0,0c0.1,0.1,0.1,0.2,0.3,0.3
	c0.4,0.3,1.2,0.6,1.9,0.1c0.4-0.2,0.7-0.6,1-1c0.3-0.4,0.4-1,0.2-1.5c-0.4-1.1-1.8-1.7-2.9-1.3c-1.2,0.3-2,1.3-2.5,2.3
	c-0.5,1.1-0.2,2.2,0.2,3c0.2,0.4,0.4,0.7,0.7,0.9c-0.1,0-0.3,0-0.4,0c-1.4,0-2.8,0.7-3.8,1.5c-1.1,0.9-1.9,1.9-2.6,2.9
	c-1.5,1.9-2.9,4.3-5.1,4c-1.1-0.1-2.1-0.5-2.6-1.4c-0.3-0.4-0.4-1-0.5-1.5c0-0.4,0-1.1,0.2-1.6c0.3-1,0.9-1.9,1.8-2.2
	c0.9-0.3,2.1-0.2,2.8,0.3c0.4,0.3,0.6,0.7,0.8,1.1c0,0.1,0.1,0.2,0.1,0.3l0,0.1l0,0.2c0,0.2-0.1,0.5-0.2,0.7
	c-0.2,0.9-0.8,1.7-1.6,1.5c-0.8-0.1-1.5-0.7-1.8-1.4c-0.2-0.6,0.2-1.5,0.9-1.7c0.7-0.2,1.4,0,1.7,0.5c0.3,0.4,0.1,1.2-0.3,1.4
	c-0.4,0.2-1,0.1-1.1-0.3c-0.2-0.4,0-0.8,0.3-0.8c0.3,0,0.4,0,0.5,0.1C5.3,28.4,5,28.4,5,28.4l0,0c-0.1,0-0.2,0.1-0.2,0.1
	c0,0.1,0,0.2,0.1,0.2c0.1,0,0.2,0,0.2-0.1l0,0c0.2-0.3,0.1-0.5,0.1-0.6c0-0.2-0.3-0.3-0.6-0.3c-0.4,0-0.6,0.5-0.4,1
	c0.1,0.5,0.8,0.7,1.4,0.4c0.3-0.1,0.5-0.4,0.6-0.7c0.1-0.3,0.1-0.7-0.1-1c-0.4-0.6-1.3-0.8-2.1-0.7C3.2,27,2.6,28,2.8,29
	C3.2,29.9,4,30.7,5,30.8c0.5,0.1,1.2-0.1,1.6-0.5c0.4-0.4,0.6-0.9,0.8-1.4c0.1-0.3,0.1-0.5,0.2-0.8l0-0.2l0-0.1c0-0.2,0-0.1,0-0.2
	l0-0.1c0-0.1-0.1-0.3-0.1-0.4c-0.2-0.5-0.5-1.1-1-1.5c-0.3-0.3-0.7-0.4-1.1-0.6c0.2-0.1,0.5-0.2,0.8-0.4C7,24.3,7.8,23.3,7.9,22
	c0.1-0.6,0-1.2-0.2-1.9c-0.2-0.6-0.8-1.2-1.4-1.3c-0.7-0.1-1.3,0-1.9,0.4c-0.5,0.4-0.8,1-0.9,1.6c-0.1,0.6,0.2,1.3,0.7,1.5
	c0.5,0.2,1.1,0.2,1.5,0c0.5-0.2,0.7-0.7,0.7-1c0-0.4-0.3-0.7-0.5-0.8c-0.4-0.1-0.6,0-0.7,0.1C5.1,20.7,5,20.7,5,20.8c0,0,0,0,0,0
	c0,0,0,0,0,0l0,0c-0.1,0.1,0,0.3,0.1,0.4c0.1,0.1,0.3,0.1,0.5,0c0,0,0.1-0.1,0.1-0.1l0,0c0,0,0.2-0.6,0.5-0.3
	c0.3,0.4,0.3,1.2-0.4,1.5c-0.4,0.2-1,0.2-1.4,0c-0.5-0.2-0.7-0.8-0.6-1.4c0.1-0.5,0.4-1.1,0.8-1.4C5,19.1,5.6,19,6.2,19.1
	c1.2,0.3,1.5,1.8,1.3,2.8c-0.1,1.1-0.8,2-1.6,2.4c-0.5,0.3-1,0.5-1.4,0.6c-0.5,0-1,0-1.5,0.2c-1.3,0.4-2.2,1.6-2.5,2.8
	c-0.2,0.6-0.3,1.2-0.3,1.9c0.1,0.7,0.3,1.3,0.6,1.9c0.7,1.2,2.1,2,3.5,2.1C4.9,34,5.7,34,6.4,33.7c0.7-0.3,1.2-0.7,1.7-1.2
	c1-0.9,1.7-1.9,2.5-2.9c1.5-1.9,3.3-3.7,5.4-3.6c1.1,0,2.1,0.2,2.8,0.9c0.8,0.7,1.4,1.7,2.3,2.6c1.7,1.9,4,3,6.3,3.5
	c0.3,0.1,0.6,0.1,0.9,0.1c-0.4,0.4-0.9,1-1.4,1.6c-1,1.3-2,3.2-1.9,5.3c0.1,2.2,1.4,4.3,3.3,5.5c1.9,1.3,4.6,1.1,6.2-0.3
	c0.8-0.7,1.3-1.6,1.6-2.5c0-0.1,0.1-0.2,0.1-0.3l0-0.1c0,0,0-0.1,0-0.1l0,0l0-0.2c0-0.2-0.1-0.4-0.1-0.7c-0.1-0.4-0.3-0.8-0.5-1.2
	c-0.5-0.8-1.5-0.8-2.1-0.6c-0.6,0.2-1.2,0.6-1.3,1c-0.3,0.7-0.2,1.2-0.1,1.4c0,0.1,0.1,0.2,0.1,0.2l0,0c0,0.1,0.1,0.1,0.2,0.1
	c0.1,0,0.2-0.1,0.1-0.2c0-0.1-0.1-0.1-0.2-0.1l0,0c0,0-0.2,0-0.3-0.3c0-0.2,0-0.5,0.2-0.9c0.2-0.4,0.7-0.7,1.3-0.9
	c0.6-0.2,1.4-0.1,1.8,0.6c0.2,0.3,0.3,0.7,0.4,1.1c0,0.2,0.1,0.4,0.1,0.6l0,0.2l0,0v0l0,0.1c0,0.1-0.1,0.2-0.1,0.3
	c-0.3,0.8-0.8,1.6-1.6,2.2c-1.5,1.2-3.9,1.2-5.4,0.1c-1.7-1.1-2.7-3.1-2.7-4.9c0-1.9,0.9-3.5,1.8-4.6c1.1-1.3,2.1-2.1,2.9-2.7
	c0.2-0.1,0.3-0.2,0.5-0.3c1.1-0.6,1.8-1.5,2.4-2.3c1.2-1.6,2.1-3,3.1-3.8c1-0.9,1.9-1.1,2.8-1c1.8,0.2,2.9,0.9,2.9,0.8l0,0
	c0.6,0.3,2.1,1.2,3.4,3.1c0.9,1.2,1.7,2.9,2.2,4.9c0.2,0.9,0.4,2.3,1.1,3.4c0.7,1.1,1.8,2.1,3,2.5c2.5,0.9,5.3,0.3,6.9-1.5
	C59.9,37.6,60.1,36.2,59.8,35.2z"/>
</svg>
