<?xml version="1.0" encoding="utf-8"?>
<!-- Generator: Adobe Illustrator 18.0.0, SVG Export Plug-In . SVG Version: 6.00 Build 0)  -->
<!DOCTYPE svg PUBLIC "-//W3C//DTD SVG 1.1//EN" "http://www.w3.org/Graphics/SVG/1.1/DTD/svg11.dtd">
<svg version="1.1" id="レイヤー_1" xmlns="http://www.w3.org/2000/svg" xmlns:xlink="http://www.w3.org/1999/xlink" x="0px"
	 y="0px" viewBox="0 0 60 60" enable-background="new 0 0 60 60" xml:space="preserve">
<path d="M58.9,29.5c-0.4-0.4-0.9-0.6-1.4-0.7l-0.2,0c-0.3-0.1-0.6-0.1-0.8,0c0.8-0.8,1.5-1.9,1.4-3.2c-0.1-0.8-0.3-1.5-0.9-2.2
	c-0.7-0.6-1.7-0.6-2.4-0.2c-0.4,0.2-0.6,0.6-0.7,1.1c0,0.4,0.1,0.9,0.3,1.2c0.2,0.4,0.6,0.7,1.1,0.8c0.5,0,0.9-0.2,1.2-0.6l0,0
	c0.3-0.6-0.2-1.2-0.5-1.3c-0.4-0.2-0.6,0-0.6,0.1c0,0.1,0.2,0,0.4,0.2c0.2,0.2,0.4,0.6,0.2,0.8c0,0-0.1,0.1-0.1,0.1
	c-0.5,0.4-1.1,0.1-1.3-0.6c-0.3-0.6-0.1-1.3,0.5-1.5c0.5-0.3,1.3-0.2,1.7,0.3c0.4,0.5,0.7,1.2,0.7,1.8c0.1,1.4-0.9,2.6-2,3.4
	c-1.1,0.9-2.6,1.1-3.8,0.5c-0.1,0-0.1-0.1-0.2-0.1c-0.5-0.3-1-0.6-1.2-0.8c0-0.1,0-0.3-0.1-0.5c-0.2-0.4-0.5-0.7-0.8-1
	c-0.6-0.6-1.3-0.9-2.1-1.1c-0.1,0-0.3-0.1-0.4-0.1c0.1,0,0.1-0.1,0.2-0.1l0,0c0.6-0.5,1.2-1.2,1.4-2c0.1-0.8,0.1-1.7-0.6-2.4
	c-0.8-0.6-1.9-0.3-2.4,0.4c-0.3,0.3-0.4,0.9-0.1,1.4c0.1,0.2,0.3,0.4,0.5,0.5c0.2,0.1,0.5,0.2,0.8,0.1v0c0.6-0.4,0.6-0.8,0.5-0.9
	c-0.1-0.1-0.4,0.3-0.7,0.5l-0.1,0c-0.2,0-0.5-0.3-0.6-0.5c-0.1-0.2,0-0.5,0.2-0.8c0.4-0.5,1.2-0.6,1.7-0.2c0.4,0.4,0.5,1.2,0.4,1.8
	c-0.1,0.7-0.6,1.3-1.1,1.7l-0.1,0.1c-0.2,0.2-0.4,0.4-0.5,0.5c-1.3,0-2.6,0.6-3.3,1.7c0,0.1-0.1,0.1-0.1,0.2
	c-0.3,0.5-0.4,1.1-0.3,1.4c-0.2-0.2-0.5-0.4-0.8-0.5c-0.6-0.2-1.3-0.1-1.8,0.3c-0.5,0.3-0.9,0.9-1,1.5c-0.1,0.6,0.1,1.3,0.4,1.8
	c0.3,0.5,1,1,1.7,0.8c0.7-0.1,1.2-0.6,1.3-1.3h0c0.2-1-1.1-1.5-1.5-1c-0.4,0.4-0.3,0.7-0.3,0.8c0.1,0,0.2-0.3,0.6-0.5
	c0.3-0.2,1,0.3,0.8,0.8c0,0.1-0.1,0.2-0.1,0.3c-0.2,0.4-0.7,0.6-1.1,0.5c-0.4-0.1-0.8-0.5-1-0.9c-0.5-0.9,0-2,0.9-2.4
	c0.4-0.2,0.9-0.2,1.4,0c0.4,0.2,0.7,0.6,1,1.1c0.5,0.9,0.5,2,0,2.9c-0.2,0.5-0.5,0.9-0.8,1.3c-0.3,0.5-0.7,0.7-1.1,0.9
	c-0.9,0.4-2,0.6-3,0.3c-2-0.6-3-2.8-3.2-4.9l0-0.3c-0.1-1-0.1-1.9-0.1-2.4c0.2,0.1,0.4,0.2,0.6,0.2c0.8,0.1,1.5-0.3,2.1-0.6
	c0.3-0.2,0.6-0.4,0.9-0.6c0.3-0.2,0.6-0.5,0.7-0.9c0.2-0.8,0.1-1.6-0.4-2.2c-0.1-0.2-0.3-0.3-0.5-0.5c0-0.2,0-0.5,0-0.8
	c0,0,0-0.1,0-0.1c0.2-0.8,0.8-1.6,1.7-1.7c0.8-0.2,1.7,0.2,2.2,0.9c0.5,0.7,0.6,1.7,0,2.3c-0.3,0.3-0.7,0.5-1.1,0.4
	c-0.3,0-0.7-0.4-0.7-0.8c0,0,0-0.1,0-0.1c0-0.5,0.4-1,0.3-1.1c-0.1-0.1-0.7,0.2-0.8,1l0,0c0,0.6,0.3,1.2,0.9,1.4
	c0.6,0.2,1.2-0.1,1.6-0.4c0.4-0.4,0.7-0.9,0.7-1.5c0-0.6-0.2-1.1-0.5-1.5c-0.6-0.9-1.8-1.3-2.8-1.1c-1.1,0.3-1.9,1.3-2,2.3l0,0
	c0,0.2,0,0.4,0,0.6c0,0,0,0,0,0c-0.4-0.1-0.9,0-1.2,0.2c-0.3,0.2-0.6,0.5-0.8,0.9c-0.2,0.3-0.2,0.9,0.1,1.2v0
	c0.8,0.8,1.8,0.2,1.6,0.1c-0.1,0-0.2,0-0.5,0c-0.3,0-0.7-0.2-0.9-0.5c0,0-0.1-0.1-0.1-0.1c-0.2-0.4,0.4-1,0.8-1.3
	c0.5-0.2,1.1,0.1,1.4,0.6c0.3,0.5,0.4,1.2,0.2,1.7c-0.2,0.5-0.8,0.8-1.4,1.2c-0.5,0.3-1.2,0.6-1.7,0.5c-0.6-0.1-1-0.5-1.5-0.9
	c-0.5-0.5-1-0.9-1.7-1.2c-0.7-0.3-1.5-0.2-2.1,0.2c-0.1,0-0.1,0.1-0.2,0.1c-0.4,0.4-0.7,0.8-0.8,1.1c0-0.3-0.1-0.6-0.2-0.9
	c-0.2-0.4-0.5-0.7-0.9-0.8c-0.4-0.1-0.8,0-1.2,0.1c-0.1,0-0.1,0-0.2,0.1c-0.2-0.2-0.4-0.4-0.7-0.7l0,0c-0.7-0.8-0.5-1.9,0.2-2.6
	c0.6-0.8,1.8-1.2,2.6-0.8c0.9,0.4,0.8,1.8,0,2.4c-0.4,0.3-0.9,0.4-1.2,0.2c-0.4-0.3-0.6-0.7-0.3-1.1l0,0c0.2-0.2,0.4-0.3,0.6-0.4
	c0.2,0,0.3,0,0.3,0c0.1,0,0-0.3-0.3-0.3c-0.3,0-0.7,0.1-1,0.5c0,0.1-0.1,0.1-0.1,0.2c-0.2,0.3-0.1,0.7,0,1c0.2,0.3,0.4,0.5,0.7,0.6
	c0.6,0.3,1.3,0,1.7-0.4c0.8-0.6,0.9-1.9,0.3-2.7c0.3,0,0.6,0,0.9-0.1v0c0.2,0,0.3-0.1,0.5-0.1c-0.1,0.2-0.1,0.4-0.2,0.7l0,0
	c-0.1,1.2,0.4,2.6,1.5,3.2c1.3,0.5,2.6-0.1,3.4-1c0.4-0.5,0.7-1.1,0.7-1.7c0-0.7-0.3-1.3-0.7-1.7c-0.4-0.5-1.1-0.9-1.8-0.7
	c-0.7,0.2-1.2,0.8-1.2,1.5h0c0,0.5,0.5,0.8,0.8,0.8c0.3,0,0.4,0,0.4-0.1c0-0.1-0.8-0.2-0.7-0.8c0,0,0-0.1,0-0.1
	c0.1-0.4,0.5-0.8,1-0.9c0.4-0.1,0.9,0.2,1.2,0.7c0.7,0.8,0.6,2-0.1,2.7c-0.7,0.8-1.8,1.3-2.7,0.9c-0.9-0.4-1.4-1.5-1.3-2.5l0-0.2
	c0-0.4,0.1-0.8,0.1-1c1-0.5,1.8-1.4,2.4-2.3c0.5-0.9,0.7-1.9,0.6-2.9c0.1-0.1,0.3-0.3,0.5-0.5l0,0c0.4-0.6,1.1-1.1,1.7-1
	c0.6,0,1.3,0.5,1.7,1.1c0.4,0.6,0.1,1.3-0.4,1.8c-0.2,0.2-0.6,0.5-0.7,0.5c-0.3-0.1-0.6-0.4-0.6-0.6h0c-0.1-0.3,0.2-0.7,0-0.8
	c0-0.1-0.6,0.2-0.5,0.9l0.1,0.1c0.2,0.4,0.5,0.7,1.1,0.8c0.6-0.1,0.8-0.4,1.1-0.7c0.5-0.6,0.9-1.6,0.4-2.3c-0.5-0.7-1.1-1.2-2-1.3
	c-0.9-0.1-1.6,0.5-2.1,1.1L34.1,15c-0.1,0.1-0.2,0.2-0.2,0.3c-0.1-0.3-0.1-0.5-0.3-0.8c-0.2-0.7-0.8-1.4-1.6-1.5
	c-0.8-0.1-1.6,0.2-2.1,0.7c-0.6,0.5-0.9,1.4-0.5,2.2c0.2,0.3,0.4,0.7,0.8,0.9c0.4,0.2,0.9,0.2,1.2,0l0,0c0.4-0.3,0.6-0.8,0.6-1.1
	c0-0.4-0.2-0.5-0.2-0.5c-0.1,0,0,0.2-0.1,0.5c-0.1,0.2-0.3,0.6-0.6,0.8c0,0-0.1,0-0.1,0.1c-0.5,0.2-1-0.4-1.1-1
	c-0.2-0.5,0.1-1.1,0.6-1.5c0.5-0.4,1.1-0.6,1.7-0.4c0.6,0.1,1,0.6,1.2,1.2c0.5,1.2,0.5,2.6-0.1,3.7c-0.6,1.1-1.6,2.1-2.8,2.4L30,21
	c-0.5,0.1-1,0.2-1.3,0.2c0,0-0.1,0-0.1-0.1c-1.1-0.6-2.4,0-3.1,0.8c-0.3,0.4-0.6,0.8-0.8,1.3c-0.1-0.1-0.1-0.2-0.2-0.3v0
	c-0.3-0.3-0.8-0.6-1.3-0.5c-0.5,0-0.9,0.3-1.2,0.5c-0.3,0.2-0.7,0.6-0.8,1c-0.1,0.5,0,0.9,0.2,1.3c0.4,0.7,1.3,1.5,2.3,1.1
	c0.5-0.2,0.8-0.6,0.9-1c0.1-0.2,0.1-0.5-0.1-0.8c-0.2-0.2-0.4-0.4-0.7-0.4v0c-0.3-0.1-0.7,0.1-0.8,0.3c-0.1,0.2,0,0.3,0,0.3
	c0.1,0,0.3-0.3,0.7-0.2c0,0,0.1,0,0.1,0c0.6,0.2,0.1,1.1-0.5,1.3c-0.6,0.2-1.3-0.4-1.6-1c-0.3-0.6-0.2-1.3,0.5-1.7
	c0.6-0.5,1.3-0.6,1.8-0.2l0.1,0.1c0.2,0.2,0.4,0.4,0.5,0.5c0,0.5,0.1,1,0.4,1.4l0.1,0.1c0.2,0.3,0.5,0.5,0.8,0.6
	c-0.2,0.1-0.4,0.3-0.4,0.6c-0.2,0.4-0.1,0.9,0.2,1.2l0,0c0.3,0.5,1,0.6,1.3,0.4c0.3-0.2,0.4-0.4,0.3-0.4c-0.1-0.1-0.2,0.1-0.5,0.1
	c-0.2,0-0.6-0.1-0.8-0.4c0,0-0.1-0.1-0.1-0.2c-0.2-0.5,0.2-1,0.8-1.2c0.6-0.2,1.2,0.1,1.4,0.7c0.4,1.2-0.1,2.7-1.2,3.3
	c-1.1,0.7-2.6,0.7-3.5-0.2c-0.5-0.5-0.6-1-0.9-1.7c-0.2-0.7-0.8-1.3-1.5-1.6c-0.1,0-0.1-0.1-0.2-0.1c-0.6-0.2-1.1-0.2-1.5-0.1
	c0-0.2,0.1-0.4,0-0.6c-0.1-0.8-0.7-1.5-1.6-1.7c-0.2,0-0.5,0-0.7,0.2c-0.2,0.1-0.3,0.3-0.4,0.5c-0.3,0.4-0.2,1,0.3,1.3l0,0
	c0.6,0.3,1-0.1,0.9-0.2c0-0.1-0.5-0.1-0.7-0.3c0,0,0,0-0.1,0c-0.4-0.3,0.2-1.1,0.7-1c0.6,0.1,1.1,0.7,1.1,1.3
	c0.1,0.6-0.3,1.2-0.9,1.5c-0.5,0.4-1.2,0.4-1.8,0.1l-0.1-0.1c-0.2-0.1-0.4-0.3-0.5-0.3c-0.3-0.9-0.8-1.8-1.6-2.4
	c-0.2-0.2-0.4-0.3-0.7-0.4c0.1-0.1,0.3-0.2,0.4-0.3l0,0c0.6-0.5,1.1-1.1,1.3-1.9c0.1-0.4,0-0.7-0.1-1.1c0.1-0.1,0.3-0.2,0.4-0.4v0
	c0.5-0.5,1.1-0.8,1.7-0.6c0.6,0.3,1.1,0.9,0.8,1.5c-0.2,0.6-1,1-1.4,0.7c-0.2-0.1-0.3-0.5-0.3-0.8c0-0.3,0.2-0.4,0.5-0.3v0
	c0.4,0,0.5,0.2,0.6,0.3c0.1,0,0.2-0.1,0.1-0.4c-0.1-0.2-0.4-0.4-0.7-0.4c0,0-0.1,0-0.1,0c-0.2,0-0.5,0.1-0.6,0.3
	c-0.2,0.2-0.2,0.5-0.2,0.7c0.1,0.4,0.2,0.8,0.7,1.1c0.9,0.4,1.7-0.2,2.1-1c0.2-0.4,0.1-0.9-0.1-1.2c-0.2-0.4-0.5-0.6-0.9-0.8
	c-0.8-0.4-1.7,0-2.2,0.5l-0.1,0.1c-0.1,0.1-0.2,0.3-0.3,0.4c-0.2-0.3-0.4-0.5-0.6-0.7c-0.3-0.2-0.6-0.5-1.1-0.5
	c-0.5-0.1-0.9,0.2-1.2,0.5c-0.3,0.3-0.4,0.8-0.3,1.2c0,0.2,0.2,0.5,0.4,0.6c0.2,0.1,0.4,0.2,0.7,0.2v0c0.7,0,0.8-0.7,0.7-0.7
	c-0.1,0-0.4,0.2-0.7,0.2c0,0-0.1,0-0.1,0c-0.6,0-0.6-0.8-0.2-1.2c0.4-0.5,1-0.3,1.5,0.2c0.5,0.4,0.9,1,0.8,1.6
	c-0.1,0.6-0.6,1.1-1.1,1.6l-0.1,0.1c-0.2,0.2-0.4,0.4-0.5,0.5c-1.6-0.6-3.5-0.4-4.8,0.9c-0.1,0.1-0.2,0.2-0.2,0.3
	c-0.3,0.1-0.8,0.4-1.4,0.5c-0.1,0-0.1,0-0.2,0c-1.3,0.2-2.6-0.5-3.5-1.5c-0.9-1-1.4-2.4-1-3.6c0.2-0.6,0.6-1.2,1.1-1.5
	c0.5-0.4,1.2-0.6,1.8-0.4c0.6,0.2,1,0.7,1.1,1.3C6.1,20.5,5.7,21,5.1,21C5,21,5,21,4.9,21C4,21.1,4.2,20,4.1,20
	c-0.1,0-0.2,0.2-0.2,0.5c0,0.2,0,0.4,0.2,0.6c0.2,0.2,0.5,0.3,0.8,0.3v0c0.4,0,0.8-0.1,1.2-0.4c0.3-0.3,0.5-0.8,0.5-1.2
	c0-0.8-0.6-1.6-1.3-1.9c-0.8-0.3-1.7,0-2.3,0.4c-0.7,0.4-1.1,1.1-1.3,1.9c-0.4,1.4,0,2.9,0.9,3.9c-0.1,0-0.2,0.1-0.4,0.1l0,0
	C1.6,24.7,1,25.2,1,25.9c0,0.7,0.3,1.3,0.8,1.7c0.6,0.5,1.5,0.1,1.8-0.4c0.2-0.2,0.4-0.6,0.2-1c-0.2-0.4-0.5-0.6-0.9-0.6v0
	c-0.2,0-0.5,0.2-0.5,0.3c-0.1,0.2,0,0.3,0,0.3C2.6,26.1,2.8,26,3,26c0,0,0,0,0.1,0c1,0.2-0.3,1.8-1,1.1c-0.3-0.3-0.6-0.8-0.6-1.2
	c0-0.4,0.3-0.8,0.8-1.1l0.1,0c0.2-0.1,0.3-0.2,0.4-0.3c0,0,0,0,0,0c1,1.1,2.6,1.8,4.2,1.4l0,0c0.3-0.1,0.6-0.2,0.9-0.4
	c-0.3,0.7-0.4,1.4-0.3,2.1c0.1,0.6,0.3,1.3,0.7,1.8c-0.1,0.2-0.1,0.6-0.1,1h0c-0.1,0.9-0.7,1.6-1.6,1.8c-0.8,0.3-1.8,0.1-2.2-0.7
	C4,30.9,4,29.7,4.7,29.4c0.3-0.2,0.8-0.1,1.1,0.1c0.3,0.2,0.2,0.7,0,0.9l0,0c-0.3,0.3-0.8,0.1-0.9,0.2c-0.2,0.1,0.5,0.7,1.2,0.1
	c0,0,0.1-0.1,0.1-0.2c0.3-0.5,0.2-1.2-0.3-1.5c-0.5-0.3-1.1-0.3-1.6,0c-0.5,0.3-0.7,0.8-0.8,1.3c-0.1,0.5,0,1,0.3,1.5
	c0.2,0.5,0.7,0.8,1.2,1c0.2,0.1,0.5,0.1,0.7,0.1c-0.1,0.1-0.3,0.3-0.4,0.6h0c-0.2,0.6-0.4,1.2-0.2,1.9c-0.1,0.2-0.2,0.4-0.3,0.7h0
	c-0.3,0.8-0.9,1.4-1.7,1.5c-0.8,0.1-1.7-0.1-1.9-0.9c-0.2-0.7,0.1-1.6,0.7-2c0.6-0.4,1.7,0.3,1.1,0.8l0,0C3,35.8,2.8,35.9,2.7,36
	c-0.1,0.1-0.1,0.1-0.2,0.1c-0.1,0,0,0.3,0.3,0.2c0.2,0,0.5-0.2,0.8-0.5l0.1-0.1c0.1-0.2,0.2-0.6,0-0.8c-0.1-0.3-0.4-0.4-0.6-0.5
	c-0.4-0.2-1-0.2-1.4,0C0.9,35,0.6,36,0.8,37c0.9,2,3.9,1.3,4.4-0.5l0.1-0.1c0-0.1,0.1-0.2,0.1-0.3C5.6,36.5,6,37,6.4,37.2
	c0,0.1,0.1,0.3,0.2,0.5l0,0c0.2,0.5,0.4,1,0.3,1.4c-0.1,0.4-0.6,0.7-1,0.8C5.4,40.1,5,39.8,5,39.3c0-0.2,0.1-0.4,0.2-0.6
	c0.1-0.1,0.4-0.2,0.4-0.1l0,0c0.1,0.1,0.2,0.4,0.4,0.4c0.1,0,0.3-0.4-0.1-0.8c0,0-0.1-0.1-0.1-0.1c-0.9-0.3-1.4,0.6-1.3,1.2
	c0,0.3,0.2,0.6,0.5,0.8c0.3,0.2,0.7,0.2,1,0.2c0.6-0.1,1.2-0.5,1.4-1.1c0.2-0.6,0-1.2-0.3-1.7l0-0.1c0,0,0,0,0,0
	c0.1,0,0.2,0,0.3,0.1c1,0,1.7-0.9,1.8-1.8c0.1-0.5-0.1-1-0.6-1.3c-0.5-0.3-1-0.1-1.4,0.2l0,0c-0.3,0.2-0.4,0.5-0.3,0.8
	c0.1,0.2,0.2,0.3,0.2,0.3c0.1-0.1,0-0.4,0.4-0.7L7.6,35c0.6-0.4,1.2,0.2,1.1,0.9c-0.1,0.6-0.7,1.3-1.3,1.2c-0.6,0-1.2-0.6-1.6-1.2
	c-0.3-0.6-0.3-1.4,0-2l0-0.1C6,33.4,6.1,33,6.1,32.9c0.1,0,0.3,0,0.4-0.1c1-0.2,1.9-1,2-2l0-0.2c0-0.3,0-0.6,0-0.8
	C8.7,30,9,30.2,9.2,30.2c0.9,0.3,1.8,0.2,2.6-0.2c0.2,0.1,0.5,0.2,0.9,0.3v0c1.8,0.3,1.4,3.2-0.1,3.6c-0.7,0.3-1.6-0.2-1.9-0.9
	c-0.4-0.7,0.6-1.4,1.2-1.2v0c0.3,0.1,0.3,0.7,0.5,0.6c0.1,0,0.2-0.1,0.2-0.3c0-0.2-0.1-0.7-0.6-0.8c-0.1,0-0.1,0-0.2,0
	c-0.5,0-1,0.2-1.4,0.6c-0.4,0.4-0.4,1-0.2,1.5c0.5,0.9,1.6,1.4,2.5,1c0.3-0.1,0.5-0.2,0.7-0.4c0.3,0,0.7,0.1,1.2,0.2v0
	c1.2,0.2,2,1.2,2.1,2.4c0.1,1.1-0.5,2.4-1.6,2.9c-0.5,0.2-1.1,0.2-1.6-0.1c-0.5-0.2-0.9-0.7-0.9-1.2c0-0.5,0.5-1,0.9-1.2
	c0.5-0.2,1,0.1,1.2,0.6h0c0.1,0.3,0,0.4-0.3,0.5c-0.2,0.1-0.4,0.1-0.4,0.2c0,0.1,0.2,0.1,0.5,0.1c0.2,0,0.4-0.1,0.6-0.3
	c0.2-0.3,0.1-0.6,0-0.8c0-0.1-0.1-0.1-0.1-0.2c-0.2-0.3-0.5-0.5-0.9-0.6c-0.4-0.1-0.7,0-1,0.2c-0.6,0.3-1,1-1,1.7
	c0,0.8,0.6,1.3,1.2,1.5c0.6,0.3,1.3,0.3,2,0c1.2-0.6,1.9-1.9,1.8-3.2c0-1.1-0.7-2.3-1.8-2.7c0.1-0.2,0.3-0.5,0.6-0.9v0
	c1.1-1.9,4.9-0.5,4,1.6c-0.3,1-1.7,1.2-2.4,0.5c-0.3-0.3-0.4-0.9-0.2-1.3c0.2-0.4,0.7-0.5,1.1-0.3l0,0c0.5,0.3,0.1,0.8,0.2,0.9
	c0,0,0.2,0,0.4-0.3c0.2-0.3,0-0.9-0.4-1.1c-0.1,0-0.1-0.1-0.2-0.1c-0.3-0.1-0.7-0.1-1,0c-0.3,0.2-0.5,0.5-0.6,0.8
	c-0.2,0.6,0,1.3,0.5,1.7c1,0.8,2.7,0.5,3.1-0.8c0.2-0.6,0.2-1.2-0.1-1.8c-0.3-0.5-0.8-0.9-1.3-1.1c-0.4-0.2-0.8-0.3-1.3-0.3
	c-0.3-0.3-1.1-0.7-1.6-1.4C16.1,30.2,16,30.1,16,30c-0.3-0.7,0-1.6-0.2-2.5c0,0,0.1,0.1,0.1,0.1l0,0c0.7,0.5,1.7,0.5,2.3,0
	c0.4-0.2,0.8-0.6,1-1.1c0.3,0,0.8,0,1.3,0.2l0,0c0.6,0.2,1.1,0.7,1.4,1.3c0.1,0.4,0.3,0.8,0.5,1.2c-0.1,0.1-0.1,0.2-0.2,0.4h0
	c-0.3,0.9-1.1,1.8-2,1.5c-0.4-0.1-0.8-0.5-0.7-0.9c0-0.4,0.4-0.7,0.8-0.6v0c0.2,0.1,0.5,0.2,0.6,0.1c0.1-0.1,0-0.4-0.4-0.6
	c0,0-0.1,0-0.1,0C19.6,29,19,29.7,19,30.3c0,0.7,0.6,1.2,1.1,1.3c0.2,0.1,0.3,0.1,0.5,0.1c-0.1,0.2-0.1,0.5-0.1,0.9h0
	c0.1,1,0.4,2.2,1.5,2.7c0.5,0.2,1.1,0.2,1.6,0.1c0.5-0.1,1.1-0.4,1.3-1c0.5-1,0.3-2.3-0.6-3c-0.5-0.3-1.2-0.3-1.7,0
	c-0.3,0.1-0.5,0.5-0.5,0.8c0,0.3,0.2,0.6,0.4,0.8l0,0c0.6,0.6,1.3,0.3,1.2,0.2c0-0.1-0.6-0.1-0.9-0.6c0,0-0.1-0.1-0.1-0.1
	c-0.6-0.7,0.8-1.2,1.4-0.7c0.6,0.5,0.8,1.6,0.4,2.3c-0.4,0.7-1.5,0.9-2.3,0.7c-0.8-0.3-1.2-1.3-1.2-2.2l0-0.1c0-0.4-0.1-0.7-0.1-0.9
	c0.3,0,0.6-0.2,0.8-0.4c0.4-0.4,0.7-0.9,0.9-1.4l0-0.1c0,0,0-0.1,0-0.1c0.1,0.1,0.1,0.2,0.2,0.2c1.1,1.2,3,1.2,4.2,0.3
	c1-0.5,1.6-1.6,1.6-2.8c0.2-0.1,0.5-0.6,1.1-1.1v0c0.5-0.4,1.1-0.6,1.7-0.4c0.6,0.2,1.1,0.7,1.6,1.1c0.3,0.3,0.6,0.6,1,0.8
	c-0.1,0.3-0.2,1-0.2,1.7c-0.1,0.1-0.2,0.4-0.4,0.7l0,0c-0.3,0.7-0.8,1.3-1.4,1.5c-0.6,0.2-1.5-0.1-1.9-0.6c-0.4-0.5-0.2-1.4,0.4-1.7
	c0.5-0.4,1.4,0,1.6,0.6h0c0.1,0.3-0.2,0.6-0.1,0.7c0,0.1,0.2,0.1,0.3-0.1c0.2-0.1,0.4-0.5,0.2-0.8l-0.1-0.1c-0.3-0.4-0.6-0.6-1-0.8
	c-0.4-0.1-0.9,0-1.3,0.2c-0.7,0.5-0.9,1.6-0.4,2.4c0.3,0.4,0.7,0.5,1.1,0.7c0.4,0.1,0.8,0.2,1.2,0.1c0.9-0.2,1.4-0.9,1.8-1.6l0-0.1
	c0.1,1.1,0.3,2.1,0.8,3.1c0.5,1,1.4,1.9,2.6,2.3c0.5,0.2,1,0.3,1.5,0.2c0.2,0.1,0.5,0.3,0.8,0.5v0c0.8,0.6,1,1.8,0.8,2.9
	c-0.1,1.1-0.8,2.1-1.9,2c-1,0-2.2-0.7-1.7-1.7c0.1-0.5,0.5-0.9,0.9-1c0.4,0,0.9,0.5,0.9,0.8h0c0,0.2-0.2,0.4-0.4,0.5
	c-0.2,0.1-0.3,0.2-0.3,0.3c0,0.1,0.2,0.1,0.5,0c0.1,0,0.3-0.1,0.5-0.2c0.2-0.1,0.3-0.5,0.2-0.7c0-0.1-0.1-0.1-0.1-0.2
	c-0.3-0.5-0.9-1.1-1.6-0.9c-0.7,0.2-1,0.8-1.2,1.4c-0.1,0.3-0.1,0.6,0,0.9c0.1,0.3,0.4,0.6,0.6,0.8c0.5,0.3,1.1,0.5,1.7,0.5
	c0.2,0,0.5,0,0.7-0.1c-0.1,0.2-0.2,0.4-0.2,0.7h0c-0.2,1.4,0.6,2.6,1.5,3.5c0.5,0.5,1.1,0.8,1.8,0.8c0.7,0,1.4-0.3,1.8-0.8
	c0.5-0.5,0.9-1,1-1.7c0.2-0.6,0-1.5-0.6-1.9c-0.5-0.5-1.4-0.7-2-0.2c-0.7,0.4-0.8,1.4-0.3,2l0,0c0.1,0.2,0.3,0.4,0.6,0.4
	c0.3,0.1,0.5-0.1,0.6-0.2c0.2-0.2,0.2-0.4,0.1-0.5c-0.1,0-0.2,0.1-0.4,0.2c-0.2,0.1-0.3,0-0.6-0.3c0,0-0.1-0.1-0.1-0.1
	c-0.2-0.4,0-1,0.5-1.2c0.5-0.2,1,0,1.4,0.4c0.8,0.7,0.2,2.1-0.6,2.8c-0.8,0.8-2.1,0.8-2.9,0c-0.8-0.8-1.5-1.8-1.4-3l0-0.2
	c0.1-0.5,0.2-0.8,0.3-1.1c0.1-0.1,0.2-0.2,0.3-0.3c0.4-0.5,0.6-1,0.7-1.6c0.2-1.1,0.1-2.4-0.8-3.3L40,36.6c-0.1-0.1-0.2-0.2-0.4-0.2
	c0.4-0.1,0.8-0.2,1.2-0.4c0.5-0.2,1.1-0.6,1.4-1.1c0.2-0.3,0.4-0.6,0.6-0.9c0.2-0.1,0.7-0.2,1.1-0.4v0c2.3-0.8,4.4,2.6,2.7,4.4
	c-0.4,0.4-0.9,0.7-1.4,0.8c-0.5,0-1-0.2-1.4-0.7c-0.4-0.4-0.6-1-0.5-1.5c0.1-0.5,0.6-0.9,1-0.7l0,0c0.3,0.1,0.4,0.4,0.4,0.6
	c0,0.2-0.1,0.3,0,0.4c0,0.1,0.3,0,0.4-0.4c0-0.4-0.2-0.8-0.7-1.1c-0.1,0-0.2-0.1-0.2-0.1c-0.9-0.1-1.4,0.7-1.4,1.4
	c0,0.7,0.3,1.3,0.7,1.8c0.4,0.5,1.1,0.8,1.8,0.7c0.7-0.1,1.2-0.5,1.7-1c1.9-2.1-0.3-5.8-3-5.2c-0.1,0-0.1,0-0.2,0
	c-0.3,0.1-0.6,0.2-0.8,0.3c0,0,0-0.1,0-0.1c0.5-1.1,0.5-2.4-0.2-3.5c-0.1-0.1-0.2-0.3-0.3-0.4c0.1-0.3,0.2-0.9,0.5-1.5v0
	c0.7-1.3,2.4-2,3.9-1.6c0.7,0.1,1.5,0.5,2,1c0.3,0.2,0.5,0.5,0.7,0.9c0.1,0.3,0.1,0.8,0.1,1.1c0,0.8-0.2,1.5-0.8,2
	c-0.6,0.5-1.3,0.8-2,0.5c-0.7-0.2-1.1-0.9-1-1.6c0.1-0.6,0.7-1.5,1.2-1.2v0c0.3,0.2,0.5,0.6,0.5,0.9c0,0.3-0.2,0.4-0.2,0.4
	c0,0.1,0.4,0.1,0.5-0.4c0.1-0.4-0.1-1.1-0.8-1.4c-0.1,0-0.2-0.1-0.3,0c-0.6,0-0.9,0.4-1.1,0.8c-0.2,0.4-0.4,0.8-0.4,1.2
	c-0.1,0.9,0.7,1.7,1.5,1.9c1.8,0.4,3.4-1.4,3.2-3c0-0.1,0-0.2,0-0.3c0.2,0.2,0.5,0.5,0.9,0.7l0,0c0.7,0.4,1.5,0.6,2.3,0.5
	c0.8-0.1,1.6-0.4,2.2-0.9c0.2-0.1,0.4-0.3,0.5-0.4c0.2,0.1,0.6,0.1,1,0.2l0,0c1,0.1,1.8,0.8,1.8,1.7c0,0.9-0.3,2-0.8,2.7
	c-0.6,0.8-1.7,0.8-2.2,0c-0.3-0.3-0.3-0.8-0.2-1.2c0.1-0.4,0.6-0.6,0.9-0.5l0,0c0.5,0.1,0.5,0.7,0.7,0.7c0.1,0,0.2-0.1,0.1-0.4
	c0-0.3-0.3-0.7-0.7-0.7c-0.1,0-0.1,0-0.2,0c-0.6-0.1-1.2,0.4-1.3,1c-0.1,0.5,0,1.2,0.4,1.6c0.4,0.4,0.9,0.6,1.5,0.6
	c0.6,0,1.1-0.4,1.4-0.8c0.6-0.9,0.9-1.9,0.9-2.9C59.5,30.5,59.3,29.9,58.9,29.5z M17.3,31.7c-0.6,0.1-1.1,0.4-1.5,0.9
	c0,0-0.1,0.1-0.1,0.1c-0.3,0.4-0.4,0.8-0.5,1.1c-0.1,0-0.1,0-0.2-0.1l-0.2,0c-0.4-0.1-0.7-0.1-1,0c0.3-0.4,0.5-0.9,0.5-1.4
	c0.1-0.5,0-1-0.2-1.4c-0.2-0.4-0.7-0.7-1.1-0.9l-0.1-0.1c-0.2-0.1-0.4-0.1-0.5-0.1c0.9-0.8,0.8-2.4-0.3-2.9c-0.1,0-0.2-0.1-0.4-0.1
	c-0.8-0.2-1.6,0.4-1.6,1c-0.1,0.5,0,0.8,0.1,0.8c0.1,0,0.1-0.3,0.2-0.7c0.1-0.4,0.6-0.7,1.2-0.6v0c0.9,0,1.3,1.3,0.7,2
	c-0.2,0.3-0.7,0.4-1.2,0.6c-0.5,0.1-1,0.1-1.4,0c-0.9-0.2-1.4-1.2-1.6-2.1c-0.2-1,0.1-2,0.7-2.7c1.4-1.3,3.9-1.4,5.3,0
	c0.7,0.6,1.2,1.6,1.3,2.5c0.1,0.5,0,1,0,1.5c0,0.5,0.1,1.2,0.5,1.6l0,0C16.3,31.2,16.9,31.6,17.3,31.7z"/>
</svg>
