<?xml version="1.0" encoding="utf-8"?>
<!-- Generator: Adobe Illustrator 18.0.0, SVG Export Plug-In . SVG Version: 6.00 Build 0)  -->
<!DOCTYPE svg PUBLIC "-//W3C//DTD SVG 1.1//EN" "http://www.w3.org/Graphics/SVG/1.1/DTD/svg11.dtd">
<svg version="1.1" id="レイヤー_1" xmlns="http://www.w3.org/2000/svg" xmlns:xlink="http://www.w3.org/1999/xlink" x="0px"
	 y="0px" viewBox="0 0 60 60" enable-background="new 0 0 60 60" xml:space="preserve">
<symbol  id="明るいベクトルパック_12" viewBox="-235.9 -89.1 471.8 178.2">
	<path fill="#221F20" d="M-32.1-12.9C-18.8-9.1-8.8,3-3.6,16.3l-3.2,1.2C-10.7,4.5-19.2-7.9-32.1-12.9z M-36.7-14.7
		c10,0.4,20.2,3.6,28.6,10.1l-2.2,2.7C-17.4-8.8-26.9-13.2-36.7-14.7z M-2.4,4.6C-4.7,2-7.5-0.1-10.3-1.9l2.2-2.7
		C-5.8-1.8-3.8,1.3-2.4,4.6z M235.8,89.1c-22.6-0.3-40.8-7.9-53.9-16.3c-13.2-8.6-21.7-18.3-27.6-25.9
		c-11.8-14.9-17.8-19.5-17.7-19.6C126,11.9,115,4,105.4-0.7C95.7-5.3,87.5-7,78.8-8.8c-8.7-1.6-14.3-0.9-17.6-0.6
		C57.9-9,56.7-9,56.7-9.1h0v0c0,0,0.5-1.1,3.6-3.2c3-1.9,9-5.1,19.5-4.6c10.5,0.7,18.8,5.7,27.9,12.2c9.1,6.7,19.2,15,33.8,27.1
		c-0.1,0.1,5.1,6,15.8,22.1c5.1,8,12.7,17.9,25.4,27C195.3,80.3,213.2,88.5,235.8,89.1L235.8,89.1l0.1,0L235.8,89.1z M-132.3,42.8
		c-1.3-1.8-1.7-4-1.6-6c0.6-8.3,5.5-15,10.5-20.6v0c1.6-1.8,3.4-3.4,5.2-4.9C-101.7-2-82.3-5.4-69-5.6c13.5-0.1,21.6,2.8,21.5,3
		c0,0.3-8.1-2.2-21.5-1.7c-13,0.5-32.1,4.1-48.1,17c-1.8,1.5-3.5,3.1-5.1,4.8l0,0c-5,5.4-9.7,12-10.2,19.4c-0.2,1.8,0.3,3.6,1.2,5
		c1.5-3.4,3.3-6.7,5.4-9.7c4.4-6.3,10.3-11.4,17-14.8c3.3-1.7,6.9-3.1,10.5-4c3.6-0.8,7.5-2,11.2-0.2c2,1.2,2,3.9,1.3,5.7
		c-0.6,1.9-1.7,3.6-2.8,5.2c-2.3,3.1-5,5.8-7.9,8.3c-5.8,4.9-12.4,8.7-19.5,11.5c-3.5,1.3-7.3,2.4-11.2,2c-1.6-0.2-3.3-0.9-4.6-2.1
		c-4.2,10.2-5.6,21.6-5.3,32.7c-0.4-11.1,0.9-22.7,5-33C-132,43.2-132.2,43.1-132.3,42.8z M-126.8,44.4c3.5,0.5,7.2-0.5,10.6-1.8
		c6.9-2.6,13.5-6.3,19.2-11.1c2.9-2.4,5.6-5,7.8-8c1.1-1.5,2.1-3.1,2.7-4.9c0.6-1.7,0.5-3.7-0.9-4.7c-3.1-1.6-7.1-0.6-10.6,0.2
		c-3.6,0.9-7.1,2.2-10.4,3.9c-6.7,3.3-12.5,8.3-17,14.4c-2.2,3-4,6.3-5.5,9.7C-130,43.4-128.5,44.2-126.8,44.4z M-2,30.8
		c-1.1-4.6-2.8-9.1-4.9-13.3l3.2-1.2C-2.6,21.1-2,26-2,30.8z M-51.3,0.3L-51.3,0.3l1.3,0.4C-42,2.8-36.5,7-37,7.9
		c-0.5,0.8-6.3-1.7-13.8-3.7l-1.3-0.4v0c-10.9-3.4-22.6-4.2-34-3.1C-74.8-1.6-62.9-2-51.3,0.3z M10.3-1.9L8.1-4.6
		c8.4-6.5,18.7-9.7,28.6-10.1C26.9-13.2,17.4-8.8,10.3-1.9z M49.9,0.7l1.3-0.4l0,0C62.9-2,74.8-1.6,86.1,0.7
		C74.6-0.4,63,0.4,52.1,3.8l0,0l-1.3,0.4c-7.5,2-13.3,4.5-13.8,3.7C36.5,7,42,2.8,49.9,0.7z M87,13.2c3.8-1.9,7.7-0.6,11.2,0.2
		c3.6,1,7.1,2.3,10.5,4c6.7,3.4,12.6,8.5,17,14.8c2.2,3,4,6.3,5.4,9.7c1-1.4,1.4-3.1,1.2-5c-0.6-7.5-5.3-14.1-10.2-19.4l0,0
		c-1.6-1.7-3.3-3.3-5.1-4.8C101.1-0.2,82-3.8,69-4.3c-13.3-0.4-21.4,2-21.5,1.7c-0.1-0.2,8-3.1,21.5-3c13.3,0.2,32.6,3.6,49.1,16.8
		c1.8,1.6,3.6,3.2,5.2,4.9v0c5.1,5.7,9.9,12.4,10.5,20.6c0.1,2-0.3,4.3-1.6,6c-0.1,0.2-0.3,0.4-0.5,0.6c4.1,10.3,5.4,21.8,5,33
		c0.3-11.1-1.1-22.5-5.3-32.7c-1.3,1.2-3,1.9-4.6,2.1c-4,0.5-7.7-0.6-11.2-2c-7-2.7-13.6-6.6-19.5-11.5c-2.9-2.5-5.6-5.2-7.9-8.3
		c-1.1-1.6-2.1-3.3-2.8-5.2C85,17.1,85,14.4,87,13.2z M86.5,18.6c0.6,1.7,1.6,3.4,2.7,4.9c2.2,3,4.9,5.6,7.8,8
		c5.8,4.7,12.3,8.5,19.2,11.1c3.4,1.3,7.1,2.3,10.6,1.8c1.7-0.1,3.1-1,4.1-2.2c-1.5-3.4-3.3-6.7-5.5-9.7c-4.4-6.2-10.3-11.1-17-14.4
		c-3.3-1.7-6.8-3-10.4-3.9c-3.5-0.8-7.5-1.8-10.6-0.2C86,14.9,85.9,16.9,86.5,18.6z M39-30.4c9.3,1.3,18.9,0.5,28-2.3
		c-8.6,3.6-18.4,5.5-28.2,5.1C29.1-28.9,19.7-32,11.6-37C20.2-32.9,29.7-30.7,39-30.4z M6.9,17.5l-3.2-1.2C8.8,3,18.8-9.1,32.1-12.9
		C19.2-7.9,10.7,4.5,6.9,17.5z M2.4,4.6c1.4-3.3,3.4-6.4,5.7-9.3l2.2,2.7C7.5-0.1,4.7,2,2.4,4.6z M-235.9,89.1L-235.9,89.1
		L-235.9,89.1L-235.9,89.1z M6.9,17.5c-2,4.2-3.7,8.6-4.9,13.3c0-4.8,0.6-9.7,1.6-14.5L6.9,17.5z M-67-32.7c9.1,2.8,18.7,3.6,28,2.3
		c9.3-0.3,18.8-2.4,27.4-6.6c-8.1,5-17.5,8.2-27.2,9.4C-48.6-27.2-58.4-29.1-67-32.7z M120.6-33.4c-5.7-1.9-11.7-2.7-17.6-2.5
		c0.5,0.6,1.1,1.2,1.6,1.8c4.3,0.4,8.6,1.4,13,3c1.8,0.7,3.5,1.4,5.2,2.3v0c5.4,2.8,10.4,6.4,14.7,10.9c4.1,4.5,8.2,9.7,8.6,16.4
		c0,1.6-0.6,3.7-2.2,4.5c-1.6,0.9-3.3,0.5-4.8,0.1c-3-1-5.5-2.8-7.9-4.7c-4.7-3.9-8.6-8.7-12.3-13.5c-4.5-5.7-8.8-11.6-13.5-17.2
		c-9.6-1.2-18.7,0.1-25.9,1.8c-5.5,2-11,4.3-16.7,6.3l0,0c-0.4,0.1-0.8,0.3-1.2,0.4c2-0.2,4.6-0.3,7.8-0.3c5,0.1,11.5,0.8,19.1,3.5
		c7.5,2.8,16.3,7.5,24.4,16.1l0,0l0,0l0,0l0,0c-8.3-8.4-17.4-12.6-24.9-14.6c-7.6-2-13.8-1.7-18.4-1.1c-9.2,1.6-12.4,4-12.4,3.9
		c-9.4,0.2-15.3,4.4-19.3,8.3c-4.1,3.9-6.6,7.9-10.6,10.6c-8,5.7-11.1,5.6-11.2,5.5l0,0l0,0c0.1,0-0.7-3.6,6.1-11.7
		c3.5-4,8.1-5.9,13.3-8.4c5-2.3,10.4-5.2,18.2-10.1c-12.2,1.9-23.4,0.2-31-3.1c-8.6-3.6-12.5-8.3-12.1-8.6c0.3-0.4,4.6,3.4,13,6.2
		c8.3,2.9,20.8,4.1,33.9,1.1c1.5-0.4,3-0.8,4.5-1.3l0,0c9.5-2.9,18.9-7.1,29-9.2c3-0.7,6.1-1.1,9.2-1.3c-1.6-1.6-3.2-3.1-4.9-4.6
		c-4.6-3.9-9.9-7-15.8-8.1c-5.9-1.2-12,0-17.5,2.6c5.4-2.6,11.6-3.9,17.5-2.8c5.9,1,11.3,4.2,16,8c1.8,1.5,3.6,3.2,5.3,4.9
		c6.9-0.3,13.9,0.6,20.4,3c19.3,7.3,33.6,23.2,46,39.3C154.4-11.6,139.5-26.9,120.6-33.4z M119.6-15.6c3.8,4.7,7.7,9.4,12.3,13.2
		c2.3,1.8,4.8,3.6,7.5,4.4c1.3,0.4,2.8,0.6,3.9,0c1.1-0.6,1.5-2,1.5-3.4c-0.4-5.9-4.4-11.1-8.4-15.3c-4.2-4.3-9.1-7.7-14.4-10.4v0
		c-1.6-0.8-3.3-1.6-5-2.2c-3.6-1.3-7.2-2.2-10.7-2.7C110.9-26.8,115.2-21.1,119.6-15.6z M91.4-34.2c-0.4,0.1-0.9,0.2-1.3,0.3
		c4.3-0.5,8.8-0.7,13.6-0.3c-0.5-0.6-1-1.1-1.5-1.7C98.6-35.7,95-35.1,91.4-34.2z M-79.5-50.8c-5.9,1.1-11.2,4.3-15.8,8.1
		c-1.7,1.4-3.3,3-4.9,4.6c3.1,0.2,6.2,0.6,9.2,1.3c10.1,2.1,19.5,6.3,29,9.2v0c1.5,0.5,3,0.9,4.5,1.3c13.1,3.1,25.6,1.8,33.9-1.1
		c8.4-2.8,12.7-6.6,13-6.2c0.4,0.3-3.5,5-12.1,8.6c-7.6,3.3-18.8,5-31,3.1c7.8,4.9,13.1,7.8,18.2,10.1c5.3,2.5,9.8,4.4,13.3,8.4
		c6.8,8.1,6,11.7,6.1,11.7h0l0,0c-0.1,0.1-3.2,0.2-11.2-5.5c-4-2.8-6.5-6.7-10.6-10.6c-4-3.8-9.9-8-19.3-8.3c0,0.1-3.2-2.3-12.4-3.9
		c-4.6-0.7-10.8-0.9-18.4,1.1c-7.5,2-16.6,6.2-24.9,14.6l0,0l0,0l0,0l0,0l0,0c8.1-8.6,16.9-13.3,24.4-16.1
		c7.6-2.7,14.1-3.4,19.1-3.5c3.2,0,5.7,0.1,7.8,0.3c-0.4-0.1-0.8-0.2-1.2-0.4l0,0c-5.7-1.9-11.2-4.2-16.7-6.3
		c-7.2-1.7-16.3-3-25.9-1.8c-4.7,5.5-9,11.5-13.5,17.2c-3.8,4.8-7.6,9.6-12.3,13.5c-2.4,1.9-4.9,3.7-7.9,4.7
		c-1.5,0.4-3.2,0.8-4.8-0.1c-1.7-0.9-2.3-2.9-2.2-4.5c0.4-6.7,4.5-12,8.6-16.4c4.3-4.4,9.3-8,14.6-10.9v0c1.7-0.9,3.4-1.6,5.2-2.3
		c4.4-1.6,8.8-2.5,13-3c0.5-0.6,1.1-1.2,1.6-1.8c-5.9-0.2-11.9,0.5-17.6,2.5c-19,6.5-33.8,21.8-46.5,37.6c12.3-16.1,26.7-32,46-39.3
		c6.5-2.4,13.4-3.4,20.4-3c1.7-1.7,3.4-3.3,5.3-4.9c4.7-3.8,10.1-7,16-8c5.9-1.1,12.1,0.2,17.5,2.8C-67.4-50.8-73.6-52-79.5-50.8z
		 M-117.1-29.4c-1.7,0.7-3.4,1.4-5,2.2l0,0c-5.3,2.7-10.2,6.2-14.4,10.4c-4,4.2-8,9.4-8.4,15.3c0,1.4,0.4,2.8,1.5,3.4
		c1.1,0.6,2.6,0.4,3.9,0c2.7-0.9,5.2-2.6,7.5-4.4c4.6-3.8,8.5-8.5,12.3-13.2c4.4-5.5,8.6-11.1,13.2-16.5
		C-109.9-31.6-113.5-30.8-117.1-29.4z M-102.2-35.9c-0.5,0.6-1,1.1-1.5,1.7c4.8-0.4,9.3-0.2,13.6,0.3c-0.4-0.1-0.8-0.2-1.3-0.3
		C-95-35.1-98.6-35.7-102.2-35.9z M113-4.5L113-4.5L113-4.5L113-4.5z M149.6,0.1L149.6,0.1c-1.2-9.7-7.4-18.1-15.4-23.3
		c8.2,4.7,15.2,12.9,17.1,23l0,0c0.1,0.4,0.1,0.8,0.2,1.2c1,7-1,12.5-1.5,12.3c-0.4-0.1,0.7-5.5-0.2-12
		C149.8,0.8,149.7,0.5,149.6,0.1z M-134.3-23.2c-8,5.3-14.2,13.7-15.4,23.3h0c-0.1,0.4-0.1,0.7-0.2,1.1c-0.9,6.6,0.2,11.9-0.2,12
		c-0.5,0.2-2.4-5.3-1.5-12.3c0.1-0.4,0.1-0.8,0.2-1.2l0,0C-149.5-10.4-142.5-18.5-134.3-23.2z M-113-4.5L-113-4.5L-113-4.5L-113-4.5
		z M-141.5,22.4c14.6-12.1,24.8-20.5,33.9-27.1c9.1-6.5,17.4-11.5,27.9-12.2c10.5-0.5,16.5,2.6,19.5,4.6c3,2.1,3.5,3.2,3.6,3.2v0h0
		c0,0.1-1.2,0.1-4.5-0.3c-3.3-0.3-8.8-1-17.6,0.6c-8.7,1.7-16.9,3.5-26.6,8.1c-9.6,4.7-20.6,12.6-31.2,28c0.1,0.1-5.9,4.7-17.7,19.6
		c-5.9,7.7-14.4,17.3-27.6,25.9c-13.2,8.3-31.3,16-53.9,16.3l-0.1,0l0.1,0l0.1,0c22.6-0.6,40.5-8.8,53.1-17.6
		c12.7-9.1,20.3-19,25.4-27C-146.6,28.4-141.4,22.5-141.5,22.4z M235.9,89.1L235.9,89.1L235.9,89.1L235.9,89.1z M41.4-43.2
		c-5.1-0.2-10.1,1.2-14.9,2.7c-2.4,0.8-4.8,1.9-7.5,2c0,0-0.1,0-0.1,0c0.5,1.3,0.9,2.6,1.1,3.9c-0.5-0.2-1-0.3-1.4-0.5
		c-0.2-1.2-0.6-2.3-1-3.5c-2.1-0.2-4.2-1-5.9-2.4c-2.1-1.7-3.7-3.9-4.4-6.5c-0.1-0.7-0.3-1.4,0.3-2.3c0.7-0.9,1.9-0.5,2.4-0.2
		c1.3,0.7,2.2,1.6,3.1,2.5c2.3,2.4,4.3,5.2,5.6,8.3c0.1,0,0.3,0,0.4,0c2.5,0,4.9-1,7.3-1.8c4.9-1.5,9.9-2.8,15.1-2.5
		c5.2,0.2,10,3,12.9,7.2C51.3-40.4,46.5-43.1,41.4-43.2z M12.3-46.7c-1.3-1.6-4.8-4.4-4.1-1c0.5,2.3,2,4.5,3.9,6.1
		c1.5,1.2,3.2,2,5.1,2.3C16-42,14.3-44.5,12.3-46.7z M20.3-31.5c0,0.6,0,1.2,0,1.9c-0.5-0.2-0.9-0.4-1.4-0.6c0-0.6,0-1.2,0-1.8
		C19.4-31.9,19.9-31.7,20.3-31.5z M-20.3-29.7c0-0.6,0-1.2,0-1.9c0.5-0.2,0.9-0.4,1.4-0.6c0,0.6,0,1.2,0,1.8
		C-19.3-30.1-19.8-29.9-20.3-29.7z M8.5-18.4c2,0.9,4.4-0.1,6.1-1.7c1.7-1.7,2.9-3.8,3.6-6.2c0.4,0.2,0.9,0.5,1.3,0.7
		c-0.7,2.4-2,4.7-3.9,6.6c-1.9,1.9-5,3.3-7.9,2.1c-1.6-0.7-2.7-1.8-3.7-3.1c0.7,2.3,1.2,4.5,0.7,6.9C3.3-5.3,0-3.8,0-3.8v0l0,0
		c0,0-3.3-1.6-4.9-9.2c-0.5-2.4,0-4.6,0.7-6.9c-0.9,1.3-2.1,2.4-3.7,3.1c-2.9,1.2-6-0.3-7.8-2.1c-1.9-1.9-3.1-4.2-3.8-6.6
		c0.5-0.2,0.9-0.5,1.3-0.7c0.7,2.3,1.9,4.5,3.6,6.2c1.7,1.6,4.1,2.6,6.1,1.7c1.9-0.9,3.4-3.1,4.5-5.2c1.2-2.5,1.9-5.2,2.2-8.1
		c-0.1-2.8-0.7-6-2.3-9.7c0,0,3.5-11.9,4.2-47.7v0l0,0v0c0.7,35.8,4.2,47.7,4.2,47.7c-1.6,3.8-2.3,7-2.3,9.8c0.3,2.8,0.9,5.5,2.1,8
		C5.1-21.5,6.6-19.3,8.5-18.4z M-11.7-41c-1.6,1.3-3.7,2.1-5.7,2.4c-0.5,1.2-0.8,2.3-1.1,3.6c-0.5,0.2-1,0.3-1.4,0.5
		c0.2-1.4,0.6-2.7,1.2-4c-0.1,0-0.1,0-0.2,0c-2.6-0.1-5.1-1.2-7.4-2c-4.8-1.6-9.8-2.9-14.9-2.8c-5.1,0.1-10,2.8-13,7
		c2.9-4.2,7.8-7.1,13-7.3c5.2-0.3,10.2,1,15.1,2.5c2.5,0.8,4.8,1.8,7.3,1.8c0.2,0,0.3,0,0.5,0c1.3-3,3.3-5.8,5.5-8.1
		c0.9-0.9,1.8-1.9,3.1-2.5c0.5-0.3,1.6-0.7,2.3,0.2c0.5,0.8,0.3,1.5,0.2,2.2C-8-44.9-9.7-42.7-11.7-41z M-12.2-46.7
		c-2,2.2-3.7,4.6-4.9,7.2c1.8-0.3,3.5-1.1,4.9-2.2c1.9-1.5,3.4-3.7,3.9-6C-7.6-51-10.8-48.3-12.2-46.7z"/>
</symbol>
<use xlink:href="#明るいベクトルパック_12"  width="471.8" height="178.2" x="-235.9" y="-89.1" transform="matrix(0.1264 0 0 -0.1264 30.08 30.2876)" overflow="visible"/>
</svg>
