<?xml version="1.0" encoding="utf-8"?>
<!-- Generator: Adobe Illustrator 18.0.0, SVG Export Plug-In . SVG Version: 6.00 Build 0)  -->
<!DOCTYPE svg PUBLIC "-//W3C//DTD SVG 1.1//EN" "http://www.w3.org/Graphics/SVG/1.1/DTD/svg11.dtd">
<svg version="1.1" id="レイヤー_1" xmlns="http://www.w3.org/2000/svg" xmlns:xlink="http://www.w3.org/1999/xlink" x="0px"
	 y="0px" viewBox="0 0 60 60" enable-background="new 0 0 60 60" xml:space="preserve">
<path fill="#221F20" d="M41.4,22.3l-0.6-0.2c-0.8,2.3-1.6,4.5-2.7,6.2c-0.5,0.7-1.1,1.3-1.6,1.8c-0.2-0.2-0.5-0.4-0.7-0.5
	c-1.6-1.3-3.5-2-5.6-2c-2,0-4.1,0.6-6.5,2c-0.1,0.1-0.3,0.2-0.4,0.3c-3.7-2.2-6.8-4.5-10.1-5.7c0.9-3.2,1.6-6.9,4.9-8.5
	c4.9,0.3,9.1,4.1,12.4,6.5c0.5,0.4,1,0.7,1.4,1c3.3,2.6,5.5,4.4,5.9,4.4c-0.3-0.1-2.5-1.8-5.6-4.3c3.2,2.2,6.4,1.1,6.8,0.9
	c-0.5,0.3-3.8,1.4-7.1-1.1c-0.4-0.3-0.9-0.6-1.3-0.9c-3.3-2.5-7.3-6.4-12.6-7.1c-3.8,1.7-4.6,5.5-5.6,8.7c-0.1,0-0.3-0.1-0.4-0.1
	c0.1-0.9,0.2-1.8,0.2-2.7c0.2-6.2,4.8-10.4,5-10c-0.2-0.3-4.8,3.9-5,10c0,0.9-0.1,1.8-0.2,2.7c-1-0.2-2-0.4-3-0.4
	c-2.1,0-4.1,0.5-6.6,1.8l0,0.1c2.5-1.2,4.7-1.7,6.7-1.7l0.1,0c1,0,1.9,0.2,2.8,0.4c-0.2,1.4-0.6,2.7-1.2,3.6c-0.3,0.4-0.6,0.7-1,1
	c-1.7,1.2-3.3,1.3-4.4,1c-1-0.4-1.7-1-1.8-1.2c0.1-0.5,0.2-1.9-0.1-1.7c0,0-0.2,0.5-0.3,0.8c-0.2-0.2-0.6-0.5-1.1-0.8
	c-0.5-1-1-2.2-1.3-1.9c0.3-0.2,0.6,0.8,1,1.7c-0.9-0.5-1.8-1.1-1.6-1.3c-0.3,0.2,0.8,1,1.7,1.6c0.2,0.5,0.4,1,0.6,1.3
	c-0.5-0.1-1.3-0.2-1.3-0.2c-0.5,0.1,1.6,0.6,2,0.7C3.2,29.2,4,29.8,5,30.1c-1.2,0.3-2,0.9-2.4,1.3c-0.5,0.1-2.5,0.5-2,0.7
	c0,0,0.8-0.1,1.3-0.1c-0.1,0.3-0.3,1-0.4,1.5c-0.5,0.5-0.9,0.9-0.7,1c-0.2-0.1,0.2-0.5,0.6-0.8c-0.1,0.6-0.3,1.1-0.5,1
	c0.2,0.1,0.4-0.4,0.6-1.1c0.4-0.3,0.8-0.6,1.1-0.8c0.1,0.4,0.1,0.8,0.1,0.8c0.3,0.3,0.4-1.8,0.4-1.8s0,0,0,0
	c0.1-0.2,0.8-0.8,1.8-1.2c1.1-0.3,2.7-0.2,4.4,1c0.4,0.3,0.8,0.6,1.1,1c0.6,1,1,2.2,1.3,3.5c0,0-0.1,0-0.1,0
	c-0.8,0.2-1.7,0.3-2.5,0.2c-2.1,0-4.2-0.6-6.6-1.8l0,0.1c0.3,0.2,0.7,0.3,1,0.5c2,1,2.9,1.5,4.8,1.7c1.2,0,2.4-0.2,3.5-0.5
	c0,0,0.1,0,0.1,0c0.2,1,0.2,2,0.3,3c0.2,6.2,4.8,10.4,5,10c-0.2,0.3-4.8-3.9-5-10c0-1-0.1-2-0.2-3c0.1,0,0.2-0.1,0.3-0.1
	c1,3.3,1.8,7.2,5.6,8.9c5.3-0.7,9.3-4.5,12.6-7.1c0.5-0.3,0.9-0.6,1.3-0.9c3.3-2.5,6.8-1.7,7.3-1.5c-0.5-0.2-3.8-1-7,1.2
	c3.1-2.5,5.2-4.2,5.6-4.3c-0.3,0.1-2.6,1.9-5.9,4.4c-0.5,0.3-0.9,0.7-1.4,1c-3.3,2.4-7.5,6.2-12.4,6.5c-3.4-1.6-4-5.3-4.9-8.5
	c3.5-1,6.6-3.3,10.4-5.5c0.1,0.1,0.3,0.2,0.4,0.3c2.3,1.4,4.4,2,6.3,2.1c1.8,0,3.4-0.5,4.9-1.4c0.5-0.3,0.9-0.6,1.4-1
	c1.8,1.8,3.1,4.2,4.1,7.3l0.1,0.3l0.1,0.2l19.3-7.7L41.4,22.3z M2.6,27.8C2.6,27.8,2.6,27.9,2.6,27.8c-0.1-0.1-0.2-0.2-0.3-0.2
	c-0.1,0,0,0.2,0.1,0.4c-0.1-0.1-0.3-0.4-0.5-0.9C2.3,27.5,2.6,27.7,2.6,27.8C2.6,27.8,2.6,27.8,2.6,27.8z M1.8,33.3
	c0.2-0.7,0.4-1.5,0.5-1.4v0c0,0,0.1,0,0.1,0c-0.2,0.3-0.2,0.6-0.1,0.6c0.1,0,0.2,0,0.3-0.2c0,0,0,0,0,0c0,0,0.1,0,0.1,0
	c0,0,0,0.1,0,0.1C2.5,32.6,2.1,33,1.8,33.3z M8.3,36.6c-1.5,0-2.5-0.5-4-1.2c1.8,0.7,3.4,1,4.9,1.1c0.5,0,1,0,1.5-0.1
	C10,36.5,9.1,36.6,8.3,36.6z M23.7,29.7c2.3-1.4,4.5-2,6.5-2c1.6,0,3,0.4,4.3,1.1c-1.1-0.5-2.3-0.8-3.6-0.9c-1.9,0-4.1,0.5-6.4,1.9
	c-0.2,0.1-0.4,0.2-0.7,0.4c-0.1-0.1-0.3-0.2-0.4-0.3C23.4,29.8,23.6,29.8,23.7,29.7z M23.1,29.9C23,30,23,30,22.9,30
	c-3.6-2.2-6.6-4.5-9.9-5.7c0,0,0-0.1,0-0.1C16.3,25.4,19.4,27.7,23.1,29.9z M17.9,15.2c3.5,0.4,6.6,2.4,9.2,4.4
	c-2.6-1.9-5.6-3.7-9.2-4c-3.5,1.7-4.2,5.3-5.2,8.4c-0.1,0-0.1,0-0.2-0.1C13.6,20.7,14.3,16.8,17.9,15.2z M12.6,24.1
	c0.1,0,0.1,0,0.2,0.1c0,0,0,0.1,0,0.1C12.7,24.2,12.6,24.2,12.6,24.1C12.6,24.2,12.6,24.1,12.6,24.1z M11.9,23.9
	c0.1,0,0.3,0.1,0.4,0.1c0,0,0,0.1,0,0.1C12.1,24.1,12,24,11.9,23.9C11.9,24,11.9,23.9,11.9,23.9z M8.9,23.6c-1.1,0-2.3,0.1-3.6,0.5
	c1.2-0.4,2.4-0.5,3.5-0.5c1.1,0,2.1,0.1,3,0.4c0,0,0,0,0,0.1C10.9,23.7,9.9,23.6,8.9,23.6z M11.9,24.1c0.1,0,0.3,0.1,0.4,0.1
	c-0.4,1.1-0.8,2.2-1.3,3.1C11.4,26.3,11.7,25.2,11.9,24.1z M9.8,28.9c1.5-1,2.2-2.7,2.8-4.7c0.1,0,0.1,0,0.2,0.1
	C12.1,26.3,11.4,28.1,9.8,28.9c-0.2,0.2-0.4,0.3-0.6,0.4C9.4,29.2,9.6,29.1,9.8,28.9z M10.1,29.3c1.6-1,2.3-2.8,2.9-4.9
	c3.3,1.2,6.2,3.5,9.8,5.7c-3.6,2.1-6.7,4.4-9.9,5.6c-0.6-2-1.3-3.8-2.9-4.8c-0.6-0.4-1.2-0.6-1.7-0.8C8.9,29.9,9.4,29.7,10.1,29.3z
	 M11.9,36.1c-0.2-1-0.4-2-0.9-2.9c0.5,0.8,0.8,1.8,1.2,2.8C12.1,36,12,36,11.9,36.1z M9.7,31.2c-0.2-0.2-0.4-0.3-0.6-0.4
	C9.3,30.9,9.6,31,9.7,31.2c1.6,0.9,2.3,2.6,2.9,4.6c-0.1,0-0.1,0-0.2,0.1C11.9,33.9,11.2,32.2,9.7,31.2z M17.9,44.5
	c3.6-0.3,6.6-2.1,9.2-4c-2.7,2-5.7,4-9.2,4.4c-3.6-1.6-4.3-5.5-5.3-8.9c0.1,0,0.1,0,0.2,0C13.6,39.1,14.4,42.8,17.9,44.5z M13,35.8
	C13,35.8,13,35.8,13,35.8c3.3-1.2,6.3-3.5,10-5.7c0.1,0.1,0.3,0.2,0.4,0.3C19.5,32.5,16.4,34.8,13,35.8z M23,30.1
	c0.1,0,0.1-0.1,0.2-0.1c0.1,0.1,0.3,0.2,0.4,0.3c-0.1,0-0.1,0.1-0.2,0.1C23.3,30.3,23.2,30.2,23,30.1z M30.2,32.7
	c-1.9,0-4-0.7-6.3-2.1c-0.1-0.1-0.3-0.2-0.4-0.2c0.1,0,0.1-0.1,0.2-0.1c0.1,0.1,0.3,0.2,0.4,0.3c2.4,1.4,4.5,2,6.5,2
	c0.8,0,1.6-0.1,2.3-0.3C32.1,32.5,31.2,32.7,30.2,32.7z M35.1,31.3c-1.3,0.8-2.8,1.2-4.4,1.2c-2,0-4.1-0.6-6.5-2
	c-0.1-0.1-0.3-0.2-0.4-0.2c0.2-0.1,0.4-0.2,0.6-0.3c2.3-1.3,4.5-1.9,6.4-1.9c1.8,0,3.4,0.6,4.9,1.6c0.2,0.2,0.5,0.4,0.7,0.6
	C36,30.6,35.5,31,35.1,31.3z M41,37.8c-0.9-2.7-2.2-5.2-3.8-6.9c1.7,1.7,3,4.1,3.9,6.9L41,37.8z M41.1,37.7
	c-1.1-3.2-2.5-5.7-4.5-7.5c0.5-0.4,1-1,1.4-1.5c1.2-1.4,2.2-3.1,3-5.2l18.4,6.9l-18,7.1L41.1,37.7z M59.7,30.5L40.9,23l0,0
	c-0.5,1.5-1.2,2.8-1.9,4c0.7-1.4,1.3-3.1,1.9-4.8l0.6,0.2l18.3,8l-14,5.4L59.7,30.5z"/>
</svg>
