<?xml version="1.0" encoding="utf-8"?>
<!-- Generator: Adobe Illustrator 18.0.0, SVG Export Plug-In . SVG Version: 6.00 Build 0)  -->
<!DOCTYPE svg PUBLIC "-//W3C//DTD SVG 1.1//EN" "http://www.w3.org/Graphics/SVG/1.1/DTD/svg11.dtd">
<svg version="1.1" id="レイヤー_1" xmlns="http://www.w3.org/2000/svg" xmlns:xlink="http://www.w3.org/1999/xlink" x="0px"
	 y="0px" viewBox="0 0 60 60" enable-background="new 0 0 60 60" xml:space="preserve">
<symbol  id="明るいベクトルパック_17" viewBox="-145 -144.8 290 289.7">
	<g>
		<path fill="#221F20" d="M-32.8,76.3c-1.7,0.7-3.5,1.2-5.3,1.5v0c-6,0.9-12.5-2.1-15.5-7.4c-3.1-5.2-3.1-11.7-0.6-17
			c1.2-2.6,3-4.9,5.1-6.9c2-1.8,4.1-3.6,6.1-5.4c4-3.6,7.9-7.4,11.6-11.3c14.9-15.5,26.3-35.2,28.6-57C-4.5-5.3-15.5,15-30.1,31.1
			c-3.6,4.1-7.5,8-11.4,11.7c-3.9,3.9-8.4,7-10.3,11.8c-2.1,4.6-1.8,10.1,0.8,14.2c2.6,4.2,7.6,6.3,12.4,5.5v0
			c1.5-0.2,3-0.7,4.5-1.3c6.4-2.4,10.3-8.8,10-14.5c-0.1-2.9-1.2-5.5-2.9-7.2c-1.7-1.7-4.1-2.1-6.4-2.3c-4.5-0.2-8,1.7-10,3.4
			c-2,1.7-2.9,3-3.1,2.8c-0.2-0.1,0.2-1.7,2.1-3.8c1.8-2.1,5.6-4.8,10.9-4.9c2.5,0,5.8,0.3,8.4,2.6c2.5,2.2,4,5.6,4.2,9.2
			C-20.2,65.5-25.1,73.4-32.8,76.3z M-14.1-18.6C-10.7-27-9-36.2-10.7-45c-1.4-7.8-5.3-15.4-11.8-19.8c2.5,2.3,4.5,5,5.7,7.8
			c3,6.7,2.6,12.8,2.1,16.6c-0.6,3.9-1.4,6-1.5,6c-0.1,0,0.5-2.1,0.8-6c0.3-3.8,0.5-9.8-2.5-16c-1.5-3.1-3.8-6.1-7.1-8.5
			c-2.1-1.7-4.7-3-7.5-3.6c-1.2-0.2-2.4-0.2-3.6-0.2c0.3,4-0.2,8.1-1.2,11.9c-2,7.7-5.6,15.1-11.4,20.8c-1.5,1.4-3.1,2.7-5.2,3.4
			c-2,0.8-4.8,0.5-6.3-1.3c-2.8-3.4-3.5-7.7-3-11.8h0c0.3-2.5,1-5,2.1-7.3c2.2-4.6,5.4-8.6,9.3-11.6c-7.5,4-13.7,10.4-18,17.8
			c-1.3,2.2-2.4,4.4-3.3,6.7c1.1,1.8,2,3.8,2.8,5.7c3.6,8.8,4.9,18.3,4.8,27.7c-0.1,4.7-0.5,9.4-1.8,14.1c-0.3,1.2-0.7,2.3-1.3,3.5
			c-0.6,1-1.3,2.7-3.6,2.7c-2.1-0.5-2.6-2-3.2-3c-0.5-1.1-1-2.3-1.3-3.4c-2.3-9.2-3.4-18.6-2.9-28.1c0.4-6.8,1.8-13.5,4.2-19.9
			c-3.5-5.4-8.4-9.9-14.5-12.2c-4.2-1.7-8.8-2.9-13.2-2.4c-4.5,0.5-8.4,3.4-10.5,7.4c-1.6,3.3-2.4,6.8-2.7,10.5
			c1.2,0.2,2.5,0.7,3.5,1.3c4.1,2.5,7.2,6.2,9.9,10c2.6,3.9,4.9,8,6.1,12.7c0.3,1.2,0.4,2.4,0.2,3.7c-0.1,1.3-1.4,2.7-2.8,2.7
			c-2.7,0.1-4.8-1.1-6.8-2.4c-3.9-2.8-6.5-7-8.3-11.4c-1.9-5.1-3.1-10.6-2.9-16.1c-0.7,0-1.4,0.1-2,0.4c-2.1,0.9-3.4,3.1-4.2,5.2
			c-1.5,4.4-2.4,9-3.2,13.5c-1.6,9.2-2,18.5-3.4,27.7c-0.8,4.6-1.8,9.2-4.1,13.2c-2.2,4.1-6,7.2-10.4,8.7c4.4-1.6,8.1-4.7,10.3-8.8
			c2.3-4.1,3.3-8.7,4-13.2c1.4-9.2,1.7-18.5,3.2-27.7c0.8-4.6,1.6-9.2,3.1-13.6c0.8-2.2,2.1-4.5,4.5-5.5c0.7-0.3,1.5-0.5,2.3-0.5
			c0.2-3.8,1-7.5,2.7-11c2.1-4.3,6.5-7.7,11.4-8.2c4.9-0.6,9.7,0.6,14,2.4c6.1,2.2,11,6.5,14.7,11.8c0.8-1.8,1.7-3.7,2.7-5.4
			c4.7-8.3,11.7-15.4,20.3-19.7c4.3-2.1,9.1-3.5,14-3.8c-0.5-2.7-1.5-5.4-3-7.8c-0.3-0.5-0.7-1-1.1-1.5c-0.7,0.4-1.4,0.9-2.1,1.3
			c-3.5,1.8-7.6,3.3-11.6,2.2c-4-0.9-7.1-5.9-4.8-9.8c1.2-1.9,3.6-2.6,5.6-2.3c2.1,0.2,4,1,5.8,1.9c2.8,1.5,5.5,3.4,7.6,5.8
			c5.6-3.6,10.5-8.4,14.4-13.8c0.1-0.1,0.2-0.3,0.3-0.4c-0.4-1.1-0.8-2.2-1.2-3.4c-0.5-1.9-0.8-3.9-0.5-5.9c0.2-1,0.6-2,1.6-2.5
			c1.1-0.5,2.3,0.3,2.7,1.2c1.5,3.8-0.4,7.7-2.4,10.9c2.4,6.1,6.2,11.5,10.1,16.8c-3.9-5.2-7.7-10.6-10.2-16.6
			c0,0.1-0.1,0.1-0.1,0.2c-3.9,5.5-8.7,10.3-14.3,14c0.4,0.5,0.7,0.9,1.1,1.4c1.7,2.6,2.8,5.4,3.3,8.3c4.5-0.1,8.9,0.8,13.1,2.9
			c9.1,4.5,14.3,14,16.1,23.4c1.9,9.6,0.1,19.5-3.4,28.3L-14.1-18.6z M-74.7,6.3c0.5,2,1.7,4.7,2.6,5c0.2,0.1,1.1-0.6,1.5-1.6
			c0.5-0.9,0.9-2,1.2-3c1.3-4.3,1.7-9,1.9-13.5c0.2-9.2-1.1-18.5-4.4-27c-0.6-1.5-1.2-2.9-2-4.3C-78.9-24.1-78.1-8.2-74.7,6.3z
			 M-113.7-21.5c1.7,4.2,4.2,8.3,7.9,11c1.8,1.3,4,2.4,6.2,2.3c2.3-0.2,2.3-3.2,1.8-5.3c-1-4.5-3.3-8.6-5.8-12.5
			c-2.6-3.8-5.6-7.4-9.6-9.9c-1-0.6-2.1-1.1-3.2-1.3C-116.6-31.8-115.5-26.4-113.7-21.5z M-49.4-87c-1.7-0.9-3.5-1.6-5.4-1.8
			c-1.8-0.2-3.8,0.3-4.8,1.9c-2,3.2,0.6,7.8,4.3,8.6c3.7,1.1,7.7-0.2,11.1-2c0.7-0.4,1.3-0.8,2-1.2C-44.2-83.8-46.7-85.6-49.4-87z
			 M-24.3-106.8c-0.4-0.8-1.4-1.5-2.3-1.1c-0.9,0.4-1.3,1.4-1.5,2.3c-0.4,1.9-0.1,3.9,0.4,5.8c0.3,1.1,0.7,2.2,1.1,3.2
			C-24.7-99.6-22.9-103.3-24.3-106.8z M-39.3-68.7c-8.2,1.4-16.1,7.8-20.2,16.3c-1,2.2-1.7,4.5-2,6.8l0,0c-0.5,3.7,0.3,7.7,2.5,10.5
			c2.4,2.8,6.6,0.4,9.2-2.1c5.5-5.3,9.1-12.6,11.2-20c1-3.7,1.5-7.7,1.2-11.6C-38-68.8-38.6-68.7-39.3-68.7z M-29.1-26.6
			c3-0.5,7.2-0.3,8.6,3.2c1.9,6.5-2.3,13.2-8,15.9c5.7-2.8,9.6-9.5,7.6-15.7c-1.3-3.1-5.2-3.3-8.1-2.7c-3.1,0.6-5.9,1.9-8.6,3.6
			C-48.1-15.5-54.4-3.6-56.7,8.5c-0.6,3-1.1,6.2-0.3,9c0.6,2.9,3.4,4,6.3,3.3c5.8-1.3,11-5.3,15.6-9.3C-26,3.2-18.6-7.2-14.1-18.6
			l3.3,1.3C-15.9-5.4-23.8,5.1-33.5,13.5c-4.9,4.1-10.2,8.1-16.9,9.5c-1.7,0.3-3.6,0.3-5.3-0.6c-1.8-0.9-2.9-2.7-3.3-4.4
			c-0.8-3.4-0.2-6.7,0.5-9.8C-55.8-4.2-49-16.3-38-23.1C-35.2-24.8-32.3-26.1-29.1-26.6z M-79.5,4.6L-79.5,4.6
			c0.1,0.6,0.2,1.1,0.3,1.7c2,9.8,4.9,17.4,4.1,17.8c-0.9,0.5-5.5-6.8-7.6-17.1c-0.1-0.6-0.3-1.2-0.3-1.7h0
			c-2.3-15-0.6-30.5,4.9-44.3C-82.4-24.8-82.8-9.6-79.5,4.6z M-12.5-7.4C-19,5-28.4,15.6-38.8,24.8l0,0c-0.8,0.7-1.7,1.4-2.5,2.1
			C-56.2,38.9-70.6,45-71,44.1c-0.4-0.9,12.9-8.2,27.4-20c0.8-0.7,1.7-1.4,2.5-2l0,0c10.6-8.5,20.2-18.5,27-30.3
			C-7.2-20-3.8-34-5.6-47.7C-3.2-34.1-6.1-19.7-12.5-7.4z M-23.4,17.4L-23.4,17.4c-0.5,0.6-0.9,1.2-1.4,1.7
			c-8.5,10.1-17.7,15.9-18.2,15c-0.6-0.8,7.3-7.6,15.5-17.3c0.5-0.6,0.9-1.1,1.4-1.7l0,0C-13.9,1.2-4.9-16.3-3.3-35.3
			C-3.7-16.2-11.7,2.2-23.4,17.4z M-37.3,34.2c-3.7,4.2-8.2,7.8-12.5,11.3c-4.2,3.6-7.8,8.2-9.5,13.3h0c-0.1,0.4-0.3,0.8-0.4,1.2
			c-2,7.3-0.1,13.5-0.6,13.6c-0.2,0.1-1-1.4-1.5-3.9c-0.5-2.5-0.7-6.2,0.4-10.1c0.1-0.4,0.3-0.9,0.4-1.3l0,0
			c2.2-5.5,6.1-9.9,10.6-13.4C-45.8,41.5-41.2,38.3-37.3,34.2z M-62.5,53.2L-62.5,53.2c3.5-4.6,8.2-7.7,13.1-10.2
			c-4.6,2.9-8.9,6.6-11.7,11.1h0l-0.3,0.5c-2,3.1-2.6,5.9-3,5.9c-0.6,0-0.6-3.4,1.6-6.8L-62.5,53.2z M-86.4-5.9l0,1.2
			c-0.3,7.2,0.7,13,0.3,13.1c-0.5,0.2-2.3-5.7-2-13.1l0.1-1.3l0,0c0.8-10.8,3.7-21.2,7.5-31.1C-83.8-26.9-86.1-16.4-86.4-5.9
			L-86.4-5.9z M-56.3-27.2c-2.3,0.6-3.8,0.6-3.8,0.3c-0.1-0.4,5.5-1.5,10.7-6c0.3-0.2,0.6-0.5,0.9-0.8l0,0
			C-40.9-40.1-37-50.2-35.1-60c-1.4,10-4.7,20.3-12.3,27.7l0,0c-0.3,0.3-0.6,0.5-0.9,0.8C-51-29.2-54-27.8-56.3-27.2z M-42.9-35.2
			L-42.9-35.2c4-4.9,6.4-11.1,7.6-17.5c-0.7,6.4-2.5,13-6.3,18.5h0c-0.2,0.2-0.3,0.4-0.5,0.6c-2.8,3.7-6.4,5.3-6.6,4.8
			c-0.2-0.4,2.7-2.4,5.3-5.9C-43.2-34.8-43.1-35-42.9-35.2z"/>
		<path fill="#221F20" d="M20.9,58.3c0.2-3.6,1.7-7,4.2-9.2c2.5-2.3,5.9-2.6,8.4-2.6c5.3,0.1,9.1,2.8,10.9,4.9
			c1.9,2.1,2.3,3.7,2.1,3.8c-0.2,0.1-1.1-1.1-3.1-2.8c-2-1.6-5.4-3.6-9.9-3.4c-2.3,0.1-4.7,0.5-6.4,2.3c-1.7,1.7-2.8,4.3-2.9,7.2
			c-0.3,5.8,3.6,12.1,10,14.5c1.5,0.6,3,1.1,4.5,1.3l0,0c4.8,0.8,9.8-1.3,12.4-5.5c2.7-4.1,2.9-9.7,0.8-14.2
			c-1.9-4.7-6.4-7.9-10.3-11.8c-3.9-3.8-7.8-7.6-11.4-11.7C15.5,15,4.5-5.3,2.8-27.2c2.3,21.8,13.7,41.5,28.6,57
			c3.7,3.9,7.6,7.7,11.6,11.3c2,1.8,4,3.6,6.1,5.4c2.1,1.9,3.9,4.2,5.1,6.9c2.5,5.2,2.5,11.8-0.6,17c-3,5.3-9.5,8.3-15.5,7.4v0
			c-1.8-0.2-3.6-0.8-5.3-1.5C25.1,73.4,20.2,65.5,20.9,58.3z M10.8-17.3C7.3-26.1,5.5-36,7.4-45.6c1.7-9.4,7-18.9,16.1-23.4
			c4.1-2.1,8.6-2.9,13.1-2.9c0.6-2.9,1.6-5.8,3.3-8.3c0.3-0.5,0.7-1,1.1-1.4c-5.6-3.7-10.5-8.5-14.3-14c0-0.1-0.1-0.1-0.1-0.2
			c-2.5,6-6.3,11.4-10.2,16.6c3.9-5.2,7.7-10.7,10-16.8c-1.9-3.2-3.9-7.1-2.4-10.9c0.4-0.9,1.6-1.7,2.7-1.2c1,0.5,1.4,1.6,1.6,2.5
			c0.4,2,0,4-0.5,5.9c-0.3,1.2-0.7,2.3-1.2,3.4c0.1,0.1,0.2,0.3,0.3,0.4c3.9,5.4,8.8,10.2,14.4,13.8c2.1-2.4,4.8-4.3,7.6-5.8
			c1.8-0.9,3.7-1.7,5.8-1.9c2-0.2,4.5,0.4,5.6,2.3c2.3,4-0.8,8.9-4.8,9.8c-4.1,1.1-8.2-0.3-11.6-2.2c-0.7-0.4-1.4-0.8-2.1-1.3
			c-0.4,0.5-0.7,1-1.1,1.5c-1.6,2.4-2.5,5-3,7.8c4.9,0.3,9.7,1.6,14,3.8c8.7,4.3,15.7,11.4,20.3,19.7c1,1.8,1.9,3.6,2.7,5.4
			c3.7-5.2,8.6-9.5,14.7-11.8c4.4-1.7,9.1-3,14-2.4c4.9,0.5,9.3,3.9,11.4,8.2c1.7,3.5,2.5,7.2,2.7,11c0.8,0,1.5,0.1,2.3,0.5
			c2.4,1,3.6,3.4,4.5,5.5c1.5,4.5,2.4,9,3.1,13.7c1.5,9.2,1.8,18.5,3.2,27.7c0.7,4.6,1.8,9.2,4,13.2c2.2,4.1,6,7.2,10.3,8.8
			c-4.4-1.6-8.2-4.7-10.4-8.7c-2.3-4.1-3.4-8.7-4.1-13.2c-1.5-9.2-1.8-18.5-3.4-27.7c-0.8-4.6-1.7-9.2-3.2-13.5
			c-0.8-2.1-2.1-4.3-4.2-5.2c-0.7-0.3-1.3-0.4-2-0.4c0.2,5.5-1,11-2.9,16.1c-1.8,4.3-4.4,8.6-8.3,11.4c-2,1.3-4.2,2.5-6.8,2.4
			c-1.4,0-2.7-1.4-2.8-2.7c-0.2-1.3-0.1-2.5,0.2-3.7c1.1-4.7,3.4-8.8,6.1-12.7c2.7-3.8,5.8-7.5,9.9-10c1-0.6,2.2-1.1,3.5-1.3
			c-0.2-3.7-1-7.2-2.7-10.5c-2-4-6-7-10.5-7.4c-4.5-0.6-9,0.6-13.2,2.4c-6.1,2.3-11,6.8-14.5,12.2c2.5,6.4,3.8,13.1,4.2,19.9
			c0.5,9.5-0.6,18.8-2.9,28.1c-0.3,1.2-0.7,2.3-1.3,3.4c-0.6,1-1.1,2.5-3.2,3c-2.3,0-3-1.7-3.6-2.7c-0.6-1.1-1-2.3-1.3-3.5
			C66,2.6,65.6-2.1,65.5-6.8c-0.1-9.4,1.2-18.9,4.8-27.7c0.8-2,1.7-3.9,2.8-5.7c-0.9-2.3-2-4.5-3.3-6.7c-4.3-7.4-10.5-13.8-18-17.8
			c3.8,3,7.1,7,9.3,11.6c1.1,2.3,1.8,4.8,2.1,7.3h0c0.4,4.1-0.3,8.4-3,11.8c-1.5,1.8-4.3,2.2-6.3,1.3c-2-0.7-3.7-2-5.2-3.4
			c-5.8-5.7-9.3-13.1-11.4-20.8c-1-3.8-1.5-7.9-1.2-11.9c-1.2,0-2.4,0.1-3.6,0.2C29.7-68,27.2-66.7,25-65c-3.3,2.4-5.6,5.4-7.1,8.5
			c-3,6.3-2.8,12.2-2.5,16c0.3,3.9,1,6,0.8,6c-0.1,0-1-2-1.5-6c-0.5-3.9-0.9-10,2.1-16.6c1.2-2.7,3.1-5.4,5.7-7.8
			C16-60.4,12.1-52.8,10.7-45c-1.6,8.8,0,18,3.4,26.3L10.8-17.3z M73.8-38.2c-0.7,1.4-1.4,2.8-2,4.3c-3.4,8.5-4.6,17.8-4.4,27
			c0.1,4.6,0.6,9.2,1.9,13.5c0.3,1.1,0.7,2.1,1.2,3c0.4,0.9,1.3,1.7,1.5,1.6c1-0.2,2.1-3,2.6-5C78.1-8.2,78.9-24.1,73.8-38.2z
			 M116.4-37c-1.1,0.2-2.2,0.7-3.2,1.3c-3.9,2.4-7,6.1-9.6,9.9c-2.5,3.8-4.8,8-5.8,12.5c-0.5,2-0.5,5.1,1.8,5.3
			c2.1,0.1,4.4-1,6.2-2.3c3.7-2.7,6.2-6.8,7.9-11C115.5-26.4,116.6-31.8,116.4-37z M42.2-81.5c0.7,0.4,1.3,0.8,2,1.2
			c3.4,1.8,7.4,3.1,11.1,2c3.7-0.9,6.3-5.4,4.3-8.6c-1-1.6-3-2.1-4.8-1.9c-1.9,0.2-3.7,0.9-5.4,1.8C46.7-85.6,44.2-83.8,42.2-81.5z
			 M26.5-96.5c0.4-1.1,0.8-2.1,1.1-3.2c0.5-1.9,0.8-3.9,0.4-5.8c-0.2-0.9-0.6-1.9-1.5-2.3c-0.9-0.4-1.9,0.3-2.3,1.1
			C22.9-103.3,24.7-99.6,26.5-96.5z M37.3-68.8c-0.3,3.9,0.2,7.9,1.2,11.6c2,7.4,5.7,14.7,11.2,20c2.6,2.5,6.8,4.8,9.2,2.1
			c2.2-2.7,3-6.8,2.5-10.5h0c-0.3-2.3-1-4.6-2-6.8c-4-8.5-12-14.9-20.2-16.3C38.6-68.7,38-68.8,37.3-68.8z M38-23.1
			C49-16.3,55.8-4.2,58.4,8.2c0.7,3.1,1.3,6.4,0.5,9.8c-0.4,1.7-1.5,3.5-3.3,4.4c-1.7,0.9-3.6,0.9-5.3,0.6c-6.7-1.4-12-5.4-16.9-9.5
			C23.8,5.1,15.9-5.4,10.8-17.3l3.3-1.3C18.6-7.2,26,3.2,35.2,11.5c4.6,4,9.8,8,15.6,9.3c2.9,0.7,5.7-0.4,6.3-3.3
			c0.7-2.8,0.3-5.9-0.3-9c-2.3-12.1-8.6-24-19.2-30.9c-2.6-1.7-5.5-3-8.6-3.6c-2.9-0.6-6.8-0.4-8.1,2.7c-2,6.2,1.9,12.9,7.6,15.7
			c-5.7-2.7-9.9-9.3-8-15.9c1.4-3.5,5.6-3.7,8.6-3.2C32.3-26.1,35.2-24.8,38-23.1z M78-39c5.5,13.8,7.2,29.3,4.9,44.3l0,0
			c-0.1,0.6-0.2,1.2-0.4,1.7c-2.1,10.2-6.7,17.6-7.6,17.1c-0.8-0.4,2.1-8,4.1-17.8c0.1-0.6,0.2-1.1,0.4-1.7l0,0
			C82.8-9.6,82.4-24.8,78-39z M5.6-47.7C3.8-34,7.2-20,14.1-8.3c6.8,11.8,16.4,21.8,27,30.3l0,0c0.8,0.7,1.6,1.4,2.5,2
			c14.5,11.7,27.8,19.1,27.4,20c-0.4,0.9-14.8-5.2-29.6-17.2c-0.9-0.7-1.7-1.4-2.5-2.1l0,0C28.4,15.6,19,5,12.5-7.4
			C6.1-19.7,3.2-34.1,5.6-47.7z M3.3-35.3c1.6,19,10.6,36.5,22.9,50.4h0c0.5,0.6,0.9,1.1,1.4,1.7c8.2,9.8,16.1,16.6,15.6,17.3
			c-0.6,0.8-9.7-4.9-18.2-15c-0.5-0.6-1-1.2-1.4-1.7l0,0C11.7,2.2,3.7-16.2,3.3-35.3z M50.3,44.9c4.5,3.5,8.4,7.9,10.6,13.4l0,0
			c0.1,0.4,0.3,0.9,0.4,1.3c1.1,3.9,0.9,7.6,0.4,10.1c-0.5,2.5-1.2,4-1.5,3.9c-0.5-0.1,1.4-6.3-0.6-13.6c-0.1-0.4-0.2-0.8-0.4-1.2h0
			c-1.7-5.1-5.3-9.7-9.5-13.3C45.5,42,41,38.5,37.2,34.2C41.2,38.3,45.8,41.5,50.3,44.9z M62.9,53.8c2.2,3.3,2.1,6.8,1.6,6.8
			c-0.4,0-1-2.9-3-5.9l-0.3-0.5h0c-2.8-4.6-7.1-8.2-11.7-11.1c4.9,2.5,9.6,5.6,13.1,10.2v0L62.9,53.8z M86.4-5.9
			c-0.2-10.6-2.5-21.1-5.9-31.2c3.8,9.9,6.7,20.3,7.5,31.1h0l0.1,1.3c0.3,7.4-1.5,13.3-2,13.1c-0.4-0.1,0.6-5.9,0.3-13.1L86.4-5.9
			L86.4-5.9z M48.3-31.5c-0.3-0.3-0.6-0.5-0.9-0.8l0,0C39.7-39.7,36.5-50.1,35.1-60c1.9,9.9,5.8,19.9,13.4,26.5l0,0
			c0.3,0.3,0.6,0.5,0.9,0.8c5.2,4.5,10.8,5.6,10.7,6c0,0.2-1.5,0.3-3.8-0.3C54-27.8,51-29.2,48.3-31.5z M43.4-34.6
			c2.6,3.4,5.5,5.5,5.3,5.9c-0.2,0.5-3.8-1.2-6.6-4.8c-0.2-0.2-0.3-0.4-0.5-0.6l0,0c-3.8-5.5-5.6-12.1-6.3-18.5
			c1.2,6.4,3.6,12.6,7.6,17.5l0,0C43.1-35,43.2-34.8,43.4-34.6z"/>
	</g>
	<g>
		<path fill="#221F20" d="M-35.9,102L-35.9,102c-0.9,0.9-1.9,1.8-2.9,2.7c-8.6,7.8-18.2,12.6-25.4,14.9c-7.2,2.4-12,2.5-12,2.1
			c-0.1-0.4,4.5-1.3,11.3-4c6.8-2.8,15.9-7.6,24.2-15.1c1-0.9,1.9-1.7,2.8-2.6l0,0c11.9-11.3,20-26.3,24.8-42.1
			C-8.3,42-6.5,25.2-6.3,8.6c0.4,16.6-1,33.4-5.4,49.6C-16.1,74.3-23.9,89.9-35.9,102z M-8.5,65.4c-4.6,20.1-12.7,39.5-25.1,54.6
			l0,0c-1,1.2-2,2.3-3,3.4c-9,9.7-19,15.7-26.4,18.6c-7.5,3-12.5,3.1-12.5,2.6c-0.1-0.5,4.6-1.6,11.7-5c7.1-3.4,16.5-9.5,25.1-18.9
			c1-1.1,2-2.2,2.9-3.3l0,0c12.4-14.1,20.8-32.8,25.8-52.5c5-19.8,6.9-40.6,7-61.4C-2.6,24.3-3.9,45.2-8.5,65.4z M-65.1,128.8
			L-65.1,128.8c23.4-9.9,41.3-30.6,50.3-54.4c-4.3,12-10.6,23.3-19,33c-8.4,9.7-18.8,17.6-30.5,23l0,0c-0.9,0.4-1.8,0.8-2.8,1.2
			c-16.4,6.9-31.1,6.7-31,6.1c-0.1-0.4,14.3-1,30.3-7.8C-66.9,129.6-66,129.2-65.1,128.8z"/>
		<path fill="#221F20" d="M11.7,58.2C7.3,42,6,25.2,6.3,8.6C6.5,25.2,8.3,42,13.1,57.8C17.9,73.6,26,88.6,37.9,99.9l0,0
			c0.9,0.9,1.8,1.8,2.8,2.6c8.3,7.5,17.4,12.4,24.2,15.1c6.8,2.8,11.4,3.6,11.3,4c0,0.4-4.8,0.3-12-2.1c-7.2-2.3-16.8-7.1-25.4-14.9
			c-1-0.9-2-1.8-2.9-2.7l0,0C23.9,89.9,16.1,74.3,11.7,58.2z M2.9,3.5c0.1,20.7,2,41.6,7,61.4c5,19.7,13.4,38.4,25.8,52.5l0,0
			c0.9,1.1,1.9,2.2,2.9,3.3c8.7,9.4,18.1,15.4,25.1,18.9c7.1,3.5,11.8,4.6,11.7,5c0,0.5-5,0.3-12.5-2.6c-7.5-2.9-17.4-8.9-26.4-18.6
			c-1-1.1-2-2.2-3-3.4l0,0C21.2,104.9,13.1,85.5,8.5,65.4C3.9,45.2,2.6,24.3,2.9,3.5z M67.9,130c16,6.8,30.3,7.4,30.3,7.8
			c0.1,0.6-14.6,0.8-31-6.1c-0.9-0.4-1.9-0.8-2.8-1.2l0,0c-11.7-5.4-22.2-13.3-30.5-23c-8.4-9.7-14.7-21.1-19-33
			c9,23.8,26.9,44.5,50.3,54.4v0C66,129.2,66.9,129.6,67.9,130z"/>
	</g>
	<g>
		<path fill="#221F20" d="M21.2-119.5L21.2-119.5c0.5-0.5,1.1-1.1,1.7-1.6c5.1-4.6,10.8-7.4,15-8.8c4.3-1.4,7.1-1.5,7.1-1.3
			c0,0.2-2.6,0.7-6.7,2.4c-4,1.6-9.4,4.5-14.3,9c-0.6,0.5-1.1,1-1.7,1.6h0c-7,6.7-11.8,15.5-14.7,24.9c-2.9,9.4-3.9,19.3-4,29.1
			C3.5-74.1,4.3-84,6.9-93.6C9.5-103.1,14.1-112.3,21.2-119.5z M5-97.8c2.7-11.9,7.5-23.4,14.9-32.3l0,0c0.6-0.7,1.2-1.4,1.8-2
			c5.3-5.8,11.2-9.3,15.6-11c4.4-1.8,7.4-1.9,7.4-1.6c0,0.3-2.8,0.9-6.9,3c-4.2,2-9.8,5.6-14.9,11.2c-0.6,0.6-1.2,1.3-1.7,1.9l0,0
			c-7.3,8.3-12.3,19.4-15.3,31.1c-3,11.7-4.1,24-4.2,36.3C1.5-73.5,2.3-85.9,5-97.8z M38.5-135.3L38.5-135.3
			c-13.9,5.8-24.4,18.1-29.7,32.2c2.6-7.1,6.3-13.8,11.2-19.5c4.9-5.7,11.2-10.4,18.1-13.6h0c0.5-0.2,1.1-0.5,1.6-0.7
			c9.7-4.1,18.4-3.9,18.3-3.6c0,0.3-8.4,0.6-17.9,4.6C39.6-135.8,39.1-135.6,38.5-135.3z"/>
		<path fill="#221F20" d="M-6.9-93.6c2.6,9.6,3.4,19.5,3.2,29.4c-0.1-9.8-1.1-19.7-4-29.1c-2.8-9.4-7.6-18.2-14.7-24.9h0
			c-0.5-0.5-1.1-1-1.7-1.6c-4.9-4.4-10.3-7.3-14.3-9c-4-1.7-6.7-2.2-6.7-2.4c0-0.2,2.8-0.2,7.1,1.3c4.2,1.4,9.9,4.2,15,8.8
			c0.6,0.5,1.2,1.1,1.7,1.6l0,0C-14.1-112.3-9.5-103.1-6.9-93.6z M-1.7-61.2c-0.1-12.3-1.2-24.6-4.2-36.3
			c-3-11.7-7.9-22.7-15.3-31.1l0,0c-0.6-0.7-1.1-1.3-1.7-1.9c-5.1-5.5-10.7-9.1-14.9-11.2c-4.2-2.1-7-2.7-7-3c0-0.3,3-0.2,7.4,1.6
			c4.4,1.7,10.3,5.2,15.6,11c0.6,0.7,1.2,1.3,1.8,2l0,0c7.4,8.9,12.2,20.4,14.9,32.3C-2.3-85.9-1.5-73.5-1.7-61.2z M-40.2-136
			c-9.5-4-17.9-4.4-17.9-4.6c-0.1-0.3,8.6-0.5,18.3,3.6c0.6,0.2,1.1,0.5,1.6,0.7l0,0c6.9,3.2,13.1,7.9,18.1,13.6
			c5,5.7,8.7,12.5,11.2,19.5c-5.3-14.1-15.9-26.3-29.7-32.2v0C-39.1-135.6-39.6-135.8-40.2-136z"/>
	</g>
</symbol>
<use xlink:href="#明るいベクトルパック_17"  width="290" height="289.7" x="-145" y="-144.8" transform="matrix(0.2007 0 0 -0.2007 30.1313 30.438)" overflow="visible"/>
</svg>
