<?xml version="1.0" encoding="utf-8"?>
<!-- Generator: Adobe Illustrator 18.0.0, SVG Export Plug-In . SVG Version: 6.00 Build 0)  -->
<!DOCTYPE svg PUBLIC "-//W3C//DTD SVG 1.1//EN" "http://www.w3.org/Graphics/SVG/1.1/DTD/svg11.dtd">
<svg version="1.1" id="レイヤー_1" xmlns="http://www.w3.org/2000/svg" xmlns:xlink="http://www.w3.org/1999/xlink" x="0px"
	 y="0px" viewBox="0 0 60 60" enable-background="new 0 0 60 60" xml:space="preserve">
<symbol  id="明るいベクトルパック_15" viewBox="-91.1 -90.1 182.2 180.3">
	<path fill="#221F20" d="M-90.3-89.6c10.5-0.7,64.4-3.3,97.3,18C24.8-60,39.2-45.8,49.9-29.2c10,15.4,16.3,32.6,18.2,49.6
		c0.6,5.1,2.5,8.9,5.3,10.2c1.4,0.7,2.9,0.7,4.1-0.1c0.5-0.3,1-0.7,1.3-1.2c1.3-1.7,0.5-3-0.1-3.7c-1-1.2-3-1.9-4.4-1.1
		c-0.4,0.2-0.7,0.6-1,1c-0.1,0.1-0.2,0.2-0.3,0.3c-0.2,0.1-0.3,0.1-0.5,0.1c-0.3-0.1-0.5-0.4-0.5-0.7c0-0.1,0.1-3.1,2.8-4.7
		c1.8-1.1,4.3-1.3,7.4-0.7c4.4,0.8,7.6,4.3,8.4,9.1c1,5.7-1.7,11.4-7,14.6c-8.9,5.2-15.1,0-17-2.1c-0.6,1-1.7,2.5-3.3,3.5
		c-1.4,0.8-2.9,1-4.5,0.5c-2-0.6-3.7-0.6-4.8,0c-0.9,0.5-1.4,1.4-1.3,2.5c0,0.2-0.1,0.5-0.3,0.6l0,0.2l-0.1-0.1
		c-0.2,0.1-0.5,0-0.7-0.1c-0.2-0.1-4.1-3.4-4.4-7.9c-0.1-1.4,0.2-2.8,0.9-4.2c-2.1,0.9-5.5,2-9.4,2.3c-6.2,0.5-14.9-1-21.6-10.7
		c-4.8-7-4.9-12.1-4.3-15.2c0.7-3.1,2.5-5.6,5.2-7.2c2-1.2,4.2-1.7,6.3-1.4c2.2,0.3,4,1.4,5.1,3.2c0,0,0,0,0,0.1
		c1.7,3.8-0.6,6.5-2.1,7.3c-0.2,0.1-0.5,0.1-0.7,0c-0.2-0.1-0.3-0.3-0.4-0.5c0-0.3-0.4-3.4-3.3-3.2c-0.6,0-1.2,0.2-1.6,0.5
		c-1,0.6-1.6,1.7-1.7,3.2c-0.2,2.5,1,6.3,4.2,8.9c3.5,2.9,9.7,2.9,14.7-0.1c7-4.1,10.1-12.9,8.4-24c-2.3-13.1-4.7-19.6-6.3-22.7
		c0,2.4-0.9,5.6-4.5,7.7c-7.3,4.3-13-4.8-13.1-4.9c-0.1-0.2-0.1-0.5,0-0.7L23-21.3l0.5,0.2c0,0,0,0,0,0c0.2-0.1,0.4-0.1,0.6,0
		c0,0,3.3,1.4,5.8-0.1c0.8-0.5,1.4-1.4,1.7-2.5c0.4-2,0.3-6.7-5.9-15.6C14.9-55-16.8-90.5-79.1-87.7c10.4,2.3,26.2,7.5,45.1,20.6
		c3.4,2.3,6.5,5,9.4,7.9c0.6-1.3,1.8-3.2,3.7-5.6c0.6-0.7,1.3-1.4,2.1-1.8c4.3-2.5,10.8-1.2,13.5,3.3c0.5,0.8,0.8,1.7,1,2.7
		c0.7,4-0.9,6.7-3.1,8c-2,1.2-4.4,1.3-6.1,0.5l-0.5-0.2l0.5-0.3c0,0,0.6-0.5,1.1-1.2c0.5-0.7,0.8-1.6,0.3-2.6c0-0.1-0.1-0.1-0.1-0.2
		c-1-1.7-3.4-2.1-4.8-1.2c-0.8,0.5-1.4,1.4-1.2,2.7c0.2,1.1,0.6,2.3,1.2,3.4c1.4,2.4,3.9,4.4,6.9,4.3l0.8,0l-0.6,0.6
		c0,0-0.2,0.2-0.5,0.4c-0.6,0.4-1.9,0.9-3.7,0.7c2.9,4.8,5.3,9.9,7,15.3C-3.1-18.1-3-5.4-6.6,2.7c-9.3,18.5-2.6,38.5,2.2,48.7
		c7.2,15.5,17.9,26.3,24.1,27.7c1.6,0.4,2.9,0.4,3.9-0.2c1.1-0.7,1.8-2.1,1.7-3.8c-0.1-1.7-0.8-3.1-1.7-3.6
		c-1.1-0.5-2.1-0.6-2.8-0.1c-1.1,0.6-1.5,2.2-1.5,2.2c0,0.2-0.2,0.3-0.3,0.4c-0.1,0.1-0.2,0.1-0.3,0.1c-0.3,0-0.6-0.2-0.7-0.5
		c-0.8-3.2,0.3-5.9,3.1-7.6c2.8-1.6,6.5-1.8,8.8-0.4c2.8,1.8,3.6,4.7,3.8,6.3c1.9-0.9,5.2-0.8,8.3,0.9c2,1.1,4.2,0.2,5.7-0.7
		c1.1-0.7,1.9-1.4,2-1.5c0.1-0.1,0.3-0.3,0.5-0.4c1.1-0.6,2.8-0.8,3.8,0c0.4,0.3,0.9,1,0.5,2.3c0,0,0,0,0,0
		c-2.7,6.9-6.5,11.9-11.4,14.8C36,91.6,26.7,91,17.1,85.5C7.9,80.4-1,71.3-7.9,60.1c-9.4-15.2-11.9-28.5-12.4-37
		c-0.3-5.4,0.2-9.6,0.6-12.1c-1.1,1.1-2.3,2.1-3.7,2.9c-4.8,2.8-11.2,3.9-17.8,3C-47.6,16-53,13.4-56.1,9.7
		c-6.9-8.3-7.7-16.9-2.1-24.3c1.4-1.8,1.4-3.6,0.2-5c-1.5-1.7-4.4-2.4-6-1.4c-0.5,0.3-0.9,0.8-1.1,1.4c-0.4,1.3-0.4,2.4,0.1,3.3
		c1,1.8,3.3,2.4,3.3,2.4c0.3,0.1,0.5,0.4,0.5,0.7c0,0.2-0.1,0.5-0.3,0.6c-0.1,0-0.1,0.1-0.2,0.1c-4.6,1-7.5-1.9-8.7-4.9
		c-1.4-3.7-0.8-8.9,3.1-11.2l0.1,0c5.8-3.3,12.4-1.8,15.6,3.7c2.3,4,1.3,8,0.6,9.9c2.2-0.2,6.8,0,8.5,4.7c1.1,3.1,0.1,5.8-3,7.6
		c-1.2,0.7-2.4,1-2.4,1c-0.2,0.1-0.5,0-0.6-0.2l-0.7,0.2l0.5-0.5c-0.1-0.2,0-0.5,0.2-0.7c0.8-0.8,1-1.8,0.5-2.5
		c-0.6-0.8-2-1-3.9,0.1c-0.8,0.5-1.2,1.3-1.1,2.4c0.3,3.1,4.3,7.8,9.8,9.7c4.6,1.6,9.9,1,14.2-1.5c2.6-1.5,4.7-3.7,6-6.3
		c3.6-6.9-0.6-11.2-0.7-11.3c-0.2-0.2-0.2-0.4-0.2-0.6l-0.1-0.1l0.2,0c0.1-0.1,0.1-0.2,0.2-0.3c0.1-0.1,0.2-0.1,0.3-0.1
		c0.3,0,0.8-0.2,1.5-0.6c2.6-1.5,5.9-5.3,6.7-10.7c0.8-5.7-0.8-15.2-13.2-28.5C-41.3-67.5-57.5-76.2-68.8-81
		c-12.3-5.2-21.6-7.1-21.7-7.1c-0.4-0.1-0.6-0.4-0.5-0.8c0-0.2,0.1-0.3,0.3-0.4c0.1-0.1,0.1-0.2,0.2-0.3
		C-90.5-89.6-90.4-89.6-90.3-89.6z"/>
</symbol>
<use xlink:href="#明るいベクトルパック_15"  width="182.2" height="180.3" x="-91.1" y="-90.1" transform="matrix(0.303 0 0 -0.303 30.5615 29.6455)" overflow="visible"/>
</svg>
