<?xml version="1.0" encoding="utf-8"?>
<!-- Generator: Adobe Illustrator 18.0.0, SVG Export Plug-In . SVG Version: 6.00 Build 0)  -->
<!DOCTYPE svg PUBLIC "-//W3C//DTD SVG 1.1//EN" "http://www.w3.org/Graphics/SVG/1.1/DTD/svg11.dtd">
<svg version="1.1" id="レイヤー_1" xmlns="http://www.w3.org/2000/svg" xmlns:xlink="http://www.w3.org/1999/xlink" x="0px"
	 y="0px" viewBox="0 0 60 60" enable-background="new 0 0 60 60" xml:space="preserve">
<path fill="#221F20" d="M9,50.9c0.6,1.1,1.8,1.8,3,2.2c1.2,0.4,2.6,0.4,3.8,0.1c2.6-0.7,4.5-2.8,5.7-5c2.6-4.5,3.4-10,2.7-15.1l0,0
	c-0.1-0.4-0.1-0.8-0.2-1.2c-1.4-7.1-4.8-11.9-5-11.7c-0.3,0.1,2.7,5.1,4,11.9c0.1,0.4,0.1,0.8,0.2,1.2v0c0.9,5,0.3,10.2-2.1,14.7
	c-1.2,2.2-2.9,4.3-5.4,5c-1.2,0.4-2.5,0.4-3.7,0C10.8,52.7,9.6,52,9,50.9z M15.7,4.7L15.7,4.7L15.7,4.7L15.7,4.7
	c-0.8-1.3-2.1-2.3-3.5-2.6c-1.4-0.3-3,0-4.2,0.7C6.8,3.5,5.9,4.7,5.5,5.9C5.1,7.2,5,8.6,5.2,9.9c0.4,2.6,1.5,4.8,2.8,6.8
	c1.3,2,2.7,3.7,4.1,5.2c5.9,6,8.2,12.7,8,17.6c-0.2,5-2.2,8.1-3.8,9.4c-1.6,1.3-2.5,1.2-2.5,1.3c-0.9,0.3-1.9,0.2-2.8-0.4
	c-0.8-0.5-1.5-1.4-2.1-2.3C8,45.8,7.6,43.8,7.6,42c0-1.8,0.3-3.5,0.7-5c1.2-3.9,3.1-5.1,3.6-5.3c0.1,0,0.1-0.1,0.1-0.1
	c-0.3-3,0.8-5.3,0.8-5.3C11.3,28.4,8.7,29,8.7,29c-0.3,1.7-0.3,2.5-1.9,5.3c-0.5,0.9-0.9,2-1.3,2.9c-0.6,1.5-0.9,3.2-1.1,4.8
	c-0.5,5.5,0.9,8.7,1.6,10.4c0.8,1.7,1.3,2,1.3,2.1h0l0,0c0,0-0.1-0.6-0.5-2.3c-0.3-1.7-1-4.8-0.2-9.7c0,1.8,0.4,3.7,1.3,5.6
	c0.5,1,1.1,2,2.2,2.9c1,0.9,2.6,1.4,4.1,1.1c-0.1,0,1.4-0.2,3.2-1.9c1.8-1.7,3.8-5.3,3.7-10.6c0-5.2-2.7-12-8.8-17.9
	c-1.5-1.5-2.9-3.2-4.2-5.1c-1.3-1.9-2.4-4.1-2.8-6.7C5.2,8.6,5.2,7.2,5.6,6C6,4.7,6.9,3.5,8.1,2.8c1.2-0.7,2.7-1,4.1-0.7
	C13.6,2.4,14.9,3.4,15.7,4.7z M17.3,53.7c2.8-1.1,5.4-3,7.1-5.6c0.4-0.5,0.7-1.1,1-1.7c2.9-1.6,3.5,1,3.5,1c4.1-2.2,2.4-5.3,2.4-5.3
	c-0.1,1.1-1.6,2.9-3.1,2.4c-0.8-0.3-0.9-0.9-0.8-1.4c0.3-0.7,1.2-1.3,2.3-1.5c0.3-0.1,0.7-0.1,1-0.2v0c2.1-0.3,4.2,0.4,6.4,1.1
	c2.1,0.7,4.3,1.3,6.5,1.8c4.4,0.9,8.9,1.1,13.4,0.9c-4.5,0.1-9-0.3-13.3-1.4c-2.2-0.5-4.3-1.3-6.4-2c-2.1-0.7-4.3-1.6-6.7-1.4v0
	c-0.4,0-0.7,0.1-1.1,0.2c-0.8,0.2-1.6,0.5-2.2,1c0,0,0,0,0,0c0.2-0.7,0.3-1.4,0.5-2.2l0,0c0-0.2,0.1-0.5,0.1-0.7
	c0.5-4.2-0.3-7.6-0.6-7.6c-0.3,0,0,3.4-0.5,7.4l-0.1,0.7l0,0c-0.3,3-1.1,5.9-2.7,8.5C22.5,50.4,20.1,52.4,17.3,53.7z M5.4,20.7
	c1.3,3.1,1.7,6.6,0.9,9.8l1,0.2C7.8,27.2,7,23.7,5.4,20.7z M2.9,45c0.3,5.1,2.5,9.9,5.8,13.6C5.6,54.8,3.6,49.9,3.5,45
	c-0.1-2.5,0.3-4.9,1-7.3c0.4-1.2,0.8-2.3,1.4-3.4C6.4,33.2,7,32,7.3,30.7l-1-0.2C6,31.7,5.6,32.7,5,33.9c-0.5,1.2-1,2.4-1.3,3.6
	C3,39.9,2.8,42.5,2.9,45z M15.9,31.6c-1.3,0.1-2.6,0.6-3.8,1.2l0.7,0.9C13.6,32.9,14.7,32.1,15.9,31.6z M12.8,33.8l-0.7-0.9
	C8.9,35.5,8,39.8,8.2,43.5C8.3,39.7,9.7,35.8,12.8,33.8z"/>
</svg>
