<?xml version="1.0" encoding="utf-8"?>
<!-- Generator: Adobe Illustrator 18.0.0, SVG Export Plug-In . SVG Version: 6.00 Build 0)  -->
<!DOCTYPE svg PUBLIC "-//W3C//DTD SVG 1.1//EN" "http://www.w3.org/Graphics/SVG/1.1/DTD/svg11.dtd">
<svg version="1.1" id="レイヤー_1" xmlns="http://www.w3.org/2000/svg" xmlns:xlink="http://www.w3.org/1999/xlink" x="0px"
	 y="0px" viewBox="0 0 60 60" enable-background="new 0 0 60 60" xml:space="preserve">
<path fill-rule="evenodd" clip-rule="evenodd" d="M22.2,3h0.1V2.9h-0.1C22.2,2.9,22.2,3,22.2,3z M25.5,3.3c0.1-0.1,0-0.1,0-0.2h-0.1
	C25.4,3.2,25.5,3.2,25.5,3.3z M23.1,3.3L23.1,3.3L23.1,3.3L23.1,3.3L23.1,3.3z M28.9,3.7c0.1-0.1,0-0.1,0-0.2h-0.1
	c0,0-0.1,0.1,0,0.2H28.9z M27.1,3.8c0-0.1,0-0.2-0.2-0.3C26.8,3.6,27,3.8,27.1,3.8z M21.7,3.7C21.7,3.7,21.7,3.7,21.7,3.7
	C21.7,3.7,21.7,3.8,21.7,3.7C21.7,3.7,21.7,3.7,21.7,3.7z M21.5,4.1L21.5,4.1L21.5,4.1L21.5,4.1L21.5,4.1z M24.5,4.5
	c0.1,0,0.2,0.1,0.4,0.1C24.8,4.5,24.6,4.4,24.5,4.5z M42.7,4.8c-0.1,0-0.2,0-0.2,0.2C42.6,4.9,42.7,4.8,42.7,4.8z M17.3,4.9
	L17.3,4.9C17.4,5,17.5,5.1,17.5,5V4.9C17.5,4.9,17.4,4.9,17.3,4.9z M29.8,4.9c-0.2,0-0.2,0.1-0.1,0.2C29.8,5.1,29.8,5,29.8,4.9z
	 M31.2,5.7c0,0,0-0.1,0-0.1C31.1,5.6,31.1,5.7,31.2,5.7z M16.6,5.8c0,0,0-0.1,0-0.1c0,0-0.1,0-0.1,0C16.4,5.7,16.4,5.8,16.6,5.8z
	 M16.2,5.8c0.1,0.1,0.2,0,0.2-0.2C16.3,5.6,16.2,5.7,16.2,5.8z M18.7,5.8c0.1,0,0.1,0,0.1-0.1C18.7,5.6,18.7,5.7,18.7,5.8z
	 M25.5,5.8c0,0-0.1,0-0.1,0C25.4,5.9,25.5,5.9,25.5,5.8z M24,5.8c-0.1,0-0.1,0-0.1,0C23.8,6,24.1,5.9,24,5.8z M42.1,6.5
	c0-0.1,0.2-0.3,0.1-0.3C42.1,6.2,41.9,6.4,42.1,6.5z M17.2,6.3c0,0-0.1,0.1,0,0.2C17.3,6.5,17.3,6.3,17.2,6.3z M22.8,6.5
	c-0.1,0,0-0.2-0.1-0.2c0,0,0,0-0.1,0c0,0.1,0.1,0.2,0.1,0.3c0.1,0,0.1,0.1,0.2,0.1C23,6.8,23.1,6.9,23.2,7c0,0.2,0.2,0.3,0.3,0.4
	C23.4,7,23.2,6.6,22.8,6.5z M27.2,6.7c0,0,0.1,0,0.2,0C27.4,6.5,27.2,6.5,27.2,6.7z M41.8,7.5c0-0.1,0-0.2,0.1-0.3
	C41.6,7.2,41.6,7.5,41.8,7.5z M16,7.2c0,0.1,0,0.1,0.1,0.1C16.1,7.2,16.1,7.2,16,7.2z M15.8,7.3c0-0.1,0-0.1-0.1-0.1
	C15.6,7.3,15.7,7.4,15.8,7.3z M19.6,7.3L19.6,7.3c0.1,0.1,0.1,0.1,0.1,0C19.7,7.2,19.6,7.2,19.6,7.3z M32.4,7.4c0-0.1-0.1-0.1-0.1,0
	H32.4z M21.5,7.5C21.5,7.5,21.5,7.6,21.5,7.5C21.5,7.5,21.6,7.5,21.5,7.5C21.5,7.5,21.5,7.5,21.5,7.5z M23.6,7.7V7.6
	c0,0-0.1,0-0.1,0C23.5,7.7,23.5,7.8,23.6,7.7z M31.7,7.6c0,0.1,0,0.2,0.1,0.1C31.9,7.7,31.8,7.6,31.7,7.6z M26.2,7.7
	c0,0,0,0.1,0,0.1C26.2,7.8,26.2,7.8,26.2,7.7L26.2,7.7z M24,8.1c0.1,0,0.1,0,0.1-0.1C24,7.9,23.9,8,24,8.1z M36.8,8
	c-0.1,0.1,0.1,0.1,0.1,0C36.9,8,36.8,8,36.8,8z M18.9,8.5c-0.1,0-0.1-0.1-0.1-0.1C18.8,8.6,18.9,8.6,18.9,8.5z M37.1,8.5L37.1,8.5
	c-0.1,0.1-0.1,0.2,0,0.2C37.1,8.6,37.1,8.5,37.1,8.5z M15.7,8.7c0,0.1-0.1,0.1-0.1,0.1c0,0,0.1,0,0.1,0C15.8,8.8,15.8,8.7,15.7,8.7z
	 M28.5,8.9c0-0.1,0-0.1-0.1-0.1c0,0,0,0.1,0,0.1H28.5z M15,8.8c0,0-0.1,0-0.1,0C14.9,8.9,15,8.9,15,8.8z M20.5,8.8c0,0,0,0.1,0,0.1
	C20.6,8.9,20.7,8.8,20.5,8.8z M32.8,8.8c-0.1,0-0.2,0-0.2,0.1C32.7,8.9,32.8,8.9,32.8,8.8z M37.2,9.2c-0.2,0.1,0,0.4,0.2,0.3
	C37.4,9.4,37.3,9.3,37.2,9.2z M25.4,9.2c-0.1,0.1,0.1,0.2,0.1,0H25.4z M29.8,9.4c0,0,0.1,0,0.2,0C30,9.2,29.8,9.3,29.8,9.4z
	 M26.6,9.5h0.1V9.4h-0.1C26.6,9.4,26.6,9.5,26.6,9.5z M32.2,10c0,0-0.2,0-0.1,0.1C32.2,10.1,32.3,10.1,32.2,10z M13.7,10.5
	C13.8,10.5,13.8,10.5,13.7,10.5C13.8,10.5,13.8,10.5,13.7,10.5C13.8,10.4,13.8,10.4,13.7,10.5C13.8,10.4,13.8,10.5,13.7,10.5z
	 M29.2,10.7c0,0-0.1,0-0.2,0c0,0,0,0.1,0,0.1C29.1,10.9,29.2,10.8,29.2,10.7z M18.5,10.9c0,0,0,0.1,0.1,0.1
	C18.6,10.9,18.6,10.9,18.5,10.9z M14.9,10.9c0,0,0,0.1,0,0.1C15.1,11.2,15.1,10.8,14.9,10.9z M30.4,11.1
	C30.4,11.1,30.4,11.1,30.4,11.1c0-0.1,0-0.1,0-0.2c-0.1,0-0.2,0-0.1,0.1C30.3,11.1,30.3,11.2,30.4,11.1z M33.5,11.1
	c-0.1,0-0.1,0-0.1,0.1C33.5,11.2,33.5,11.1,33.5,11.1z M13.3,11.3c0.1,0,0.2,0,0.2-0.1C13.4,11.1,13.3,11.2,13.3,11.3z M17,11.2
	L17,11.2C17,11.2,17,11.3,17,11.2C17,11.2,17,11.2,17,11.2z M13.2,11.8c0.2,0,0.2-0.1,0.2-0.3C13.2,11.5,13.2,11.6,13.2,11.8z
	 M32.9,12C33,12,33,12,33,11.9c-0.1,0-0.1,0-0.1,0C32.9,12,32.9,12,32.9,12z M34,12.1c0,0,0-0.1,0-0.2h-0.1c0,0.1-0.1,0.1,0,0.2H34z
	 M13,12.5c0.1,0,0.2-0.1,0.2-0.2c0.1-0.1,0.2-0.2,0.2-0.3C13.1,11.9,13.1,12.3,13,12.5z M28.1,12.4c-0.1,0-0.2,0-0.1,0.1
	C28.1,12.5,28.2,12.5,28.1,12.4z M14.1,12.6c0.1,0,0.2,0,0.2-0.1C14.1,12.3,14,12.5,14.1,12.6z M18.9,12.4
	C18.9,12.4,18.9,12.4,18.9,12.4L18.9,12.4C18.9,12.5,18.9,12.4,18.9,12.4z M28.9,12.5c-0.1,0-0.2,0-0.2,0.1
	C28.8,12.7,28.9,12.6,28.9,12.5z M30.5,12.9c0.1,0,0.1,0,0.1-0.1c0,0-0.1,0-0.2,0C30.4,12.8,30.4,12.8,30.5,12.9z M12.4,13
	c0.1,0,0.1,0,0.1-0.1C12.5,12.8,12.3,12.9,12.4,13z M18,13.1V13c0,0-0.1,0-0.1,0C17.8,13.1,17.9,13.1,18,13.1z M45.2,13.1
	c-0.2,0-0.2,0.1-0.2,0.2C45.1,13.3,45.2,13.3,45.2,13.1z M15.7,13.8L15.7,13.8L15.7,13.8L15.7,13.8L15.7,13.8z M20,14.4v-0.1h-0.1
	C19.9,14.4,19.9,14.4,20,14.4z M33.5,14.9c-0.1-0.2-0.1-0.3-0.3-0.5C33.1,14.7,33.2,14.9,33.5,14.9z M29.9,14.8c0.1,0,0.1,0,0.1-0.1
	C29.9,14.6,29.8,14.7,29.9,14.8z M31,15c0.1,0,0.2-0.1,0.1-0.2C31,14.7,31,14.9,31,15z M21,14.9c0.1-0.1,0-0.2-0.1-0.2
	C20.9,14.9,21,14.9,21,14.9z M31.4,15v-0.1h-0.1C31.3,15,31.3,15,31.4,15z M28.7,15.1c0.1,0,0.1,0,0.1-0.2
	C28.7,14.9,28.7,14.9,28.7,15.1C28.7,15,28.7,15,28.7,15.1z M15.9,14.9C15.8,15.1,16.1,15,15.9,14.9L15.9,14.9z M17,15.3
	c-0.1,0-0.1,0.1-0.1,0.1C17,15.4,17,15.4,17,15.3z M31.2,15.8v-0.1h-0.1C31.1,15.8,31.1,15.9,31.2,15.8z M28.9,16.1
	c0.1,0,0-0.1,0-0.1C28.8,15.9,28.8,16.1,28.9,16.1z M20.6,16.5c-0.1,0-0.1,0.1-0.2,0.1c0,0,0,0,0.1,0.1
	C20.6,16.6,20.7,16.5,20.6,16.5z M31.6,16.5c0,0,0,0.1,0,0.2c0.1,0,0.1,0,0.1-0.1C31.6,16.5,31.6,16.4,31.6,16.5z M45.5,16.6
	c-0.1-0.1-0.3,0-0.3,0.2C45.4,16.8,45.4,16.7,45.5,16.6z M16.8,16.8c0,0,0-0.1,0-0.2h-0.1C16.6,16.7,16.7,16.8,16.8,16.8z
	 M27.9,16.9c0-0.1,0-0.1,0-0.2c-0.1,0-0.1,0.1-0.1,0.2C27.8,16.9,27.8,16.9,27.9,16.9z M32.1,17.1h0.1V17
	C32.1,16.9,32.1,17,32.1,17.1z M30.7,17.1c0,0.1,0.2,0.1,0.1,0C30.8,17.1,30.7,17.1,30.7,17.1z M28.7,17.6c-0.1,0-0.2,0-0.1,0.1
	C28.7,17.8,28.7,17.7,28.7,17.6z M27.7,17.8h0.1C27.9,17.6,27.7,17.7,27.7,17.8z M30.2,17.9c0,0.1,0,0.2,0.1,0.2c0,0,0-0.1,0-0.2
	H30.2z M31.9,18.3c-0.1-0.1-0.2,0-0.1,0.1C31.9,18.4,31.9,18.3,31.9,18.3z M25,18.7c-0.1,0-0.1,0.1-0.1,0.2
	C25,18.9,25.1,18.7,25,18.7z M26.9,18.9L26.9,18.9L26.9,18.9L26.9,18.9L26.9,18.9z M29.6,19.2L29.6,19.2C29.8,19,29.5,19,29.6,19.2z
	 M27,19.6c0-0.1,0-0.1-0.1-0.1C26.9,19.6,26.9,19.6,27,19.6z M26.3,19.8c0-0.1,0-0.1-0.1-0.1c0,0,0,0.1,0,0.1H26.3z M30.6,20.2
	c-0.1-0.1-0.3,0.1-0.2,0.2C30.6,20.4,30.6,20.3,30.6,20.2z M28,20.2h-0.1v0.1C27.9,20.4,28,20.3,28,20.2z M32,21c0,0,0,0.1,0,0.1
	C32.1,21.2,32.1,21,32,21z M27.4,21.3c0,0,0.1,0,0.1-0.1c0,0,0-0.1-0.1-0.1c0,0-0.1,0-0.1,0.1C27.3,21.3,27.3,21.3,27.4,21.3z
	 M28.6,21.2c-0.1-0.1-0.2,0-0.1,0.1C28.6,21.3,28.6,21.3,28.6,21.2z M35.9,21.6c0-0.1,0-0.3-0.1-0.3C35.7,21.4,35.7,21.6,35.9,21.6z
	 M32,21.6c0.1,0,0.2,0,0.1-0.1C32.1,21.4,32,21.5,32,21.6z M24.3,21.5C24.3,21.5,24.3,21.5,24.3,21.5c0.1,0.1,0.1,0,0.1,0
	C24.4,21.4,24.4,21.5,24.3,21.5z M32.7,21.8c0-0.1,0-0.1,0-0.2h-0.1C32.5,21.7,32.6,21.8,32.7,21.8z M25.4,21.6
	c-0.1,0-0.2,0-0.1,0.1C25.4,21.7,25.4,21.7,25.4,21.6z M32.4,21.8c-0.2,0-0.2,0.1-0.3,0.2C32.3,22.2,32.5,21.9,32.4,21.8z
	 M27.7,21.8c0,0,0,0.2,0.1,0.2c0.1,0,0.1-0.1,0.1-0.2H27.7z M36.3,22c0,0-0.1,0.1-0.1,0.2C36.4,22.2,36.4,22,36.3,22z M23.9,22.1
	v0.1c0.1,0,0.1,0,0.1-0.1H23.9z M24.5,22.5c0.1,0,0.2,0,0.1-0.1C24.5,22.3,24.4,22.4,24.5,22.5z M31.9,22.5c0,0,0,0.1,0,0.1
	C32,22.7,32,22.5,31.9,22.5z M30.6,22.7c-0.1,0-0.2,0-0.1,0.1C30.5,22.8,30.6,22.8,30.6,22.7z M31,22.7c-0.1-0.1-0.2,0-0.1,0.1
	C31,22.9,31,22.8,31,22.7z M30.1,22.8c-0.2-0.1-0.4,0-0.7,0c-0.3,0.1-0.7,0-0.9,0.3c0.3-0.1,1.1,0,1.4-0.2
	C30,22.8,30.1,22.9,30.1,22.8z M28.4,23c-0.1,0-0.1,0-0.1,0.1C28.4,23.1,28.4,23.1,28.4,23z M28.1,23c-0.1,0-0.1,0.1-0.1,0.2
	C28,23.2,28.1,23.1,28.1,23z M20.9,24.3c-0.1,0-0.3,0.2-0.4,0.3C20.7,24.5,20.9,24.5,20.9,24.3z M20.5,24.4c-0.1,0-0.2,0-0.2,0.1
	C20.3,24.5,20.5,24.5,20.5,24.4z M19.9,24.5C19.8,24.5,19.8,24.5,19.9,24.5c-0.2,0-0.3,0-0.3,0.2C19.8,24.7,19.8,24.6,19.9,24.5z
	 M29.3,24.7c-0.1,0-0.2,0-0.1,0.1C29.3,24.9,29.3,24.8,29.3,24.7z M25.4,25c0,0-0.1,0-0.1,0c0,0,0,0.1,0,0.2h0.1
	C25.4,25.2,25.4,25.1,25.4,25z M29.7,25.2c-0.1,0-0.2,0-0.1,0.1c0,0,0.1,0,0.1,0C29.7,25.4,29.7,25.3,29.7,25.2
	C29.7,25.3,29.7,25.2,29.7,25.2z M31.3,25.3c-0.1,0-0.2,0-0.1,0.1C31.3,25.4,31.3,25.4,31.3,25.3z M20.1,25.4
	c-0.3,0.1-0.5,0.4-0.7,0.6c-0.5,0.4-1.1,0.9-1.6,1.4c-0.1,0.1-0.2,0.2-0.2,0.3C18.4,27,19.3,26.3,20.1,25.4
	C20.1,25.5,20.1,25.4,20.1,25.4z M21.6,25.7c0.1,0,0.2-0.1,0.2-0.2C21.7,25.4,21.6,25.5,21.6,25.7C21.6,25.6,21.6,25.7,21.6,25.7z
	 M19.1,25.9c-0.4,0.1-0.5,0.4-0.8,0.6c0.2-0.1,0.3-0.2,0.5-0.3C18.9,26.1,19,26.1,19.1,25.9z M26.2,26.1c0,0,0-0.1,0-0.1
	C26.1,25.9,26,26.1,26.2,26.1z M27.5,26c-0.1,0-0.2,0-0.1,0.1C27.4,26.2,27.5,26.1,27.5,26z M18.7,26.1c-0.1,0-0.2,0-0.2,0.2
	C18.6,26.2,18.7,26.2,18.7,26.1z M30.9,27.1C30.6,27,30.4,27,30,26.9c-0.5-0.1-1.1-0.4-1.6-0.4c-0.9-0.1-1.9-0.1-2.6,0.1
	c-0.1,0-0.3,0-0.3,0.2c0.8,0,1.9-0.1,2.7,0.1c-0.1,0-0.3,0-0.5,0.1c-0.3,0-0.6-0.1-0.8,0.1c0.4,0.1,0.9,0,1.3,0.1
	c0.2,0,0.3,0.1,0.5,0.1c0.2,0,0.4,0,0.6,0c0.1,0,0.1,0,0.2,0.1c0.1,0,0.3,0,0.4,0c0.1,0,0.3,0.2,0.4,0.1c-0.1-0.2-0.5-0.2-0.5-0.3h0
	c0.3,0.1,0.7,0.2,1.1,0.2c0.1,0,0.2,0.1,0.3,0.1C31.3,27.2,31,27.2,30.9,27.1z M23.7,26.9c0.1,0,0.2,0,0.2-0.2
	C23.8,26.6,23.7,26.8,23.7,26.9z M24.4,26.8c-0.1-0.1-0.4,0-0.4,0.2C24.1,27,24.3,27,24.4,26.8L24.4,26.8z M24.8,27
	c-0.1-0.2-0.5,0-0.4,0.2C24.5,27.2,24.8,27.2,24.8,27z M20.7,27.6c0.2,0.1,0.4-0.1,0.3-0.3C20.8,27.3,20.7,27.4,20.7,27.6z
	 M26.8,27.5c0.1,0,0.2,0,0.1-0.1C26.8,27.3,26.8,27.4,26.8,27.5z M31.6,27.5C31.6,27.5,31.6,27.5,31.6,27.5c0,0.1,0,0.1,0.1,0.1
	C31.7,27.5,31.6,27.5,31.6,27.5z M20.3,27.7c0.1,0.1,0.2,0,0.2-0.2C20.4,27.5,20.4,27.6,20.3,27.7z M24.7,27.9c0-0.1,0-0.1,0-0.2
	c-0.2-0.1-0.3,0.1-0.3,0.3c0.1,0.1,0.4,0.1,0.4-0.1C24.8,27.8,24.8,27.9,24.7,27.9z M32.2,27.7c-0.1,0-0.2,0-0.2,0v0.1
	c0.1,0,0.1,0.1,0.2,0.1C32.2,27.9,32.3,27.9,32.2,27.7C32.2,27.8,32.2,27.8,32.2,27.7z M19.9,27.8c0,0,0,0.1,0,0.1
	C20,27.9,20,27.9,19.9,27.8L19.9,27.8z M33.9,27.9c0,0-0.1,0-0.2,0c0,0,0,0.1,0,0.1C33.9,28,33.9,27.9,33.9,27.9z M22.1,27.9
	c-0.1,0-0.2,0.1-0.1,0.2C22.1,28.1,22.2,28,22.1,27.9z M47.5,28.1c0.1,0,0.2,0,0.2-0.2C47.5,27.9,47.4,28,47.5,28.1z M32.5,28
	L32.5,28c-0.1,0.2,0,0.3,0.2,0.3C32.7,28.1,32.6,28,32.5,28z M21,28.3c0.2,0,0.5,0.2,0.7,0.1C21.6,28.2,21.1,28.1,21,28.3z
	 M46.3,28.5c0.1,0.1,0.2,0,0.2-0.1C46.3,28.3,46.3,28.4,46.3,28.5z M22.1,28.6v-0.1H22C22,28.5,22,28.6,22.1,28.6z M48.4,28.5
	c0,0,0,0.2,0.1,0.2c0.1,0,0.1-0.1,0.1-0.2H48.4z M34.7,28.6c0.1,0,0.1,0,0.2-0.1C34.8,28.5,34.7,28.5,34.7,28.6z M35.5,28.6
	c0,0-0.1,0-0.1,0v0.1C35.4,28.7,35.5,28.7,35.5,28.6z M45.7,29.2c0,0.1-0.1,0.3,0.1,0.3c0.1,0,0-0.2,0.1-0.3c0-0.2,0.2-0.4,0.3-0.6
	C45.9,28.6,45.7,28.9,45.7,29.2z M24.8,28.7c0,0.1,0.1,0.2,0.2,0.2C25.1,28.7,24.9,28.7,24.8,28.7z M35.9,28.7c-0.1,0-0.2,0-0.2,0.1
	C35.7,28.9,35.9,28.9,35.9,28.7z M17,29c0.1,0,0.2-0.1,0.1-0.2C17,28.8,16.9,28.9,17,29z M34,29C34.3,29.2,34.1,28.6,34,29L34,29z
	 M36.3,28.9c-0.1-0.1-0.3,0-0.3,0.1C36.1,29.1,36.3,29.1,36.3,28.9z M34.2,29.1c0.1,0.2,0.2,0.3,0.2,0.6c-0.1,0-0.1,0.1-0.1,0.2
	c0.1,0,0.1-0.1,0.1,0c-0.1,0.1-0.1,0.2-0.2,0.3c0,0.1,0.2,0,0.2,0c-0.1,0.1-0.3,0.2-0.3,0.3c0.1,0.1,0.1,0,0.2,0
	c-0.1,0.2-0.3,0.2-0.4,0.4c0.2,0,0.3-0.1,0.4-0.1C34.2,31,34,31,33.9,31.1c-0.1,0.1-0.3,0.1-0.3,0.3c0.1,0,0.2,0,0.3-0.1
	c-0.1,0.1-0.1,0.1-0.2,0.2c-0.1,0.1-0.4,0.1-0.4,0.2c0.1,0.1,0.3,0.1,0.4,0c0.2,0,0.6-0.3,0.6-0.4c0,0,0-0.1,0.1-0.2
	c0.1-0.1,0.2-0.1,0.2-0.2c0.1-0.1,0.1-0.4,0.1-0.5c0-0.4-0.2-0.7-0.2-1.1C34.3,29.3,34.3,29.2,34.2,29.1z M25.6,29.7
	c0-0.2-0.1-0.4-0.2-0.5C25.5,29.4,25.4,29.6,25.6,29.7z M45.7,29.6c0,0.1,0.1,0.1,0.1,0.1C45.9,29.6,45.7,29.4,45.7,29.6z
	 M16.3,29.8c0.1,0,0.2,0,0.2-0.2C16.3,29.6,16.2,29.7,16.3,29.8z M25.7,29.9c0,0.2-0.1,0.4-0.1,0.5C25.8,30.4,25.8,30.1,25.7,29.9z
	 M49.5,30.1c0,0-0.1,0.1,0,0.2h0.1C49.6,30.2,49.6,30.1,49.5,30.1z M49.3,30.4c0.1,0,0.2,0,0.1-0.1C49.4,30.3,49.3,30.3,49.3,30.4
	L49.3,30.4z M26,30.6c-0.1-0.1-0.2,0-0.2,0.2C26,30.8,26,30.7,26,30.6z M39.8,30.8c-0.1,0-0.1,0-0.1,0C39.7,31,39.8,30.9,39.8,30.8z
	 M37.9,30.9C37.8,31,38.1,31,37.9,30.9L37.9,30.9z M36.2,31.4C36.1,31.6,36.4,31.6,36.2,31.4L36.2,31.4z M38.1,31.6
	c0-0.1,0-0.2-0.1-0.2C37.9,31.5,38,31.6,38.1,31.6z M23.4,31.8C23.4,31.8,23.4,31.8,23.4,31.8c0.1,0,0.2,0,0.2-0.1
	C23.5,31.6,23.4,31.7,23.4,31.8z M48.7,32.1c0.1,0,0.2,0,0.1-0.1C48.8,31.9,48.7,32,48.7,32.1z M36.9,32.2L36.9,32.2L36.9,32.2
	L36.9,32.2L36.9,32.2z M24.6,32.5c0.1,0,0.1-0.1,0.1-0.2C24.6,32.2,24.6,32.4,24.6,32.5z M39.7,32.8C39.7,32.8,39.7,32.8,39.7,32.8
	c0.1-0.2-0.1-0.2-0.1,0C39.6,32.8,39.7,32.8,39.7,32.8z M48.6,32.7c-0.1,0-0.2,0-0.1,0.1C48.6,32.8,48.7,32.8,48.6,32.7z M48.6,33
	c0.1,0.1,0.3,0,0.3-0.1c0,0,0,0-0.1-0.1C48.7,33,48.5,32.9,48.6,33z M47.9,33L47.9,33L47.9,33L47.9,33L47.9,33z M13.8,33.3
	c0.1,0,0.1,0,0.1-0.1v-0.1C13.8,33,13.7,33.2,13.8,33.3z M43.8,33.4C43.8,33.4,43.8,33.4,43.8,33.4c0.1,0,0.2,0,0.2-0.1
	C43.9,33.2,43.8,33.3,43.8,33.4z M38.7,33.3L38.7,33.3L38.7,33.3L38.7,33.3L38.7,33.3z M43.5,33.6c0.1,0.1,0.2,0,0.2-0.1
	C43.6,33.4,43.5,33.5,43.5,33.6z M48.9,33.5C48.9,33.5,48.9,33.5,48.9,33.5C48.9,33.5,48.9,33.5,48.9,33.5
	C48.9,33.5,48.9,33.5,48.9,33.5C48.9,33.5,48.9,33.5,48.9,33.5z M17.6,33.5c-0.1-0.1-0.2,0-0.1,0.1C17.5,33.6,17.6,33.6,17.6,33.5z
	 M47.2,33.8c0.2,0.1,0.5-0.2,0.5-0.3C47.5,33.6,47.3,33.6,47.2,33.8z M43.3,33.6c0,0.2,0.2,0.1,0.1,0C43.3,33.6,43.3,33.6,43.3,33.6
	z M16.6,34C16.5,34,16.5,33.9,16.6,34c-0.1-0.1-0.3-0.1-0.2,0.1C16.4,34.1,16.5,34.1,16.6,34z M43,33.9L43,33.9L43,33.9L43,33.9
	L43,33.9z M46.9,33.9c-0.1-0.1-0.3,0-0.3,0.2C46.7,34.3,47,34.2,46.9,33.9C46.9,34,46.9,34,46.9,33.9z M16.2,34
	c-0.1,0-0.2,0-0.1,0.1C16.2,34.1,16.2,34.1,16.2,34z M45.9,34c0,0,0,0.1,0,0.1C46,34.2,46,34.1,45.9,34L45.9,34z M42.2,34.1
	C42.2,34.1,42.3,34.1,42.2,34.1C42.3,34,42.2,34,42.2,34.1z M15.7,34.2C15.7,34.2,15.7,34.1,15.7,34.2
	C15.7,34.2,15.6,34.2,15.7,34.2C15.7,34.2,15.7,34.2,15.7,34.2C15.7,34.2,15.7,34.2,15.7,34.2z M43,34.4L43,34.4L43,34.4L43,34.4
	L43,34.4z M47.1,34.4C47,34.6,47.3,34.6,47.1,34.4L47.1,34.4z M19.3,34.4c0,0.1,0.1,0.2,0.2,0.2C19.5,34.5,19.5,34.4,19.3,34.4z
	 M16.4,34.6c0.2,0,0.6,0,0.7-0.1c-0.1-0.1-0.4-0.1-0.6,0c-0.2,0-0.3,0.1-0.4,0.2C16.3,34.7,16.3,34.6,16.4,34.6z M17.5,34.5
	L17.5,34.5C17.4,34.5,17.4,34.6,17.5,34.5C17.4,34.6,17.5,34.6,17.5,34.5z M15.9,34.8c0.1,0,0-0.1,0.1-0.2h-0.1
	C15.8,34.7,15.8,34.9,15.9,34.8z M19.7,34.7c-0.1,0.1-0.1,0.3,0.1,0.3C19.8,34.8,19.8,34.6,19.7,34.7z M14.8,34.7c0,0,0,0.1,0,0.1
	h0.1C14.8,34.7,14.8,34.7,14.8,34.7z M15.4,34.7c0,0-0.1,0-0.1,0C15.3,34.8,15.5,34.8,15.4,34.7z M19.9,34.8c0,0.1-0.1,0.1-0.1,0.3
	C20,35.1,20,34.9,19.9,34.8L19.9,34.8z M13.5,36.6c-0.5,0.2-0.8,0.7-0.9,1.2c0.2-0.1,0.2-0.4,0.4-0.6c0.1-0.1,0.2-0.2,0.3-0.3
	c0.1-0.1,0.2-0.2,0.3-0.2c-0.2,0.2-0.4,0.4-0.5,0.7c0.2-0.1,0.2-0.3,0.4-0.4c0,0,0,0.1,0,0.1c0.3,0,0.3-0.4,0.6-0.3
	c0-0.2-0.2-0.2-0.3-0.3c0.2-0.5,0.4-0.9,0.6-1.4C14,35.5,13.7,36,13.5,36.6z M19.2,35.3L19.2,35.3C19.3,35.3,19.3,35.3,19.2,35.3
	L19.2,35.3L19.2,35.3z M42.7,35.7c0,0.1,0.1,0.1,0.1,0C42.7,35.7,42.8,35.6,42.7,35.7z M19.6,35.7L19.6,35.7
	C19.8,35.9,19.8,35.6,19.6,35.7z M13.8,37.1c0.1,0,0.2-0.1,0.2-0.2C13.9,36.9,13.8,37,13.8,37.1z M19.6,37.2L19.6,37.2L19.6,37.2
	L19.6,37.2L19.6,37.2z M12.6,38.1c0.2,0,0.2-0.1,0.2-0.2C12.6,37.8,12.5,38,12.6,38.1z M12.3,38.9c0.1,0,0.1,0,0.1-0.1
	C12.3,38.7,12.2,38.8,12.3,38.9z M12.5,39.2v0.1c0.1,0,0.2,0,0.2-0.1C12.7,39.1,12.5,39.1,12.5,39.2z M12.5,42.2
	c0.1,0,0.1,0,0.1-0.1C12.6,42.1,12.4,42.2,12.5,42.2z M12.5,43c0,0-0.1,0.1-0.1,0.2C12.6,43.2,12.7,43,12.5,43z M13.1,45.2
	c-0.1,0-0.1,0-0.1,0.1C13,45.4,13.1,45.3,13.1,45.2z M11.7,45.9L11.7,45.9c0.1,0.1,0.2,0.1,0.2,0C11.8,45.9,11.8,45.9,11.7,45.9z
	 M13.4,46.3c-0.1-0.1-0.2,0-0.1,0.1C13.3,46.4,13.4,46.4,13.4,46.3z M12.3,47.2c0,0-0.1,0.1,0,0.2C12.4,47.4,12.4,47.2,12.3,47.2z
	 M12.5,47.8c-0.1,0.1,0,0.2,0.1,0.3C12.7,48.1,12.7,47.8,12.5,47.8z M14.7,47.9c-0.1,0-0.1,0-0.1,0.1c0,0,0.1,0,0.1,0V47.9z
	 M15.6,48.1V48c0,0-0.1,0-0.1,0C15.5,48.1,15.5,48.1,15.6,48.1z M13.5,48.1c0.1,0,0.1,0,0.1-0.1c0,0,0,0-0.1,0
	C13.6,48.1,13.5,48.1,13.5,48.1z M12.8,48.3c0,0,0.1,0,0.1,0C12.9,48.2,12.8,48.2,12.8,48.3z M15.2,48.5c0,0,0.1,0,0.1-0.1h-0.1
	C15.2,48.4,15.2,48.5,15.2,48.5z M14.6,48.5c0,0,0-0.1-0.1-0.1C14.6,48.4,14.6,48.5,14.6,48.5z M13.1,48.8L13.1,48.8
	C13.3,49,13.3,48.6,13.1,48.8z M15.2,49.1C15.2,49.1,15.2,49.1,15.2,49.1C15.2,49.1,15.2,49.1,15.2,49.1
	C15.2,49.1,15.2,49.1,15.2,49.1C15.2,49.1,15.2,49.1,15.2,49.1z M13.3,49.7c0,0,0,0.1,0,0.1h0.1C13.4,49.8,13.4,49.7,13.3,49.7z
	 M16,49.9C16,49.9,16,49.9,16,49.9C15.9,49.9,15.9,49.9,16,49.9C15.9,49.9,15.9,49.9,16,49.9C16,49.9,16,49.9,16,49.9z M16.2,49.9
	L16.2,49.9L16.2,49.9L16.2,49.9L16.2,49.9z M14.9,50.2c0-0.1,0-0.2-0.1-0.2C14.7,50.1,14.8,50.2,14.9,50.2z M14.7,50.3
	c0-0.1,0-0.2-0.1-0.2C14.5,50.2,14.6,50.3,14.7,50.3z M14.2,50.3C14.2,50.3,14.2,50.3,14.2,50.3c-0.1-0.1-0.2-0.1-0.2,0
	C14,50.4,14.2,50.4,14.2,50.3z M15.6,50.4c0,0-0.1,0.2,0,0.1C15.7,50.6,15.7,50.4,15.6,50.4z M16.2,50.6
	C15.9,50.4,16.1,50.8,16.2,50.6L16.2,50.6z M13.2,50.9c0.1,0,0.1-0.1,0.1-0.1C13.2,50.8,13.1,50.9,13.2,50.9z M14,50.9L14,50.9
	C14,50.9,13.9,51,14,50.9C14,51,14,51,14,50.9z M14.7,51c-0.1-0.1-0.2,0-0.1,0.1C14.7,51.1,14.7,51.1,14.7,51z M15.9,51L15.9,51
	L15.9,51L15.9,51L15.9,51z M14.6,51.6c0-0.1-0.2-0.2-0.3-0.1C14.4,51.5,14.5,51.7,14.6,51.6z M14,51.9h-0.1C13.8,52,14,52,14,51.9z
	 M16.4,52.3c0-0.1,0-0.1,0-0.1h-0.1c0,0,0,0.1,0,0.2C16.3,52.4,16.3,52.3,16.4,52.3z M14.1,52.6c0.1,0.1,0.4,0.1,0.4-0.1
	c-0.1,0-0.2,0.1-0.2,0c0-0.1,0.1,0,0.1-0.1C14.3,52.2,14,52.4,14.1,52.6z M16.1,52.4c-0.1,0-0.1,0.1-0.1,0.2
	C16.1,52.6,16.1,52.5,16.1,52.4z M16,53.1c0.1,0,0.1,0,0.1-0.1c0,0,0,0-0.1,0C16.1,53,16,53,16,53.1z M15,53.1L15,53.1L15,53.1
	L15,53.1C15,53.1,15,53.1,15,53.1z M16.3,53.5c0.1,0,0.2-0.1,0.2-0.2C16.4,53.3,16.3,53.4,16.3,53.5z M13.9,53.4
	c0,0.2,0.2,0.1,0.1,0C14,53.3,14,53.4,13.9,53.4z M14.8,53.9L14.8,53.9C14.7,54,14.7,54,14.8,53.9L14.8,53.9
	C14.8,54,14.8,54,14.8,53.9z M15.3,54.2c0-0.1,0-0.3-0.1-0.2c-0.1,0-0.1,0.1-0.1,0.2H15.3z M16.2,54.3c0.1,0,0.3-0.2,0.2-0.3
	C16.3,54.1,16.2,54.2,16.2,54.3z M14.8,54.8c0,0,0.1,0,0.1-0.1C14.8,54.8,14.8,54.8,14.8,54.8z M15.7,55.1c0.1,0,0-0.1,0-0.1h-0.1
	C15.6,55,15.6,55.1,15.7,55.1z M15.6,55.7L15.6,55.7c-0.1,0.1-0.1,0.1-0.1,0.2C15.6,55.9,15.6,55.8,15.6,55.7z M50.2,29.8
	c-0.1-0.3-0.3-0.7-0.4-0.9c-0.1-0.1-0.2-0.3-0.3-0.4c-0.1,0-0.1,0-0.2-0.1c-0.2-0.2-0.3-0.4-0.5-0.5c-0.3-0.2-0.8-0.4-1-0.7
	c-0.1-0.1-0.1-0.3-0.1-0.5c-0.1-0.1-0.3-0.2-0.4-0.2c-0.6,0-0.9,0.7-0.6,1.2c-0.2,0.1-0.4,0.2-0.6,0.3c-0.1,0.1-0.2,0.2-0.3,0.4
	c-0.2,0.3-0.3,0.4-0.4,0.7c-0.1,0.5,0,1.2,0.2,1.5c0.1,0.1,0.6,0.3,0.7,0.4c0.7,0.1,1.3-0.2,1.4-0.6c0.2-0.8-0.8-1.1-1.3-0.7
	c0.1-0.4,0.4-0.8,0.8-0.8c0.7-0.1,1.1,0.3,1.3,0.7c0.2,0.3,0.2,1,0.1,1.4c-0.1,0.8-0.5,1.2-1,1.6c-0.4,0.4-0.6,0.5-1.1,0.7
	c-0.5,0.2-0.9,0.3-1.5,0.3c0-0.1,0.2-0.3,0.2-0.4c0.2-0.4,0.3-0.9,0.1-1.2c-0.5-0.1-0.8,0.2-1,0.4c-0.1,0.1-0.3,0.2-0.4,0.3
	c-0.2,0.2-0.6,0.4-0.8,0.5c-0.8,0.3-1.4,0-1.9-0.3c-0.2-0.1-0.4-0.2-0.6-0.3c-0.4-0.2-0.7-0.5-1.1-0.7c-0.1-0.2-0.2-0.4-0.3-0.4
	c0.9,0.1,2.1,0.1,2.7-0.4c0.2-0.2,0.6-0.8,0.6-1.1c0-0.1-0.1-0.4-0.2-0.4c-0.1-0.1-0.5-0.1-0.6,0c-0.3,0.1-0.5,0.4-0.4,0.8
	c-0.5,0.2-1.4,0.1-1.9-0.1c-0.4-0.1-0.7-0.4-1.1-0.7c-0.2-0.1-0.4-0.2-0.6-0.3c-0.7-0.4-1.5-0.9-2.2-1.3c-0.2-0.1-0.4-0.2-0.6-0.3
	c0-0.1,0-0.2-0.1-0.3c-0.3-0.4-0.8-0.7-1.1-1.1c-0.4-0.4-0.8-0.7-1.2-1.1c-0.4-0.4-0.9-0.6-1.4-0.9c-0.5-0.2-1-0.5-1.6-0.7
	c1.1-0.1,2.3,0,3.2-0.4c0.1,0,0.2-0.1,0.3-0.2c0.3-0.2,0.6-0.3,0.7-0.7c0.2-0.4,0-1.1-0.2-1.2c-0.3-0.3-0.9-0.6-1.4-0.5
	c-0.1,0,0-0.1,0.1-0.1c0.1-0.2,0.3-0.2,0.4-0.4c0.1-0.1,0.3-0.5,0.4-0.5c0.1,0,0.4,0.1,0.6,0.2c0.5,0.1,0.8,0.2,1.2,0.4
	c0.4,0.2,0.7,0.5,0.9,0.8c-0.5,0.3-0.5,1.1,0.1,1.2c-0.1,0.4,0.2,0.6,0.5,0.7c0,0.3,0.1,0.4,0.3,0.4c0,0.7,0.9,0.8,0.9,0.1
	c0-0.1,0-0.1,0-0.2c0,0-0.1-0.1-0.1-0.2c0-0.1,0-0.2,0-0.3c0-0.1-0.2-0.2-0.2-0.3c0-0.1,0-0.3,0-0.4c0-0.2-0.1-0.2-0.2-0.4
	c0.1-0.4-0.3-0.8-0.6-0.9c-0.1,0-0.3,0-0.4,0c-0.2-0.2-0.3-0.5-0.5-0.7c-0.1-0.1-0.2-0.1-0.3-0.2c-0.3-0.2-0.7-0.3-1.1-0.4
	c-0.3-0.1-0.6-0.1-0.8-0.2c0-0.1,0.1-0.2,0.2-0.3c0.2-0.2,0.5-0.2,0.9-0.3c0.6-0.1,1.2-0.2,1.7-0.3c0.9-0.2,1.7-0.6,2.6-0.8
	c0.2,0,0.4,0,0.6-0.1c0.3-0.1,0.6-0.3,1-0.4c0.7-0.2,1.3-0.5,1.9-0.8c0.5,0.1,0.9,0.1,1.3,0.2c0.4,0.1,0.8,0.3,1.3,0.3
	c-0.1,0.7,0.4,1.1,0.9,0.8c0.2,0.1,0.4,0.2,0.7,0.1c0.1,0.1,0.3,0,0.5,0.1c0.2,0.1,0.3,0.3,0.6,0.2c0.3,0,0.3-0.6-0.1-0.6
	c0-0.3-0.3-0.3-0.5-0.3c-0.1-0.1-0.1-0.2-0.2-0.3c-0.1-0.1-0.2-0.1-0.3-0.1c0-0.1-0.1-0.1-0.2-0.1c0-0.2-0.1-0.3-0.3-0.4
	c-0.5,0-0.7,0.2-1,0.4c-0.6-0.3-1.3-0.5-2-0.6c0.2-0.2,0.5-0.3,0.8-0.5c0.1-0.1,0.2-0.2,0.4-0.3c0.1-0.1,0.3-0.2,0.4-0.2
	c0.2,0,0.3,0,0.5,0c0.5-0.1,0.8-0.5,0.7-1c0.1-0.1,0.3-0.2,0.4-0.4c0-0.1,0-0.3,0-0.5c0.2-0.1,0.1-0.4,0.2-0.7c0-0.1,0-0.1,0.1-0.2
	c0-0.1,0-0.2,0-0.2c0-0.2,0.2-0.3,0.2-0.4c0-0.1-0.2-0.2-0.3-0.2c-0.2,0-0.3,0.2-0.4,0.3c-0.1,0.1-0.1,0-0.2,0.1
	c-0.1,0.1-0.1,0.2-0.1,0.3c-0.2,0.1-0.4,0.3-0.4,0.6c-0.4,0.1-0.6,0.5-0.5,0.9c-0.4,0.1-0.7,0.6-0.4,1c-0.6,0.4-1.2,0.7-1.8,1
	c-0.3,0.1-0.5,0.1-0.9,0.1c-0.2,0-0.5,0-0.6-0.1c-0.3,0-0.6-0.2-0.9-0.2c-1-0.1-1.9,0-2.8,0.1c-0.1,0,0-0.1,0-0.1
	c0.8-0.9,1.6-1.8,2.3-2.8c0.3-0.5,0.7-1,1-1.5c0.2-0.4,0.5-0.8,0.7-1.2c0.1-0.1,0.2-0.2,0.3-0.4c0.1-0.1,0.1-0.3,0.2-0.5
	c0.1-0.3,0.3-0.6,0.4-1c0.7,0,1-0.7,0.8-1.3C42.8,6.7,43,6.6,43,6.4c0-0.2-0.1-0.5-0.2-0.6C43,5.7,43,5.3,42.9,5.1
	c0.2-0.2,0-0.6-0.2-0.6c-0.2,0-0.4,0.2-0.6,0.3c0,0.1,0,0.3,0.1,0.3c-0.1,0.2-0.3,0.4-0.2,0.7c-0.1,0.1-0.3,0.2-0.4,0.3
	c-0.1,0.2-0.1,0.5,0,0.7c-0.2,0.2-0.4,0.3-0.5,0.6c0,0.3,0.3,0.6,0.5,0.8c-0.2,0.7-0.5,1.3-0.8,1.7c-0.2,0.3-0.4,0.6-0.5,0.8
	c-0.1,0.1-0.2,0.3-0.3,0.4c-0.7,1.2-1.5,2.1-2.3,3.1c-0.2,0.2-0.4,0.5-0.7,0.7c-0.2,0.2-0.5,0.6-0.7,0.7c-0.2,0.1-0.5,0.1-0.7,0.2
	c-0.1,0,0-0.1,0-0.1c0.7-1,1.4-2.3,2-3.5c0.1-0.3,0.3-0.5,0.3-0.8c0-0.2,0-0.5,0-0.6c0-0.1,0.2-0.1,0.2-0.2c0.1-0.1,0.2-0.2,0.2-0.3
	c0.1-0.4,0-0.7-0.2-0.9c0.1-0.4-0.1-0.7-0.4-0.8c0.1-0.4-0.2-0.6-0.5-0.7c0-0.2-0.2-0.3-0.3-0.4c-0.1-0.2-0.1-0.3-0.2-0.4
	C36.3,7.2,36,7.8,36.5,8c0,0.3,0.1,0.4,0.2,0.5C36.6,8.8,36.8,9,36.9,9c-0.1,0.3,0,0.8,0.2,0.9c-0.3,0.4,0,1,0.4,1
	c-0.1,0.8-0.3,1.4-0.6,2c-0.3,0.6-0.6,1.2-0.9,1.7c-0.4,0.6-0.7,1.1-1.1,1.6c-0.5,0.1-0.9,0.3-1.3,0.5c0-0.3,0.2-0.5,0.3-0.8
	c0.1-0.2,0.2-0.4,0.2-0.6c0-0.1,0.1-0.1,0.1-0.2c0-0.2-0.1-0.3-0.1-0.5c0-0.2,0.2-0.1,0.2-0.2c0.2-1.1,0.4-2.1,0.3-3.3
	c0-0.1-0.1-0.3-0.1-0.4c0-0.5-0.1-0.9-0.2-1.3C34.1,7.9,33.6,7,33,6c-0.2,0-0.3,0.1-0.4,0c-0.1-0.2,0-0.4,0.1-0.5
	c-0.4-0.6-0.9-1.2-1.5-1.7c-0.2-0.1-0.3-0.2-0.5-0.3c-0.3-0.2-0.6-0.5-0.9-0.7c-0.2-0.1-0.3-0.3-0.4-0.4c-0.3-0.2-0.7-0.2-1.1-0.3
	C28,2,27.8,1.9,27.5,1.8c-0.6-0.2-1.3-0.2-2-0.2c-2.8-0.1-5.1,0.8-7,1.8c-1,0.5-1.9,1.1-2.7,1.7c0,0.2,0.2,0.2,0.1,0.4
	c-0.2,0.1-0.3-0.1-0.5-0.1c-0.3,0.3-0.7,0.8-1,1.2c-0.2,0.3-0.4,0.6-0.1,0.8c-0.4,0.3-0.5,0.5-0.7,1c-0.3,0.6-0.4,1.3-0.7,1.9
	c-0.2,0.4-0.4,0.7-0.7,1.1c-0.1,0.2-0.3,0.3-0.4,0.5c-0.1,0.2-0.2,0.4-0.4,0.5c-0.3,0.2-0.8,0.3-0.8,0.7c0,0.2,0.1,0.3,0.3,0.4
	c0.1,0.1,0.3,0.2,0.4,0.3c0.4,0.2,1.2,0.3,1.8,0.2c0.1,0.4,0.3,0.8,0.5,1.2c0.1,0.2,0.3,0.5,0.6,0.7c0.2,0.2,0.4,0.5,0.6,0.7
	c0.2,0.2,0.6,0.4,0.9,0.6c0.9,0.6,2.5,1.2,3.9,1c0.5-0.1,1-0.3,1.5-0.5c0.4-0.2,0.9-0.5,1.2-0.7c0.1-0.1,0.3-0.3,0.4-0.5
	c0.1-0.2,0.3-0.3,0.4-0.4c0.2-0.4,0.3-0.9,0.4-1.4c0-0.2,0.1-0.3,0.1-0.5c-0.3-0.1-0.4,0.1-0.6,0.1c-0.2,0-0.5,0-0.7-0.1
	c-0.3,0-0.6,0-0.7-0.1c-0.2-0.1-0.4-0.3-0.6-0.5c-0.2-0.2-0.4-0.4-0.5-0.6c-0.1-0.3-0.2-0.8-0.1-1.1c0.2-0.5,0.5-0.8,0.9-1.2
	c0.2-0.1,0.4-0.3,0.6-0.4c0.2-0.1,0.5-0.2,0.7-0.2c0.6-0.2,1.4-0.2,2-0.1c0.1,0,0.3,0.1,0.4,0.1c0.2,0,0.2-0.3,0.5-0.2
	c0.1,0.1-0.1,0.2,0,0.4c0.3,0.3,0.8,0.4,1,0.8c0.3,0.4,0.5,0.9,0.7,1.5c0.1,0.3,0.3,0.6,0.3,0.9c0.1,0.6-0.1,1.2-0.1,1.7
	c0,0.3-0.1,0.5-0.1,0.8c-0.1,0.4-0.2,0.7-0.4,1c0,0.1-0.1,0.3-0.2,0.3c0-0.5-0.1-0.8-0.4-0.9c-0.5-0.1-0.8,0.4-1,0.7
	c-0.3,0.4-0.4,0.8-0.5,1.3c-0.2,0.9-0.6,1.7-1,2.5c-0.7,0.2-1.2,0.7-1.8,1.1c-0.5,0.4-1.1,0.8-1.6,1.2c-0.5,0.4-1,0.9-1.4,1.4
	c-0.4,0.4-0.7,0.8-1,1.1c-0.1,0.1-0.3,0.2-0.4,0.4c-0.1,0.1-0.2,0.3-0.3,0.5c-0.1,0.2-0.3,0.3-0.4,0.4c-0.7,0.9-1.5,1.9-2,2.8
	c-0.5,0.9-0.9,2-1.4,3.1c-0.2,0.5-0.4,1.1-0.6,1.7c-0.1,0.5-0.2,0.9-0.3,1.4c0,0.2-0.1,0.3-0.1,0.5c0,0.2,0,0.5,0,0.7
	c0,0.1-0.1,0.3-0.2,0.4c-0.1,0.2-0.1,0.3-0.1,0.5c-0.2,0.6-0.4,1.3-0.5,2c0,0.4,0,0.8-0.1,1.1c-0.1,0.7-0.2,1.5-0.2,2.2
	c0,0.8-0.1,1.6,0,2.4c0,0.5,0.1,1,0.2,1.4c0.1,0.5,0.2,0.9,0.3,1.4c0.1,0.3,0.2,0.5,0.3,0.8c0.1,0.4,0.1,0.7,0.2,1.1
	c0.1,0.3,0.3,0.6,0.4,0.9c0,0.1,0,0.2,0.1,0.3c0,0.1,0.1,0.1,0.1,0.2c0.2,0.5,0.4,0.9,0.6,1.4c0.1,0.3,0.3,0.6,0.4,0.9
	c0.1,0.3,0.3,0.5,0.5,0.8c0.2,0.3,0.3,0.5,0.5,0.8c0.1,0.2,0.2,0.2,0.3,0.4c0.1,0.1,0.2,0.3,0.3,0.4c0.2,0.2,0.5,0.4,0.7,0.6
	c0.4,0.4,0.8,0.9,1.2,1.3c0.2,0.2,0.5,0.4,0.6,0.7c0.1,0.1,0.3,0.1,0.3,0.3h0.1c-0.1-0.4-0.3-0.8-0.4-1.2c-0.3-0.8-0.4-1.8-0.5-2.7
	c-0.1-0.5-0.1-0.9-0.2-1.4c-0.2-1.3-0.3-2.9-0.3-4.5c0-0.5,0-1.1-0.2-1.4c-0.2-0.3-0.5-0.4-0.8-0.6c-0.3-0.2-0.5-0.5-0.8-0.8
	c-0.3-0.3-0.5-0.5-0.8-0.8c-0.2-0.5-0.5-0.9-0.6-1.4c0-0.1,0-0.2-0.1-0.3c0-0.2,0-0.4-0.1-0.6c0-0.2-0.1-0.4-0.2-0.6
	c-0.2-1-0.1-2.5,0-3.5c0-0.4,0.2-0.8,0.3-1.1c0.2-0.3,0.4-0.7,0.6-0.9c0.2-0.2,0.4-0.2,0.5-0.4c0-0.3-0.1-0.4,0-0.5
	c0.3-0.4,1-0.2,1.4,0c0.2-0.2,0-0.7-0.1-0.9c1.1-0.1,1.6,0.1,2.1,0.7c0.5,0.7,0.5,2.3,0.2,3.1c-0.1,0.2-0.2,0.3-0.2,0.5
	c0.1,0.1,0.3-0.1,0.4-0.1c0.2-0.1,0.4-0.3,0.6-0.5c0.2-0.2,0.4-0.4,0.5-0.6c0.1-0.1,0.1-0.3,0.2-0.5c0.1-0.1,0.2-0.3,0.2-0.4
	c0.1-0.3,0.3-0.7,0.4-1c0-0.1,0-0.3,0-0.5c0.1-0.5,0.2-1,0.1-1.4c0.2-0.1,0.4-0.2,0.6-0.4c0.3-0.3,0.6-0.9,0.4-1.5
	c-0.2-0.1-0.4,0-0.6,0.1c-0.2,0-0.4,0-0.6,0c-0.6,0-1.1-0.2-1.5-0.2c-0.3,0-0.5,0-0.8,0c-0.3,0-0.6,0-0.8,0c-0.3,0-0.5,0.1-0.7,0.1
	c-0.5,0.1-0.9,0.3-1.3,0.6c-0.1,0-0.2,0.1-0.3,0.1c0-0.6,0.2-1,0.5-1.4c0.2-0.3,0.4-0.6,0.5-0.8c0.4-0.5,0.8-0.9,1.3-1.3
	c0.2-0.2,0.5-0.4,0.7-0.6c0.3-0.2,0.5-0.4,0.8-0.5c0.2-0.1,0.3-0.1,0.5-0.2c0.2-0.1,0.3-0.1,0.5-0.2c0.4-0.1,0.8,0,1.2,0
	c0.2,0,0.4,0.2,0.7,0.2c0.4,0.1,0.9,0.1,1.2-0.1c0.2-0.1,0.3-0.3,0.4-0.4c0.5,0.1,1.2,0.5,1.5,1c0.1,0.2,0.2,0.6,0.1,0.8
	c-0.1,0.2-0.3,0.1-0.5,0.3c0.1,0.2,0.3,0.3,0.5,0.4c-0.1,0.1-0.3,0.1-0.4,0.1c-0.1,0-0.3,0-0.4-0.1c-0.3-0.1-0.3-0.4-0.6-0.5
	c-0.1,0-0.3,0-0.4,0.1c-0.6,0.3-0.9,0.9-0.7,1.5c0.2,0.5,0.7,0.8,1.1,1.1c0.6,0.1,1.1,0,1.6-0.1c0.6-0.1,1-0.6,1.3-1
	c0.3-0.4,0.4-0.9,0.6-1.4c0-0.6-0.1-1.3-0.3-1.7c0-0.2,0.3-0.3,0.4-0.4c0.4-0.2,0.8-0.3,1.4-0.3c0.3,0,0.5,0.1,0.8,0.1
	c0.4,0.1,0.8,0,1.1,0.1c0.1,0,0.2,0.1,0.4,0.2c0.3,0.1,0.5,0.2,0.7,0.3c0.3,0.1,0.7,0.3,0.8,0.5c0,0.1,0.1,0.2,0.1,0.2
	c0.1,0.1,0.2,0.1,0.2,0.2c0.1,0.3,0.1,0.6,0.1,1c-0.1,0.2-0.3,0.4-0.6,0.5c-0.2,0.1-0.4,0.1-0.5,0.2c-0.1,0.3,0.2,0.6,0.5,0.7
	c0.3,0.1,1,0.2,1.2,0.1c0.3-0.1,0.5-0.3,0.7-0.4c0.2-0.1,0.4-0.2,0.4-0.3c0.1-0.1,0.1-0.4,0.2-0.5c0-0.1,0.1,0.1,0.1,0.1
	c0.2,0.1,0.2,0.3,0.4,0.4c0.2,0.3,0.5,0.5,0.8,0.8c0.4,0.4,0.9,0.7,1.3,1c0.1,0.1,0.3,0.2,0.5,0.3c0.6,0.4,1.3,0.7,2,1
	c0.4,0.1,0.7,0.3,1.2,0.3c0.3,0.1,0.8,0.7,0.9,1.2c0,0.2,0,0.4,0.1,0.5c0.1,0.1,0.2,0.3,0.3,0.3c0.5,0.1,0.9-0.5,0.9-1.1
	c0.4,0.1,0.8,0.1,1.1,0.1c0.4,0,0.8-0.1,1.2-0.1c0.3-0.1,0.6-0.3,0.9-0.4c0.2-0.1,0.4-0.1,0.6-0.2c0.6-0.2,1.1-0.5,1.5-1
	c0.6-0.6,1.1-1.2,1.3-2C50.4,31.5,50.5,30.4,50.2,29.8z M37.1,23.4c-0.1,0,0-0.2-0.1-0.2c-0.1,0-0.1,0.2-0.1,0.2
	c0,0-0.2-0.1-0.2-0.3C37,23.1,37.2,23.3,37.1,23.4z M37,22.9c-0.2,0-0.3,0.2-0.5,0c0-0.1,0-0.2,0-0.3c0-0.1,0.2-0.1,0.3-0.1
	c0,0,0,0,0,0c-0.1,0-0.2,0.2-0.1,0.2c0.1,0,0.1-0.1,0.1-0.2C36.9,22.7,37,22.7,37,22.9z M36.8,22.2c-0.2,0-0.4,0.1-0.5,0.2
	c-0.1,0-0.2-0.1-0.3-0.2c0-0.2,0.1-0.4,0.2-0.5c0.1,0,0.2,0,0.3,0C36.6,21.8,36.9,21.9,36.8,22.2z M35.7,21.1
	c0.1-0.1,0.4-0.1,0.5-0.1c0.2,0,0.5,0.3,0.4,0.5c-0.4,0-0.6,0.1-0.8,0.3C35.5,21.7,35.4,21.4,35.7,21.1z M47,17.4c0.1,0,0,0.1,0,0.2
	c0,0-0.1-0.1-0.1-0.1C46.9,17.4,47,17.4,47,17.4z M46.9,17.3c0,0-0.1,0.1,0,0.1c0,0.1-0.1,0-0.1,0C46.7,17.4,46.8,17.2,46.9,17.3z
	 M46.5,17.4L46.5,17.4C46.4,17.4,46.5,17.3,46.5,17.4z M46.4,17c0,0,0.1,0,0.1,0.1c-0.1,0-0.1,0-0.1,0.1
	C46.3,17.2,46.4,17.1,46.4,17z M45.8,16.8c0.1,0,0.1,0,0.1,0.1c-0.1,0-0.1,0-0.1,0.1C45.7,17,45.8,16.9,45.8,16.8z M46.1,17.1
	c0,0.1,0,0.2,0,0.3c-0.2,0-0.3-0.2-0.3-0.3C45.9,17.1,45.9,17,46.1,17.1z M45,16.7c0.1-0.2,0.4-0.4,0.6-0.2c0.1,0.3,0,0.6-0.1,0.8
	C45.1,17.5,44.9,17.1,45,16.7z M46,11.7c0,0.1-0.1,0.2-0.2,0.2C45.8,11.7,45.9,11.7,46,11.7z M45.7,12c0,0.1,0.1,0,0.1,0.1
	c-0.1,0-0.1,0-0.2,0C45.6,12.1,45.6,12,45.7,12z M45.5,12.5c0,0-0.1,0.1-0.1,0.2c0.1,0,0.1,0,0.2-0.1C45.7,12.5,45.5,12.5,45.5,12.5
	c0.1-0.1,0.1,0,0.2,0c0,0.2,0,0.2-0.1,0.3c-0.2,0-0.3,0-0.3-0.1C45.3,12.6,45.4,12.5,45.5,12.5z M44.9,13.1c0.3-0.1,0.4-0.1,0.7,0
	c0,0.2-0.1,0.3-0.2,0.4c-0.2,0-0.3,0.1-0.6,0.1C44.7,13.5,44.8,13.3,44.9,13.1z M44.4,14.2c0.1-0.1,0.3-0.2,0.4-0.3
	c0.1,0,0.2,0.1,0.4,0.2c0,0.4-0.2,0.5-0.6,0.6c0-0.1,0.1-0.3,0-0.3c0-0.1,0.1-0.1,0.1-0.2c-0.2-0.1-0.2,0.2-0.3,0.3
	C44.3,14.4,44.4,14.3,44.4,14.2z M42.6,4.7c0.1,0,0.1,0.1,0.2,0.2c-0.1,0.1-0.4,0.2-0.4,0C42.4,4.8,42.5,4.8,42.6,4.7z M42.4,5.3
	c0,0,0,0.1,0,0.1c0.1,0,0.1-0.1,0.2-0.1c0-0.1-0.2,0-0.1-0.1c0,0,0.1,0,0.2,0c0.1,0.3-0.1,0.6-0.4,0.5C42.2,5.6,42.2,5.4,42.4,5.3z
	 M42,6.2c0.2,0,0.4-0.3,0.6-0.2c0.2,0,0.2,0.2,0.2,0.5c-0.2,0.2-0.4,0.3-0.7,0.3C41.8,6.6,41.9,6.3,42,6.2z M41.5,7.4
	c0.1-0.2,0.4-0.3,0.5-0.5c0.2,0,0.3,0.1,0.4,0.1c0.1,0.5-0.1,0.8-0.4,0.9C41.7,7.9,41.6,7.7,41.5,7.4z M36.6,7.7
	c-0.2,0-0.1-0.2-0.1-0.3c0.1,0,0.1,0.1,0.1,0.1C36.7,7.6,36.6,7.7,36.6,7.7z M36.8,7.9C36.9,7.9,37,8,37,8.1c-0.1,0-0.1,0.1-0.1,0.1
	C36.7,8.2,36.7,8,36.8,7.9z M36.9,8.6c0-0.5,0.4-0.3,0.6-0.2c0,0.1,0,0.1,0,0.2c-0.2-0.1-0.3,0-0.3,0.1C37,8.8,37,8.7,36.9,8.6z
	 M37.1,9.5V9.1c0.1-0.1,0.1-0.2,0.3-0.2c0.1,0,0.4,0.2,0.5,0.3c0.1,0.2-0.1,0.3-0.1,0.5c-0.1,0-0.2,0-0.3,0.1
	C37.3,9.7,37.2,9.6,37.1,9.5z M37.4,10c0.2,0,0.4-0.1,0.5-0.3c0.1,0.1,0.3,0.2,0.3,0.4c0,0.2-0.3,0.5-0.6,0.4
	c0.1-0.1-0.1-0.2-0.1-0.3c-0.1,0-0.1,0.1-0.1,0.1c0,0.1,0.1,0.2,0.2,0.2C37.4,10.6,37.2,10.2,37.4,10z M17.2,57.6c0.1,0,0,0.1,0,0.2
	C17.1,57.8,17.1,57.7,17.2,57.6z M47.2,29.9c0,0.1-0.1,0.1-0.2,0.1c0-0.1-0.1-0.2-0.2-0.2c-0.1,0.1,0.1,0.1,0.1,0.2
	c-0.1,0.1-0.3,0.1-0.4,0C46.4,29.6,47.1,29.6,47.2,29.9z M47.6,28.4c0,0,0-0.1,0-0.1C47.5,28.3,47.5,28.4,47.6,28.4
	c-0.6-0.1-1.1,0.1-1.4,0.5c-0.1,0.1-0.2,0.4-0.2,0.5c-0.1,0.5,0.1,0.8,0.4,1c0.5,0,0.6-0.2,0.8-0.4c0.1,0,0,0.2,0,0.3
	c-0.2,0.2-0.4,0.4-0.9,0.3c-0.3,0-0.6-0.2-0.7-0.4c-0.3-0.5-0.3-1.1,0.1-1.6c0.4-0.4,0.9-0.6,1.6-0.6c0-0.1,0-0.3-0.1-0.4
	c-0.1,0,0,0.1-0.1,0.1c-0.1-0.2,0-0.4,0.1-0.6c0,0,0-0.1-0.1-0.1c-0.1,0-0.1,0.1-0.1,0.2c-0.1,0-0.1,0-0.2,0c0,0.1,0,0.1,0.1,0.2
	c0,0.1-0.1,0-0.1,0.1c0,0.1,0.1,0.1,0.1,0.3c-0.4-0.2,0-1,0.4-0.8c0.1,0.4,0.2,0.7,0.4,0.9c0.2,0.1,0.5,0.3,0.7,0.4
	c0.2,0.1,0.5,0.3,0.4,0.6c-0.1,0-0.1-0.2-0.2-0.2c-0.1,0.1,0.1,0.3,0.1,0.3c-0.1,0-0.1,0.1-0.2,0.1C48.4,28.7,48.1,28.5,47.6,28.4z
	 M38.1,29.9c0.4,0.2,1,0.6,1.6,0.7c0.5,0,1.1,0,1.5-0.2c0,0.3-0.5,0.3-0.9,0.4c0.4,0.2,1,0,1.2-0.3c-0.1-0.2-0.1-0.7,0.1-0.8
	c0.2,0,0.4,0.1,0.4,0.3c0,0.1-0.1,0-0.2,0.1c0.1,0.2-0.1,0.1,0,0.3c0,0,0,0,0,0c0,0,0-0.1-0.1-0.1c-0.1,0.1,0,0.2,0,0.3
	c-0.5,0.6-2.1,0.5-3.1,0.3c0.2-0.1,0.5,0.1,0.7-0.1c-0.3-0.2-0.9-0.2-1.2-0.4c0-0.2-0.1-0.2-0.2-0.3C38.1,30,38.1,30,38.1,29.9z
	 M34,27c0.1,0.1,0.2,0.1,0.1,0.3c-0.1,0-0.2-0.1-0.2-0.1C33.8,27.1,34,27.1,34,27z M33.8,26.9c-0.1,0-0.2,0.1-0.2,0.2
	c-0.1-0.1-0.3-0.1-0.4-0.2c0.1-0.2,0.2-0.3,0.3-0.4C33.6,26.6,33.8,26.7,33.8,26.9z M33.4,26.4c0,0.1-0.4,0.3-0.4,0.5
	c-0.2,0-0.3-0.1-0.5-0.2c0-0.2,0.4-0.4,0.6-0.6C33.1,26.1,33.4,26.3,33.4,26.4z M32.7,25.7c0.1,0.1,0.2,0.2,0.2,0.2
	c0,0.1-0.3,0.2-0.4,0.3c-0.1,0.1-0.2,0.2-0.3,0.3c-0.1,0-0.2-0.1-0.3-0.1c0.1-0.4,0.2-0.8,0.5-1C32.4,25.5,32.5,25.6,32.7,25.7z
	 M32.2,25.4c-0.2,0.3-0.5,0.6-0.6,1c-0.1-0.1-0.3-0.1-0.4-0.2c0.2-0.4,0.5-0.7,0.7-1.1C32.1,25.2,32.1,25.3,32.2,25.4z M31.8,25
	c-0.3,0.4-0.6,0.8-0.8,1.2c-0.2,0-0.2-0.1-0.4-0.1c0.1-0.1,0-0.3,0.1-0.5c0.1-0.4,0.4-0.7,0.7-0.8C31.5,24.8,31.6,24.9,31.8,25z
	 M31.1,24.6c-0.4,0.4-0.6,0.8-0.8,1.4c-0.1,0-0.3-0.1-0.4-0.1c0.2-0.5,0.4-1,0.8-1.4C30.9,24.4,31,24.5,31.1,24.6z M30.5,24.3
	c-0.4,0.4-0.6,0.9-0.9,1.4c-0.1,0-0.3-0.1-0.4-0.1c0.2-0.6,0.6-1.1,1.1-1.4C30.4,24.2,30.5,24.3,30.5,24.3z M30.1,24.1
	c-0.2,0.2-0.4,0.4-0.6,0.7c-0.1,0.2-0.4,0.5-0.5,0.8c-0.2,0-0.4-0.1-0.6-0.1c0.1-0.2,0.3-0.5,0.5-0.7C29.1,24.4,29.5,24,30.1,24.1z
	 M29.6,23.9c-0.4,0.2-0.7,0.6-1,1c-0.2,0.2-0.3,0.3-0.4,0.6c-0.2,0-0.3,0-0.4,0c0.2-0.4,0.5-0.9,0.8-1.2c0.1-0.1,0.3-0.3,0.4-0.3
	C29.2,23.8,29.4,23.9,29.6,23.9z M23.5,25.4c0.1-0.1,0.1-0.3,0.2-0.4c0.1-0.2,0.4-0.3,0.5-0.4c0,0.2-0.2,0.3-0.3,0.4
	c-0.1,0.1-0.2,0.3-0.3,0.4c0,0.1-0.1,0.1-0.1,0.2c-0.1,0-0.2,0-0.3,0.1C23.3,25.7,23.4,25.6,23.5,25.4z M23.3,25.4
	c-0.1,0.2-0.1,0.4-0.3,0.5c0.1-0.4,0.3-0.7,0.5-0.9c0.1,0,0,0,0,0.1C23.5,25.2,23.4,25.2,23.3,25.4z M24.9,24.4
	C25,24.4,25,24.4,24.9,24.4c-0.3,0.4-0.6,0.8-0.8,1.3c-0.1,0-0.1,0-0.2,0C24.1,25.1,24.5,24.7,24.9,24.4z M25,24.6
	c0.2-0.2,0.2-0.3,0.5-0.3c0,0.1-0.1,0.2-0.2,0.3c-0.2,0.2-0.3,0.5-0.5,0.7c-0.1,0.1-0.1,0.3-0.3,0.3C24.5,25.2,24.7,24.9,25,24.6z
	 M25.8,24.2c0.2,0,0.2-0.1,0.4-0.1c-0.3,0.5-0.7,0.9-0.9,1.4c-0.2,0-0.3,0.1-0.5,0.1C25.1,25,25.4,24.5,25.8,24.2z M26.5,24
	c0.1,0,0.2,0,0.2,0c-0.3,0.4-0.6,0.9-0.8,1.4c-0.1,0-0.2,0-0.3,0C25.8,24.8,26.2,24.5,26.5,24z M27.1,23.9h0.2
	c0.1,0-0.1,0.1-0.1,0.1c-0.2,0.3-0.4,0.8-0.6,1.1c0,0.1,0,0.2-0.1,0.2h-0.3C26.3,24.8,26.7,24.4,27.1,23.9z M27.1,24.5
	c0.2-0.3,0.5-0.7,0.8-0.7c-0.3,0.4-0.7,0.8-1,1.3c0,0.1-0.1,0.3-0.3,0.2C26.7,25.1,26.9,24.8,27.1,24.5z M28.3,23.9
	c0.1,0,0.2,0,0.3,0c0.1,0,0,0.1-0.1,0.2c-0.2,0.2-0.2,0.3-0.4,0.5c-0.2,0.3-0.5,0.6-0.7,0.9h-0.3C27.4,24.8,27.8,24.3,28.3,23.9z
	 M32.1,19.8c-0.2,0.2-0.6,0.4-0.9,0.6c0.3-0.3,0.5-0.7,0.7-1h0.5C32.4,19.5,32.3,19.7,32.1,19.8z M28.5,21.7
	c-0.2,0.1-0.4,0.4-0.6,0.6c-0.3,0-0.5,0.1-0.8,0.2c0.5-0.7,1.1-1.2,1.7-1.7c0.1,0.1,0.2,0.2,0.3,0.2c-0.2,0.4-0.3,0.9-0.7,1.1
	C28.4,21.9,28.6,21.8,28.5,21.7z M26.6,21.4c-0.2,0.3-0.4,0.6-0.6,1c-0.1,0.2-0.1,0.4-0.3,0.4c0-0.1,0.1-0.2,0.1-0.3
	c0.2-0.3,0.4-0.6,0.5-1c-0.2,0-0.3,0.3-0.5,0.5c-0.1,0.1-0.2,0.3-0.3,0.4c0,0.1-0.1,0.1-0.2,0.2c-0.1,0.1,0,0.3-0.2,0.3
	c0.5-1.2,1.4-1.8,2.2-2.7c0.4-0.2,0.9-0.4,1.4-0.5h0.1c0,0.3,0,0.4-0.1,0.6c-0.9,0.6-1.6,1.4-2.2,2.2c-0.1,0-0.2,0.1-0.4,0.1
	c0.1-0.7,0.6-1.1,0.8-1.7C26.8,21.1,26.6,21.3,26.6,21.4z M23.8,23.3c0.6-1.2,1.4-2.1,2.6-2.6C25.7,21.6,24.7,22.5,23.8,23.3z
	 M27.9,19.7c0.2-0.2,0.4-0.4,0.5-0.7c0.1,0,0.1,0,0.2,0c0,0.1,0.2,0.2,0.2,0.4C28.5,19.4,28.2,19.6,27.9,19.7z M29.3,21.4
	c0.2,0.2,0,0.5-0.2,0.6C29.1,21.7,29.3,21.6,29.3,21.4z M29.2,20.7c-0.1,0-0.2,0-0.2-0.1c0.1-0.1,0.4-0.2,0.5-0.4
	C29.5,20.4,29.3,20.6,29.2,20.7z M29.5,19.8c-0.2,0.1-0.4,0.3-0.6,0.4c0-0.2,0.1-0.4,0.1-0.6c0.4-0.1,0.7-0.2,1.1-0.2
	C29.9,19.6,29.7,19.7,29.5,19.8z M30.3,19.8c0.4-0.1,0.7-0.4,1.2-0.5c-0.5,0.8-1.2,1.4-1.8,2C29.2,20.9,30.1,20.3,30.3,19.8z
	 M30.9,19c0.5-0.6,1.1-1.1,1.7-1.5c-0.2,0.4-0.5,0.9-0.8,1.2C31.5,18.8,31.3,19,30.9,19z M33,18.9c-0.1,0.2-0.4,0.2-0.7,0.2
	C32.4,18.9,32.7,18.9,33,18.9C33,18.8,33,18.9,33,18.9z M36.5,16.1C36.7,16,37,16,37.2,16c0.8-0.1,1.7-0.1,2.5-0.1
	c0.5,0,0.9,0.2,1.5,0.2c-0.5,0.3-1.1,0.5-1.6,0.7c-0.6,0.2-1.2,0.3-1.8,0.5c-1.2,0.4-2.4,0.8-3.7,0.9c0-0.1,0.2-0.2,0.2-0.3
	c0.3-0.3,0.6-0.5,0.9-0.8c0.2-0.1,0.4-0.4,0.6-0.6C36.1,16.5,36.3,16.2,36.5,16.1z M35.2,16.4c0.2,0,0.4-0.1,0.5-0.2h0
	c0.1,0.1-0.1,0.1-0.1,0.1c-0.3,0.3-0.6,0.6-1,1c-0.2,0.2-0.4,0.3-0.6,0.5c-0.1,0.1-0.2,0.2-0.3,0.3c-0.1,0.1-0.2,0.2-0.3,0.3
	c-0.3,0.1-0.6,0-0.9,0.1c0.6-0.2,1.1-0.7,1.5-1.1C34.5,17.1,34.9,16.8,35.2,16.4z M34.4,16.6c0,0.2-0.2,0.2-0.3,0.3
	c-0.3,0.3-0.8,0.7-1.2,1c0-0.1,0.1-0.3,0.2-0.4c0.1-0.1,0.2-0.3,0.2-0.4C33.7,16.9,34.1,16.8,34.4,16.6z M32.7,6.4
	c0.5,0.8,1.1,1.8,1.3,3c0,0.2,0.1,0.4,0.1,0.7c0,0.1,0.1,0.2,0.1,0.3c0,0.2-0.3,0.2-0.3,0.3c0.1,0.1,0.2,0,0.3,0
	c0.2,1.2,0,2.5-0.2,3.4c-0.2,0.1-0.4,0.1-0.6,0.1c0-0.1-0.1-0.2-0.2-0.2c-0.2,0-0.5,0-0.6,0.1c0.1,0.1,0.3,0,0.4,0
	c0.1,0,0.1,0.1,0.1,0.2c0.1,0.1,0.2,0.1,0.3,0.2c0,0.1,0,0.2,0.1,0.2c0.1,0,0.2,0.1,0.3,0.1c-0.1,0.8-0.5,1.3-0.8,2
	c-1.1,0.5-1.9,1.3-2.6,2.2c-0.6,0-1,0.2-1.5,0.3c0-0.3-0.2-0.4-0.3-0.6c0.3-0.4,0.5-0.8,0.8-1.2c0.1-0.2,0.2-0.4,0.4-0.6
	c0.1-0.2,0.3-0.4,0.4-0.6c0.1,0.1,0.2,0.3,0.2,0.5c0.1-0.1,0-0.2,0-0.3c0-0.1-0.1-0.2-0.2-0.3c0.4-0.7,0.8-1.5,1-2.4
	c0.2,0,0.4,0,0.5-0.2c0.2,0,0.3,0,0.4,0c0.1,0,0.2,0.1,0.2,0.2c0,0,0.1,0,0.2,0.1c0.1,0,0,0.1,0.1,0.1c0-0.2-0.1-0.2-0.2-0.3
	c-0.1-0.2-0.3-0.4-0.6-0.4c-0.2,0-0.3,0.2-0.5,0.2c0-0.3,0.2-0.5,0.2-0.7c0-0.1,0-0.3,0-0.4c0.1-0.2,0.2-0.3,0.3-0.4
	c0-0.4,0-0.7-0.3-0.9c0-0.9-0.2-1.5-0.5-2.2c0-0.1-0.1-0.2-0.1-0.3c0,0,0-0.1,0-0.2c-0.1-0.2-0.2-0.4-0.2-0.6c0-0.1-0.2-0.2-0.2-0.3
	c0-0.2,0.5-0.3,0.7-0.4c0.2-0.1,0.4-0.4,0.6-0.5C32.1,6.6,32.4,6.5,32.7,6.4z M31.3,11.7c0.1,0,0.1,0.1,0,0.1
	C31.3,11.8,31.3,11.8,31.3,11.7z M31.5,12.1c-0.1-0.1,0-0.2,0.1-0.2C31.6,12,31.5,12,31.5,12.1z M31.7,12c0,0.1-0.1,0.1-0.1,0.2
	C31.5,12.2,31.6,12,31.7,12z M31.5,11.5C31.6,11.6,31.3,11.6,31.5,11.5L31.5,11.5z M32.2,6.3c-0.1,0-0.1-0.2,0-0.2
	C32.2,6.2,32.3,6.3,32.2,6.3z M11.6,13.4c-0.1,0-0.2-0.1-0.3-0.2c0,0,0.2,0,0.3,0C11.5,13.3,11.6,13.3,11.6,13.4z M26.8,18.4
	c0.1,0,0.2,0.2,0.4,0.2c-0.1-0.4-0.5-0.4-0.8-0.3c0.2-0.2,0.2-0.6,0.4-0.9c0.2-0.3,0.3-0.7,0.5-1c0.1-0.2,0.1-0.4,0.2-0.6
	c0.1-0.2,0.4-0.2,0.5-0.4c-0.1-0.1-0.2,0.1-0.4,0.1c0.1-0.5,0.1-1.1,0.2-1.6c0-0.5,0.2-0.9,0.3-1.3c-0.2,0.1-0.2,0.3-0.3,0.5
	c-0.1-0.3-0.2-0.7-0.4-1c-0.1-0.3-0.2-0.5-0.3-0.7c-0.1-0.3,0.1-0.4,0.2-0.7c0.1-0.2,0.1-0.3,0.2-0.5c0.1-0.2,0.2-0.3,0.2-0.4
	c0.1-0.3,0.2-0.6,0.1-1.1c-0.2,0.3,0,0.8-0.1,1.1c0,0.1-0.1,0.2-0.2,0.3c-0.1,0.1-0.1,0.2-0.2,0.3c-0.1,0.1-0.2,0.1-0.2,0.2
	c-0.1,0.1-0.1,0.3-0.2,0.4c-0.2-0.4-0.6-0.6-0.9-0.9C26,10,26,9.8,25.9,9.5c-0.1,0-0.1-0.1-0.2-0.1c-0.1,0.1,0.1,0.1,0.1,0.2
	c-0.1,0.1-0.1,0.3-0.2,0.3c0.1-0.2-0.1-0.3,0-0.4c-0.2,0.1-0.2,0-0.4-0.1c0-0.1,0-0.2-0.1-0.2c-0.1,0.1,0,0.2,0,0.3
	c-0.1,0-0.1,0.1-0.2,0.1c-0.5-0.2-1.3-0.1-1.9-0.1c-0.1,0-0.1-0.2-0.2-0.2c-0.1,0.1,0,0.2,0,0.2c-1.1,0.2-1.9,0.7-2.5,1.3
	c-0.1-0.3-0.4-0.3-0.6-0.6c-0.3,0-0.4-0.1-0.5-0.3c-0.2-0.2-0.3-0.3-0.5-0.5c0,0.4,0.4,0.7,0.7,1h0.2c0.1,0.1,0.2,0.2,0.3,0.3
	c0,0.2,0.1,0.3,0.1,0.5c0,0.2-0.2,0.4-0.2,0.6c-0.1,0.6,0,1.2,0.3,1.6c0,0.2-0.1,0.3-0.2,0.4c0.1,0,0.2-0.2,0.3-0.2
	c0.1,0.2,0.3,0.4,0.6,0.6c0.1,0.1,0.2,0.2,0.3,0.2c0.4,0.2,1,0.1,1.5,0.2c0.1,0-0.1,0.1-0.1,0.2c-0.2,0.2-0.5,0.3-0.7,0.5
	c-0.1-0.1,0.1-0.1,0-0.2c-0.1-0.1-0.2,0.2-0.2,0.3c-0.5,0.2-1.1,0.3-1.6,0.3c-0.2,0-0.5,0-0.7-0.1c-0.1,0-0.2-0.1-0.3-0.2
	c-0.1,0-0.2-0.1-0.3-0.1c-0.1-0.1-0.2-0.2-0.3-0.2c-0.1-0.1-0.3-0.1-0.3-0.2c0-0.3,0.1-0.5,0.3-0.7c-0.2,0-0.4,0.3-0.5,0.5
	c-0.3-0.1-0.5-0.3-0.7-0.6c-0.6-0.6-1-1.6-1.1-2.7c0-0.1,0-0.1,0-0.2c0-0.6,0.1-1.3,0.4-1.7c0.2-0.1,0.4,0,0.6-0.1
	c0.1,0,0.2-0.1,0.3-0.1c0.4-0.1,0.8,0.1,1.2,0.1c0-0.1-0.1-0.1-0.2-0.1c-0.3-0.1-0.9-0.1-1.2,0c-0.2,0-0.4,0-0.6,0
	c0.2-0.6,0.7-1.1,1.1-1.6c0.1-0.2,0.3-0.3,0.4-0.5c0.2-0.1,0.4-0.3,0.6-0.4c0.3-0.2,0.6-0.3,0.7-0.6c-0.2,0-0.4,0.1-0.5,0.2
	c-0.1,0.1-0.3,0.2-0.4,0.3c-0.3,0.3-0.7,0.6-1,0.9c-0.1-0.2-0.3-0.2-0.6-0.2c0,0.2,0.2,0.1,0.3,0.2c0,0.1,0,0.2,0.1,0.2
	c-0.9,1-1.5,2.2-1.5,4c0.1,1.3,0.7,2.4,1.4,3c0.1,0.1,0.3,0.2,0.4,0.3c0.2,0.2,0.5,0.2,0.5,0.6c0,0.1,0.1,0.1,0.1,0.2
	c0,0.1,0,0.1,0,0.3c0.1-0.3,0-0.4,0-0.7c0.5,0.3,1.1,0.5,1.9,0.6c0.5,0,0.9-0.2,1.3-0.3c0,0,0.1,0,0.1,0c0.5-0.2,1-0.5,1.3-0.7
	c-0.2,0.4-0.2,0.9-0.5,1.1c0-0.1,0-0.2-0.1-0.2c0,0.7-0.8,1.1-1.4,1.4c-0.2,0.1-0.4,0.2-0.6,0.2c-0.2,0.1-0.5,0.2-0.6,0.2
	c-0.1,0-0.3,0-0.4,0C18.9,17.6,19,17,18.6,17c-0.1-0.1,0-0.3-0.1-0.3c-0.1,0.3,0.2,0.4,0.4,0.6c0,0.2,0.1,0.3,0.1,0.4
	c-1.1,0-2-0.4-2.8-0.8c-0.4-0.2-0.7-0.4-1-0.7c-0.1-0.1-0.3-0.3-0.4-0.5c-0.1-0.2-0.3-0.3-0.4-0.5c-0.1-0.1-0.3-0.5-0.3-0.6
	c0-0.4,0.2-0.5,0.3-0.8c-0.2,0-0.3,0.3-0.4,0.5c-0.3-0.4-0.5-1-0.5-1.7c-0.2,0.1-0.2,0.6-0.2,1c-0.2,0-0.2-0.1-0.3-0.1
	c-0.1,0,0,0.1-0.1,0.1c-0.2,0-0.2-0.2-0.3-0.2c-0.1,0.1,0,0.2,0,0.2c-0.2,0-0.3-0.2-0.3-0.3c-0.1,0,0,0.2-0.1,0.2
	c-0.2,0-0.3-0.1-0.3-0.3c0.2,0,0.4,0,0.5-0.1c-0.3,0-0.7-0.1-1-0.1c0.2-0.2,0.4-0.2,0.7-0.4c0.2-0.2,0.3-0.4,0.5-0.6
	c0.3-0.4,0.6-0.7,0.9-1.2c0.2-0.3,0.4-0.7,0.5-1.1c0.1-0.4,0.3-0.7,0.4-1.2c0.2-0.4,0.3-0.7,0.6-0.9c0.3,0,0.5-0.1,0.6-0.2
	c-0.2-0.1-0.5,0.1-0.7,0c0-0.3,0.2-0.6,0.3-0.8c0.2-0.3,0.3-0.5,0.5-0.7c0.3,0.2,0.8-0.1,0.7-0.5c0.4-0.4,1.1-0.9,1.7-1.2
	c0.3-0.1,0.7-0.3,1.2-0.2c0.2,0.1,0.4,0.4,0.7,0.4c0.1,0,0.3,0,0.4,0c0.1,0,0.2,0.2,0.4,0.2c0.1,0.1,0.1,0.2,0.1,0.3
	c-0.2,0.2-0.3,0.5-0.5,0.6c-0.1,0.1-0.4,0.1-0.4,0.4c0.2,0.1,0.4-0.1,0.5-0.2c0.6-0.1,1.2-0.1,1.5,0.2c-0.1-0.2-0.2-0.3-0.4-0.3
	c0-0.2,0.3-0.2,0.3-0.4c0.6,0,1.1-0.3,1.7-0.4c0.2,0,0.5,0,0.7-0.2c-0.1-0.2-0.4-0.1-0.6-0.1c-0.4,0.1-0.8,0.2-1.2,0.3
	c-0.3,0.1-0.7,0.1-0.9,0.2c-0.2-0.1-0.3-0.1-0.6-0.2c0-0.2-0.1-0.3-0.3-0.4c-0.3,0-0.4-0.2-0.7-0.1c-0.4-0.2-0.6-0.5-1.3-0.5
	c0.1-0.1,0.4-0.2,0.6-0.3C19.7,3.2,20.3,3,21,2.7c0.4-0.1,0.9-0.3,1.3-0.4c1.2-0.3,2.8-0.4,4.2-0.3c0.6,0.1,1.5,0.5,2.1,0.6
	c0.2,0,0.3,0,0.4,0.1c0.1,0,0.2,0.2,0.3,0.2c0.1,0,0.2,0,0.3,0.1c0.1,0.1,0.3,0.2,0.4,0.4c0.4,0.4,0.9,0.7,1.3,1
	c0.4,0.4,0.6,0.8,0.9,1.2c-0.1,0.2-0.4,0.4-0.4,0.8c-0.1,0.1-0.2,0.2-0.2,0.4c-0.3,0.3-0.6,0.5-1,0.6c-0.1-0.1-0.2-0.2-0.2-0.3
	c-0.1-0.1-0.1-0.2-0.2-0.3c-0.2-0.3-0.6-0.5-1-0.7c-0.2-0.1-0.3-0.3-0.5-0.3c-0.1,0-0.2-0.1-0.3-0.1c-0.2-0.1-0.4-0.1-0.6-0.2
	c-0.3-0.1-0.6-0.3-0.9-0.4c-0.2-0.1-0.4-0.2-0.6-0.2c-0.4-0.1-0.8-0.1-1.2-0.1c0,0.1,0.2,0.1,0.3,0.1c0.3,0.2,0.6,0.2,1,0.3
	c0.3,0.1,0.6,0.2,0.9,0.3c0.1,0.1,0.3,0.1,0.4,0.2c0.2,0.1,0.5,0.3,0.7,0.4c0.1,0.1,0.3,0.1,0.4,0.1c0.2,0.1,0.4,0.3,0.6,0.4
	c-0.3,0.6-1.1,0.8-1.3,1.5c0.2,0,0.2-0.2,0.3-0.3c0.1-0.1,0.2-0.3,0.3-0.4c0.3-0.2,0.7-0.3,0.8-0.6c0.2,0.1,0.3,0.2,0.5,0.4
	C29.9,7.1,30,7.2,30,7.3c0.1,0.1,0.3,0.2,0.4,0.3c0,0,0.2,0.4,0.2,0.5c0,0.1,0,0.2,0.1,0.3c0.1,0.3,0.2,0.7,0.3,1
	c0.1,0.4,0.3,0.8,0.3,1.3c0,0.1,0,0.4,0,0.5c0,0.2-0.4,0.4-0.4,0.6c0,0.1,0.1,0.1,0.1,0.2c0.1,0.2,0.1,0.4,0.2,0.5
	c-0.1,0.4-0.2,0.7-0.2,1.1c-0.3,0-0.5,0.1-0.6,0.3c0.1,0.1,0.3-0.2,0.5-0.1c-0.3,0.8-0.6,1.5-1,2.2c-0.1,0-0.2,0-0.3,0.1
	c0,0.1,0.1,0.1,0.1,0.1c-0.5,0.8-0.9,1.6-1.6,2.2c-0.3-0.1-0.6,0.1-0.9,0.1c0.2,0.1,0.5,0,0.7,0.1c0.1,0,0,0.1-0.1,0.1
	c-0.2,0.3-0.4,0.5-0.7,0.8c-0.1,0.1-0.2,0.2-0.3,0.3c-0.1,0.1-0.4,0.2-0.6,0.3c-0.5,0.3-1.1,0.6-1.5,0.9c0,0,0-0.1-0.1-0.1
	c0,0,0,0.2,0.1,0.1c-0.5,0.4-0.9,1-1.3,1.6c-0.2,0.2-0.3,0.5-0.4,0.9c-0.1,0-0.1-0.1-0.1-0.2c0-0.1,0.1-0.3,0.1-0.5
	c0.1-0.3,0.4-0.7,0.6-1.1c0.2-0.4,0.5-0.8,0.7-1.1c0.1-0.1,0.2-0.2,0.3-0.3c0.1-0.1,0.4,0,0.4-0.2c-0.1-0.1-0.3,0-0.4,0
	c0.3-0.5,0.7-1,0.8-1.6c0.1-0.1,0.2-0.2,0.3-0.3C26.4,18.6,26.6,18.4,26.8,18.4z M20.7,5.4h-0.1c0,0,0-0.1,0.1-0.1
	C20.7,5.3,20.7,5.4,20.7,5.4z M20.7,5.2c0.1,0,0.1,0.1,0.1,0.1C20.7,5.3,20.7,5.3,20.7,5.2z M20.9,5c0.1,0,0.1,0.1,0.1,0.2
	C20.9,5.2,20.8,5.1,20.9,5z M21,5.1C21.1,5.1,21.1,5.1,21,5.1C21.1,5.2,21,5.1,21,5.1z M23.7,21.1c0.2-0.4,0.4-0.9,0.5-1.3
	c0.4-0.7,0.5-2.1,1.1-2.8c0.1-0.2,0.6-0.7,0.7-0.2c0,0.1-0.1-0.1-0.2-0.1c0,0.2,0.2,0.5,0.1,0.8c-0.1-0.1-0.1-0.4-0.2-0.4
	c0,0.3,0.1,0.6,0,0.8c0,0.1,0,0.2,0,0.1c0-0.2,0-0.4-0.1-0.5c-0.1,0.3-0.1,0.8-0.1,1.1c0,0.2-0.1,0.4-0.2,0.6c0-0.3,0.2-0.7,0.1-1.1
	c-0.1,0.1-0.1,0.2-0.1,0.3c-0.1,0.4-0.2,0.7-0.3,1.1c-0.1,0,0-0.1-0.1-0.1c-0.2,0.3-0.1,0.7-0.3,1c0-0.1,0.1-0.3,0.1-0.4
	c-0.3,0.2-0.2,0.9-0.6,1c-0.1,0.6-0.6,1.2-0.9,1.7c-0.1,0.3-0.3,0.6-0.4,0.8c-0.3,0.5-0.5,1-1,1.2c0.5-0.7,1-1.5,1.3-2.3
	C23.4,21.9,23.5,21.5,23.7,21.1z M11.5,42.1c0-0.1,0.1-0.3,0.1-0.4c0-0.2,0-0.4,0-0.5c0.1-0.2,0.2-0.3,0.3-0.4c0,0,0,0,0,0
	c0,0.8-0.3,1.5-0.2,2.4c0,0.3,0.1,0.6,0.1,0.9c-0.2,0.2-0.3,0.3-0.4,0.6C11.4,43.9,11.4,42.9,11.5,42.1z M17,57.5
	c-0.2-0.1-0.1-0.3,0-0.5C17.2,57.1,17.1,57.4,17,57.5z M16.9,57.1c-0.1-0.1-0.1-0.2-0.1-0.3c0.1-0.1,0.1-0.2,0.2-0.4
	C17.1,56.5,16.9,56.9,16.9,57.1z M16,49.4c0.1,0,0.2-0.2,0.2-0.3c0.1,0.4,0,0.8,0.1,1.2c0,0.2,0.1,0.4,0,0.6
	c-0.1,0.3-0.4,0.5-0.4,0.8c0.1,0.1,0.1-0.1,0.1-0.2c0.1-0.1,0.2-0.2,0.3-0.3c0.1,0.7,0.1,1.4,0.2,2.1c0,0.3,0.1,0.5,0.1,0.8
	c0,0.1-0.1,0.2-0.1,0.4c0.1,0,0.1-0.1,0.2-0.1c0,0.3,0.1,0.5,0.1,0.8c-0.1,0.1-0.1,0.2-0.2,0.3c0.1,0,0.1-0.2,0.2-0.1
	c0,0.2,0.1,0.4,0.1,0.6c0,0.2-0.2,0.4-0.2,0.6c-0.2-0.2,0-0.6,0.1-0.8c-0.2,0-0.1,0.2-0.3,0.2c0-0.1-0.1-0.2-0.1-0.4
	c0-0.2,0.1-0.5,0.2-0.7c-0.2-0.1-0.2,0.2-0.3,0.3c-0.1-0.4-0.2-0.8-0.2-1.3c-0.3-0.5-0.3-1.3-0.4-1.9c0-0.1,0.1-0.1,0.1-0.2
	c0-0.1-0.1,0-0.2,0c0-0.4-0.2-0.7-0.2-1.1c0-0.2,0.1-0.4,0.1-0.6c0-0.1-0.1-0.2-0.1-0.4c0-0.1,0.1-0.4,0.1-0.5c0,0,0.1,0,0.1-0.1
	c0-0.1,0-0.1,0-0.1c0.1-0.2,0.3-0.4,0.4-0.6C16.3,48.9,16.1,49.2,16,49.4z M13.1,44.5c-0.1,0.1-0.2-0.1-0.3,0c0,0.3,0.3,0.4,0.4,0.6
	c0.2,0.7,0.5,1.3,1,1.7c-0.1,0.1-0.3,0.2-0.3,0.3c0.1,0,0.3-0.1,0.4-0.1c0.6,0.4,1,0.9,1.6,1.2c-0.2,0.3-0.2,0.7-0.4,1
	c0,0.1-0.1,0.1-0.2,0.2c-0.1,0.1-0.1,0.3-0.2,0.4c-0.2,0-0.3-0.1-0.5-0.3c-0.1-0.1-0.2-0.2-0.2-0.3c-0.1-0.2-0.2-0.4-0.3-0.6
	c-0.2-0.2-0.4-0.2-0.5-0.4c0.1,0.4,0.4,0.6,0.6,0.8c0.2,0.3,0.4,0.5,0.7,0.7c0,0.3,0.1,0.5,0.3,0.5c0,0.5,0.2,1.1,0.2,1.6
	c-0.2-0.1-0.3-0.2-0.6-0.3c0,0.1,0.2,0.1,0.3,0.2c0,0.1,0.1,0.1,0.1,0.2c0,0,0.2,0,0.2,0.1c0,0.5,0.1,1,0.2,1.5
	c0.2,1.3,0.4,2.6,0.9,3.7c-0.4-0.4-0.8-0.8-1.2-1.2c-0.2-0.3-0.4-0.6-0.7-0.9c-0.6-0.9-1.2-2-1.6-3.1c0-0.3,0.1-0.7,0.1-0.9
	C13,51.3,13,51.5,13,51.7c-0.1-0.2-0.2-0.6-0.4-0.9c-0.1-0.3-0.3-0.7-0.3-1c0-0.3,0.3-0.3,0.5-0.5c-0.2-0.2-0.5,0.2-0.6,0.2
	c0-0.2-0.1-0.4-0.2-0.6c-0.1-0.2-0.2-0.3-0.2-0.5c0-0.2,0-0.4-0.1-0.6c0-0.2-0.2-0.4-0.2-0.7c0-0.2,0-0.5-0.1-0.8
	c0-0.3-0.1-0.5-0.1-0.8c0-0.4,0.1-0.7,0.2-1.1c0.1,0,0.2-0.2,0.3-0.2c0,0.3,0.1,0.6,0.2,0.8c0,0.1,0.1,0.2,0.1,0.3
	c0,0.1,0,0.2,0,0.3c0,0.1,0.1,0.1,0.1,0.2c0.1,0.2,0.1,0.5,0.2,0.8c0.1,0.1,0.1,0.2,0.2,0.3c0,0.3-0.1,0.6,0.1,0.8
	C13,48,13.3,48,13.5,48c0.1-0.1,0.1-0.3,0.1-0.5c0.1-0.1,0.2-0.2,0.3-0.4c-0.1,0.1-0.2,0.1-0.3,0.2c-0.2-0.2-0.4-0.4-0.7-0.5
	c-0.3-0.8-0.7-1.5-0.8-2.5c0.3-0.2,0.4,0.2,0.7,0.1c-0.3-0.1-0.4-0.4-0.7-0.3c0.1-0.7-0.1-1.5,0-2.2c0.1-0.6,0-1.3,0.1-1.9
	c0.1,0,0.1,0,0.2,0.1c0.3,0.3,0.2,1,0.2,1.6C12.7,42.8,12.9,43.7,13.1,44.5z M15.3,50.2c-0.2,0-0.2-0.2-0.2-0.3c0.1,0,0.1,0,0.2,0.1
	C15.3,50,15.3,50.1,15.3,50.2z M13.2,47.8c-0.1,0-0.2-0.1-0.3-0.1c0-0.1,0-0.1,0-0.2C13.1,47.6,13.2,47.7,13.2,47.8z M13,47.4v-0.1
	C13.1,47.3,13.1,47.3,13,47.4L13,47.4z M13.2,47.5c0-0.1,0.1,0,0.1,0C13.3,47.6,13.3,47.5,13.2,47.5z M15.7,35.8
	c0.2,0,0.2,0.3,0.3,0.4C15.8,36.3,15.7,35.9,15.7,35.8z M16.5,35.4c-0.4,0.1-1,0.2-1.2,0.5c0,0.1,0.2,0,0.3,0c0,0.1,0.1,0.1,0.1,0.2
	c-0.3-0.1-0.7,0-0.9,0.1c0-0.2,0.3-0.4,0.5-0.6c0.5-0.2,1-0.5,1.6-0.6C16.8,35.2,16.6,35.3,16.5,35.4z M16.8,35.4
	c0-0.2,0.2-0.2,0.2-0.3c0.3,0,0.7,0,1,0c-0.1,0.2-0.3,0.3-0.5,0.4C17.3,35.4,17.1,35.4,16.8,35.4z M19,37.9c0.1,0.1-0.1,0.2-0.1,0.3
	C18.8,38.1,19,38,19,37.9z M19.1,37.4c0.1,0.2-0.1,0.3-0.2,0.3C18.8,37.6,19.1,37.6,19.1,37.4z M20.2,36.1c0,0.1-0.2,0-0.1,0.1
	c0,0.1,0.1,0,0.1,0.1c0,1.1-0.5,1.6-0.8,2.4c-0.2,0.1-0.3,0.3-0.4,0.5c0.2-0.7,0.6-1.4,0.4-2.4c-0.1-0.4-0.3-0.8-0.4-1.2
	c-0.1,0-0.1-0.1-0.1-0.1c0,0.2,0.2,0.4,0.2,0.7c0.1,0.3,0.1,0.8,0.1,1.2c-0.1,0-0.2,0-0.2,0.1c-0.2-0.2,0.2-0.3,0.1-0.6
	c-0.1,0-0.1,0.1-0.2,0.1c-0.2-0.2,0-0.4,0.1-0.6c-0.1-0.1-0.2,0.1-0.2,0.2c-0.3-0.2,0.1-0.4,0.1-0.6c-0.2,0-0.1,0.2-0.3,0.2
	c0-0.1-0.1-0.1-0.1-0.2c0.1,0,0.1-0.1,0.2-0.2c-0.1-0.1-0.2,0-0.3,0.1c-0.1,0-0.1-0.1-0.1-0.1c0-0.1,0.1-0.1,0.1-0.2
	c-0.1-0.1-0.1,0.1-0.2,0.1c-0.1-0.1-0.2-0.2-0.3-0.2c0.1-0.2,0.2-0.4,0.5-0.4c0.2,0,0.2,0.2,0.4,0.2c0-0.2-0.2-0.2-0.3-0.3
	c0.1,0,0.4,0.1,0.6,0.1c0.4-0.3-0.3-0.6-0.5-0.8c-0.1-0.2-0.4-0.1-0.5-0.3c0.4,0,0.7,0.1,1,0.2c0.1,0,0.3,0,0.4,0.1
	c0-0.2-0.2-0.2-0.3-0.3c0.3-0.1,0.5,0.2,0.7,0.3c0.1-0.1,0-0.2-0.1-0.2c0.1-0.1,0.1,0.1,0.2,0c0.1,0.3,0.2,0.4,0.3,0.7
	C20.2,35.2,20.2,35.6,20.2,36.1z M15.1,34.1c0.3-0.1,0.5-0.3,0.8-0.4c0.2-0.1,0.4-0.1,0.6-0.1c0.3-0.1,0.6-0.2,1-0.3
	c0.1,0,0.3,0,0.4,0c0.2,0,0.3-0.1,0.5-0.1c0.4,0,0.9,0.2,1.3,0.2c0.5,0,1.2,0.1,1.6-0.1c-0.1,0.6-0.5,0.9-1,1
	c0.1-0.1,0.3-0.1,0.3-0.2c0-0.1-0.3,0-0.4-0.1c0.1-0.1,0.3-0.1,0.4-0.1c0.2-0.1,0.3-0.2,0.5-0.3c-0.1-0.1-0.4,0-0.6,0
	c-0.2,0-0.4,0.1-0.6,0.1c-0.2,0-0.5-0.1-0.8-0.2c-0.4,0-0.8,0-1.2,0.1c-0.2,0-0.3,0.1-0.5,0.2c-0.2,0-0.5-0.2-0.7,0.1
	c0.6,0.2,1.1,0.4,1.5,0.7c-1.2,0-2.2,0.2-3,0.7c-0.1,0.1-0.2,0.2-0.4,0.2c-0.1,0.3-0.5,0.5-0.5,1c0,0.2,0,0.3,0.1,0.5
	c0,0.1-0.1,0.1-0.2,0.2c-0.1,0,0-0.1,0-0.1c-0.2,0,0,0.1-0.1,0.2c-0.9,0.6-1.3,1.7-1.5,3c0,0.1-0.1-0.1-0.2-0.1h-0.2
	c0-0.1,0.1-0.4,0-0.4C12,39.7,12,39.8,12,39.9c0,0.2,0,0.4-0.1,0.7c-0.1,0.1-0.2,0.2-0.3,0.3c0-0.4,0.1-0.8,0.2-1.2
	c0-0.1,0-0.3,0-0.4c0-0.1,0.1-0.3,0.1-0.4c0-0.2,0-0.3,0.1-0.5c0.1-0.3,0.2-0.7,0.4-1c0.3-0.6,0.7-1.1,1.1-1.7
	c0.2-0.3,0.4-0.6,0.6-0.8c0.1-0.1,0.1-0.1,0.2-0.1c0.1-0.1,0.1-0.1,0.2-0.2C14.7,34.4,14.9,34.3,15.1,34.1z M13.5,34.8
	c0,0.1,0,0.4-0.1,0.5C13.4,35.2,13.5,35,13.5,34.8z M23.4,28.1C23.4,28.1,23.4,28.1,23.4,28.1c0.1-0.1,0.2,0,0.3,0
	C23.6,28.2,23.5,28.1,23.4,28.1z M39.5,33.9c-0.6-0.2-1.1-0.6-1.6-0.9c-0.3-0.2-0.5-0.3-0.8-0.5c-0.2-0.2-0.5-0.3-0.7-0.5
	c-0.2-0.1-0.2-0.3-0.4-0.4c0-0.1-0.1-0.2-0.1-0.3c0-0.1-0.1,0-0.1,0c-0.1-0.1-0.1-0.4-0.2-0.6c-0.1,0-0.1,0.2-0.1,0.2
	c-0.1-0.1,0-0.5-0.2-0.6c-0.1,0.1,0,0.3-0.1,0.5c-0.1-0.2,0-0.4-0.1-0.6c0-0.1-0.1-0.2-0.2-0.3c-0.1-0.1,0-0.3-0.2-0.3
	c-0.1,0.2,0.1,0.5,0.1,0.7c-0.1,0.4,0,1-0.3,1.3c0,0.1-0.2,0.1-0.3,0.2c-0.2,0.1-0.3,0.3-0.6,0.3c-0.2,0-0.4,0-0.6,0
	c-0.2,0-0.5-0.1-0.7-0.2c0.4,0,0.6-0.3,0.8-0.6c0.3-0.3,0.5-1,0.3-1.6c0,0,0,0,0-0.1c-0.2-0.4-0.2-0.7-0.5-0.9
	c0,0.1,0.1,0.2,0.1,0.4c0.1,0.2,0.1,0.5,0.2,0.6c0,0.1,0,0.2,0,0.3c-0.1-0.1-0.1-0.3-0.2-0.4c0-0.5-0.3-0.7-0.6-0.9
	c0,0.2,0.2,0.3,0.3,0.5c0,0.1-0.2-0.2-0.3-0.2c-0.1-0.2-0.2-0.3-0.4-0.4c0,0,0,0.1,0,0.1c0,0,0,0,0,0c0,0,0,0,0,0
	c-1-0.5-2.6-0.9-4.1-0.7c-0.1-0.1,0-0.2-0.1-0.2c-0.1,0,0,0.2-0.1,0.2c-0.1-0.1-0.1-0.2-0.2-0.2c-0.1,0.1,0.1,0.2-0.1,0.3
	c-0.1,0-0.1-0.2-0.1-0.2c-0.1,0-0.1-0.1-0.2-0.1c-0.1,0.1,0.2,0.2,0.1,0.4c-0.1,0-0.2-0.3-0.3-0.4c-0.1,0-0.2-0.1-0.3-0.1
	c0.1,0.2,0.3,0.3,0.4,0.6c-0.1,0.1-0.1,0.1-0.2,0.2c-0.2-0.4-0.5-0.6-0.8-0.8c0.1,0.3,0.6,0.5,0.6,0.9c-0.1,0.1-0.1-0.1-0.2-0.2
	c-0.4-0.5-0.9-0.8-1.5-1.1c0,0.2,0.3,0.2,0.4,0.3c0.1,0,0.2,0.2,0.3,0.3c0.2,0.2,0.4,0.5,0.6,0.8c0.2,0.3,0.4,0.5,0.4,0.7
	c0.1,0.2,0.1,0.5,0.1,0.8c0,0.2,0.1,0.4,0.1,0.5c0,0.1-0.1,0.2-0.1,0.4c-0.1,0.3-0.1,0.5-0.3,0.7c-0.1,0,0-0.2-0.1-0.2
	c0,0.1-0.1,0.3-0.1,0.5c-0.4,0.7-2,1-2.7,0.5c0-0.1-0.1-0.3-0.2-0.4c-0.1,0,0,0.1-0.1,0.1c-0.3-0.2-0.4-0.8-0.2-1.1
	c0,0.2,0.2,0.3,0.3,0.4c0.2-0.2-0.1-0.4,0-0.7c0.1-0.1,0.3-0.2,0.4-0.1c0,0.2-0.3,0.1-0.3,0.4c0.2,0.1,0.2-0.2,0.4-0.1
	c0.1,0-0.1,0.1-0.1,0.2c-0.1,0.1-0.1,0.2-0.1,0.2c0.2,0.1,0.3-0.1,0.4-0.2c0,0.1-0.1,0.2-0.1,0.4c0.2-0.1,0.3-0.3,0.6-0.4
	c-0.1,0.1-0.2,0.2-0.3,0.4c0.2,0,0.4-0.3,0.6-0.4c0,0.2-0.2,0.3-0.4,0.4c-0.2,0.1-0.5,0.1-0.8,0.2c0.1,0.2,0.5,0.2,0.7,0.1
	c0.1,0,0.1-0.1,0.2-0.1c0.1,0,0.1,0,0.2-0.1c0.3-0.2,0.6-0.5,0.7-0.8c0.1,0,0.2,0.1,0.2,0c0-0.1,0-0.1-0.1-0.1
	c0.1-0.1,0.2-0.1,0.2-0.3c-0.1-0.1-0.1,0.1-0.2,0.1c-0.2,0-0.3,0-0.5-0.1c0.1-0.1,0.2-0.3,0.3-0.4c0-0.8-0.4-1.2-0.9-1.5
	c0-0.1,0.2,0.1,0.2,0c-0.1-0.1-0.2-0.2-0.3-0.3c-0.1-0.1-0.2-0.2-0.3-0.3c-0.3-0.2-0.8-0.3-1.1-0.6c-0.3-0.1-0.7-0.2-1-0.3
	c-0.1,0.1-0.6,0-0.7,0.2c0.3,0.1,0.6,0,0.9,0.1c0.1,0,0.1,0.1,0.2,0.1c0.3,0.1,0.4,0.1,0.5,0.3c0,0,0.1,0.3,0.1,0.4
	c0,0.3-0.4,0.5-0.9,0.4c-0.3,0-0.5-0.2-0.8-0.3c-0.2,0-0.5-0.1-0.7-0.1c-0.7,0-1.1,0.1-1.7,0.3c-0.4,0.1-0.7,0.3-1,0.6
	c-0.8,0.6-1.6,1.3-2.2,2.1c-0.4,0.5-0.7,1.1-1,1.8c0,0.1-0.1,0.3-0.1,0.4c0,0.2-0.1,0.3-0.1,0.6c-0.3,0.1-0.4,0.3-0.6,0.5
	c0.1-0.7,0.3-1.3,0.6-1.9c0.2-0.6,0.6-1.1,0.9-1.6c-0.1-0.1-0.2,0.1-0.3,0.1c0.2-0.4,0.5-0.6,0.7-1.1c-0.1,0-0.2,0.1-0.3,0.2
	c-0.1,0.1-0.2,0.3-0.3,0.4c-0.3,0.4-0.6,0.8-0.8,1.3c-0.3,0.6-0.5,1.4-0.8,2.2c0,0.1,0,0.1,0,0.2c0-0.1,0,0.1-0.1,0
	c0.1-0.4,0.1-0.7,0.2-1.1c-0.1,0-0.1,0.2-0.1,0.3c-0.2,0.4-0.4,1.1-0.4,1.6c0,0.1,0,0.3-0.1,0.4c0-0.4,0.1-0.9,0.1-1.3
	c-0.1,0.2-0.3,0.4-0.3,0.7c0,0.2-0.1,0.4-0.1,0.6c0,0.3,0,0.5-0.2,0.6c0-0.3,0.1-0.6,0.1-0.9c0-0.3,0.1-0.6,0.2-0.8
	c0.1-0.3,0.1-0.6,0.2-0.8c0-0.1,0.1-0.2,0.2-0.3c0.5-1.1,0.9-2.2,1.4-3.3c0.1,0,0,0.2,0.1,0.2c0.2-0.1,0-0.3,0.1-0.5
	c0-0.2,0.2-0.4,0.3-0.6c0.3-0.5,0.6-0.9,0.9-1.3c0.1,0.1,0,0.4,0.1,0.5c0.2-0.1,0.1-0.4,0.1-0.6c0-0.3,0.4-0.7,0.6-0.9
	c0.1-0.1,0.2-0.3,0.3-0.4c0.2-0.3,0.4-0.5,0.7-0.8c0.3-0.3,0.7-0.7,1-1c0.4-0.5,0.9-1,1.3-1.4c0.5-0.4,1-0.8,1.5-1.2
	c0.5-0.4,1.1-0.8,1.6-1.1c0,0.2-0.2,0.3-0.3,0.3c-0.7,0.4-1.2,0.9-1.8,1.4c-0.4,0.3-0.9,0.6-1.2,1.1c0.3-0.3,0.7-0.5,1.1-0.8
	c0.6-0.5,1.3-1,2-1.5c0,0.1-0.1,0.1-0.1,0.1c-0.9,0.8-2.1,1.5-2.9,2.5c0.9-0.7,1.8-1.4,2.8-2c-0.8,0.6-1.7,1.2-2.4,1.9
	c0.2,0,0.3-0.1,0.5-0.2c0.1-0.1,0.3-0.2,0.4-0.3c0.4-0.2,0.8-0.5,1.2-0.8c0,0.1-0.1,0.2-0.2,0.2c-0.2,0.2-0.5,0.3-0.8,0.6
	c-0.1,0.1-0.2,0.2-0.3,0.3c-0.1,0.1-0.2,0.2-0.3,0.3c0.2,0,0.4-0.2,0.6-0.4c0.2-0.1,0.4-0.3,0.6-0.4c-0.1,0.2-0.3,0.3-0.4,0.4
	c-0.2,0.1-0.4,0.2-0.5,0.4c0.2,0,0.4-0.2,0.6-0.3c0,0.2-0.2,0.2-0.3,0.2c-0.3,0.2-0.6,0.5-0.8,0.7c0.2,0,0.4-0.3,0.7-0.3
	c-0.3,0.4-0.9,0.9-1.3,1.3c-1,0.9-2.1,1.8-2.9,2.9c0.3,0.1,0.4-0.2,0.6-0.3c0.2-0.2,0.3-0.3,0.4-0.5c0.5-0.5,1-0.9,1.5-1.3
	c0.1-0.1,0.2-0.2,0.2-0.2c0.1-0.1,0.2-0.1,0.3-0.2c0.3-0.2,0.5-0.4,0.8-0.6c0.3-0.2,0.7-0.4,1-0.7c0.5-0.3,1-0.6,1.6-0.8
	c0.4-0.2,0.6-0.4,1.1-0.4c0.1,0,0-0.1,0-0.1c0.6-0.2,1.4-0.5,2.1-0.7c0.2,0,0.3-0.1,0.5-0.2c0.3-0.1,0.7-0.1,1.1-0.1
	c0.2,0,0.4-0.1,0.6-0.1c0.2,0,0.4,0,0.6-0.1c0.1,0,0.2-0.1,0.3-0.1c0.3,0,0.7,0,1-0.1c0.2,0,0.4-0.1,0.6-0.1c0.1,0,0.1,0,0.2,0
	c0,0,0-0.1,0.1-0.1c-0.3-0.2-0.8,0-1.1-0.1c0.2-0.2,0.5-0.2,0.7-0.3c-0.1-0.2-0.6-0.1-0.7,0c0.1-0.1,0.3-0.1,0.3-0.2
	c0-0.1-0.1-0.1-0.2-0.1c0.1-0.2,0.5-0.1,0.7-0.2c0-0.2-0.2-0.1-0.3-0.1c0.1-0.2,0.4,0,0.5,0c0.2,0,0.4,0,0.6,0.1
	c0.2,0.1,0.5,0.3,0.6,0.3c0.1,0.1,0.2,0.5,0.2,0.8c0,0.1-0.2,0.3-0.2,0.3c-0.1,0.1-0.5,0.2-0.7,0.3C32,22.9,31.8,23,31.3,23
	c-0.3,0-0.7,0.1-1,0.1c-0.6,0-1.1,0.1-1.7,0.2c-0.3,0-0.5,0.1-0.8,0.1c-0.1,0-0.2,0-0.3,0c-0.2,0-0.4,0.1-0.5,0.1
	c-0.2,0-0.5,0-0.7,0.1c-0.1,0-0.2,0.1-0.2,0.1c-0.2,0.1-0.5,0-0.7,0.1c-0.1,0-0.1-0.2-0.3-0.2c-0.1,0.1,0.1,0.1,0,0.3
	c-1.8,0.5-3,1.6-4.2,2.7c0-0.2,0.3-0.4,0.3-0.6c-0.3,0.1-0.5,0.5-0.8,0.7c-0.1,0.1-0.2,0.1-0.3,0.2c-0.1,0.1-0.2,0.2-0.3,0.3
	c-0.2,0.2-0.5,0.3-0.7,0.4c-0.5,0.4-1,0.8-1.5,1.2c0.3-0.1,0.5-0.3,0.7-0.5c0.9-0.6,2-1,2.8-1.6c0.7-0.1,1.3-0.4,1.9-0.5
	c0.8-0.2,1.6-0.3,2.5-0.4c0.3,0,0.7-0.1,1-0.1c0.6,0,1.2,0,1.8,0.1c0.2,0,0.4,0.1,0.5,0.1c0,0,0.1,0.1,0.1,0.1c0.1,0,0.2,0,0.3,0
	c0.1,0,0.1,0.1,0.2,0.1c0.4,0.1,0.9,0.2,1.3,0.3c0.3,0.1,0.6,0.2,0.9,0.3c0.6,0.2,1.3,0.5,1.9,0.7c0.2,0.1,0.4,0.1,0.6,0.2
	c0.1,0,0.2,0.1,0.2,0.1c0.1,0,0.2,0,0.3,0.1c0.1,0.1,0.3,0.2,0.4,0.2c1,0.4,1.9,1.1,2.8,1.6c0,0.2-0.1,0.3,0,0.4
	c0,0.1-0.1-0.1-0.2-0.1c-0.3-0.2-0.6-0.3-0.8-0.6c-0.3-0.1-0.5-0.3-0.8-0.4c0,0.2,0.3,0.3,0.4,0.5c0.2,0.1,0.4,0.3,0.5,0.5
	c-0.1,0.1-0.3,0.2-0.4,0.3c0.1,0,0.4-0.1,0.5-0.2c0.2,0.1,0.4,0.3,0.6,0.4c0.1,0.1,0.2,0.1,0.3,0.2c0.1,0.1,0.1,0.2,0.2,0.3
	c0.2,0.2,0.4,0.3,0.5,0.5c-0.1,0.1-0.2,0.1-0.2,0.2c0.1,0.1,0.3,0,0.4,0.1c0.1,0.1,0.2,0.2,0.3,0.3c0.1,0.1,0.3,0.1,0.4,0.2
	c0.3,0.2,0.5,0.5,0.9,0.6c-0.1,0.2-0.5,0.1-0.5,0.4c-0.4-0.1-0.6-0.4-1.1-0.5c-0.1-0.1-0.2-0.2-0.3-0.3c-0.1-0.1-0.3-0.1-0.3-0.2
	c-0.1-0.1-0.1-0.2-0.1-0.2c-0.1-0.1-0.3-0.2-0.4-0.3c0-0.2-0.1-0.3-0.1-0.5c-0.2-0.2-0.5-0.3-0.8-0.4c-0.1-0.2-0.3-0.3-0.3-0.5
	c0-0.1-0.1,0-0.2,0c-0.4-0.5-1-0.8-1.5-1.2c0,0.2,0.2,0.4,0.4,0.5c0.4,0.6,0.9,1.1,1.4,1.5c0,0.2,0.2,0.4,0.2,0.6
	c0.1,0,0.2,0.1,0.3,0.1c0.2,0,0.4,0,0.4,0.1c0,0.1-0.2,0-0.2,0.1c0.1,0.1,0.2,0.1,0.3,0.1c0.6,0.4,1.1,0.9,1.8,1.1
	C39.5,33.5,39.5,33.7,39.5,33.9z M22.7,25.9c-0.1-0.2,0.2-0.4,0.2-0.6C22.9,25.6,22.7,25.7,22.7,25.9z M22.4,25.9
	c-0.1-0.1,0.1-0.2,0.1-0.2C22.5,25.8,22.4,25.8,22.4,25.9z M37.6,31.9c-0.1,0.1-0.2-0.1-0.1-0.2C37.6,31.7,37.6,31.8,37.6,31.9z
	 M37.4,31.7C37.3,31.7,37.4,31.6,37.4,31.7L37.4,31.7z M37.2,31.6c0,0,0,0.1,0.1,0.2C37.1,31.8,37.2,31.6,37.2,31.6z M43.1,36.1
	c0,0.2-0.1,0.5-0.4,0.5c-0.2,0-0.2-0.4-0.2-0.6c-0.1-0.4-0.6-1.2-0.9-1.3c-0.7-0.3-1.4-0.4-2-0.7c-0.1-0.1,0.1-0.1,0-0.3
	c0.3-0.1,0.5,0.2,0.8,0.3c0.2,0.1,0.4,0.1,0.5,0.2c0.1,0,0.1,0.1,0.2,0.2c0.1,0.1,0.2,0.1,0.3,0.1c0.2,0.1,0.4,0.2,0.7,0.3
	c0.1,0.2,0.2,0.4,0.4,0.5c0-0.1,0-0.2-0.1-0.3c0.1,0,0.2,0.4,0.3,0.5c0.1-0.2,0-0.5,0-0.6C43,34.9,43.1,35.6,43.1,36.1z M43.1,34.4
	c-0.5,0.2-1,0-1.5-0.2c0-0.1-0.1-0.1-0.1-0.2c-0.2,0-0.2-0.1-0.3-0.2c-0.4-0.1-0.7-0.2-1-0.3c0.1-0.1,0-0.2,0.1-0.3
	c0.2-0.1,0.6-0.1,0.7,0c0,0.1,0,0.1,0.1,0.2c0.1,0,0.1,0,0.1-0.1c0.4,0.2,0.8,0.3,1.3,0.3c0.7-0.1,1.2-0.5,1.6-0.7
	c0,0.1-0.1,0.2-0.1,0.2c0.2,0.1,0.2-0.2,0.3-0.3c0.1-0.2,0.4-0.6,0.7-0.6C44.9,33.3,44,34.1,43.1,34.4z M49.9,31.8
	c0-0.1-0.1-0.2-0.3-0.2c0.1-0.3,0.1-0.6,0-0.9c-0.1,0.1,0,0.3-0.1,0.5c0,0.1-0.1,0.3-0.1,0.4c0,0.1-0.1,0.3-0.2,0.4
	c0,0.1,0,0.1,0,0.2c-0.1,0.2-0.3,0.3-0.4,0.5c0.2,0,0.3-0.2,0.4-0.3c0.2-0.1,0.3-0.3,0.4-0.6c0.5,0.1,0.2,0.6,0,0.9
	c-0.3,0.5-0.7,1.1-1.1,1.4c-0.1-0.2-0.1-0.4-0.1-0.6c-0.3,0-0.1,0.2-0.1,0.3c0,0.4-0.5,0.7-0.8,0.8c-0.3,0.1-0.6,0.2-1,0.3
	c0-0.1,0-0.2,0-0.3c-0.1,0.1-0.1,0.4-0.3,0.5c-0.3,0.1-0.5,0.2-0.8,0.2c0,0,0-0.1,0-0.1c-0.1,0-0.1,0.1-0.1,0.2
	c-0.5,0.1-0.9,0.1-1.3,0.1c-0.1-0.1-0.2-0.1-0.3-0.2c0.1,0,0.5,0.1,0.7,0.1c0-0.2-0.3-0.2-0.4-0.3c0.3,0,0.8,0.1,1-0.1
	c-0.2,0-0.4-0.1-0.6-0.1c0.7-0.2,1.6-0.1,1.9-0.6c-0.1-0.1-0.2,0-0.3,0c-0.2,0-0.4,0.2-0.7,0.2c-0.3,0-0.6,0-1,0
	c0.2-0.1,0.4-0.1,0.7-0.1c-0.1-0.1-0.4-0.1-0.7-0.1c0.2-0.1,0.6,0,0.8-0.2c0-0.1-0.2,0-0.3-0.1c0.8-0.1,1.4-0.2,2-0.4
	c0.5-0.2,0.7-0.6,1.1-0.8c0.1,0,0.2,0,0.4,0.1c0-0.1-0.1-0.2-0.2-0.2C48.6,32,49,31,48.9,30c0-0.3-0.2-0.6-0.1-0.9
	c0.2,0.2,0.3,0.4,0.5,0.6c0,0.1,0,0.2,0.1,0.2c0.1-0.1,0-0.3-0.1-0.4c0-0.1-0.1-0.2-0.2-0.3C49,29.1,48.9,29,49,28.8
	c0.5,0.5,0.9,1.1,1,2c0,0.1-0.1,0-0.1,0.1C50.1,31.1,49.9,31.6,49.9,31.8z"/>
</svg>
