<?xml version="1.0" encoding="utf-8"?>
<!-- Generator: Adobe Illustrator 18.0.0, SVG Export Plug-In . SVG Version: 6.00 Build 0)  -->
<!DOCTYPE svg PUBLIC "-//W3C//DTD SVG 1.1//EN" "http://www.w3.org/Graphics/SVG/1.1/DTD/svg11.dtd">
<svg version="1.1" id="レイヤー_1" xmlns="http://www.w3.org/2000/svg" xmlns:xlink="http://www.w3.org/1999/xlink" x="0px"
	 y="0px" viewBox="0 0 60 60" enable-background="new 0 0 60 60" xml:space="preserve">
<symbol  id="明るいベクトルパック_18" viewBox="-220.3 -99.8 440.6 199.6">
	<g>
		<path fill="#221F20" d="M-42.8-26.6c0.8-1.8,2.7-3,4.4-3.1c3-0.3,6.2,2.2,6.6,5.7c0.4,3.5-2.3,7.2-6.1,8c-3.8,1-8.3-1.3-10.1-5.2
			c-2.1-3.9-0.9-9.1,2.4-12.3c3.3-3.3,8.7-4.6,13.4-2.7c4.7,1.8,8.4,6.2,9.3,11.5c2.2,10.8-8.8,21.8-20.4,20.3
			c-11.7-1.1-21.2-13-20-25.3c1.1-12.3,11.7-22.9,24.2-24.9c12.2-2.1,26.6,4.3,30.7,16.7c4,12.3-1.1,25.7-9.2,34.9
			c-9.3,8.6-21.7,11.5-32.2,16.7c-10.8,4.9-20.7,11.1-28.7,18.7c-9,6.8-12.8,18.4-9.9,28c2.5,9.7,9.6,17,17,21.2
			c15.4,8.9,31.3,3.5,38.6-2.5c7.8-6,10.4-11.2,10.6-11c-0.2-0.2-2.8,4.9-10.5,11c-7.2,6.1-23.1,11.6-38.6,2.7
			c-7.4-4.2-14.5-11.4-17.2-21.2c-2.9-9.6,0.9-21.6,9.8-28.3c8-7.7,17.9-13.9,28.7-18.9C-39.6,8.3-27.2,5.3-18-3.1
			c8-9,13-22.2,9.2-34.3C-12.7-49.5-26.7-56-38.7-53.9c-12.2,1.8-22.5,12.1-23.8,24C-63.9-18-54.7-6.5-43.6-5.1
			c11.2,1.6,21.8-8.8,20-19c-0.8-5-4.2-9.2-8.5-11.1c-4.3-1.9-9.4-0.9-12.5,2.1c-3.2,3-4.4,7.6-2.7,11.2c1.5,3.6,5.4,5.8,8.8,5.2
			c3.4-0.6,6-3.7,5.8-6.7c-0.1-3-2.7-5.4-5.1-5.4c-1.6,0-3.4,1-4.1,2.6L-42.8-26.6z"/>
		<path fill="#221F20" d="M-27.3-56.5c0-0.1-1-0.1-2.6-0.9c-1.5-0.6-4-2.4-3.9-5.5c0.1-3.3,4.3-5.4,8.1-4.2c3.8,1,6.7,4.5,9.1,8
			c2.5,3.1,4.7,8.6,9.9,8.2c5-1.1,6-6.9,5.6-10.7c-0.4-4.1-2.3-7.7-5-9.7c-2.7-2-5.7-2.3-7.6-2.2c-2,0-4.6,1-7.6,1.8
			c-2.7,0.5-7.5,1.2-9.2-2.1c-0.5-1.8,1.8-3,3.7-3c2-0.2,4.2,0.4,6.2,1c2.1,0.6,3.9,1.9,6.2,2.4c2.2,0.6,4.9,0,6.2-2
			c2.3-4.5-1.6-8.6-4.3-11c-3-2.4-5.6-5.4-5.3-8.5c0.3-3.1,2.9-4.7,4.5-4.9c1.8-0.3,2.5,0.7,2.5,0.6c0,0.1-0.7-0.9-2.5-0.6
			c-1.6,0.2-4.3,1.8-4.7,4.9c-0.4,3.2,2.3,6.3,5.3,8.7c2.7,2.3,6.3,6.6,4,10.5c-1.2,1.8-3.7,2.2-5.7,1.6c-2.1-0.5-4-1.8-6.1-2.5
			c-2.1-0.7-4.3-1.3-6.5-1.1c-2,0-5.1,1.4-4.3,4.1c2.5,4.2,7.4,3.1,10.3,2.7c3.2-0.8,5.6-1.7,7.5-1.7c1.8-0.1,4.5,0.1,7,2
			c2.4,1.8,4.3,5.2,4.7,9.1c0.4,3.6-0.6,9-5,9.9c-4.4,0.4-6.9-4.7-9.4-7.9c-2.5-3.5-5.4-7.1-9.4-8c-3.8-1.2-8.2,1.1-8.3,4.5
			c-0.1,3.3,2.5,5,4,5.6C-28.3-56.7-27.3-56.6-27.3-56.5L-27.3-56.5z"/>
		<path fill="#221F20" d="M-54.6-64.8c0,0.3,2.3-2.8,6.9-1.6c2.1,0.6,4.1,3.3,3.2,6.2c-0.9,2.8-3.6,4.7-6.4,6.4
			c-5.4,3.7-10.1,9-12.9,14.3c-2.8,5.4-3.3,10.7-3,13.6c0.1,2.9,1.2,8.1,4.7,13.1c3.5,4.9,9.5,9.1,15.9,10.6
			c6.4,1.6,12.9,0,16.6-2.5c3.8-2.5,5.4-5,5.5-4.9c-0.1-0.1-1.7,2.4-5.6,4.8C-33.5-2.4-39.9-1-46.2-2.7c-6.3-1.6-12.1-5.8-15.3-10.7
			c-3.3-4.9-4.3-9.9-4.4-12.7c-0.2-2.8,0.2-7.9,2.8-13.1c2.6-5.3,7.2-10.5,12.5-14.3c2.6-1.8,5.5-3.8,6.4-6.7c1-3-1.2-5.8-3.4-6.4
			C-52.4-67.6-54.6-64.4-54.6-64.8L-54.6-64.8z"/>
		<path fill="#221F20" d="M-21.1-8c0.3-0.4-6.1,10.4-22.7,11.4c-8.1,0.7-17.3-1.8-27.5-3.8c-10.1-2-21.2-4-32.8-4.7
			c-11.5-0.7-23.6-0.1-34.7,3.7c-11.1,3.6-20.6,11.1-26.3,20.2c-5.9,8.9-8.1,19.2-6.7,27.5c1.3,8.4,5.4,14.7,8.8,18.4
			c3.4,3.8,9.2,8.4,17.4,10.7c8.1,2.3,18.7,1.5,27.9-4c4.5-2.8,8.9-6.3,12.1-11c1.6-2.3,2.8-5.2,2.6-8.2c-0.2-3-2.4-5.7-5.2-6.8
			c-5.6-2.4-12.1-0.6-16.9,2.7c-5.1,3.3-7.6,9-12.2,12.4c-18.4,14.2-41.8,16.1-57.4,15.1c-16.1-1.2-25.3-6.7-25.2-6.6
			c0-0.2,9.1,5.4,25.3,6.7c15.6,1.1,39.1-0.6,57.8-14.9c4.7-3.5,7.3-9.2,12.3-12.3c4.7-3.2,11.1-4.8,16.3-2.4
			c2.6,1.1,4.5,3.6,4.6,6.4c0.1,2.8-1,5.4-2.6,7.7c-3.2,4.5-7.5,8.1-12,10.7c-9,5.4-19.4,6.1-27.3,3.7c-8-2.3-13.6-6.9-16.8-10.6
			c-3.3-3.6-7.3-9.7-8.5-17.9c-1.3-8.2,0.8-18.2,6.6-26.9c5.6-8.9,14.9-16.2,25.9-19.9c10.9-3.8,23-4.4,34.4-3.8
			C-92.4-4-81.4-2-71.2-0.1c10.1,1.9,19.4,4.4,27.5,3.7C-27,2.4-20.7-8.4-21.1-8L-21.1-8z"/>
		<path fill="#221F20" d="M-153.9,74.3l-0.7,0.3c-6,2.9-22.6,8-38.1,6.9c-15.5-0.6-27.7-7.8-27.6-7.7c-0.1-0.1,12.1,6.9,27.5,7.3
			c15.3,0.9,31.7-4.5,37.6-7.3l0.8-0.4L-153.9,74.3z"/>
		<path fill="#221F20" d="M-24.2-9.6c0-0.2-3.1,6.1-12.4,9.4c-9.4,3.7-22.9-0.5-34.4-8.2c-12.3-6.6-26.9-10.1-39.6-10.9
			c-12.8-0.9-23.6,0.9-29.5,2.6c-5.7,1.6-16.8,4.9-25.5,14.6c-3.6,4.9-9,11-16,9.5c-3.5-0.6-5.1-5.1-2.5-7.7c2.3-2.6,5.7-3.9,9-4.8
			c13.6-2.4,26.4-7.1,33.3-14.1c7.4-6.7,7.1-13.9,7.1-13.7c0.1-0.2,0.3,7-7.2,13.6c-7,6.9-19.8,11.4-33.4,13.7
			c-3.3,0.9-6.8,2.2-9.3,5c-1.2,1.4-1.9,3.4-1.2,5.2c0.7,1.8,2.4,3,4.1,3.4c7.6,1.5,13.2-5,16.8-9.7c8.6-9.4,19.5-12.6,25.2-14.2
			c5.8-1.6,16.5-3.4,29.1-2.7c12.6,0.7,27.1,4,39.4,10.5c11.5,7.6,25.3,11.8,34.6,7.9C-27.2-3.5-24.2-9.9-24.2-9.6L-24.2-9.6z"/>
		<path fill="#221F20" d="M-58.8-32.5c-1.9,6.7,0,14.3,4.6,18.8c4.3,4.6,9.7,6,12.6,6.1l0,0.9l0,0c-3.1,0-8.8-1.6-13.2-6.5
			c-2.1-2.4-4-5.4-4.8-8.9c-0.9-3.5-0.4-7.1,0.4-10.5c1.7-6.8,6-12.3,10.1-14.9c4.1-2.7,7.3-3,7.2-3c0.1,0.1-3.2,0.4-7.2,3.2
			C-53.1-44.7-57.3-39.2-58.8-32.5z"/>
		<path fill="#221F20" d="M-27.9-50.5c0,0.1,2.8,0.4,6.5,2.7c3.7,2.3,7.7,6.9,9.6,12.8c4.3,12.2-2.1,25.8-4.9,30.1
			c-1.4,2.3-4.1,6.3-8.3,10.1c-2,2-4.6,3.6-6.9,5.9c-2.2,2.3-3.3,5.9-2.2,9c2.1,6.5,10.1,8,13.6,5.3c3.7-2.4,4.6-5.4,4.7-5.3
			c-0.1-0.1-1.1,2.8-4.8,5.1c-3.5,2.6-11.2,0.9-13.1-5.3c-1-2.9,0.1-6.3,2.3-8.4c2.2-2.1,4.9-3.7,7-5.7C-20.1,2-17.3-2-15.9-4.4
			c2.9-4.3,9.1-18.4,4.5-30.7c-2.1-6-6.3-10.6-10-12.8C-25.1-50.2-28-50.4-27.9-50.5L-27.9-50.5z"/>
		<path fill="#221F20" d="M-51.4-41.1c-4.2,4.7-5.2,11.9-5.1,14.5l0,0l-0.8,0l0,0c-0.1-2.7,1.1-10.1,5.6-14.8c4.2-5,10.1-5.9,10-5.9
			C-41.6-47.3-47.4-46.1-51.4-41.1z"/>
		<path fill="#221F20" d="M-151.4,75.9l-0.4,0.3c-3.5,2.1-12.9,6.4-21.9,8.2c-9,2-17.3,1.3-17.2,1.4c0-0.1,8.2,0.4,17.1-1.9
			c8.9-2,18.1-6.4,21.5-8.5l0.5-0.3L-151.4,75.9z"/>
		<path fill="#221F20" d="M-34-78.9c-0.4,0,1.4-3.7,6.8-3.6c5.3-0.6,10.8,4.4,17.9,6.2c3.4,1.1,7.2,2,10.9,1.8
			c1.8-0.1,3.7-0.2,5.4-1.3c1.3-0.7,0.3-2.5-0.6-2.5c-0.9-0.4-1.7-0.5-2.5-0.6c-6.8-1.4-12.5,2.2-14.2,5c-2,2.5-4.2,8.5-2.2,15.1
			c1.9,6.4,5.4,13.2,7.1,20.2c4.2,14.4-2.7,26.7-2.6,26.5c-0.2,0.3,7.1-12,3-26.6c-1.6-7.1-5-14.1-6.8-20.4
			c-1.8-6.4,0.4-12,2.3-14.3c1.6-2.6,6.7-5.9,13.3-4.7c1.2,0.1,4.2,0.8,2.8,1.8c-1.4,0.8-3.2,1.1-5,1.2c-3.6,0.2-7.2-0.6-10.7-1.6
			c-7-1.7-12.7-6.6-18-5.9C-32.6-82.6-34.4-78.9-34-78.9L-34-78.9z"/>
		<path fill="#221F20" d="M-21.1-8c0.1-0.2-3,7.1-13.2,11.6c-10.3,5.1-25.6,1.8-41-0.5c-15.6-2.3-32.3-4.1-46.7-2.5
			c-14.5,1.2-26,7.2-31,12.1c-4.9,4.5-14,14.9-13.4,30c0.7,15.1,14,28.6,28.2,34.9c7.2,3.3,14.8,5.2,21.9,5c1.7-0.1,3.7-0.3,4.7-1.9
			c0.8-2-1.6-3.1-3-3.3c-3.3-0.8-6.3,1.2-7.6,3.6c-3.1,5.4,1.7,9.8,4.2,10.9c2.7,1.6,4.5,1.9,4.4,2c0-0.1-1.7-0.5-4.4-2.1
			c-2.4-1.2-7.1-5.6-4-10.8c1.4-2.3,4.3-4.2,7.5-3.4c1.4,0.2,3.5,1.4,2.7,3c-0.9,1.4-2.9,1.6-4.6,1.7c-7,0.1-14.6-1.8-21.7-5.2
			c-14.1-6.4-27.1-19.9-27.6-34.6C-166,28-157,17.8-152.3,13.4c4.9-4.7,16.1-10.6,30.5-11.9c14.3-1.6,31,0,46.5,2.2
			C-59.9,5.8-44.5,9-34.2,3.8C-24-0.8-21-8.2-21.1-8L-21.1-8z"/>
		<path fill="#221F20" d="M-47.5,9.6c0,0-5.1,2-12.7,5.7c-7.5,3.9-17.9,9.6-26.1,18.8c-8.6,8.9-12.2,23.2-7.8,34
			c4,10.8,12.5,16.8,17.2,19.2c4.7,2.6,14.1,6.1,25.4,4.7c5.6-0.7,11.5-2.5,16.9-5.5c2.7-1.6,5.4-3.1,7.7-5.3c2.3-2,3.4-6.4,0.3-8.4
			c-2.9-2-6.5,0.1-7.9,2.6c-1.7,2.4-2.8,5.1-4.2,7.4c-2.7,4.8-6.3,8.4-9.8,10.8c-7.1,4.7-12.5,6-12.4,6.2c-0.1-0.2,5.4-1.4,12.5-6.1
			c3.5-2.4,7.2-6,10-10.8c1.4-2.4,2.6-5,4.3-7.4c1.5-2.4,4.8-4.2,7.4-2.4c2.6,1.9,1.7,5.7-0.6,7.7c-2.3,2-5,3.6-7.6,5.1
			c-5.4,2.9-11.2,4.7-16.7,5.3c-11.1,1.3-20.4-2.2-24.9-4.8c-4.5-2.4-12.9-8.2-16.8-18.7c-4.4-10.4-1-24.4,7.5-33.3
			C-69.1,16.4-47,10.1-47.5,9.6L-47.5,9.6z"/>
		<path fill="#221F20" d="M-153.9,23.9c0.1-0.2-6.8,8.5-5.8,20.3c0.8,11.9,10.7,21.8,15.3,23.8c2.2,1.2,6.5,2.9,11.8,2.9
			c5.3,0.1,11.3-1.3,16.4-4c5.1-2.6,9.2-6.5,10.7-10.2c1.6-3.8,0.2-6.4,0.4-6.4c-0.1-0.1,1.2,2.6-0.5,6.3c-1.6,3.6-5.8,7.4-10.8,9.9
			c-5.1,2.5-11,3.8-16.2,3.6c-5.2-0.2-9.3-1.8-11.4-3c-4.3-1.9-14.2-11.4-15.2-23C-160.4,32.6-153.8,23.7-153.9,23.9L-153.9,23.9z"
			/>
		<path fill="#221F20" d="M-41.9-26.2C-41.9-26.2-41.9-26.2-41.9-26.2c-0.1,0.2-0.4,0.3-0.6,0.2c-0.2-0.1-0.3-0.4-0.2-0.6
			c0,0,0,0,0,0L-41.9-26.2z"/>
		<path fill="#221F20" d="M-151.9,75.1C-151.9,75.1-151.9,75.1-151.9,75.1c0.2-0.1,0.5-0.1,0.6,0.2c0.1,0.2,0.1,0.5-0.2,0.6
			c0,0,0,0,0,0L-151.9,75.1z"/>
		<path fill="#221F20" d="M-154.4,73.5C-154.4,73.5-154.4,73.5-154.4,73.5c0.2-0.1,0.5,0,0.6,0.2c0.1,0.2,0,0.5-0.2,0.6c0,0,0,0,0,0
			L-154.4,73.5z"/>
		<path fill="#221F20" d="M-56.5-26.6C-56.5-26.6-56.5-26.6-56.5-26.6c0,0.2-0.2,0.4-0.4,0.4c-0.2,0-0.4-0.2-0.4-0.4c0,0,0,0,0,0
			L-56.5-26.6z"/>
		<path fill="#221F20" d="M-41.6-7.6C-41.6-7.6-41.6-7.6-41.6-7.6c0.3,0,0.5,0.2,0.5,0.5s-0.2,0.5-0.5,0.5c0,0,0,0,0,0L-41.6-7.6z"
			/>
	</g>
	<g>
		<path fill="#221F20" d="M42.8-26.6c-0.8-1.8-2.7-3-4.4-3.1c-3-0.3-6.2,2.2-6.6,5.7c-0.5,3.5,2.3,7.2,6.1,8c3.8,1,8.3-1.3,10.1-5.2
			c2.1-3.9,0.9-9.1-2.4-12.3c-3.3-3.3-8.7-4.6-13.4-2.7c-4.7,1.8-8.4,6.2-9.3,11.5C20.6-13.9,31.6-2.9,43.3-4.3
			c11.7-1.1,21.2-13,20-25.3C62.1-42,51.5-52.5,39.1-54.5c-12.2-2.1-26.6,4.3-30.7,16.7c-4,12.3,1.1,25.7,9.2,34.9
			c9.3,8.6,21.7,11.5,32.2,16.7c10.8,4.9,20.7,11.1,28.7,18.7c9,6.8,12.8,18.4,9.9,28c-2.5,9.7-9.6,17-17,21.2
			c-15.4,8.9-31.3,3.5-38.6-2.5c-7.8-6-10.4-11.2-10.6-11c0.2-0.2,2.8,4.9,10.5,11c7.2,6.1,23.1,11.6,38.6,2.7
			c7.4-4.2,14.5-11.4,17.2-21.2c2.9-9.6-0.9-21.6-9.8-28.3c-8-7.7-17.9-13.9-28.7-18.9C39.6,8.3,27.2,5.3,18-3.1
			c-8-9-13-22.2-9.2-34.3C12.7-49.5,26.7-56,38.7-53.9c12.2,1.8,22.5,12.1,23.8,24C63.9-18,54.7-6.5,43.6-5.1
			c-11.2,1.6-21.8-8.8-20-19c0.8-5,4.2-9.2,8.5-11.1c4.3-1.9,9.4-0.9,12.5,2.1c3.2,3,4.4,7.6,2.7,11.2c-1.5,3.6-5.4,5.8-8.8,5.2
			c-3.4-0.6-6-3.7-5.8-6.7c0.1-3,2.7-5.4,5.1-5.4c1.6,0,3.4,1,4.1,2.6L42.8-26.6z"/>
		<path fill="#221F20" d="M27.3-56.5c0-0.1,1-0.1,2.6-0.9c1.5-0.6,4-2.4,3.9-5.5c-0.1-3.3-4.3-5.4-8.1-4.2c-3.8,1-6.7,4.5-9.1,8
			c-2.5,3.1-4.7,8.6-9.9,8.2c-5-1.1-6-6.9-5.6-10.7c0.4-4.1,2.3-7.7,5-9.7c2.7-2,5.7-2.3,7.6-2.2c2,0,4.6,1,7.6,1.8
			c2.7,0.5,7.5,1.2,9.2-2.1c0.5-1.8-1.8-3-3.7-3c-2-0.2-4.2,0.4-6.2,1c-2.1,0.6-3.9,1.9-6.2,2.4c-2.2,0.6-4.9,0-6.2-2
			c-2.3-4.5,1.6-8.6,4.3-11c3-2.4,5.6-5.4,5.3-8.5c-0.3-3.1-2.9-4.7-4.5-4.9c-1.8-0.3-2.5,0.7-2.5,0.6c0,0.1,0.7-0.9,2.5-0.6
			c1.6,0.2,4.3,1.8,4.7,4.9c0.4,3.2-2.3,6.3-5.3,8.7c-2.7,2.3-6.3,6.6-4,10.5c1.2,1.8,3.7,2.2,5.7,1.6c2.1-0.5,4-1.8,6.1-2.5
			c2.1-0.7,4.3-1.3,6.5-1.1c2,0,5.1,1.4,4.3,4.1c-2.5,4.2-7.4,3.1-10.3,2.7c-3.2-0.8-5.6-1.7-7.5-1.7c-1.8-0.1-4.5,0.1-7,2
			c-2.4,1.8-4.3,5.2-4.7,9.1c-0.4,3.6,0.6,9,5,9.9c4.4,0.4,6.9-4.7,9.4-7.9c2.5-3.5,5.4-7.1,9.4-8c3.8-1.2,8.2,1.1,8.3,4.5
			c0.1,3.3-2.5,5-4,5.6C28.3-56.7,27.3-56.6,27.3-56.5L27.3-56.5z"/>
		<path fill="#221F20" d="M54.6-64.8c0,0.3-2.3-2.8-6.9-1.6c-2.1,0.6-4.1,3.3-3.2,6.2c0.9,2.8,3.6,4.7,6.4,6.4
			c5.4,3.7,10.1,9,12.9,14.3c2.8,5.4,3.3,10.7,3,13.6c-0.1,2.9-1.2,8.1-4.7,13.1c-3.5,4.9-9.5,9.1-15.9,10.6
			c-6.4,1.6-12.9,0-16.6-2.5c-3.8-2.5-5.4-5-5.5-4.9c0.1-0.1,1.7,2.4,5.6,4.8C33.5-2.4,39.9-1,46.2-2.7c6.3-1.6,12.1-5.8,15.3-10.7
			c3.3-4.9,4.3-9.9,4.4-12.7c0.2-2.8-0.2-7.9-2.8-13.1c-2.6-5.3-7.2-10.5-12.5-14.3c-2.6-1.8-5.5-3.8-6.4-6.7c-1-3,1.2-5.8,3.4-6.4
			C52.4-67.6,54.6-64.4,54.6-64.8L54.6-64.8z"/>
		<path fill="#221F20" d="M21.1-8C20.7-8.4,27.1,2.4,43.8,3.4c8.1,0.7,17.3-1.8,27.5-3.8c10.1-2,21.2-4,32.8-4.7
			c11.5-0.7,23.6-0.1,34.7,3.7c11.1,3.6,20.6,11.1,26.3,20.2c5.9,8.9,8.1,19.2,6.7,27.5c-1.3,8.4-5.4,14.7-8.8,18.4
			c-3.4,3.8-9.2,8.4-17.4,10.7c-8.1,2.3-18.7,1.5-27.9-4c-4.5-2.8-8.9-6.3-12.1-11c-1.6-2.3-2.8-5.2-2.5-8.2c0.2-3,2.4-5.7,5.2-6.8
			c5.6-2.4,12.1-0.6,16.9,2.7c5.1,3.3,7.6,9,12.2,12.4c18.4,14.2,41.8,16.1,57.4,15.1c16.1-1.2,25.3-6.7,25.2-6.6
			c0-0.2-9.1,5.4-25.3,6.7c-15.6,1.1-39.1-0.6-57.8-14.9c-4.7-3.5-7.3-9.2-12.3-12.3c-4.7-3.2-11.1-4.8-16.3-2.4
			c-2.6,1.1-4.5,3.6-4.6,6.4c-0.1,2.8,1,5.4,2.6,7.7c3.2,4.5,7.5,8.1,12,10.7c9,5.4,19.4,6.1,27.3,3.7c8-2.3,13.6-6.9,16.8-10.6
			c3.3-3.6,7.3-9.7,8.5-17.9c1.3-8.2-0.8-18.2-6.6-26.9c-5.6-8.9-14.9-16.2-25.9-19.9c-10.9-3.8-23-4.4-34.4-3.8
			C92.4-4,81.4-2,71.2-0.1C61.1,1.8,51.8,4.3,43.7,3.6C27,2.4,20.7-8.4,21.1-8L21.1-8z"/>
		<path fill="#221F20" d="M153.9,74.3l0.7,0.3c6,2.9,22.6,8,38.1,6.9c15.5-0.6,27.7-7.8,27.5-7.7c0.1-0.1-12.1,6.9-27.5,7.3
			c-15.3,0.9-31.7-4.5-37.6-7.3l-0.8-0.4L153.9,74.3z"/>
		<path fill="#221F20" d="M24.2-9.6c0-0.2,3.1,6.1,12.4,9.4c9.4,3.7,22.9-0.5,34.4-8.2c12.3-6.6,26.9-10.1,39.6-10.9
			c12.8-0.9,23.6,0.9,29.5,2.6c5.7,1.6,16.8,4.9,25.5,14.6c3.6,4.9,9,11,16,9.5c3.5-0.6,5.1-5.1,2.5-7.7c-2.3-2.6-5.7-3.9-9-4.8
			c-13.6-2.4-26.4-7.1-33.3-14.1c-7.4-6.7-7.1-13.9-7.1-13.7c-0.1-0.2-0.3,7,7.2,13.6c7,6.9,19.8,11.4,33.4,13.7
			c3.3,0.9,6.8,2.2,9.3,5c1.2,1.4,1.9,3.4,1.2,5.2c-0.7,1.8-2.4,3-4.1,3.4c-7.6,1.5-13.2-5-16.8-9.7c-8.6-9.4-19.5-12.6-25.2-14.2
			c-5.8-1.6-16.5-3.4-29.1-2.7c-12.6,0.7-27.1,4-39.4,10.5C59.6-0.4,45.8,3.8,36.5-0.1C27.2-3.5,24.2-9.9,24.2-9.6L24.2-9.6z"/>
		<path fill="#221F20" d="M58.8-32.5c1.9,6.7,0,14.3-4.6,18.8c-4.3,4.6-9.7,6-12.6,6.1l0,0.9l0,0c3.1,0,8.8-1.6,13.2-6.5
			c2.1-2.4,4-5.4,4.8-8.9c0.8-3.5,0.4-7.1-0.4-10.5c-1.7-6.8-6-12.3-10.1-14.9c-4.1-2.7-7.3-3-7.2-3c-0.1,0.1,3.2,0.4,7.2,3.2
			C53.1-44.7,57.3-39.2,58.8-32.5z"/>
		<path fill="#221F20" d="M27.9-50.5c0,0.1-2.8,0.4-6.5,2.7c-3.7,2.3-7.7,6.9-9.7,12.8C7.5-22.7,13.8-9.1,16.7-4.8
			c1.4,2.3,4.1,6.3,8.3,10.1c2,2,4.6,3.6,6.9,5.9c2.2,2.3,3.3,5.9,2.2,9c-2.1,6.5-10.1,8-13.6,5.3c-3.7-2.4-4.6-5.4-4.7-5.3
			c0.1-0.1,1.1,2.8,4.8,5.1c3.5,2.6,11.2,0.9,13.1-5.3c1-2.9-0.1-6.3-2.3-8.4c-2.2-2.1-4.9-3.7-7-5.7C20.1,2,17.3-2,15.9-4.4
			c-2.9-4.3-9.1-18.4-4.5-30.7c2.1-6,6.3-10.6,10-12.8C25.1-50.2,28-50.4,27.9-50.5L27.9-50.5z"/>
		<path fill="#221F20" d="M51.4-41.1c4.2,4.7,5.2,11.9,5.1,14.5l0,0l0.8,0l0,0c0.1-2.7-1.1-10.1-5.6-14.8c-4.2-5-10.1-5.9-10-5.9
			C41.6-47.3,47.4-46.1,51.4-41.1z"/>
		<path fill="#221F20" d="M151.4,75.9l0.4,0.3c3.5,2.1,12.9,6.4,21.9,8.2c9,2,17.3,1.3,17.2,1.4c0-0.1-8.2,0.4-17.1-1.9
			c-8.9-2-18.1-6.4-21.5-8.5l-0.5-0.3L151.4,75.9z"/>
		<path fill="#221F20" d="M34-78.9c0.4,0-1.4-3.7-6.8-3.6c-5.3-0.6-10.8,4.4-17.9,6.2c-3.4,1.1-7.2,2-10.9,1.8
			c-1.8-0.1-3.7-0.2-5.4-1.3c-1.3-0.7-0.3-2.5,0.6-2.5c0.9-0.4,1.7-0.5,2.5-0.6c6.8-1.4,12.5,2.2,14.2,5c2,2.5,4.2,8.5,2.2,15.1
			c-1.9,6.4-5.4,13.2-7.1,20.2C1.3-24.2,8.3-11.8,8.2-12.1c0.2,0.3-7.1-12-3-26.6c1.6-7.1,5-14.1,6.8-20.4c1.8-6.4-0.4-12-2.3-14.3
			C8.1-75.9,3-79.2-3.7-78.1c-1.2,0.1-4.2,0.8-2.8,1.8c1.4,0.8,3.2,1.1,5,1.2c3.6,0.2,7.2-0.6,10.7-1.6c7-1.7,12.7-6.6,18-5.9
			C32.6-82.6,34.4-78.9,34-78.9L34-78.9z"/>
		<path fill="#221F20" d="M21.1-8C21-8.2,24-0.8,34.3,3.7c10.3,5.1,25.6,1.8,41-0.5c15.6-2.3,32.3-4.1,46.7-2.5
			c14.5,1.2,26,7.2,31,12.1c4.9,4.5,14,14.9,13.4,30c-0.7,15.1-14,28.6-28.2,34.9c-7.2,3.3-14.8,5.2-21.9,5
			c-1.7-0.1-3.7-0.3-4.7-1.9c-0.8-2,1.6-3.1,3-3.3c3.3-0.8,6.3,1.2,7.6,3.6c3.1,5.4-1.7,9.8-4.2,10.9c-2.7,1.6-4.5,1.9-4.4,2
			c0-0.1,1.7-0.5,4.4-2.1c2.4-1.2,7.1-5.6,4-10.8c-1.4-2.3-4.3-4.2-7.5-3.4c-1.4,0.2-3.5,1.4-2.7,3c0.9,1.4,2.9,1.6,4.6,1.7
			c7,0.1,14.6-1.8,21.7-5.2c14.1-6.4,27.1-19.9,27.6-34.6C166,28,157,17.8,152.3,13.4c-4.9-4.7-16-10.6-30.5-11.9
			c-14.3-1.6-31,0-46.5,2.2C59.9,5.8,44.5,9,34.2,3.8C24-0.8,21-8.2,21.1-8L21.1-8z"/>
		<path fill="#221F20" d="M47.5,9.6c0,0,5.1,2,12.7,5.7c7.5,3.9,17.9,9.6,26.1,18.8c8.6,8.9,12.2,23.2,7.8,34
			C90.2,79,81.7,84.9,77,87.4C72.4,90,62.9,93.5,51.6,92c-5.6-0.7-11.5-2.5-16.9-5.5c-2.7-1.6-5.4-3.1-7.7-5.3
			c-2.3-2-3.4-6.4-0.3-8.4c2.9-2,6.5,0.1,7.9,2.6c1.7,2.4,2.8,5.1,4.2,7.4c2.7,4.8,6.3,8.4,9.8,10.8c7.1,4.7,12.5,6,12.4,6.2
			c0.1-0.2-5.4-1.4-12.5-6.1c-3.5-2.4-7.2-6-10-10.8c-1.4-2.4-2.6-5-4.3-7.4c-1.5-2.4-4.8-4.2-7.4-2.4c-2.6,1.9-1.7,5.7,0.6,7.7
			c2.3,2,5,3.6,7.6,5.1c5.4,2.9,11.2,4.7,16.7,5.3c11.1,1.3,20.4-2.2,24.9-4.8c4.5-2.4,12.9-8.2,16.8-18.7c4.4-10.4,1-24.4-7.5-33.3
			C69.1,16.4,47,10.1,47.5,9.6L47.5,9.6z"/>
		<path fill="#221F20" d="M153.9,23.9c-0.1-0.2,6.8,8.5,5.8,20.3c-0.8,11.9-10.7,21.8-15.3,23.8c-2.2,1.2-6.5,2.9-11.8,2.9
			c-5.3,0.1-11.3-1.3-16.4-4c-5.1-2.6-9.2-6.5-10.7-10.2c-1.6-3.8-0.2-6.4-0.4-6.4c0.1-0.1-1.2,2.6,0.5,6.3
			c1.6,3.6,5.8,7.4,10.8,9.9c5.1,2.5,11,3.8,16.2,3.6c5.2-0.2,9.3-1.8,11.4-3c4.3-1.9,14.2-11.4,15.2-23
			C160.4,32.6,153.8,23.7,153.9,23.9L153.9,23.9z"/>
		<path fill="#221F20" d="M41.9-26.2C41.9-26.2,41.9-26.2,41.9-26.2c0.1,0.2,0.4,0.3,0.6,0.2c0.2-0.1,0.3-0.4,0.2-0.6c0,0,0,0,0,0
			L41.9-26.2z"/>
		<path fill="#221F20" d="M151.9,75.1C151.9,75.1,151.9,75.1,151.9,75.1c-0.2-0.1-0.5-0.1-0.6,0.2c-0.1,0.2-0.1,0.5,0.2,0.6
			c0,0,0,0,0,0L151.9,75.1z"/>
		<path fill="#221F20" d="M154.4,73.5C154.4,73.5,154.4,73.5,154.4,73.5c-0.2-0.1-0.5,0-0.6,0.2c-0.1,0.2,0,0.5,0.2,0.6c0,0,0,0,0,0
			L154.4,73.5z"/>
		<path fill="#221F20" d="M56.5-26.6C56.5-26.6,56.5-26.6,56.5-26.6c0,0.2,0.2,0.4,0.4,0.4c0.2,0,0.4-0.2,0.4-0.4c0,0,0,0,0,0
			L56.5-26.6z"/>
		<path fill="#221F20" d="M41.6-7.6C41.6-7.6,41.6-7.6,41.6-7.6c-0.3,0-0.5,0.2-0.5,0.5s0.2,0.5,0.5,0.5c0,0,0,0,0,0L41.6-7.6z"/>
	</g>
</symbol>
<use xlink:href="#明るいベクトルパック_18"  width="440.6" height="199.6" x="-220.3" y="-99.8" transform="matrix(0.1339 0 0 -0.1339 30.0395 30.6157)" overflow="visible"/>
</svg>
